<svg width="724" height="668" viewBox="0 0 724 668" fill="none" xmlns="http://www.w3.org/2000/svg">
<path d="M687.902 296.705C684.696 227.582 659.266 149.899 599.819 85.1265C588.889 73.2204 565.69 61.3142 583.563 43.5247C602.496 24.6477 618.389 48.4043 630.072 59.5297C698.805 124.888 715.73 212.692 721.78 300.692C742.191 598.039 405.919 729.397 201.284 637.187C-44.34 526.491 -50.6695 234.274 119.809 73.6386C176.942 19.796 252.951 17.9279 325.894 5.35252C469.158 -19.3242 619.309 136.069 622.404 265.364C625.249 385.039 525.901 538.787 379.737 546.371C274.645 551.837 191.999 526.323 134.698 435.424C88.2449 361.756 100.848 284.436 129.847 211.103C160.797 132.807 226.741 100.407 309.75 102.414C353.331 103.446 395.992 108.437 436.116 127.955C508.557 163.2 537.723 220.305 517.312 298.489C479.447 443.482 355.339 479.145 259.03 426.39C208.422 398.674 179.2 324.811 190.632 264.249C200.252 213.222 241.854 177.476 304.284 166.601C354.419 157.874 412.165 184.447 439.379 225.909C462.996 261.878 455.44 295.812 433.495 326.791C411.245 358.187 377.115 372.938 338.971 369.341C309.694 366.58 294.386 342.21 288.056 316.53C280.807 287.169 301.663 267.985 322.353 251.311C328.933 246.013 338.135 242.751 346.026 250.363C353.749 257.835 349.901 266.423 346.974 274.538C340.087 293.638 309.052 312.291 342.457 332.507C363.592 345.305 385.257 335.323 402.35 320.629C425.521 300.692 425.632 275.541 412.416 249.972C386.15 199.113 338.135 184.837 279.022 209.681C231.955 229.45 208.031 277.883 227.912 327.711C243.945 367.891 267.729 406.537 316.776 414.734C376.586 424.717 427.138 406.063 459.985 354.702C486.613 313.044 506.577 267.678 477.886 217.098C467.513 198.807 454.073 183.471 435.782 174.353C377.422 145.326 315.633 136.711 251.027 146.135C196.571 154.082 173.568 196.241 157.814 239.154C102.103 390.671 227.996 532.235 352.885 514.835C491.716 495.512 577.875 422.207 587.55 282.902C593.071 203.184 545.53 146.637 495.619 90.3686C433.049 19.8518 353.861 38.7845 277.935 43.0786C45.2489 56.2673 -7.14371 345.528 80.4655 489.545C167.405 632.503 390.75 674.746 535.604 587.164C642.034 522.81 685.393 432.05 687.902 296.705Z" fill="#3C0D20"/>
<path d="M689.296 296.733C689.185 291.769 688.822 294.558 688.348 308.248L688.655 318.008L689.296 296.705V296.733Z" fill="#3C0D20"/>
<path d="M678.478 388.19C676.972 396.081 674.964 404.529 674.016 409.827C672.873 415.069 672.427 417.077 674.323 412.169C677.474 396.471 679.007 392.818 681.182 375.726C682.521 369.006 683.246 363.067 683.859 359.108C684.473 355.176 684.863 353.224 684.835 354.395C684.974 351.97 685.95 346.727 686.313 341.067C686.787 335.435 687.233 329.496 687.317 325.815C686.257 334.682 685.616 344.776 683.971 355.483C683.636 358.16 683.274 360.892 682.911 363.653C682.604 366.413 682.214 369.229 681.684 372.045C680.736 377.678 679.76 383.45 678.756 389.249C677.53 394.157 678.45 389.333 678.478 388.162V388.19Z" fill="#3C0D20"/>
<path d="M272.832 44.5566L264.272 45.2816C266.614 45.0864 269.542 44.8355 272.832 44.5566Z" fill="#3C0D20"/>
<path d="M344.213 514.389C350.431 513.748 353.024 513.469 353.331 513.302C347.559 513.999 342.819 514.473 344.213 514.389Z" fill="#3C0D20"/>
<path d="M216.034 467.796C218.292 469.776 220.216 471.421 222.28 473.206C219.938 471.115 217.54 469.023 216.034 467.796Z" fill="#3C0D20"/>
<path d="M272.832 44.5566C276.485 44.1941 280.165 43.9708 283.874 43.8035L294.943 43.1064C295.696 42.9391 292.88 43.1064 288.502 43.4132C284.124 43.7478 278.185 43.9429 272.832 44.5285L272.832 44.5566Z" fill="#3C0D20"/>
<path d="M591.565 548.017C594.883 544.727 597.644 541.994 600.153 539.512C597.421 542.189 594.744 544.754 592.011 547.431C591.9 547.598 591.788 547.738 591.565 548.017Z" fill="#3C0D20"/>
<path d="M44.6913 288.005C44.4124 290.236 44.2451 292.466 44.0221 294.669C43.9384 296.649 43.8548 298.489 43.7711 300.246L44.6634 288.005H44.6913Z" fill="#3C0D20"/>
<path d="M126.947 543.583C122.402 539.206 120.311 538.23 118.498 536.612C121.147 539.01 124.716 542.05 128.732 545.842C128.871 545.842 128.369 545.173 126.947 543.583Z" fill="#3C0D20"/>
<path d="M539.758 583.763L546.339 579.441C544.638 580.556 541.738 582.48 539.758 583.763Z" fill="#3C0D20"/>
<path d="M126.417 109.859C126.835 109.608 127.616 108.967 128.424 108.27C128.369 108.214 127.588 108.855 126.417 109.859Z" fill="#3C0D20"/>
<path d="M615.489 48.5995C615.684 48.711 615.489 48.488 615.545 48.5158C614.346 47.4842 613.955 47.2053 615.489 48.5995Z" fill="#3C0D20"/>
<path d="M687.735 296.705L687.4 292.216C687.261 291.742 687.121 291.268 687.01 291.268L687.735 296.705Z" fill="#3C0D20"/>
<path d="M162.833 233.8C162.638 234.274 162.582 234.414 162.415 234.86C160.072 241.217 161.411 237.62 162.833 233.8Z" fill="#3C0D20"/>
<path d="M365.962 450.732C359.158 451.345 358.489 451.122 360.748 450.899C362.978 450.76 368.053 449.923 372.682 449.226C377.282 448.334 381.409 447.386 381.911 447.191C382.162 447.079 381.493 447.191 379.485 447.497C377.478 447.776 374.215 448.557 369.113 449.059C370.061 449.003 368.248 449.31 365.516 449.784C362.783 450.314 359.075 450.537 356.314 450.899C353.554 451.262 351.714 451.317 352.717 451.457C353.219 451.513 354.418 451.54 356.537 451.429C358.656 451.262 361.752 451.262 365.99 450.76L365.962 450.732Z" fill="#3C0D20"/>
<path d="M585.989 552.757C583.061 555.211 580.105 557.692 577.122 560.174C581.165 556.8 583.87 554.514 585.989 552.757Z" fill="#3C0D20"/>
<path d="M369.113 449.059L364.93 449.561C366.659 449.366 367.635 449.226 369.113 449.059Z" fill="#3C0D20"/>
<path d="M411.356 398.59C412.444 398.06 414.591 397.112 416.598 395.746C416.375 395.774 415.316 396.611 411.356 398.59Z" fill="#3C0D20"/>
<path d="M270.768 145.578C274.393 145.215 278.046 145.048 281.699 144.853C277.349 145.02 273.836 145.243 270.768 145.578Z" fill="#3C0D20"/>
<path d="M228.972 325.871C228.052 323.082 227.41 321.214 226.713 319.095C225.988 316.976 225.57 314.494 224.538 310.618C224.706 311.343 224.845 312.068 225.04 313.016C225.403 314.411 225.821 316.056 226.379 318.147C227.076 320.21 227.912 322.692 229 325.871H228.972Z" fill="#3C0D20"/>
<path d="M372.933 209.625C371.818 209.04 370.368 208.287 369.085 207.618C368.025 207.116 366.91 206.558 365.739 206C364.54 205.582 363.341 205.136 362.198 204.718C365.962 205.889 369.364 207.952 372.905 209.625H372.933Z" fill="#3C0D20"/>
<path d="M484.828 639.418C489.792 637.717 492.887 636.741 495.34 636.016C491.743 636.936 524.534 624.417 484.828 639.418Z" fill="#3C0D20"/>
<path d="M591.231 547.849C590.339 548.992 588.805 550.331 585.989 552.729C588.108 550.916 590.199 549.271 592.012 547.403C592.458 546.846 592.513 546.678 591.231 547.821V547.849Z" fill="#3C0D20"/>
<path d="M221.471 318.008C217.958 305.404 216.982 291.993 219.045 278.971C217.205 289.846 217.595 304.484 221.471 318.008Z" fill="#3C0D20"/>
<path d="M603.304 359.721C604.364 357.016 605.144 354.228 606.065 351.467C604.949 354.618 604.085 357.602 603.304 359.721Z" fill="#3C0D20"/>
<path d="M296.143 200.507C299.461 199.476 303.002 198.835 306.571 198.082C310.14 197.217 313.876 196.827 317.641 196.297C319.23 196.018 321.042 195.684 322.13 195.6C319.899 195.656 317.752 196.13 315.549 196.381C313.374 196.715 311.144 196.855 308.997 197.385C304.703 198.388 300.325 199.085 296.143 200.48V200.507Z" fill="#3C0D20"/>
<path d="M495.396 636.016H495.312C495.312 636.016 495.312 636.016 495.396 636.016Z" fill="#3C0D20"/>
<path d="M681.684 477.807C677.307 485.67 674.769 490.605 672.817 493.393C671.033 496.265 670.447 497.353 670.364 497.715C670.196 498.412 672.037 496.182 670.113 499.5C667.157 503.989 664.871 507.725 662.807 510.569C660.66 513.358 659.015 515.477 657.732 517.122C655.195 520.356 654.135 521.583 653.606 522.085C652.574 523.089 653.606 521.221 649.005 526.909C644.627 532.012 640.501 536.78 636.569 541.353C634.673 543.695 632.61 545.786 630.574 547.821C628.567 549.885 626.587 551.892 624.663 553.872C622.739 555.852 620.843 557.776 618.975 559.672C617.079 561.54 615.043 563.213 613.147 564.942C609.243 568.371 605.451 571.69 601.659 575.008C600.404 575.844 597.254 578.158 600.795 575.259C598.007 577.461 594.856 579.915 591.454 582.592C589.753 583.902 587.969 585.297 586.128 586.691C585.208 587.388 584.288 588.113 583.34 588.838C582.364 589.507 581.36 590.176 580.328 590.873C576.258 593.606 572.019 596.45 567.642 599.378C566.554 600.103 565.439 600.855 564.351 601.58C563.208 602.25 562.037 602.919 560.894 603.616C558.58 604.982 556.237 606.348 553.895 607.715C544.666 613.459 534.656 618.143 525.482 622.995C520.798 625.225 516.169 627.205 511.847 629.213C507.497 631.192 503.426 633.144 499.551 634.622C497.209 635.431 496.01 635.821 495.424 635.96C500.61 634.427 501.53 634.483 500.582 635.152C492.942 637.968 485.999 640.952 480.032 642.931C474.065 644.883 469.27 646.389 466.286 647.058C475.794 644.074 476.519 643.628 480.925 642.067L464.752 647.42C457.335 649.4 462.856 647.56 470.218 645.218C473.898 644.019 478.025 642.68 481.231 641.649C482.849 641.147 484.159 640.561 485.107 640.171C486.055 639.78 486.613 639.502 486.585 639.446C482.737 641.035 478.694 642.234 474.623 643.573C470.552 644.911 466.425 646.249 462.299 647.588C453.934 649.958 445.485 652.244 437.232 654.336C433.077 655.2 428.978 656.092 424.963 656.929C420.948 657.737 417.072 658.713 413.224 659.187C405.584 660.302 398.474 661.502 392.144 662.171C389.496 662.31 404.19 660.107 415.343 658.379C426.413 656.204 433.941 654.559 417.267 657.626L436.562 653.861C442.976 652.495 449.305 650.739 455.663 649.177C426.301 655.618 478.806 643.266 451.787 649.038C426.803 655.562 412.443 657.514 398.195 659.745C394.626 660.386 391.057 660.693 387.293 661.055C383.529 661.418 379.597 661.808 375.303 662.226C371.009 662.756 366.352 662.728 361.138 662.979C355.952 663.091 350.208 663.593 343.767 663.314C332.168 663.537 347.615 663.955 335.988 664.178C326.814 664.318 319.035 663.537 312.37 663.091C305.678 662.756 300.102 661.864 295.306 661.167C290.51 660.47 286.467 659.912 282.926 659.271C279.412 658.462 276.317 657.765 273.39 657.124C267.534 655.758 262.264 654.698 255.321 652.635C251.808 651.714 247.876 650.683 243.164 649.428C238.48 648.09 233.154 646.249 226.741 644.298C225.068 643.823 223.506 643.377 222.029 642.931C220.551 642.457 219.157 641.927 217.707 641.426C214.835 640.366 211.823 639.279 208.115 637.94C206.275 637.243 204.239 636.462 201.981 635.598C199.778 634.538 197.324 633.395 194.564 632.057C191.803 630.718 188.736 629.213 185.279 627.512C183.55 626.647 181.737 625.755 179.813 624.779C177.945 623.692 175.993 622.549 173.902 621.35L179.786 624.222L185.836 626.759C163.725 615.104 157.618 611.367 151.289 607.436C148.11 605.484 144.876 603.476 139.717 600.158C137.236 598.346 134.336 596.115 130.711 593.383C128.899 592.016 126.947 590.511 124.772 588.838C123.684 588.001 122.569 587.137 121.37 586.217C120.255 585.213 119.084 584.181 117.857 583.094C118.749 583.847 119.892 584.795 121.203 585.854C122.541 586.914 124.103 588.001 125.692 589.2C128.899 591.598 132.412 594.219 135.507 596.506C137.041 597.649 138.49 598.736 139.745 599.656C141.056 600.493 142.143 601.218 142.952 601.72C144.541 602.751 144.931 602.975 143.37 601.915C116.323 581.449 123.712 588.113 103.943 571.048L100.597 566.726C81.3855 548.351 63.4845 526.602 48.7342 502.009C33.9561 477.444 22.3846 450.091 14.9397 421.51C15.9714 424.633 18.7597 434.309 15.4695 420.925C14.8561 418.694 14.2705 416.436 13.6571 414.177C13.0716 411.918 12.7091 409.576 12.2072 407.29C11.287 402.661 10.3669 398.005 9.41886 393.32C8.21988 383.84 6.54688 374.304 6.10075 364.545L5.57097 357.239L5.32002 353.587V349.906C5.23637 344.999 5.1806 340.091 5.12484 335.184C5.20849 330.276 5.57097 325.341 5.76615 320.434C5.90557 317.98 5.96133 315.526 6.15652 313.072L6.96513 305.739C10.7294 266.507 22.1057 228.698 36.5493 195.963L42.1538 183.471L44.97 177.225L48.1208 171.147C51.188 165.57 54.06 160.913 50.8255 167.02C54.2272 160.913 55.956 157.79 56.8762 156.396C57.7405 154.974 57.5175 155.169 57.0713 155.755C56.1791 156.898 54.2551 159.575 57.7127 153.803C66.1055 140.28 69.1448 136.153 63.9585 144.825C77.0915 124.052 98.3386 95.555 124.772 71.8264C137.849 59.9481 152.906 50.2447 167.879 43.1066C182.825 35.857 197.659 31.312 210.206 27.9939C206.944 28.914 203.709 29.8342 200.531 30.9774C210.206 28.0775 217.874 26.0978 224.454 24.5085C231.007 22.8076 236.528 21.6923 241.937 20.4654C252.784 18.179 263.352 16.1435 282.061 13.6898L274.923 14.8609C285.853 13.2436 296.951 11.6264 308.104 9.9813C313.681 9.17268 319.258 8.19677 324.862 7.30451C327.65 6.85837 330.411 6.55166 333.199 6.16129C335.988 5.85458 338.748 5.26903 341.536 5.21326C363.899 3.4845 386.484 5.68728 407.536 11.3476C428.588 16.9521 448.162 25.4286 465.477 35.1878C482.821 44.9469 497.961 55.9608 510.704 66.8353C513.381 68.5919 518.679 73.2205 525.287 79.1039C528.466 82.1711 531.951 85.5728 535.604 89.114C539.061 92.8225 542.742 96.5867 546.227 100.49C560.225 115.993 571.629 132.417 573.664 134.452C577.094 139.722 580.022 144.1 582.252 148.087C584.539 152.019 586.574 155.281 588.08 158.32C589.669 161.332 591.036 163.981 592.374 166.49C593.685 169.027 594.744 171.509 595.999 174.102C598.536 179.261 600.99 185.172 604.42 193.843C605.925 198.277 608.044 203.268 609.773 209.458C611.753 215.592 613.621 222.814 615.434 231.402C617.302 240.576 618.361 247.491 619.309 254.964C619.588 258.728 620.09 262.604 620.229 267.037C620.285 271.47 620.508 276.406 620.09 282.233L619.421 282.763C619.365 288.033 618.78 293.247 618.389 298.517C618.138 301.138 617.748 303.731 617.413 306.352C617.079 308.973 616.772 311.595 616.27 314.188L614.262 322.357L611.92 330.444C611.14 334.013 610.108 337.498 609.132 340.983L607.654 346.225L605.953 351.412C607.431 347.313 608.769 342.88 609.773 339.673C610.805 336.466 611.502 334.459 611.39 335.1C607.18 351.663 599.707 371.209 592.346 386.154C590.534 389.891 588.805 393.404 587.076 396.471C585.375 399.538 583.925 402.327 582.587 404.585C579.855 409.074 578.154 411.807 577.986 411.946C571.155 423.546 563.738 434.783 555.512 445.434C547.259 456.058 538.336 466.151 528.8 475.66C529.916 474.238 539.396 464.59 546.227 456.392C542.686 460.435 539.926 463.558 537.807 466.012C535.548 468.326 533.931 469.971 532.76 471.198C530.39 473.596 529.72 474.154 529.135 474.628C528.549 475.102 527.992 475.464 525.845 477.416C523.67 479.368 520.017 483.049 512.516 489.434C516.643 486.116 510.592 491.581 509.979 492.25C502.144 498.189 489.178 507.809 473.564 516.313C458.033 524.929 439.936 532.263 423.987 536.557L429.982 534.438C415.734 538.787 400.621 541.576 385.09 542.802C383.138 542.97 381.186 543.137 379.234 543.276C377.255 543.332 375.275 543.416 373.295 543.472C369.336 543.611 365.349 543.751 361.333 543.89C357.318 543.974 353.303 543.89 349.288 543.89C345.245 543.862 341.202 543.918 337.131 543.639C333.06 543.444 328.989 543.249 324.918 543.026C320.847 542.802 316.776 542.245 312.677 541.882C304.479 541.269 296.365 539.624 288.168 538.425C271.912 535.162 255.823 530.59 240.292 524.344C262.71 532.904 257.301 531.816 238.842 524.846L231.983 520.914C220.272 515.951 250.553 529.781 226.629 519.297C204.63 507.196 212.297 510.458 224.873 517.345L211.572 510.012C207.278 507.307 203.096 504.435 198.858 501.675C197.491 500.504 203.486 504.407 205.159 505.216C203.849 504.379 202.176 503.292 200.252 502.037C199.304 501.396 198.244 500.727 197.185 499.946C196.153 499.109 195.093 498.245 193.95 497.353C189.489 493.672 184.08 489.657 179.256 484.722C176.746 482.352 174.237 479.954 171.755 477.584C169.441 475.046 167.182 472.537 165.007 470.139C162.86 467.713 160.658 465.566 158.845 463.363C157.061 461.16 155.416 459.153 153.938 457.452L153.046 455.974C142.701 442.813 135.089 430.433 128.815 419.001C127.393 416.073 125.999 413.201 124.66 410.385C123.991 408.991 123.322 407.597 122.653 406.23C122.095 404.808 121.537 403.414 121.008 402.02C119.92 399.232 118.833 396.499 117.773 393.794C116.742 391.09 116.044 388.301 115.18 385.597C108.683 363.904 105.616 342.601 107.205 315.359C106.397 314.243 108.432 292.941 111.499 276.88C115.71 257.166 122.179 236.839 130.321 216.066C132.217 210.797 134.726 205.805 136.957 200.591C138.016 197.97 139.466 195.516 140.805 192.979C142.171 190.47 143.537 187.932 144.904 185.395C151.038 175.636 157.646 165.765 166.011 157.093C167.433 155.532 168.688 154.138 169.831 152.883C171.002 151.656 172.118 150.708 173.066 149.788C174.962 148.003 176.356 146.693 177.36 145.745C179.339 143.849 179.786 143.347 179.813 143.263C179.869 143.096 178.001 144.295 183.968 139.555C184.581 139.304 187.314 137.185 191.022 134.675C192.919 133.504 195.066 132.194 197.185 130.911C199.332 129.6 201.423 128.206 203.542 127.258C211.768 123.104 216.926 120.511 205.968 126.422C207.557 125.585 209.119 124.777 210.652 123.968C212.158 123.132 213.692 122.379 215.225 121.793C218.264 120.511 221.192 119.284 224.008 118.085C226.825 116.914 229.669 116.133 232.373 115.185C235.106 114.32 237.671 113.289 240.292 112.703C250.693 109.887 260.257 107.907 270.406 106.68C272.943 106.374 275.509 106.067 278.13 105.732C280.751 105.398 283.455 105.37 286.216 105.147C288.976 104.98 291.848 104.812 294.804 104.645C297.76 104.645 300.827 104.617 304.033 104.589C316.804 104.533 331.721 105.063 350.069 106.764C342.122 105.705 333.143 105.007 337.8 105.175C344.492 105.593 352.076 106.485 357.709 107.266C363.341 108.158 367.077 108.827 366.102 108.827L362.588 108.381C383.082 111.086 404.915 116.3 425.827 125.334C431.042 127.593 436.2 130.074 441.219 132.835C443.728 134.201 446.322 135.484 448.803 136.934L456.109 141.479L459.761 143.765L463.247 146.275L470.19 151.322C472.42 153.078 474.539 155.002 476.714 156.842C478.889 158.683 481.064 160.495 482.988 162.586C484.968 164.594 486.947 166.602 488.927 168.581C490.767 170.673 492.496 172.875 494.281 174.994L496.93 178.201L499.244 181.631C500.75 183.917 502.339 186.148 503.789 188.434C506.271 193.258 509.17 197.775 510.955 202.766C511.931 205.22 513.102 207.562 513.883 210.044C514.636 212.525 515.388 214.979 516.141 217.405C516.978 219.803 517.396 222.312 517.898 224.738C518.4 227.192 518.874 229.618 519.348 231.988C519.599 234.414 519.85 236.812 520.101 239.182C520.324 241.552 520.714 243.894 520.658 246.208C521.049 255.493 520.603 264.305 519.738 272.446C519.878 271.22 520.129 270.021 520.156 268.822C519.906 271.638 519.404 274.426 519.041 277.214C518.567 280.003 518.4 282.847 517.703 285.579L515.918 293.889L514.998 298.043L511.568 310.368C510.732 313.1 509.812 315.777 508.919 318.482C507.274 323.919 505.044 329.161 503.036 334.487C496.595 348.791 498.38 344.413 500.666 339.171C501.224 337.861 501.809 336.494 502.311 335.323C502.729 334.152 503.064 333.176 503.203 332.73C503.427 331.782 503.12 332.981 500.61 338.195C486.083 371.878 467.178 395.077 445.987 412.114C435.336 420.618 423.959 427.561 411.607 433.138C399.227 438.659 385.871 442.98 370.981 445.323C359.437 446.717 343.181 447.497 324.695 445.1C315.465 443.817 305.734 441.726 295.836 438.77C285.937 435.786 276.011 431.716 266.307 426.92C263.937 425.637 261.4 424.55 259.113 423.128L252.254 418.889C249.996 417.439 247.96 415.655 245.785 414.065C244.726 413.229 243.638 412.448 242.607 411.584L239.651 408.823C231.593 401.713 224.929 393.237 219.129 384.76C207.725 367.556 200.614 349.432 196.878 334.208L197.547 337.777C193.058 322.19 193.225 318.593 191.943 306.771C191.469 308.527 194.09 324.226 192.277 314.299C189.824 297.29 189.74 279.668 193.337 262.659L194.815 256.33C195.344 254.239 196.097 252.175 196.739 250.112L197.742 247.017C198.105 245.985 198.579 245.009 198.969 244.005C199.834 241.998 200.642 239.99 201.507 237.983C205.382 230.175 210.039 222.758 215.588 215.955C226.88 202.543 241.24 191.641 257.273 184.056C265.192 180.041 273.641 177.141 282.117 174.409C286.439 173.294 290.733 172.039 295.083 171.119C299.46 170.338 303.838 169.167 308.244 168.749C325.81 166.239 343.851 168.414 360.915 173.321C377.896 178.619 394.152 186.594 408.149 197.524C411.746 200.117 414.981 203.184 418.299 206.084C419.916 207.59 421.422 209.235 422.983 210.797L425.298 213.167L427.417 215.704C428.811 217.405 430.289 219.05 431.627 220.779L435.447 226.132C436.786 227.861 437.789 229.841 438.96 231.681C439.518 232.629 440.104 233.549 440.633 234.497L442.083 237.425C445.987 245.204 448.692 253.514 449.779 262.018C450.867 270.522 450.309 279.194 448.329 287.531C447.744 290.626 446.684 293.303 445.987 295.84C445.011 298.294 444.258 300.553 443.394 302.56C442.502 304.568 441.693 306.38 440.94 308.025C440.104 309.643 439.379 311.12 438.682 312.487C437.26 315.191 435.949 317.394 434.862 319.458C433.635 321.465 432.519 323.278 431.348 325.202C430.094 327.042 428.755 328.966 427.11 331.196C425.326 333.288 423.429 335.881 420.641 338.613C419.303 340.035 417.797 341.569 416.013 343.075C415.12 343.855 414.2 344.664 413.252 345.528C412.22 346.309 411.161 347.146 410.018 348.01C405.501 351.412 399.84 355.12 392.451 358.383C397.916 355.678 402.963 352.22 407.787 348.596C402.601 352.332 397.08 355.65 391.224 358.355C385.341 360.976 379.207 363.067 372.877 364.545C366.548 365.911 360.079 366.803 353.554 367.026C351.937 367.11 350.292 367.026 348.647 367.054C347.001 367.054 345.384 367.054 343.739 366.915L338.832 366.58L334.091 365.911C327.846 364.712 321.851 362.286 316.609 358.661C311.367 355.064 306.85 350.352 303.169 345.082C299.46 339.784 296.505 333.929 294.191 327.823C291.932 321.716 290.008 315.275 289.339 309.029C288.698 302.728 289.534 296.342 291.765 290.431C293.995 284.492 297.509 279.055 301.635 274.092C305.79 269.1 310.53 264.583 315.521 260.261C318.003 258.114 320.54 255.995 323.105 253.904C325.559 251.841 328.069 250.251 330.829 249.303C333.562 248.327 336.35 248.216 338.915 248.997C341.397 249.861 343.851 251.673 345.496 253.904C347.169 256.079 347.922 258.616 347.726 261.46C347.587 264.277 346.639 267.26 345.579 270.299C342.206 282.54 331.721 291.184 326.396 304.094C327.567 300.971 328.375 299.521 329.379 297.597C330.411 295.701 331.833 293.415 334.761 289.288C333.143 291.491 331.136 294.195 329.128 297.513C327.149 300.804 325.029 304.819 324.304 309.782C323.496 314.745 325.141 320.461 328.32 324.449C331.387 328.548 335.346 331.475 339.166 333.957C346.862 339.143 355.813 341.067 362.086 341.039C363.676 340.956 365.098 340.9 366.352 340.816C367.607 340.621 368.667 340.454 369.559 340.314C370.451 340.203 371.12 339.98 371.594 339.84C372.068 339.701 372.319 339.617 372.319 339.589C376.446 338.669 378.649 337.805 379.876 337.359C381.103 336.913 381.409 336.857 381.493 336.885C381.688 336.885 381.186 337.387 385.926 335.24C391.085 332.73 396.438 329.189 401.485 325.006C406.504 320.852 411.468 315.944 415.092 310.479C418.773 305.014 421.143 299.103 422.342 293.861C423.541 288.619 423.82 284.102 423.82 281.062C423.792 280.031 424.015 281.648 423.931 284.046C423.876 285.245 423.848 286.667 423.708 288.033C423.513 289.399 423.318 290.738 423.151 291.77C423.848 288.033 424.377 281.676 423.402 274.705C422.509 267.734 420.139 260.289 417.351 254.127C414.618 247.909 411.412 243.057 409.822 240.185C408.038 237.453 407.508 236.923 409.321 239.907C403.995 231.542 397.972 223.818 390.89 217.405C383.724 211.103 375.861 205.973 367.524 202.348C350.71 195.377 333.116 194.178 317.501 196.241C314.964 196.743 311.98 197.05 308.801 197.831C305.623 198.639 302.137 199.309 298.596 200.34C295.083 201.484 291.374 202.487 287.722 203.77C284.125 205.164 280.472 206.447 276.987 207.925C262.961 213.947 252.198 222.452 250.219 225.101C250.665 224.543 247.263 226.718 242.579 231.681C240.041 233.995 237.643 237.341 234.743 240.883C232.206 244.675 229.362 248.857 227.103 253.653C222.391 263.078 219.352 274.259 218.543 284.576C218.432 287.169 218.125 289.678 218.209 292.104C218.32 294.53 218.432 296.844 218.515 299.047C218.599 301.25 219.073 303.285 219.324 305.181C219.659 307.077 219.798 308.834 220.188 310.34C219.686 308.304 219.714 308.611 219.937 310.089C220.272 311.567 220.83 314.188 221.415 316.781C221.889 319.402 222.865 321.828 223.2 323.11C223.562 324.393 223.506 324.449 222.614 322.134C224.873 329.049 227.577 335.323 230.198 341.123C232.82 346.895 235.441 352.025 237.727 356.152C239.958 360.307 242.049 363.374 243.192 365.242C244.447 367.054 244.921 367.556 244.363 366.469C251.139 377.65 259.587 388.078 269.542 396.332C279.552 404.529 291.012 410.385 302.36 413.787C303.782 414.205 305.177 414.623 306.599 415.041C308.021 415.404 309.443 415.655 310.837 415.934C313.653 416.491 316.386 417.133 319.09 417.411C321.795 417.774 324.444 418.136 327.009 418.471C329.602 418.694 332.14 418.889 334.621 419.084C335.848 419.196 337.075 419.28 338.274 419.391C339.473 419.419 340.672 419.447 341.843 419.475C344.185 419.558 346.444 419.614 348.619 419.67C352.996 419.586 357.067 419.559 360.748 419.419C371.316 418.415 381.632 416.129 391.559 412.866C401.485 409.632 410.77 404.836 419.414 399.371C436.73 388.246 450.448 372.966 461.155 356.403C471.64 339.868 481.176 322.804 487.254 304.401C490.377 295.255 492.357 285.747 493.082 276.183C493.835 266.619 493.389 256.943 491.242 247.658C491.409 247.965 491.799 249.498 492.357 251.924C492.998 254.35 493.138 257.78 493.639 261.739C494.141 269.742 493.639 280.17 491.52 290.152C487.254 310.145 477.969 327.46 479.196 326.177C483.072 318.063 486.362 310.145 488.676 302.254C490.015 298.378 490.795 294.418 491.716 290.571C492.162 288.647 492.385 286.695 492.719 284.771C492.998 282.847 493.416 280.979 493.472 279.055C494.95 263.83 493.11 249.275 488.425 235.836C487.226 232.49 485.776 229.227 484.438 225.937C482.849 222.731 481.176 219.58 479.531 216.401C475.961 210.183 471.974 204.049 467.206 198.165C462.494 192.282 457.029 186.65 450.56 181.631C447.325 179.149 443.868 176.751 440.159 174.66C436.395 172.541 432.491 170.812 428.504 168.888C424.377 166.853 422.844 166.267 423.067 166.295C423.29 166.351 425.214 167.076 427.807 168.275C430.4 169.446 433.69 170.951 436.674 172.29C439.685 173.768 442.306 175.273 443.701 176.054C439.825 173.628 435.698 171.676 431.711 169.836L425.716 167.02L419.637 164.427C415.622 162.642 411.523 161.081 407.452 159.575C403.409 157.958 399.255 156.647 395.156 155.253C378.705 149.872 362.086 145.912 345.468 143.458C312.203 138.579 279.301 139.36 247.932 144.574C247.96 144.546 248.434 144.434 249.187 144.267C249.94 144.072 251.027 143.877 252.282 143.709C254.792 143.347 258.11 142.873 261.316 142.427C258.221 142.817 254.847 143.263 251.585 143.682C248.323 144.183 245.116 144.88 242.356 145.382C240.961 145.605 239.707 145.94 238.619 146.303C237.532 146.637 236.584 146.916 235.831 147.167C234.325 147.641 233.6 147.92 233.963 147.948L239.902 146.191C241.882 145.661 243.917 145.355 245.953 144.908C250.944 144.1 250.358 144.379 246.677 145.243C244.837 145.745 242.188 146.107 239.149 147.055C237.643 147.529 235.998 148.031 234.297 148.561C233.433 148.812 232.569 149.091 231.676 149.37C230.812 149.676 229.948 150.067 229.055 150.429C227.299 151.154 225.486 151.907 223.674 152.66C221.889 153.441 220.188 154.472 218.46 155.337C214.974 157.01 211.963 159.24 209.202 160.997C203.905 164.845 200.308 167.996 200.001 168.47C207.92 161.304 195.01 170.589 186.199 181.826C183.884 184.53 181.905 187.347 180.232 189.717C178.475 192.059 177.248 194.067 176.44 195.238C175.631 196.381 175.324 196.715 175.742 195.823C176.216 194.959 177.137 192.728 179.479 189.159C178.28 190.86 177.109 192.728 176.049 194.568C174.99 196.409 173.93 198.11 173.121 199.615C171.588 202.655 170.668 204.551 171.253 203.798C165.509 214.617 163.836 218.158 168.967 206.809C163.892 216.875 161.271 223.846 159.263 228.893C157.367 233.995 156.141 237.258 155.165 240.464C154.161 243.671 153.185 246.738 151.707 251.45C150.926 253.793 150.341 256.637 149.421 260.066C148.528 263.496 147.413 267.539 146.577 272.586C146.493 272.502 146.8 270.439 147.218 267.846C147.664 265.28 148.473 262.269 148.863 260.206C148.277 262.715 147.608 265.225 147.106 267.762C146.66 270.327 146.214 272.92 145.768 275.597C144.681 280.867 144.262 286.472 143.565 292.467C142.645 304.456 141.948 318.286 143.677 335.407C143.398 333.343 143.537 337.359 142.784 327.125C143.119 330.806 143.203 334.431 143.76 337.972C144.262 341.513 144.764 344.971 145.266 348.4C146.688 355.176 147.887 361.812 149.839 368.142C151.456 374.555 153.826 380.633 155.945 386.712C158.455 392.651 160.797 398.646 163.808 404.362C169.552 415.934 176.272 427.226 184.693 438.296C193.058 449.394 202.873 460.435 215.002 471.142C207.474 465.259 211.572 468.884 217.874 474.377C218.655 475.074 219.491 475.771 220.3 476.496C221.164 477.165 222.057 477.862 222.949 478.559C224.733 479.954 226.49 481.32 228.079 482.547C231.258 485.084 233.991 486.785 234.548 487.482C239.344 490.828 244.475 493.589 249.494 496.516C252.059 497.883 254.708 499.109 257.301 500.42C258.612 501.061 259.894 501.73 261.233 502.316L265.276 503.989C260.954 502.177 256.911 499.834 252.784 497.632C279.886 511.908 307.184 517.373 333.339 517.373C329.547 517.624 325.782 517.373 321.99 517.234C318.198 517.206 314.434 516.732 310.67 516.285L317.78 517.15L324.946 517.512C329.714 517.903 334.51 517.512 339.278 517.484C341.676 517.512 344.046 517.066 346.416 516.899C348.786 516.648 351.184 516.453 353.526 516.146C358.21 515.393 362.923 514.724 367.579 513.915C362.281 514.752 356.956 515.533 351.63 516.202C346.249 516.648 340.895 517.345 335.486 517.234C337.41 517.15 339.083 517.094 340.533 517.038C341.982 516.955 343.209 516.732 344.241 516.62C346.332 516.369 347.671 516.174 348.535 516.035C350.292 515.756 350.152 515.672 350.347 515.561C350.515 515.421 351.017 515.421 353.972 514.947C355.45 514.724 357.513 514.389 360.469 513.943C363.425 513.525 367.273 512.912 372.236 511.991C368.193 512.689 375.693 511.601 386.038 509.315C391.224 508.311 397.08 506.777 402.656 505.495C408.149 503.961 413.391 502.734 417.184 501.563H417.1C431.348 496.851 445.848 491.414 465.979 481.459C471.305 479.033 462.187 484.359 465.645 482.77C472.114 479.089 487.756 470.473 502.255 459.181C516.866 448.055 529.72 434.169 535.381 426.669C531.561 431.632 531.449 431.994 532.955 430.572C535.548 427.31 538.002 423.936 540.456 420.59C544.722 414.986 547.147 411.751 548.235 410.078C549.406 408.461 549.462 408.572 548.96 409.604C550.41 407.374 551.692 405.505 552.724 403.86C553.7 402.187 554.509 400.793 555.178 399.678C556.488 397.391 557.241 396.081 557.576 395.412C558.245 394.045 557.464 395.272 556.739 396.22C556.042 397.196 555.485 397.949 556.739 395.774C557.409 394.714 558.301 392.791 559.89 389.835C560.671 388.329 561.647 386.6 562.678 384.481C563.682 382.334 564.853 379.881 566.192 377.036C564.547 380.633 565.495 378.988 562.009 386.433C573.33 363.792 580.329 340.147 584.288 316.613C586.407 304.875 587.522 293.108 588.331 281.425C588.415 278.497 588.498 275.569 588.582 272.642L588.721 268.264L588.052 255.159C587.885 252.259 587.355 249.387 587.048 246.487C586.797 243.057 586.993 243.866 587.467 246.738C587.69 248.188 587.969 250.168 588.303 252.37C588.666 254.601 588.638 257.111 588.833 259.564C588.972 262.046 589.112 264.5 589.223 266.675C589.391 268.849 589.195 270.746 589.223 272.084C589.223 274.761 589.279 275.235 589.558 271.275C589.586 254.434 587.188 237.314 582.252 220.807C577.373 204.272 570.068 188.462 561.368 173.628C543.913 143.905 521.383 118.113 500.164 93.882L508.027 102.972C506.354 101.466 503.566 98.427 499.969 94.356C498.157 92.3206 496.205 90.0062 493.946 87.5804C492.831 86.3535 491.66 85.0709 490.489 83.7604C489.262 82.4778 487.951 81.1951 486.641 79.8567C476.157 69.0938 461.351 58.2472 446.294 51.5552C453.571 54.9849 455.941 55.8771 453.989 54.9012C434.36 44.1941 411.746 38.2549 386.233 36.6377C360.664 34.8532 332.363 37.5021 299.07 40.4856L307.324 39.5376C294.33 40.625 277.293 41.3778 259.866 43.246L256.604 43.5527C255.516 43.6922 254.457 43.9152 253.369 44.1104C251.222 44.5008 249.075 44.8633 246.928 45.2536C242.662 46.0622 238.368 46.6199 234.297 47.6237C230.226 48.6833 226.267 49.7149 222.475 50.6909C220.579 51.1928 218.711 51.6668 216.898 52.1408C215.114 52.7542 213.413 53.3398 211.74 53.9253C207.808 55.4031 202.064 57.578 198.439 58.9164C194.954 60.5615 193.532 61.3144 198.077 59.4741C157.34 75.2281 124.131 103 100.235 135.344C76.4502 167.968 60.6404 204.3 50.5745 241.496C51.1322 239.265 51.7178 236.812 52.3033 234.497C52.9725 232.211 53.5859 230.064 54.06 228.419C55.008 225.129 55.3426 223.818 54.283 227.331C48.0372 248.355 43.7989 269.965 41.4567 291.742C42.3211 286.583 42.8788 283.237 45.1652 269.63C44.6354 273.757 43.7989 280.393 42.8509 288.033C42.5163 291.881 42.1817 295.952 41.8192 300.079C41.624 302.142 41.4567 304.233 41.2615 306.297C41.1779 308.36 41.0664 310.423 40.9827 312.459C41.1221 305.098 41.5961 301.445 41.5683 300.274C41.5683 299.103 41.3731 300.441 41.0106 303.09C40.5923 305.739 40.3693 309.726 40.0904 313.853C39.8395 317.98 39.5049 322.218 39.3934 325.397C39.5328 323.25 39.728 327.627 39.8674 326.568C39.7001 335.128 39.6722 339.784 39.728 342.684C39.9231 345.556 40.1183 346.672 40.3414 348.149C40.9269 351.133 40.8433 355.706 43.2691 378.96C43.0461 378.152 42.9066 377.343 42.7393 376.535C43.2412 380.884 44.1056 385.095 44.7748 389.305L45.8344 395.607C46.2805 397.698 46.7545 399.761 47.2285 401.88C48.2045 406.063 48.9852 410.329 50.1284 414.623C51.2716 418.917 52.4706 423.295 53.6975 427.868C54.4503 431.716 53.1677 427.254 51.6062 421.678C50.8255 418.889 49.9611 415.822 49.2919 413.396C48.6785 410.943 48.2602 409.102 48.0651 408.851C48.6785 412.114 49.5429 415.32 50.463 418.471C51.3553 421.65 52.2475 424.801 53.1398 427.951C55.1195 434.169 57.3223 440.276 59.4693 446.271C60.6962 449.226 61.8951 452.154 63.122 455.054C64.3489 457.954 65.4084 460.909 66.8305 463.67C68.1689 466.486 69.4794 469.274 70.762 472.035C71.4312 473.401 72.0168 474.823 72.7139 476.161C73.4388 477.5 74.1359 478.838 74.8609 480.149C71.8495 475.353 69.1727 469.023 66.1055 462.861C64.5719 459.794 63.4566 456.532 62.174 453.52C60.9471 450.481 59.7203 447.609 58.7165 444.96C60.9192 451.122 62.7595 455.89 64.2373 459.906C65.8267 463.865 67.3881 466.96 68.7265 469.916C71.2918 475.883 74.2195 480.706 78.9318 489.239L78.0117 487.566L79.3779 490.047L80.8836 492.417L83.9229 497.158C85.9584 500.308 87.9102 503.543 90.2245 506.498L96.8886 515.588L104.083 524.288C101.685 521.305 99.2029 518.377 96.8607 515.365C107.847 527.913 119.53 540.181 133.388 552.199C147.246 564.189 163.334 575.956 183.048 586.523C164.087 575.928 162.777 574.562 165.342 576.541C167.907 578.521 175.045 582.676 173.4 582.146C175.826 583.651 178.559 585.408 181.263 587.025C184.024 588.587 186.728 590.092 188.987 591.347C193.476 593.885 196.209 595.446 193.95 594.359C198.746 596.617 203.152 598.68 207.474 600.716C211.796 602.724 216.173 604.508 220.718 606.516C229.892 610.364 240.264 614.184 254.652 618.255C255.879 618.84 276.513 624.249 271.8 623.441C298.736 629.38 265.499 621.74 267.897 621.824C288.502 626.815 313.095 631.527 340.337 633.228C343.739 633.423 347.169 633.646 350.654 633.841C354.14 633.897 357.653 633.953 361.194 634.009C368.276 634.26 375.498 633.786 382.804 633.618C386.456 633.395 390.137 633.061 393.817 632.782C395.658 632.642 397.526 632.475 399.366 632.336C401.206 632.113 403.075 631.89 404.943 631.639C408.651 631.165 412.388 630.663 416.152 630.161C419.888 629.492 423.625 628.822 427.389 628.125C430.651 627.623 433.69 626.954 436.59 626.285C439.49 625.644 442.251 625.002 444.9 624.417C450.169 623.218 454.826 621.74 459.232 620.569C463.637 619.454 467.541 617.948 471.361 616.721C475.153 615.438 478.778 614.295 482.263 612.817C485.776 611.423 489.262 610.057 492.859 608.663C496.4 607.073 500.053 605.428 503.956 603.672C507.916 601.999 511.931 599.768 516.42 597.537C520.965 595.362 525.677 592.574 530.947 589.507C545.391 581.616 519.682 596.952 519.515 596.673C525.482 593.745 530.808 590.511 536.078 587.639C541.125 584.404 546.004 581.281 550.8 578.214C555.708 575.231 560.141 571.69 564.825 568.26C567.168 566.531 569.51 564.774 571.908 562.99C574.306 561.205 576.536 559.114 578.962 557.107C575.198 560.508 579.297 557.274 585.292 552.534C587.216 550.889 588.833 549.578 590.143 548.351C591.426 547.069 592.486 546.037 593.406 545.089C595.246 543.221 596.557 541.854 598.007 540.377C599.456 538.871 601.074 537.254 603.5 534.884C605.897 532.458 608.881 529 613.398 524.149C611.948 525.905 610.303 527.941 608.268 530.45C607.236 531.705 606.093 533.099 604.81 534.605C603.416 536.027 601.882 537.588 600.181 539.317C616.939 522.476 631.383 503.794 643.735 482.603C645.436 479.814 643.902 483.216 641.03 488.04C638.019 492.78 634.004 499.109 631.662 502.762C633.558 499.862 635.593 496.767 637.712 493.533C639.776 490.27 642.174 487.036 644.014 483.383C647.89 476.217 652.212 469.051 655.223 461.885C656.84 458.372 658.374 454.97 659.824 451.819C661.218 448.641 662.194 445.546 663.225 442.869C665.205 437.487 666.655 433.389 667.296 431.353L660.744 447.776C664.341 438.408 663.058 443.12 660.465 450.091C651.264 471.923 644.822 480.4 644.153 481.515L648.364 473.875C649.73 471.31 651.264 468.828 652.407 466.151C651.403 468.159 649.897 470.501 648.28 473.262C646.663 476.05 644.85 479.201 642.871 482.63C641.03 486.172 638.465 489.629 636.039 493.477C634.785 495.373 633.53 497.325 632.219 499.305C631.578 500.308 630.909 501.312 630.267 502.316C629.57 503.292 628.818 504.268 628.065 505.244C616.772 521.388 601.603 537.198 588.666 549.076C592.095 545.591 595.33 541.91 598.676 538.369L589.14 547.905L585.766 550.861C581.221 554.764 576.759 558.807 572.159 562.655C569.008 564.83 566.303 566.587 566.108 566.531C566.024 566.503 566.554 566.001 567.976 564.858C569.37 563.687 571.824 562.098 575.059 559.198C554.815 574.032 557.548 572.944 539.145 584.209C537.109 585.436 538.002 584.823 539.814 583.596C538.085 584.711 536.412 585.882 534.684 586.942L529.386 590.009C525.817 592.016 522.387 594.247 518.707 596.004C520.826 594.86 519.822 595.167 520.017 594.944C520.212 594.749 521.551 593.996 528.103 590.316C508.836 600.883 492.413 607.687 479.001 612.622C472.253 614.936 466.258 616.944 460.932 618.478C455.579 619.9 450.922 621.099 446.879 621.963L450.42 620.987C443.059 622.939 437.315 623.971 433.021 625.002C428.699 625.922 425.688 626.341 423.68 626.759C419.609 627.512 419.386 627.651 419.609 627.735C420.056 627.735 422.509 628.153 399.729 631.192L384.281 631.583L368.862 631.332C366.854 631.639 364.875 631.75 362.867 631.973C359.716 631.917 355.032 631.834 351.407 631.778C347.81 631.583 345.273 631.332 346.416 631.276C322.966 630.44 350.403 631.778 336.768 631.443C321.656 630.105 300.883 627.456 283.288 623.636C278.911 622.632 274.7 621.656 270.824 620.764C266.976 619.677 263.435 618.701 260.34 617.836C254.122 616.163 249.828 614.435 248.267 613.71C243.025 612.26 249.884 614.574 254.206 616.052C256.381 616.777 257.942 617.167 256.966 616.972C255.99 616.805 252.561 615.745 244.837 613.347C242.718 612.371 239.428 611.228 235.357 609.611C233.321 608.858 231.063 607.994 228.637 607.101C227.41 606.655 226.155 606.209 224.873 605.735C223.59 605.205 222.28 604.675 220.941 604.118C215.56 601.887 209.565 599.545 203.57 596.561C200.559 595.111 197.436 593.717 194.396 592.1C191.385 590.427 188.346 588.754 185.334 587.053C189.21 588.81 196.822 592.992 200.67 594.61C202.566 595.474 203.431 595.864 202.259 595.251C201.674 594.944 200.586 594.386 198.886 593.522C198.021 593.076 197.017 592.574 195.846 591.961C194.703 591.319 193.365 590.566 191.859 589.702C189.963 588.81 187.816 587.75 185.446 586.523C184.275 585.91 183.02 585.269 181.737 584.599C180.483 583.847 179.2 583.094 177.862 582.285C175.213 580.668 172.396 578.967 169.497 577.21C166.625 575.398 163.781 573.307 160.825 571.299C154.858 567.368 149.198 562.627 143.593 558.417C140.916 556.131 138.295 553.928 135.814 551.809C133.304 549.69 130.906 547.71 128.815 545.674C128.48 545.619 125.999 543.444 122.011 539.791C119.948 538.007 117.745 535.636 115.236 532.988C113.981 531.677 112.643 530.283 111.249 528.805C109.826 527.355 108.404 525.822 107.038 524.121C95.4387 511.099 82.5009 492.864 73.4946 475.492C74.3032 476.496 65.4921 460.212 58.2424 438.073C57.3502 435.312 56.43 432.468 55.482 429.596C54.7013 426.669 53.8927 423.685 53.1119 420.702C52.3312 417.69 51.4668 414.707 50.7976 411.695C50.1842 408.656 49.5429 405.617 48.9294 402.633C47.5632 396.666 46.7267 390.783 45.918 385.29C45.5277 382.53 45.0537 379.908 44.7748 377.343C44.5239 374.806 44.3008 372.38 44.0777 370.121L44.3287 371.181C43.9662 369.452 43.4364 365.827 42.823 360.92C42.4326 355.985 42.0701 349.795 41.6519 342.963C41.624 339.534 41.5682 335.964 41.5404 332.284C41.5404 328.631 41.401 324.867 41.624 321.131C41.9586 313.658 42.098 306.157 42.8788 299.354C43.2691 300.469 42.7393 305.377 42.4326 320.183L42.9903 307.356L44.1614 294.558C44.3008 291.519 44.496 288.005 45.1931 283.209C45.4998 280.811 45.8623 278.079 46.2805 274.9C46.5036 273.311 46.6988 271.61 47.0055 269.825C47.3401 268.041 47.7026 266.117 48.0929 264.081L47.4237 270.522C50.5188 253.737 54.1994 236.867 59.9154 219.329C65.7709 201.874 73.2994 183.582 84.3133 164.538C84.5085 163.953 83.421 165.486 82.0269 167.494C80.7442 169.585 79.1828 172.122 78.3184 173.517C77.4261 174.883 77.1473 175.022 78.4299 172.206C79.127 170.84 79.9914 168.581 81.7201 165.626C83.4489 162.642 85.7353 158.711 88.6631 153.664C89.8063 152.325 91.0889 151.126 84.9546 161.666C85.9584 159.937 87.7429 156.842 89.7784 153.329C91.9254 149.872 94.6022 146.135 96.9165 142.845L91.8418 150.652C90.0851 153.218 88.7467 156.034 87.1574 158.711C89.7505 154.417 91.3677 151.712 92.6504 149.955C93.8494 148.143 94.4907 147.139 95.0483 146.247C96.1916 144.462 96.8607 142.957 101.601 136.488C101.74 136.99 109.241 127.37 108.042 129.377C106.759 130.967 104.557 133.699 102.214 136.599C99.8721 139.527 97.7251 142.929 96.0242 145.466C100.96 137.882 107.484 130.298 112.949 123.661C115.905 120.538 118.665 117.666 120.952 115.268C123.266 112.843 125.134 110.891 126.556 109.775C125.246 110.668 126.166 109.385 135.814 100.323C142.283 94.7464 146.381 91.8465 148.724 89.9505C151.094 88.1102 151.958 87.5525 152.488 87.3295C153.52 86.8276 153.101 87.3295 161.41 81.8922C163.111 80.749 165.398 78.9087 168.214 77.3473C171.002 75.7858 174.069 74.057 176.914 72.4398C182.518 69.038 187.677 66.891 187.788 66.4449C192.333 64.3815 195.066 63.2383 197.101 62.4297C198.133 62.0393 198.969 61.6769 199.778 61.398C200.614 61.1471 201.423 60.924 202.343 60.6452C204.406 59.8923 207.167 58.8885 210.401 57.7174C213.636 56.63 217.233 55.0685 221.276 54.1484C225.263 53.0888 229.473 51.9735 233.628 50.8582C234.66 50.5793 235.719 50.3005 236.751 50.0217C237.811 49.8265 238.842 49.6313 239.874 49.464C241.937 49.1015 243.973 48.7111 245.953 48.3765C249.884 47.6516 253.509 47.0103 256.604 46.4247C259.727 46.0901 262.292 45.7834 264.077 45.5882C267.618 45.17 267.924 45.0306 262.933 45.3373L258.416 45.7276C259.253 45.644 260.257 45.5325 261.288 45.4209C275.676 43.6922 290.538 42.9114 305.455 41.6288C320.373 40.4019 335.43 39.1472 350.487 38.5895C365.544 38.0597 380.629 38.1992 395.379 39.9558C410.129 41.6009 424.545 44.9748 437.929 50.189L437.761 50.3563C445.736 53.4513 453.878 57.4944 461.602 62.3739C469.325 67.2535 476.631 72.9417 483.239 78.9645C489.792 85.043 495.536 91.4841 500.833 97.4511C506.131 103.39 510.955 108.827 515.026 113.428C521.662 121.18 530.027 132.221 527.099 128.987C535.409 139.192 539.814 145.02 544.917 152.186C549.936 159.352 555.875 167.773 564.658 184.586C563.069 181.686 561.953 179.651 561.173 178.229C560.308 176.863 559.806 176.082 559.555 175.664C559.026 174.883 559.444 175.608 559.695 176.054C559.946 176.5 560.057 176.695 558.97 174.827C558.412 173.907 557.576 172.457 556.265 170.254C555.011 168.051 553.17 165.18 550.689 161.415C559.918 175.747 564.714 185.088 569.147 194.847C570.263 197.301 571.35 199.755 572.521 202.348C573.525 204.997 574.585 207.757 575.728 210.741C576.285 212.246 576.927 213.752 577.484 215.397C577.986 217.042 578.516 218.771 579.074 220.556C579.631 222.368 580.217 224.236 580.83 226.216C581.472 228.196 581.834 230.343 582.392 232.545C580.747 226.551 582.169 232.796 583.87 242.583C584.176 245.037 584.539 247.742 584.873 250.502C585.041 251.896 585.292 253.291 585.375 254.685C585.459 256.107 585.515 257.529 585.598 258.923C585.738 261.739 585.905 264.472 586.045 267.037C586.184 269.602 585.989 271.945 585.989 273.952L586.24 268.013L586.017 262.074C585.849 258.114 585.877 254.127 585.264 250.196C587.411 268.236 586.323 284.213 584.372 300.302C584.539 297.374 584.65 294.446 584.623 291.519C580.942 326.122 572.995 356.877 560.42 383.338C547.9 409.799 530.724 431.771 510.286 448.557C506.884 451.624 506.94 451.596 508.864 450.146C510.76 448.641 514.301 445.434 517.898 442.2C524.952 435.563 531.533 428.091 526.235 434.42C515.333 446.215 502.367 456.364 491.046 463.837C485.386 467.629 480.088 470.641 475.738 473.178C471.305 475.548 467.82 477.416 465.617 478.587C455.802 483.439 448.496 486.757 442.39 489.295C436.311 491.888 431.488 493.756 426.58 495.624C416.71 499.137 406.56 502.985 384.03 507.753C386.93 507.251 389.802 506.889 387.711 507.558C385.62 508.171 378.649 510.207 361.64 513.079C357.653 513.637 354.056 514.306 350.821 514.557C347.587 514.836 344.743 515.059 342.317 515.282C337.437 515.477 334.119 515.282 332.474 515.226C329.156 514.975 332.391 514.78 342.456 514.222C350.069 513.441 353.749 513.163 353.442 513.218C363.731 511.657 377.115 509.092 364.54 511.043L360.469 511.908C352.55 513.274 337.716 514.696 326.061 514.083C323.161 513.915 320.457 513.748 318.114 513.609C315.8 513.274 313.82 512.995 312.398 512.8C309.526 512.382 308.746 512.215 311.283 512.41C308.299 512.103 305.901 511.796 304.061 511.378C302.193 511.043 300.855 510.792 299.962 510.625C298.178 510.318 298.178 510.374 299.488 510.681C300.799 510.96 303.364 511.517 306.738 512.242C310.14 512.689 314.294 513.33 318.728 513.832C308.578 512.689 299.572 511.127 291.319 508.813C289.255 508.255 287.22 507.67 285.212 507.14C283.205 506.554 281.281 505.801 279.357 505.16C277.433 504.491 275.509 503.822 273.613 503.152L268.036 500.81C253.23 494.425 238.814 486.423 222.447 473.122C227.633 477.36 232.429 481.292 227.103 477.249C225.57 476.078 224.092 474.935 222.726 473.875C221.387 472.732 220.133 471.644 218.934 470.613C216.564 468.521 214.333 466.765 212.548 464.98C208.951 461.411 206.052 458.818 203.96 456.56C199.806 452.07 197.826 450.091 196.348 448.529C194.926 446.912 193.894 445.741 191.497 443.008C189.099 440.276 185.557 435.787 179.646 427.059C173.344 416.882 174.767 418.527 174.794 418.332C174.794 418.22 174.544 417.635 172.954 414.763C172.146 413.34 171.03 411.333 169.469 408.545C168.047 405.673 166.234 401.964 163.892 397.224C159.068 385.234 158.734 383.924 160.072 386.768C161.466 389.584 164.282 396.694 166.764 401.183C158.288 383.952 153.101 366.58 150.369 350.994C147.636 335.351 147.162 321.521 147.329 310.591L147.525 320.657C147.608 324.003 148.027 327.349 148.277 330.695C148.027 327.683 147.803 324.811 147.58 322.051C147.553 319.262 147.497 316.586 147.469 313.992C147.246 308.75 147.748 303.787 147.999 298.768C147.664 302.588 147.134 306.408 146.939 310.256C147.162 304.345 147.58 298.852 147.859 294.92C148.389 290.989 148.724 288.563 148.835 288.674C149.421 282.596 148.919 284.882 148.612 285.691C148.445 286.081 148.333 286.109 148.417 284.52C148.473 283.739 148.501 282.512 148.751 280.783C149.03 279.055 149.421 276.74 149.923 273.729C150.313 271.777 150.787 269.574 151.261 267.204C151.874 264.862 152.544 262.353 153.213 259.76C154.412 254.517 156.28 249.108 157.981 243.978C161.383 233.717 165.23 224.961 166.597 222.563C164.115 228.307 162.414 232.573 161.243 235.724C160.016 238.847 159.347 240.855 159.013 242.026C158.288 244.396 158.65 243.559 159.124 242.472C159.598 241.384 160.128 240.102 159.737 241.58C159.542 242.305 159.124 243.755 158.315 246.236C157.925 247.491 157.423 248.997 156.838 250.837C156.531 251.757 156.224 252.733 155.862 253.82C155.583 254.908 155.276 256.107 154.942 257.362C155.778 253.374 157.451 249.164 158.929 244.424C160.435 239.684 162.442 234.553 164.729 229.032C165.481 227.415 164.171 230.622 163.056 233.689C167.545 222.619 170.696 216.011 172.926 211.494C175.073 206.921 176.467 204.523 177.666 201.958C179.033 199.476 180.315 196.883 183.159 192.477C184.637 190.33 186.31 187.542 188.931 184.391C191.413 181.129 194.675 177.392 199.109 173.182C196.962 175.413 199.164 173.628 202.622 170.617C206.163 167.717 211.266 163.981 214.695 161.973C212.66 163.311 210.931 164.287 209.676 165.207C208.422 166.128 207.501 166.797 206.888 167.243C205.661 168.107 205.605 168.051 206.47 167.243C206.916 166.853 207.585 166.267 208.45 165.542C208.896 165.18 209.37 164.761 209.899 164.315C210.457 163.925 211.071 163.507 211.74 163.06C213.078 162.168 214.556 161.164 216.201 160.077C217.874 159.017 219.798 158.097 221.778 157.01C222.642 156.564 223.507 156.145 224.343 155.727C225.179 155.365 226.044 155.058 226.852 154.751C228.47 154.11 230.031 153.524 231.481 152.967C234.381 151.851 237.086 151.294 239.428 150.541C241.77 149.76 243.945 149.453 245.897 149.035C247.849 148.645 249.605 148.282 251.222 147.948C257.914 147 262.71 146.135 271.02 145.466C264.69 145.94 258.388 146.721 252.087 147.502C258.444 146.33 274.282 144.016 296.533 143.57C297.481 143.682 292.434 143.849 288.14 143.988C283.846 144.211 280.333 144.462 284.292 144.295C308.941 142.399 340.254 145.048 373.63 153.05C381.326 155.086 381.605 155.476 381.716 155.643C381.8 155.839 381.66 155.95 388.324 158.014C406.755 163.479 416.236 167.968 425.883 172.373C430.651 174.771 435.642 176.89 441.052 180.264C446.461 183.694 452.595 188.267 459.371 195.489C455.663 191.111 453.153 188.88 454.38 189.856C454.993 190.358 456.499 191.696 459.008 194.234C461.518 196.799 464.975 200.619 469.158 206.335C462.801 197.385 455.244 189.243 446.349 182.913C441.888 179.735 437.232 177.058 432.157 174.771L424.628 171.258L416.988 168.024C423.597 170.617 430.121 173.572 436.507 176.612C442.78 179.707 448.608 183.75 453.934 188.351C450.253 185.005 446.154 181.909 441.86 179.288C437.622 176.584 432.993 174.604 428.616 172.569C419.916 168.525 411.914 165.375 406.281 163.228C415.901 166.574 420.028 168.581 420.836 168.749C421.617 169 418.968 167.801 414.59 165.709C417.741 167.131 420.864 168.526 424.015 169.948C427.11 171.425 430.233 172.903 433.328 174.409C439.574 177.281 445.429 180.934 450.922 185.339C461.853 194.178 471.221 205.945 478.387 220.082L476.854 219.803C488.035 240.576 491.855 262.074 488.342 284.492C484.773 306.938 474.121 329.914 457.001 355.706C460.765 350.269 464.251 344.553 467.652 338.864C465.7 342.517 461.072 350.994 454.631 359.944C448.273 368.922 440.048 378.347 432.492 384.9C433.049 384.119 431.042 385.875 427.835 388.162C426.246 389.305 424.461 390.755 422.537 392.066C420.557 393.292 418.578 394.575 416.765 395.69C417.016 395.607 414.869 397.196 411.105 399.204C407.48 401.406 402.182 403.86 396.634 406.202C393.79 407.206 390.945 408.349 388.157 409.27C385.313 410.078 382.608 410.859 380.155 411.584C375.219 412.755 371.344 413.564 370.033 414.065L363.174 414.763L359.744 415.097L356.314 415.209L349.427 415.404L342.54 415.153C330.132 414.651 320.317 413.48 312.175 411.751C308.049 411.082 304.424 409.771 300.883 408.823C299.126 408.294 297.509 407.541 295.836 406.955C294.191 406.286 292.518 405.784 291.012 404.948C278.632 398.953 266.391 391.285 252.226 371.794C256.715 377.483 255.767 375.893 256.102 376.088C256.269 376.172 256.827 376.702 258.611 378.71C260.396 380.717 263.38 384.286 269.319 389.584C267.813 388.273 266.391 386.963 265.108 385.541C263.798 384.147 262.487 382.836 261.288 381.526C259.03 378.737 256.771 376.339 255.182 374.025C251.78 369.592 249.8 366.497 249.605 366.469C247.04 362.593 241.268 353.113 236.193 342.433C231.063 331.782 226.351 320.155 225.179 312.961C224.733 311.344 224.371 310.005 223.98 308.611C223.73 307.217 223.479 305.767 223.144 303.982C222.865 302.198 222.363 300.079 222.335 297.235C222.224 294.418 221.889 290.905 222.363 286.444C222.586 284.492 222.558 286.527 222.558 286.527C222.558 286.527 222.558 286.081 222.558 285.328C222.586 284.576 222.642 283.544 222.698 282.345C223.06 279.975 223.506 276.991 223.897 274.51C225.04 269.602 225.793 266.563 223.506 274.119C226.406 262.102 232.903 248.439 243.276 236.421C248.685 230.622 254.708 224.989 261.707 220.388C268.649 215.788 276.15 211.828 284.097 208.928C299.795 202.766 316.274 198.946 331.387 198.862C346.5 198.807 359.856 202.599 369.252 207.534C373.24 209.235 376.92 211.745 380.74 214.143C384.281 216.959 388.046 219.636 391.224 223.037C394.71 226.132 397.526 229.952 400.565 233.521C403.186 237.453 406.114 241.161 408.289 245.344C410.659 249.415 412.917 253.514 414.618 257.808C416.431 262.046 417.797 266.396 418.745 270.718C419.777 275.04 420.056 279.389 420.028 283.544C419.944 287.726 419.191 291.742 418.132 295.478C418.327 294.502 418.271 294.446 418.383 293.944C418.383 293.415 418.884 292.522 419.275 289.595C418.327 294.865 416.849 299.075 415.092 302.365C413.447 305.711 411.718 308.276 410.129 310.368C408.651 312.57 407.034 314.076 405.807 315.665C404.385 317.087 403.13 318.398 401.82 319.709C399.06 322.218 396.104 324.867 391.029 328.269C388.492 329.97 385.369 331.782 381.354 333.594C377.338 335.295 372.347 336.996 366.185 337.526C364.596 337.526 363.341 337.526 362.309 337.526C361.306 337.414 360.553 337.331 360.051 337.275C359.019 337.163 358.908 337.108 359.437 337.108C359.939 337.108 361.082 337.163 362.588 337.219C364.066 337.108 365.934 337.191 367.83 336.829C369.754 336.634 371.678 336.132 373.435 335.741C375.164 335.24 376.669 334.766 377.701 334.403C379.736 333.539 380.015 333.539 376.307 334.738C374.606 334.905 370.228 336.243 363.954 336.411C357.737 336.662 349.622 334.933 342.094 330.025C338.33 327.599 334.482 324.783 331.889 321.019C329.184 317.338 328.32 312.682 329.547 308.249C330.69 303.787 333.255 299.66 335.848 295.84C338.609 291.993 341.23 288.284 343.711 284.827C342.206 287.169 340.644 289.427 339.083 291.658C340.979 289.065 343.042 286.277 344.994 283.154C345.97 281.592 346.918 279.947 347.754 278.162C348.2 277.27 348.563 276.35 348.925 275.374C349.26 274.482 349.595 273.562 349.929 272.642C351.212 268.961 352.745 264.89 352.634 260.122C352.578 257.78 351.965 255.298 350.766 253.123C349.567 250.948 347.894 249.108 345.998 247.602C344.074 246.097 341.759 244.87 339.194 244.312C336.657 243.727 333.952 243.866 331.47 244.535C328.961 245.177 326.647 246.292 324.5 247.658C323.412 248.327 322.408 249.108 321.405 249.917C320.457 250.697 319.509 251.478 318.56 252.259C311.004 258.588 303.169 265.476 296.533 274.008C296.533 274.008 297.76 272.307 296.533 273.701C294.386 276.713 292.071 280.142 290.203 284.213C288.224 288.2 286.718 292.857 285.993 297.848C285.547 300.358 285.547 302.951 285.491 305.6C285.714 308.221 285.798 310.925 286.439 313.574C287.443 318.928 289.144 324.198 291.207 329.468C295.334 339.924 301.44 350.324 310.251 357.769C314.601 361.506 319.509 364.461 324.639 366.497C329.742 368.644 335.151 369.452 340.226 369.926C333.841 369.62 329.212 368.421 327.232 367.779C325.225 367.082 325.615 367.445 329.323 368.867C333.868 370.094 335.876 370.121 336.824 370.205C337.772 370.261 337.688 370.121 338.162 370.094C338.636 370.094 339.696 370.038 342.903 370.149C344.492 370.233 346.639 370.317 349.539 370.261C352.439 370.317 356.036 370.094 360.608 369.731C366.52 369.369 376.028 367.835 384.17 365.186C392.312 362.593 399.115 359.275 400.76 358.578C390.667 364.35 379.43 367.947 367.998 369.926C376.864 368.922 387.906 365.688 398 360.418C408.177 355.232 417.044 347.843 423.513 341.374L422.091 343.27C431.627 333.817 437.148 325.257 441.442 318.036C445.652 310.702 448.524 304.401 450.783 297.737C452.93 291.045 454.631 284.046 455.105 275.067C455.467 266.173 454.742 255.019 449.249 241.747C449.891 243.615 450.644 245.428 451.09 247.379C450.532 245.511 449.723 243.866 449.082 242.332C448.385 240.799 447.883 239.321 447.158 238.038C445.792 235.473 444.76 233.215 443.617 231.346C442.502 229.478 441.526 227.833 440.605 226.3C439.713 224.766 438.709 223.483 437.817 222.117C436.897 220.779 435.977 219.44 434.973 217.99C433.914 216.596 432.659 215.146 431.265 213.445C429.87 211.745 428.281 209.876 426.162 207.869C424.099 205.833 421.812 203.435 418.801 201.009C416.626 198.751 414.479 196.437 412.109 194.373C403.995 188.1 388.631 178.229 369.615 171.844C350.71 165.291 328.375 162.531 310.14 165.124C320.401 163.479 336.629 163.256 353.024 166.741C369.42 170.226 385.703 177.086 397.275 183.861C395.044 182.607 392.479 181.045 389.523 179.539C386.512 178.145 383.305 176.416 379.764 174.939C376.195 173.544 372.57 171.871 368.667 170.7C366.743 170.059 364.791 169.418 362.867 168.804C360.887 168.302 358.908 167.773 356.956 167.271C349.148 165.235 341.397 164.231 335.012 163.674C331.833 163.339 328.933 163.451 326.535 163.367C325.336 163.367 324.249 163.311 323.301 163.339C322.353 163.423 321.544 163.479 320.875 163.507C322.938 163.339 325.113 163.367 327.372 163.451C329.63 163.534 331.972 163.479 334.259 163.674C338.86 164.148 343.488 164.51 347.475 165.458C335.123 163.562 320.457 162.809 304.256 165.626C288.196 168.609 270.462 173.74 252.421 182.913C253.843 181.77 248.601 184.029 240.069 189.382C231.565 194.68 220.077 203.798 210.541 216.206C205.605 222.257 201.618 229.367 197.965 236.449C194.759 243.755 191.915 251.144 190.325 258.337C186.979 272.669 186.171 285.356 186.115 292.745C186.45 310.786 189.573 328.631 195.177 345.835C200.754 363.011 209.091 379.518 220.272 394.491C225.709 402.076 232.373 408.851 239.428 415.32C246.789 421.399 254.903 427.115 263.714 431.325C265.861 432.468 268.064 433.584 270.35 434.56C272.609 435.563 274.84 436.623 277.126 437.599C281.755 439.411 286.411 441.307 291.235 442.785C300.855 445.964 310.893 448.446 321.293 449.895C313.96 448.529 311.896 447.748 312.705 447.86C313.514 447.999 317.278 448.669 321.823 449.31C324.081 449.7 326.563 449.979 328.961 450.174C331.359 450.369 333.645 450.648 335.597 450.704C339.501 450.788 341.899 450.704 340.644 450.342C345.496 450.648 349.622 450.342 353.08 450.342C356.538 450.202 359.326 449.895 361.584 449.784C366.074 449.449 368.332 449.003 369.197 448.975C378.956 447.776 388.631 445.769 398 442.729C407.397 439.746 416.57 436.01 425.242 431.269C431.516 428.091 427.473 430.349 422.035 433.361C416.57 436.261 409.516 439.439 410.352 439.16C430.01 430.433 433.356 427.087 435.837 426.027C437.036 425.386 437.845 425.024 439.797 423.713C440.773 423.072 442.028 422.207 443.812 421.008C444.676 420.395 445.708 419.726 446.824 418.889C447.911 418.025 449.166 417.049 450.56 415.934C445.597 419.14 462.578 406.732 477.913 387.521C470.58 396.36 462.522 404.585 453.739 411.974C464.975 402.048 471.779 393.711 477.3 387.158C479.893 383.728 482.319 380.829 484.326 377.957C486.334 375.085 488.202 372.436 490.043 369.759C491.743 366.999 493.472 364.238 495.312 361.255C497.153 358.243 498.826 354.841 500.917 351.049C502.98 347.229 504.821 342.74 507.219 337.61C509.226 332.312 511.819 326.373 514.022 319.179C512.238 325.285 509.868 331.169 507.693 337.163C509.059 333.539 510.843 329.217 512.656 324.254C514.273 319.207 516.392 313.686 517.982 307.607C521.662 295.562 524.534 281.481 525.956 267.288C527.518 253.068 526.402 238.596 523.977 226.216C523.252 223.149 522.805 220.082 521.913 217.293C520.993 214.505 520.129 211.856 519.32 209.347C518.595 206.809 517.396 204.606 516.504 202.487C515.556 200.396 514.663 198.472 513.883 196.743C512.74 194.234 511.234 191.418 510.983 190.665C510.648 189.94 511.708 191.195 514.775 197.357C507.051 180.292 494.141 164.733 478.889 152.074C463.581 139.332 445.931 129.489 428.086 121.682C410.129 114.014 391.615 109.246 374.271 106.123C356.872 103.084 340.588 101.661 326.368 100.769H331.944C318.254 100.1 308.132 100.156 290.928 100.379C291.82 100.212 296.449 99.7375 290.092 100.1C288.279 100.239 285.101 100.462 281.058 100.741C277.014 101.076 272.163 101.857 266.949 102.47C261.734 103.195 256.269 104.422 250.916 105.37C245.646 106.736 240.543 107.935 236.138 109.134C241.101 107.628 246.148 106.262 251.195 104.924C233.517 108.632 218.432 114.348 205.354 121.18C202.092 122.908 198.858 124.498 195.93 126.533C192.946 128.485 189.963 130.27 187.175 132.249C184.47 134.341 181.793 136.432 179.144 138.467L177.165 140.001L175.324 141.702C174.097 142.817 172.898 143.96 171.699 145.076C166.708 149.37 162.665 154.472 158.26 159.212C156.308 161.806 154.328 164.371 152.376 166.992L149.449 170.923C148.584 172.318 147.692 173.712 146.828 175.106C145.099 177.922 143.231 180.71 141.53 183.61C139.968 186.594 138.379 189.633 136.762 192.728C135.033 195.767 133.695 199.03 132.272 202.348C130.878 205.666 129.289 209.012 127.978 212.525C127.783 212.414 126.361 215.592 124.186 220.862C123.071 223.483 121.9 226.69 120.617 230.231C119.335 233.8 117.829 237.704 116.546 241.914C110.942 258.616 106.034 279.278 104.027 293.303V292.299C97.6136 333.762 102.354 370.763 115.654 403.024C122.318 419.14 130.795 434.337 141.251 448.585C151.623 462.861 163.167 477.054 177.806 489.852C178.893 490.912 180.009 491.999 181.18 493.142C182.407 494.23 183.745 495.262 185.083 496.377C187.788 498.608 190.688 500.978 193.755 503.459C196.878 505.857 200.419 508.116 203.988 510.597C205.801 511.796 207.585 513.135 209.537 514.306C211.517 515.421 213.524 516.564 215.56 517.735C231.816 527.132 251.752 535.33 273.334 540.628C294.915 546.009 317.975 548.742 340.309 549.411C351.463 549.634 362.477 549.745 373.072 549.271C375.721 549.188 378.342 549.16 380.935 548.993C383.556 548.797 386.122 548.574 388.687 548.379C393.817 548.128 398.753 547.264 403.549 546.622C397.665 547.403 398.111 547.152 401.736 546.455C403.549 546.037 406.17 545.758 409.125 545.005C412.081 544.336 415.455 543.583 418.801 542.802C423.234 541.799 428.421 540.265 433.718 538.732C436.312 537.811 438.933 536.891 441.498 535.999C444.063 535.135 446.545 534.214 448.803 533.211C458.033 529.558 464.501 526.212 463.386 527.244L457.531 530.004C460.709 528.749 465.226 526.797 470.552 524.26C475.766 521.5 481.901 518.377 488.091 514.417C500.638 506.694 513.883 496.544 524.757 486.813L527.518 482.714C541.682 470.083 556.656 453.771 569.705 434.95C576.397 425.665 582.364 415.571 588.08 405.422C593.545 395.133 598.704 384.649 602.97 374.109C611.697 353.085 617.385 332.061 620.787 313.797C624.217 295.506 625.081 279.947 625.332 269.519C625.416 264.918 624.858 260.01 624.579 255.019C624.496 252.51 623.994 250 623.715 247.463C623.352 244.926 623.074 242.36 622.655 239.823C620.787 229.701 618.473 219.691 615.573 211.02L616.437 211.8C615.489 208.761 614.569 205.805 613.705 202.933C612.673 200.117 611.669 197.357 610.693 194.68C608.853 189.271 606.483 184.391 604.475 179.512C602.328 174.688 599.986 170.143 597.811 165.542C595.358 161.081 593.015 156.591 590.45 152.13C585.18 143.291 579.52 134.201 572.354 124.554C565.355 114.767 556.823 104.422 546.144 92.8782C549.239 95.8339 552.083 99.0404 555.038 102.163C549.322 95.3598 544.108 90.313 539.647 85.768C534.935 81.4461 530.919 77.654 526.737 74.1964C522.499 70.7947 518.511 67.2535 513.688 63.6566C511.317 61.8163 508.808 59.8644 506.075 57.7453C503.287 55.7098 500.304 53.5071 497.013 51.1091C494.615 48.8506 491.994 46.8987 489.457 44.7796C463.916 27.3526 435.363 13.7177 405.11 6.13341C389.635 2.25764 374.048 0.389458 358.517 0.250041L352.69 0.194275L346.89 0.556757C343.014 0.83559 339.138 0.91924 335.318 1.58844C331.498 2.1461 327.623 2.62012 323.886 3.26143C320.15 3.93063 316.414 4.57195 312.677 5.24114C313.625 4.96231 315.382 4.40465 325.141 2.75953C310.976 5.29691 283.26 8.89385 260.452 12.5466C237.615 16.0877 219.91 20.6048 225.207 19.9914C224.984 19.8799 220.969 20.5769 214.64 22.1384C211.489 22.9749 207.725 24.0066 203.57 25.1219C199.443 26.4603 194.926 27.9102 190.158 29.4438C185.474 31.2841 180.511 33.0408 175.603 35.1878C173.177 36.3031 170.723 37.4184 168.27 38.5616C167.043 39.1472 165.816 39.677 164.617 40.2625C163.446 40.9038 162.247 41.5451 161.076 42.1865C158.734 43.4691 156.419 44.7238 154.133 45.9507C151.847 47.1497 149.783 48.6554 147.664 49.9659C145.573 51.3043 143.565 52.5869 141.613 53.8417C139.717 55.1522 137.989 56.5463 136.316 57.7732L140.191 54.2041C128.843 62.7364 123.601 67.8669 117.327 73.834C111.36 80.1077 104.027 86.967 91.2562 101.885C88.0775 105.286 86.8785 106.931 87.1853 106.318C87.3804 106.039 87.9381 105.203 89.0256 103.892C90.1688 102.637 91.7581 100.853 93.8215 98.5385C88.4958 104.171 85.2613 108.493 82.6124 111.895C79.9914 115.296 78.0117 117.862 75.9204 120.566C73.9686 123.382 71.9052 126.394 69.0054 130.604C67.5276 132.696 65.8546 135.093 63.847 137.938C61.923 140.81 59.8318 144.239 57.2944 148.199C59.7203 144.211 61.8951 140.057 64.5441 136.209C60.0549 142.789 57.155 147.864 54.7291 151.684C53.5581 153.608 52.5264 155.253 51.6341 156.731C50.8255 158.237 50.1284 159.575 49.4871 160.802C46.9497 165.737 45.1373 169.027 41.2894 176.918C39.1424 181.435 36.4656 187.124 33.5936 193.146C30.9168 199.253 28.2958 205.833 25.7027 211.912C21.1019 224.264 17.1983 234.888 16.4733 237.118C16.0272 239.237 14.7446 244.535 12.8764 251.534C11.9841 255.047 11.2592 259.062 10.3111 263.301C9.83711 265.42 9.36309 267.595 8.86119 269.825C8.61024 270.941 8.35929 272.056 8.10834 273.199C7.91316 274.342 7.71798 275.486 7.5228 276.657C6.93725 279.138 7.80163 272.335 8.63813 268.989C3.17301 295.116 1.94615 315.024 1.47213 332.73C1.58366 350.464 2.11344 366.134 4.45564 384.342C4.37199 385.123 4.59505 387.521 4.92965 390.532C4.23257 385.262 3.53549 380.159 2.89418 375.196C2.44804 370.233 2.16921 365.437 1.80673 360.892C1.63943 358.606 1.50001 356.403 1.33271 354.256C1.33271 352.109 1.27695 350.018 1.24906 348.01C1.1933 343.995 1.16541 340.286 1.13753 336.913C1.026 333.539 1.27695 330.555 1.38848 327.962C1.5279 325.369 1.61155 323.194 1.6952 321.493C1.8625 318.091 1.94614 316.558 1.91826 317.338C1.77885 317.338 1.58366 319.458 1.3606 322.246C1.13753 325.034 0.886581 328.464 0.663515 331.029C0.412566 333.594 0.356799 335.323 0.245266 334.71C0.0500835 334.096 0.10585 331.113 0.245266 324.281C-0.479698 338.084 0.440449 356.793 2.50381 376.088C3.20089 380.884 3.89797 385.736 4.59505 390.56C5.15272 395.412 6.40747 400.124 7.27185 404.808C8.91696 414.233 11.5659 423.044 13.5735 431.158C13.9359 432.747 14.2705 434.281 14.6051 435.452C14.1869 434.365 13.8802 433.249 13.5735 432.134C15.7205 439.551 18.1184 446.048 20.2097 452.21C22.05 457.229 23.7509 461.244 25.3123 465.259C26.1209 467.267 26.9017 469.246 27.7382 471.338C28.5747 473.429 29.69 475.492 30.7774 477.807C31.112 478.755 32.3389 481.431 34.1234 485.196C35.0157 487.064 35.9916 489.239 37.1906 491.497C38.4732 493.728 39.8395 496.154 41.2615 498.635C46.643 508.813 54.3109 519.548 58.9953 526.714C58.6049 525.264 72.1562 543.081 59.8039 526.156C60.6404 527.216 60.027 526.658 58.6328 524.511C57.2108 522.364 54.8128 518.767 51.6341 514.055C50.2121 511.908 48.4833 509.426 47.591 508.004C47.7583 508.283 47.9814 508.618 48.2323 508.98C45.444 504.128 42.2096 498.524 38.6405 492.334C36.856 489.239 35.3782 485.809 33.6215 482.324C31.9485 478.81 30.1082 475.213 28.3795 471.449C31.4187 477.472 34.5138 483.634 37.9155 490.41C39.8116 493.7 41.7634 497.13 43.8547 500.755C45.9459 504.379 47.9535 508.339 50.6024 512.242C53.1677 515.784 55.8724 519.52 58.354 522.894C60.6962 526.351 63.3172 529.084 64.9902 531.231C68.4477 535.915 72.3792 541.966 77.454 547.626C79.9077 550.526 82.4172 553.51 84.9267 556.493C87.3526 559.56 90.2524 562.153 92.7898 564.886C102.967 575.9 112.949 584.042 115.069 586.384C116.323 587.444 117.578 588.531 118.833 589.591C120.171 590.594 121.51 591.598 122.876 592.602C125.608 594.637 128.369 596.701 131.157 598.792C136.65 603.142 142.757 606.906 148.835 610.893C151.902 612.845 154.886 614.936 158.009 616.777C161.187 618.561 164.366 620.346 167.517 622.13C170.696 623.915 173.846 625.699 176.969 627.456C180.148 629.157 183.41 630.607 186.589 632.168C211.907 644.855 236.779 652.802 252.84 655.925C256.437 656.845 259.253 657.57 261.539 658.183C263.854 658.685 265.666 659.076 267.172 659.41C270.183 660.135 272.079 660.609 274.756 661.251C270.546 660.47 265.945 659.633 261.818 658.853C257.747 657.877 254.15 656.984 251.892 656.455C266.196 660.414 287.917 663.927 306.933 665.851C311.701 666.158 316.302 666.465 320.568 666.771C322.687 666.911 324.751 667.05 326.702 667.162C328.654 667.162 330.495 667.162 332.223 667.19C339.138 667.19 344.074 667.134 345.858 666.995C350.515 667.218 353.693 666.911 355.757 666.939C357.82 666.911 358.824 666.911 359.103 666.939C359.688 666.995 357.513 667.162 355.757 667.273C354 667.413 352.69 667.496 355.032 667.441C356.203 667.385 358.266 667.329 361.668 667.19C363.369 667.134 365.376 667.05 367.774 666.939C368.973 666.883 370.256 666.827 371.65 666.771C373.044 666.632 374.522 666.493 376.112 666.353C373.825 666.66 371.539 666.967 369.224 667.078C394.431 665.712 417.128 662.227 438.459 657.431C443.784 656.148 448.97 654.698 454.157 653.332C456.75 652.635 459.315 651.938 461.908 651.268C464.446 650.432 466.955 649.623 469.493 648.787C474.512 647.114 479.558 645.552 484.55 643.796C489.457 641.872 494.392 639.976 499.328 638.052C504.319 636.239 509.115 633.981 513.994 631.778C518.846 629.492 523.865 627.512 528.689 624.947C533.54 622.437 538.448 619.9 543.411 617.307C545.921 616.08 548.346 614.63 550.8 613.152C553.254 611.702 555.735 610.252 558.217 608.774C578.042 596.812 598.759 582.787 619.616 564.133C613.705 569.124 610.721 571.634 609.439 572.554C633.836 552.088 655.781 527.829 673.486 500.476C691.248 473.15 704.632 442.757 712.886 411.082C721.195 379.407 724.318 346.56 723.286 314.243C722.31 281.927 718.769 250.112 713.276 219.134C709.818 201.595 707.142 192.031 704.799 184.196C703.517 180.32 702.374 176.835 701.147 173.043C699.892 169.25 698.219 165.263 696.323 160.133C695.654 157.623 694.984 155.114 694.148 152.66C691.555 147 689.296 141.172 686.313 135.707L682.075 127.398C680.652 124.637 678.952 122.016 677.418 119.312C664.201 96.4473 650.315 77.9886 632.888 60.4779C630.741 58.2193 628.594 56.1281 626.475 53.7859C624.328 51.4995 622.209 49.1294 619.895 46.8151C617.608 44.5008 615.127 42.2143 612.339 40.1789C609.606 38.0876 606.399 36.3589 602.802 35.3551C601.882 35.1878 600.99 34.8253 600.014 34.8253C599.066 34.7974 598.09 34.7416 597.114 34.7137C595.19 34.9926 593.211 35.2156 591.426 36.0521C589.502 36.6377 587.996 37.8646 586.296 38.8684C584.818 40.1231 583.284 41.35 581.918 42.772C579.241 45.6161 576.732 49.1294 575.839 53.4513C574.919 57.829 576.536 62.4576 579.018 65.9709C577.429 63.4335 576.285 60.45 576.202 57.355C576.425 60.5615 577.958 63.9912 580.245 67.0304C582.531 70.0976 585.459 72.8859 588.498 75.6464C591.538 78.4068 594.744 81.1115 597.644 84.0113C600.516 86.9112 603.109 90.1178 605.674 92.9898C615.796 104.645 622.767 114.404 621.373 112.954C622.125 113.93 623.325 115.464 625.053 117.694C626.754 119.953 629.013 122.853 631.411 126.896L631.522 127.677C642.48 143.877 651.988 161.053 659.935 178.982C664.369 189.466 665.986 194.485 666.711 196.883C667.436 199.281 667.213 199.113 667.213 199.56C667.157 200.006 667.547 201.009 668.997 205.917C669.75 208.371 670.782 211.772 672.26 216.54C672.901 218.938 673.654 221.699 674.518 224.85C675.41 228 676.331 231.542 677.223 235.585C677.892 238.596 678.784 241.886 679.481 245.4C680.178 248.913 680.931 252.594 681.656 256.33C682.911 263.803 684.194 271.415 684.919 278.023C685.867 284.631 686.146 290.208 686.536 293.554C686.87 296.9 687.01 298.015 686.926 295.701C686.48 285.747 684.947 270.299 685.142 269.519C686.062 276.991 686.954 284.492 687.4 292.048C688.042 294.056 688.822 299.41 689.185 297.318C689.38 296.259 689.38 293.331 689.185 287.197C689.157 284.102 688.822 280.226 688.376 275.402C688.042 270.55 687.205 264.751 686.285 257.808C685.727 254.601 685.002 251.422 684.389 248.244C683.775 245.065 683.106 241.886 682.27 238.736L679.927 229.283L677.195 219.914C676.303 215.816 675.104 211.8 673.988 207.757L676.498 215.565L678.673 223.483C680.206 228.725 681.377 234.079 682.604 239.405C679.007 221.113 674.936 209.904 670.308 197.552C669.416 194.541 667.91 189.271 664.898 182.133C659.852 170.366 653.745 159.129 647.471 148.059C646.495 145.94 648.754 149.593 649.646 151.015C650.12 151.712 650.26 151.823 649.563 150.346C648.893 148.84 647.248 145.801 644.014 140.224C639.274 132.584 641.281 136.432 642.536 138.969C643.177 140.252 643.624 141.2 642.954 140.224C642.229 139.304 640.668 136.32 636.485 130.186C634.06 126.199 632.414 123.522 631.132 121.431C629.766 119.395 628.79 117.917 627.758 116.384C625.639 113.345 623.436 109.859 616.382 101.466C614.653 98.901 617.72 102.386 623.129 109.19C620.062 105.398 616.521 100.964 612.812 96.3636C608.937 91.9023 604.894 87.3016 600.934 82.9239C596.696 78.5741 592.374 75.1445 588.972 72.0215C585.543 68.9544 583.089 66.1939 581.723 64.3258C580.44 62.4576 579.436 60.0596 579.13 57.4665C579.13 56.8252 578.962 56.156 579.102 55.4589C579.213 54.7897 579.325 54.0926 579.436 53.3955C579.994 52.0571 580.412 50.6351 581.388 49.3525C583.005 46.6478 585.598 44.2777 588.164 42.1307C590.896 40.3183 593.796 38.7011 596.78 38.5338C602.775 38.0597 607.989 41.4615 611.14 43.9989C614.346 46.6478 615.991 48.5438 615.517 48.3487C616.633 49.2967 618.696 51.2485 621.317 53.8974C622.655 55.2358 624.133 56.7415 625.722 58.3309C627.34 59.9202 629.096 61.5932 630.881 63.3499C634.366 66.8631 638.27 70.488 641.783 74.308C645.185 78.2116 648.503 82.0316 651.375 85.3497C640.361 73.5551 651.682 85.6286 662.696 101.661C673.961 117.583 683.273 138.105 680.903 134.48C686.787 144.825 695.291 164.733 701.732 187.737C708.229 210.741 712.69 236.644 715.507 257.668C715.144 255.326 714.475 250.697 713.917 247.017C714.837 252.928 715.228 257.836 715.73 262.046C716.232 266.256 716.538 269.853 716.789 273.143C717.319 279.78 717.765 285.328 718.211 292.996C719.745 296.008 721.278 333.092 720.107 353.141C718.128 367.64 718.323 363.179 718.936 356.291C719.299 352.834 719.104 348.735 719.159 346.086C719.159 343.437 719.048 342.21 718.741 344.497C718.936 344.134 718.908 347.118 718.825 351.663C718.853 353.921 718.518 356.57 718.239 359.359C717.932 362.147 717.626 365.102 717.319 368.002C716.427 379.602 714.084 389.919 715.395 385.123C712.969 396.025 712.021 400.737 711.185 404.083C710.181 407.374 709.484 409.381 707.616 414.818C707.532 416.826 706.361 421.901 704.158 428.565C702.959 431.855 701.593 435.591 700.115 439.551C699.418 441.558 698.665 443.622 697.912 445.741C697.55 446.8 697.187 447.86 696.797 448.947C696.351 450.007 695.905 451.067 695.458 452.126C688.46 466.709 687.456 468.494 686.229 470.641C684.891 472.732 683.524 475.241 674.992 490.772C670.224 497.743 672.12 494.592 675.132 489.685C677.836 484.61 681.545 477.667 681.545 477.667L681.684 477.807ZM14.7167 421.566C15.6368 425.079 16.5291 428.342 17.2819 431.214C18.0069 434.086 18.9828 436.456 19.5405 438.352C18.9828 436.623 18.2021 434.588 17.4492 431.883C16.7243 429.178 15.832 425.832 14.7167 421.594V421.566ZM4.56717 351.384C4.56717 355.706 5.12484 360.558 5.43155 365.744C5.62673 368.337 5.82192 371.014 6.0171 373.774C6.37958 376.507 6.74206 379.295 7.13243 382.111C7.27185 384.621 6.6863 381.972 5.76615 374.862C6.1844 378.737 4.90177 362.007 4.59505 351.412L4.56717 351.384ZM40.3693 496.935C38.9472 494.453 37.7482 492.417 36.8002 490.689C35.9358 488.904 35.2666 487.454 34.709 486.311C33.6215 483.969 33.0917 482.742 32.785 482.017C33.9561 484.443 35.2388 487.064 36.6887 489.992C38.1944 492.891 40.1183 495.987 42.1538 499.583C42.3211 499.862 42.7115 500.448 42.8788 500.727C42.2374 499.834 41.5404 498.803 40.3972 496.962L40.3693 496.935Z" fill="#3C0D20"/>
<path d="M51.5786 514.083C52.4988 515.449 53.0007 516.202 54.1997 517.958C52.9449 516.007 51.7738 514.138 50.547 512.242C49.7384 511.127 48.9019 509.984 48.1769 508.98C49.3201 510.709 50.5191 512.465 51.5786 514.083Z" fill="#3C0D20"/>
<path d="M262.766 45.421L264.272 45.2816C263.017 45.3652 261.874 45.4489 261.121 45.5047C261.79 45.4675 262.339 45.4396 262.766 45.421Z" fill="#3C0D20"/>
<path d="M619.365 282.875L619.504 282.791L619.727 276.629L619.365 282.875Z" fill="#3C0D20"/>
<path d="M39.421 325.62C39.3652 326.373 39.3374 327.85 39.3095 330.806C39.3374 330.583 39.3931 328.352 39.421 325.62Z" fill="#3C0D20"/>
<path d="M78.9035 489.378C80.9669 492.835 83.1975 496.181 85.3446 499.583C87.4358 503.041 89.8616 506.247 92.2317 509.51C90.6981 507.391 89.2482 505.439 87.9098 503.571C86.683 501.647 85.5397 499.862 84.4523 498.189C82.3332 494.815 80.4092 491.999 78.8756 489.378H78.9035Z" fill="#3C0D20"/>
<path d="M171.03 581.17C172.508 581.951 172.954 582.118 173.344 582.285C173.261 582.229 173.205 582.201 173.121 582.146L171.002 581.17H171.03Z" fill="#3C0D20"/>
<path d="M261.4 142.566C263.157 142.315 264.885 142.204 266.447 142.009C278.297 140.81 270.239 141.535 261.4 142.566Z" fill="#3C0D20"/>
<path d="M417.184 501.73C414.089 502.818 410.938 503.682 407.759 504.658C404.608 505.634 401.402 506.554 398.056 507.363C408.763 504.742 416.989 502.177 417.184 501.758V501.73Z" fill="#3C0D20"/>
<path d="M222.754 322.106C222.754 322.106 222.754 322.106 222.782 322.162C222.308 320.712 221.778 319.485 221.471 317.98C221.75 319.402 222.308 320.712 222.754 322.079V322.106Z" fill="#3C0D20"/>
<path d="M369.866 513.33C375.303 512.438 380.294 511.517 384.923 510.458C389.579 509.51 393.901 508.422 398.056 507.335C395.853 507.865 393.566 508.422 391.224 508.98C388.854 509.482 386.456 509.984 384.03 510.514C379.207 511.601 374.355 512.465 369.866 513.302V513.33Z" fill="#3C0D20"/>
<path d="M659.684 453.716L661.022 450.844L662.166 447.888C662.166 447.888 662.194 447.609 662.361 447.163C661.552 449.394 660.716 451.596 659.684 453.716Z" fill="#3C0D20"/>
<path d="M662.361 447.163L664.814 440.582C663.643 443.594 662.64 446.215 662.361 447.163Z" fill="#3C0D20"/>
<path d="M669.667 426.613C668.384 431.381 666.515 435.954 664.814 440.582C665.735 438.184 666.767 435.535 667.715 433.054C668.663 430.6 669.22 428.23 669.667 426.613Z" fill="#3C0D20"/>
<path d="M546.311 582.118L544.749 583.372C545.642 582.759 546.199 582.313 546.311 582.118Z" fill="#3C0D20"/>
<path d="M499.885 607.157C511.569 602.473 528.773 594.108 543.439 584.404L544.722 583.373C543.021 584.544 540.121 586.44 536.552 588.698C532.871 590.734 528.494 593.16 524.06 595.613C519.571 597.983 514.803 600.13 510.621 602.25C506.438 604.341 502.534 605.819 499.858 607.157H499.885Z" fill="#3C0D20"/>
<path d="M284.32 623.329C298.652 626.285 313.096 628.794 327.706 630.077C320.066 629.101 310.084 627.819 329.937 629.715C316.163 628.376 310.084 627.121 307.686 626.87C305.288 626.536 306.627 626.815 307.881 627.094C309.136 627.372 310.335 627.651 307.658 627.372C304.982 627.149 298.429 626.173 284.32 623.329Z" fill="#3C0D20"/>
<path d="M159.905 570.435C179.451 583.54 159.849 570.017 160.965 570.602C154.663 566.615 151.066 563.659 150.536 563.408C150.285 563.269 150.843 563.715 152.349 564.886C153.101 565.472 154.077 566.225 155.304 567.2C156.559 568.121 158.093 569.152 159.905 570.435Z" fill="#3C0D20"/>
<path d="M532.983 136.906L531.115 135.344C542.212 149.732 531.393 135.344 532.983 136.906Z" fill="#3C0D20"/>
<path d="M585.655 311.511C586.24 308.583 586.603 305.655 587.049 302.7C587.439 299.744 587.969 296.816 588.248 293.861L588.499 285.356C587.857 294.084 586.965 302.811 585.655 311.483V311.511Z" fill="#3C0D20"/>
<path d="M542.323 412.811C543.913 410.719 545.223 408.433 546.673 406.258C541.32 414.735 535.185 422.681 528.549 430.21C533.484 424.689 538.029 418.833 542.295 412.811H542.323Z" fill="#3C0D20"/>
<path d="M332.725 200.089C330.94 199.727 329.128 199.699 327.316 199.56C324.276 199.811 321.85 199.894 320.233 200.229C318.616 200.535 317.807 200.759 318.003 200.814C318.198 200.898 319.369 200.731 321.739 200.508C322.938 200.452 324.416 200.368 326.256 200.285C328.068 200.257 330.215 199.894 332.725 200.061V200.089Z" fill="#3C0D20"/>
<path d="M451.647 247.853C450.727 243.978 448.078 237.314 444.37 230.566C443.394 228.921 442.362 227.248 441.358 225.547C440.327 223.874 439.1 222.34 438.012 220.807C436.869 219.273 435.865 217.712 434.666 216.373C433.495 215.035 432.38 213.752 431.32 212.581C432.631 214.143 433.941 215.704 435.252 217.266C436.423 218.911 437.594 220.556 438.737 222.173C441.135 225.324 442.892 228.753 444.76 231.793C448.05 238.15 450.448 243.866 451.647 247.853Z" fill="#3C0D20"/>
<path d="M552.724 457.173C549.768 460.993 546.422 464.534 543.299 468.215C549.434 461.439 555.289 454.468 560.81 447.191C558.273 450.648 555.401 453.827 552.724 457.173Z" fill="#3C0D20"/>
</svg>
