<svg width="15" height="59" viewBox="0 0 15 59" fill="none" xmlns="http://www.w3.org/2000/svg">
<path d="M1.17418 30.8577C1.16489 30.9408 1.11848 30.9747 1.07671 30.9778C1.1092 30.9008 1.13705 30.8392 1.17418 30.8577Z" fill="#FF0200"/>
<path d="M0.663643 29.0166C0.677567 29.0567 0.686849 29.0905 0.696131 29.1244C0.654361 29.0844 0.631156 29.0413 0.663643 29.0166Z" fill="#FF0200"/>
<path d="M1.42481 41.6269L1.28094 41.3406C1.42945 41.3191 1.39233 41.4884 1.42481 41.6269Z" fill="#FF0200"/>
<path d="M1.0535 46.3774V46.4636C1.00245 46.4882 0.937477 46.5128 0.867861 46.5375L1.0535 46.3774Z" fill="#FF0200"/>
<path d="M1.5269 49.8778C1.36447 49.924 1.29021 49.9856 1.25772 50.0564C1.18346 50.0564 1.09528 50.0472 0.979256 50.0195C0.960691 49.9363 1.35518 49.9086 1.52226 49.8778H1.5269Z" fill="#FF0200"/>
<path d="M1.97244 55.8628V55.9798C1.98172 55.949 1.97244 55.8997 1.97244 55.8628Z" fill="#FF0200"/>
<path d="M0.96535 43.7697C0.905016 43.7636 0.853964 43.7512 0.826118 43.7359C0.87717 43.7359 0.92358 43.7482 0.96535 43.7697Z" fill="#FF0200"/>
<path d="M7.46287 58.3381L7.43503 58.298L7.4211 58.2796V58.2703L7.41182 58.2642V58.2611H7.44895L7.49536 58.2703C7.50464 58.3196 7.51857 58.3658 7.51857 58.415L7.45823 58.3381H7.46287Z" fill="#FF0200"/>
<path d="M0.162403 25.6516C0.162403 25.6516 0.162403 25.6609 0.171685 25.667C0.125275 25.7563 0.134557 25.704 0.162403 25.6516Z" fill="#FF0200"/>
<path d="M13.3153 2.6723C13.4034 2.54915 13.538 2.46603 13.8211 2.69385C13.5148 2.53376 13.5427 2.73079 13.5056 2.90012C13.4731 3.06945 13.4127 3.19568 13.0739 2.95554C13.1621 2.9617 13.2271 2.79545 13.3153 2.6723Z" fill="#FF0200"/>
<path d="M0.570813 17.9765C0.529043 17.9765 0.482633 17.9549 0.399093 17.8964C0.468709 17.9118 0.519761 17.9426 0.570813 17.9765Z" fill="#FF0200"/>
<path d="M0.956059 23.6751L0.905007 23.5335C0.942135 23.5889 0.951418 23.6351 0.956059 23.6751Z" fill="#FF0200"/>
<path d="M0.918939 14.8331C0.895734 14.7931 0.88181 14.7592 0.918939 14.6884C0.937503 14.6976 0.951427 14.7069 0.96535 14.7192C0.928221 14.7469 0.905016 14.7808 0.918939 14.8331Z" fill="#FF0200"/>
<path d="M0.918939 14.8331C0.928221 14.8516 0.942131 14.8731 0.951413 14.8978C0.932849 14.8731 0.92358 14.8516 0.918939 14.8331Z" fill="#FF0200"/>
<path d="M0.951378 11.776C0.979224 11.7914 1.00243 11.8129 1.03028 11.8345C1.02564 11.8653 1.01635 11.9022 1.00707 11.933L0.951378 11.776Z" fill="#FF0200"/>
<path d="M0 26.957C0.0788985 26.7969 0.0788984 26.6676 0.0742574 26.5352L0.403775 26.6861C0.348082 26.5291 0.343441 26.3967 0.208849 26.3998C0.426981 26.2397 0.756498 26.5229 1.05353 26.2027C0.886448 25.9934 1.23453 25.5685 0.793627 25.4977C0.942142 26.1535 0.352723 25.4269 0.283107 25.978C0.334159 25.8702 0.334158 25.7409 0.273824 25.5839C0.222772 25.5593 0.181003 25.6055 0.157797 25.6486C-0.232054 25.0236 0.654394 25.3622 0.645112 24.7126C0.399134 24.7958 0.176361 24.5618 0.227413 24.4571C0.232054 24.7188 0.640471 24.5833 0.830755 24.3432C0.640471 23.9276 0.974629 23.8906 0.951424 23.672L1.0396 23.9214C1.28558 23.8383 1.25309 23.6289 1.33199 23.3395C1.25774 23.3303 1.22525 23.3642 1.20204 23.4073C1.39233 23.1025 0.691522 22.73 0.960705 22.3236C0.793626 22.1142 0.496596 22.302 0.38521 22.1204C0.705445 21.6186 0.0464109 21.5755 0.310953 21.0459C0.645111 21.1999 0.561572 21.2245 0.886448 20.852L0.654393 21.7201L1.13707 21.1629C1.14171 21.4246 0.928218 21.7171 0.983911 21.8741C1.25309 21.6093 1.1742 21.637 1.44802 21.7602C0.951424 21.4 1.74041 21.049 1.40161 20.6334L0.580136 20.6457C0.21349 20.0207 1.00248 19.5374 0.793627 18.7277L0.9375 18.9894C1.26238 18.8816 0.983911 18.4906 1.11386 18.2258C0.840037 18.2505 0.737934 18.0873 0.566213 17.9734C0.770421 17.9857 0.547649 17.3792 1.0953 17.3053L0.733292 16.9451C0.584777 16.2893 1.51764 16.197 1.42481 15.5689C1.12778 15.7598 0.932859 15.4735 0.719369 15.8953C0.719369 15.6859 0.668317 15.495 0.858602 15.492C0.686881 15.3688 1.22989 14.9101 0.969988 14.7161C1.09066 14.6269 1.3784 14.5991 1.3552 14.3621C1.2995 14.3375 1.22061 14.3621 1.22061 14.3621C1.3552 14.3621 1.40625 13.9926 1.70792 14.1989C0.849319 13.5524 1.76825 12.3917 1.03496 11.8283C1.12778 11.3696 1.21597 10.8185 1.23453 10.4029C1.15099 10.4306 1.0953 10.4029 1.12778 10.4829C0.872525 9.9103 1.91677 10.1289 1.63366 9.4762C1.18812 9.14371 1.39233 9.82409 1.22525 9.61474C0.320236 9.52546 1.35056 8.8266 0.821473 8.38635L0.770421 8.4941C0.464109 8.15852 1.11386 7.67517 1.04889 7.12408C1.04889 7.12408 0.969988 7.15179 0.914295 7.12716C1.37376 6.75156 1.52692 6.04039 1.65687 5.51393C1.30415 5.6771 1.47123 5.75407 1.10922 5.65247C1.16027 5.41541 1.68472 5.72328 1.78682 5.24916C1.59189 5.09523 1.42481 4.7535 1.0396 4.71039L1.02104 5.1568C0.770421 5.04289 0.775062 4.89819 0.830755 4.75349C0.886448 4.60572 0.988552 4.47641 0.960705 4.3194L0.742574 4.35327C0.798268 3.92533 1.02568 3.72829 1.22525 3.54049C1.43874 3.35269 1.63366 3.17105 1.875 2.78313L1.96782 2.90628C2.36231 2.78006 2.33911 2.68154 2.33447 2.57378C2.32519 2.46911 2.29734 2.33672 2.65934 2.23513C2.54796 2.13045 2.44585 2.01962 2.34375 1.90879C2.53404 1.80719 2.90532 1.65326 3.31838 1.52087C3.42048 1.48701 3.52259 1.45314 3.62933 1.41928L3.94957 1.32999C4.15377 1.26534 4.36262 1.22224 4.54363 1.1699C3.94957 1.06523 3.03063 1.36694 2.44121 1.59476C2.52475 1.53319 2.63614 1.45314 2.76609 1.37002C2.90532 1.29305 3.06312 1.20992 3.22092 1.13604C3.55043 1.00057 3.87995 0.905134 4.06095 0.945157C3.87067 0.975944 3.60149 1.00673 3.49938 1.12372C4.22339 1.10833 4.90099 0.997495 5.70854 0.818931C5.46256 0.504905 6.02878 0.326341 6.74814 0.246295C7.47215 0.166249 8.28434 0.221666 8.72525 0C9.56528 0.243216 10.3682 0.427938 11.185 0.720413C11.9926 1.00673 12.8001 1.4162 13.3385 2.02886C12.2571 1.91494 13.6402 2.37983 12.814 2.57994C12.9533 2.85087 13.0322 2.94323 13.0925 2.95862L13.0275 2.91244C13.0554 2.93091 13.0739 2.94323 13.0972 2.9617C13.4127 3.18952 13.7144 3.45121 13.9558 3.74369C14.2574 3.9438 14.0671 3.4235 14.2435 3.4235C14.392 3.77139 14.4756 3.8422 14.6055 3.87915C14.7215 3.91609 14.87 3.91917 15 4.17162C14.6844 4.07003 14.5962 4.49488 14.703 4.76581C14.573 4.61495 14.4477 4.48565 14.2992 4.28246C14.276 4.34403 14.2574 4.40252 14.2435 4.45486C14.2296 4.5072 14.2157 4.53799 14.211 4.57493C14.1971 4.64574 14.2064 4.71039 14.2249 4.76273C14.2621 4.87356 14.3549 4.95669 14.4431 5.03981C14.6241 5.20606 14.8004 5.37539 14.5777 5.76023L14.8468 5.51393C14.689 5.91108 14.8515 6.97939 14.1692 7.3673C14.2667 7.43811 14.4988 7.53047 14.5637 7.35499C14.6658 8.30322 13.8351 9.46697 14.2574 10.2059L14.4663 10.135C14.4059 10.3105 14.0764 10.4429 14.2853 10.6646C14.3735 10.6523 14.4941 10.5938 14.5034 10.6738C14.4338 10.7662 14.1368 11.1449 14.2621 11.3788L14.4941 11.1787C14.7679 12.1054 13.9233 12.6011 13.7794 13.3769C14.392 13.3769 14.5916 14.1035 14.689 14.4668L14.7772 14.4544C14.8515 15.532 14.2713 16.2863 14.03 17.2838C14.6937 17.9026 14.3085 19.3834 14.6798 20.3778C14.5684 20.227 14.2017 20.4025 14.1414 20.581C14.2667 20.815 13.7144 21.2276 14.2806 21.1906L14.2713 21.1075C14.8236 21.283 14.6751 21.7632 14.689 22.1388L13.9558 22.2004C15.0232 23.1825 13.5613 24.7711 14.522 25.3068C14.3363 25.5439 14.341 25.8364 14.1553 26.0703L14.5498 26.058C14.6519 26.7138 14.6983 27.0401 14.6055 27.8529L14.8886 27.6866C14.9118 28.1454 13.7515 28.2654 13.7283 28.6872L14.3178 28.8134C14.3085 29.6108 14.8236 30.4205 14.2899 31.2087C14.3781 31.1964 14.5452 31.1717 14.5684 31.0424C14.5823 31.418 14.9675 32.4956 14.16 32.3601C14.6844 32.3693 14.211 33.1821 13.979 33.6131L14.3688 33.5454C13.8722 33.9087 13.7376 33.921 13.5984 34.429C13.6402 34.5306 13.8351 34.5336 13.8304 34.4351C13.9418 34.7615 13.4545 34.7153 13.6494 35.174L13.8954 34.9924C13.9233 35.4049 13.7933 35.3711 13.5056 35.5989C13.3478 35.8575 13.603 36.3809 13.9558 36.4424C13.7423 36.4979 13.4545 36.7226 13.5566 36.9658C13.6912 36.9997 13.7701 36.9104 13.8119 36.8642C14.0764 37.5538 13.3617 37.8894 13.7423 38.3635C13.8722 38.3728 13.9372 38.4036 13.9743 38.4436C13.965 37.8956 13.9418 37.4553 13.914 37.4953C14.2713 37.4953 14.3363 37.9387 14.8283 37.5846C14.5591 37.9387 13.9743 38.5483 14.1414 38.9793C14.1739 39.0008 14.211 39.0193 14.2667 39.0378L14.3085 38.9916C14.3456 39.0901 14.3085 39.1794 14.2528 39.2656C14.3131 39.4041 14.3549 39.4903 14.3595 39.6227C14.6566 39.6751 14.5173 40.1307 14.5312 40.3524C14.1414 40.3339 14.2017 40.6233 13.8815 40.3524C13.9093 40.3862 13.9279 40.3093 13.9465 40.1646C13.9558 40.1307 13.965 40.0938 13.9882 40.0691C13.979 40.0722 13.965 40.0784 13.9558 40.0845C13.965 39.9398 13.9743 39.752 13.9836 39.5365C13.784 39.712 13.617 39.8937 13.8351 40.1369C13.5845 40.2508 13.3246 40.3739 13.2039 40.4447C13.7515 40.7464 14.0439 41.3283 14.3827 41.4114C14.1646 42.0857 14.2389 43 13.5009 43.4249C13.4081 43.6158 13.7098 43.6466 13.8258 43.7174C13.9001 43.6065 13.8861 43.4742 13.9929 43.4157C13.8026 43.7974 13.9186 44.5517 13.4081 44.6441C13.6402 45.1274 13.8815 44.3731 13.798 45.0351L13.9558 44.9458C14.7772 46.2511 12.6423 47.0701 13.7005 48.5171C13.6355 48.4155 13.6077 48.3662 13.5195 48.3446C13.9836 49.9948 13.0832 51.7466 13.8212 53.3752C13.9697 53.837 13.6402 53.8894 13.3942 54.1695L13.8165 54.2711L13.3246 54.7637C13.1389 55.1301 13.2921 55.4564 13.3524 55.8597C13.3895 56.2446 13.2828 56.7187 12.5588 57.0142C12.5217 56.9434 12.4799 56.8726 12.4335 56.8049C12.3082 56.9588 12.0297 57.1651 11.793 57.3221C11.5656 57.4884 11.3753 57.6023 11.5192 57.67C11.4403 57.67 11.2082 57.6053 11.134 57.7593L11.2546 57.8793C11.0365 57.9348 10.8323 57.9902 10.6095 58.0271C10.396 58.0702 10.1779 58.101 9.95978 58.1226C9.56064 58.3134 9.65347 58.4181 9.7138 58.5567C9.74165 58.6213 9.75557 58.689 9.66275 58.7629C9.57457 58.843 9.375 58.923 8.97587 58.9938C8.82271 59.0092 8.63243 58.9938 8.4375 58.9692C8.24722 58.9446 8.05229 58.9076 7.88985 58.8553C7.72741 58.806 7.59746 58.7537 7.52321 58.7044C7.50464 58.6921 7.49072 58.6829 7.47679 58.6706C7.47215 58.6644 7.46751 58.6583 7.46287 58.6552V58.649C7.46287 58.649 7.45823 58.6213 7.45823 58.6059V58.6028C7.45823 58.5998 7.46751 58.5967 7.47215 58.5936C7.69028 58.5813 8.0198 58.4828 8.00588 58.3381L7.54177 58.2765C7.53713 58.2519 7.52785 58.2242 7.51856 58.1965C7.49536 58.1965 7.47215 58.1965 7.44895 58.1965C5.60644 58.1965 3.97277 57.5684 3.01671 56.6202C2.99814 56.6417 2.97494 56.6633 2.95637 56.6879C2.95637 56.6448 2.96102 56.6048 2.96566 56.5617C2.84499 56.4354 2.7336 56.3031 2.63614 56.1645C2.57116 56.2015 2.53403 56.26 2.56652 56.3523C2.07921 56.1245 2.55724 56.0321 2.1117 55.8351C2.04672 55.8135 2.02816 55.8351 2.02352 55.869C2.00959 55.752 2.04208 55.6288 2.05136 55.5118C1.95854 55.595 1.63366 55.518 1.7961 55.715C1.50371 55.4379 1.55476 55.1547 1.62902 54.9484C1.70328 54.736 1.78218 54.5913 1.56405 54.4866L1.52692 54.5359C1.67543 53.9417 1.83787 54.1942 2.12098 54.108V53.7354L1.40161 53.4614L1.82859 53.3845C1.81467 53.3013 1.78218 53.1413 1.61046 53.169C1.90285 52.8642 1.7961 53.2213 2.06993 53.0427C1.68472 52.6487 2.25093 51.9559 1.57333 51.8667C1.89821 51.725 1.82395 52.2453 2.04672 51.8236C1.31807 51.7035 2.17203 51.3371 1.83787 50.9769C1.46194 51.0878 1.66151 51.4295 1.32735 51.0693C1.96318 50.8507 1.18812 50.3673 1.30879 50.0626C1.81467 50.0472 1.51764 49.4006 1.68936 48.8927C1.51764 48.9234 1.41089 47.9321 1.22989 47.458L1.14635 47.4734C1.65687 47.381 1.55941 46.8915 1.66615 46.5344C1.35984 46.5498 1.23917 46.6113 1.10458 46.8053V46.4697C1.27166 46.3897 1.3552 46.285 1.41553 46.0695L1.03496 46.1526C1.05817 45.7062 1.48515 45.2536 1.22989 44.681C1.47123 44.6595 1.84251 44.875 2.13026 44.8288V44.5178C2.00959 44.5271 1.90285 44.5609 1.86108 44.6441C1.88428 44.5917 2.02351 44.4593 1.93998 44.3547L1.6151 44.5979C1.47123 44.3362 1.88428 44.4624 1.85644 44.2531C1.58261 44.2562 1.66151 44.0991 1.44338 44.1268C1.41553 44.1792 1.55477 44.3085 1.44802 44.3885C1.39697 44.1515 1.23453 43.8682 1.02568 43.7728C1.18348 43.7943 1.39697 43.7728 1.42946 43.6004C1.44802 43.154 1.09994 43.4465 0.956065 43.1878C1.14635 43.0801 0.951423 42.7969 1.35984 42.7876C1.35984 42.6583 1.16491 42.6337 1.05353 42.5813C1.23453 42.3504 1.10458 41.5038 1.54084 41.7624L1.56869 41.8209C1.56869 41.8209 1.57797 41.7963 1.58725 41.784C1.99567 41.0266 1.3552 40.2108 1.53156 39.4626H1.39233C1.55012 39.0162 1.48515 38.4651 1.78218 38.145C1.78218 38.0126 1.53156 37.8309 1.36912 37.8894C1.47123 37.5477 1.62902 37.5077 1.40161 37.0151C1.16027 37.3599 1.18812 36.895 1.22525 37.3691C1.10458 36.9227 0.886449 36.8242 1.26238 36.3439C0.909654 36.5071 0.816832 36.0083 0.923577 35.7959L1.1742 36.1069C1.22525 35.8698 1.19276 35.6604 1.16491 35.4511L0.700805 35.565C0.139233 34.6537 1.66151 33.921 0.714728 33.2283C1.0396 32.9881 0.942141 33.724 1.32271 33.5084C1.26238 33.0897 0.59406 32.6526 0.59406 32.5233C0.3388 31.9506 1.27166 31.9876 1.0953 31.3872C1.26238 31.4642 1.70328 31.5381 1.85644 31.0886C1.7961 30.6699 1.16491 30.5745 1.03032 30.8392C1.0164 30.9408 1.06745 30.987 1.12314 30.9839C1.06281 31.1194 0.993193 31.2979 0.812191 31.1317L0.97927 31.0763C0.812191 30.8669 0.826114 30.2912 0.556931 30.4267C0.714728 30.1096 0.826114 30.2912 0.914295 30.5252C0.672958 29.9864 0.905013 29.6847 0.747216 29.1305C0.840037 29.2198 1.03032 29.2999 1.03032 29.2106C0.826114 28.3978 1.34592 28.8535 1.41553 28.3024C1.16491 27.9884 0.812191 28.4132 1.02568 27.8591C0.853961 27.5204 0.589418 27.7882 0.454827 27.9206C0.775062 27.4157 0.245978 26.9785 0.185643 26.6891L0.0510523 26.9539L0 26.957ZM14.4199 39.9029C14.4756 39.7551 14.3967 39.7058 14.3178 39.6874C14.3131 39.7582 14.2992 39.8382 14.2713 39.9429C14.2574 39.946 14.2389 39.9552 14.2249 39.9614C14.2992 39.946 14.3688 39.9306 14.4199 39.9029ZM2.30198 55.6812C2.27413 55.6257 2.25557 55.5673 2.237 55.5118C2.237 55.558 2.22772 55.6042 2.22772 55.6565C2.25557 55.6719 2.27878 55.675 2.30198 55.6812Z" fill="#FF0200"/>
<path d="M13.7979 34.4351C13.7933 34.4136 13.7886 34.3982 13.7794 34.3736C13.7933 34.3982 13.7979 34.4167 13.7979 34.4351Z" fill="#FF0200"/>
<path d="M1.11846 23.4996C1.16023 23.4688 1.18343 23.438 1.20664 23.4073C1.16951 23.475 1.17415 23.5643 1.11846 23.4996Z" fill="#FF0200"/>
<path d="M7.40713 58.5998V58.1934C7.40713 58.3165 7.40713 58.4551 7.40713 58.5998Z" fill="#FF0200"/>
<path d="M13.9093 40.1676C13.9 40.1892 13.8861 40.2015 13.8815 40.2292C13.849 40.1984 13.8165 40.1707 13.7933 40.143C13.835 40.1245 13.8768 40.1061 13.9139 40.0907C13.9139 40.1184 13.9139 40.1461 13.9093 40.1707V40.1676Z" fill="#FF0200"/>
<path d="M1.4805 41.7408C1.49443 41.7562 1.51299 41.7716 1.5362 41.7809C1.51763 41.7686 1.50371 41.7686 1.48978 41.7593L1.4805 41.7408Z" fill="#FF0200"/>
<path d="M1.39694 52.35L1.50832 52.9226C1.35517 52.8241 1.1556 52.6917 1.11847 52.9504C0.668284 52.2299 1.45727 53.0981 1.39694 52.35Z" fill="#FF0200"/>
<path d="M1.17882 50.5767C1.10921 50.8846 0.960691 50.5736 0.87251 50.589C1.01174 50.3951 1.04423 50.3458 1.17882 50.5767Z" fill="#FF0200"/>
<path d="M1.17418 37.757L0.816812 37.7878C0.867864 37.5508 0.956045 37.7878 1.17418 37.757Z" fill="#FF0200"/>
<path d="M0.478034 33.8594L0.426982 33.9641L0.556932 33.5669L0.478034 33.8594Z" fill="#FF0200"/>
<path d="M0.607951 12.3301L1.04421 12.401C0.965315 12.561 0.47336 12.5949 0.607951 12.3301Z" fill="#FF0200"/>
<path d="M1.88892 2.20741C1.69864 2.43216 1.70792 2.71232 1.57333 2.80776C1.44802 2.64459 1.5362 2.2967 1.88892 2.20741Z" fill="#FF0200"/>
<path d="M14.4755 22.6653L14.624 22.4775L14.5034 22.8316L14.4755 22.6653Z" fill="#FF0200"/>
</svg>
