<svg width="109" height="42" viewBox="0 0 109 42" fill="none" xmlns="http://www.w3.org/2000/svg">
<g clip-path="url(#clip0_28_92967)">
<path d="M86.0954 41.3042L86.1222 41.5183C86.2178 41.656 86.4931 41.9084 86.5007 41.7975L86.0954 41.308L86.0954 41.3042Z" fill="#552C3C"/>
<path d="M87.0591 41.6406C87.1814 41.7171 87.277 41.8548 87.3535 41.9427C87.2082 41.6559 86.9061 41.1933 86.4511 40.8262C86.8105 41.3271 86.6155 41.1627 87.0514 41.7515C87.0438 41.8624 86.8029 41.7133 86.6499 41.5374C86.7417 41.675 86.4588 41.5336 86.7073 41.8471C87.1317 42.1148 87.2464 42.0307 87.0629 41.6406L87.0591 41.6406Z" fill="#552C3C"/>
<path d="M93.915 36.777L93.8232 36.7617C93.8614 36.7808 93.892 36.7847 93.915 36.777Z" fill="#552C3C"/>
<path d="M97.8497 33.5268C97.8497 33.4733 97.8382 33.4236 97.7961 33.3892C97.7808 33.4274 97.8114 33.4848 97.8497 33.5268Z" fill="#552C3C"/>
<path d="M98.9087 33.2627C98.882 33.2627 98.8628 33.2665 98.8399 33.2703C98.8934 33.2971 98.9317 33.3048 98.9087 33.2627Z" fill="#552C3C"/>
<path d="M93.915 36.7769L94.152 36.819C94.0144 36.666 93.9953 36.7616 93.915 36.7769Z" fill="#552C3C"/>
<path d="M87.0819 40.0537C87.0819 40.0958 87.1087 40.1531 87.1469 40.2258C87.1469 40.1914 87.1469 40.157 87.1469 40.1302C87.124 40.1034 87.1049 40.0843 87.0781 40.0575L87.0819 40.0537Z" fill="#552C3C"/>
<path d="M92.6761 38.7422L92.6455 38.7728C92.6876 38.834 92.7411 38.9028 92.8023 38.9793L92.6723 38.7422L92.6761 38.7422Z" fill="#552C3C"/>
<path d="M91.0357 39.4609C91.1772 39.633 91.2307 39.7286 91.2346 39.7821C91.3072 39.8548 91.3952 39.9389 91.5175 40.0383C91.5634 40.0269 91.1925 39.6368 91.0357 39.4609Z" fill="#552C3C"/>
<path d="M93.6397 37.9429C93.6971 37.9964 93.7506 38.0423 93.785 38.0691C93.7391 38.0232 93.6894 37.9811 93.6397 37.9429Z" fill="#552C3C"/>
<path d="M84.4589 4.27879C84.4856 4.25202 84.5048 4.2329 84.5277 4.20996C84.4818 4.24055 84.4512 4.26732 84.4589 4.27879Z" fill="#552C3C"/>
<path d="M84.9139 0.971048L84.9522 0.971048C85.0248 0.898397 85.0975 0.82957 85.1701 0.760742L84.9139 0.971048Z" fill="#552C3C"/>
<path d="M100.53 32.6128C100.53 32.6128 100.522 32.6128 100.519 32.6128C100.534 32.6854 100.541 32.6625 100.53 32.6128Z" fill="#552C3C"/>
<path d="M105.658 18.7671C105.436 19.2259 105.031 19.0118 104.828 19.5663C104.962 19.4018 105.581 19.1342 105.658 18.7671Z" fill="#552C3C"/>
<path d="M87.1661 40.0731C87.1776 40.0539 87.1929 40.031 87.212 40.0195C87.1776 40.031 87.1623 40.0463 87.1661 40.0731Z" fill="#552C3C"/>
<path d="M102.725 29.6304C102.763 29.6686 102.817 29.7107 102.916 29.7719C102.843 29.7107 102.782 29.6686 102.725 29.6304Z" fill="#552C3C"/>
<path d="M100.427 31.1786L100.526 31.1786C100.473 31.1672 100.446 31.171 100.427 31.1786Z" fill="#552C3C"/>
<path d="M103.444 28.2308C103.444 28.2308 103.409 28.2231 103.39 28.2231C103.413 28.2308 103.432 28.2346 103.444 28.2308Z" fill="#552C3C"/>
<path d="M103.444 28.2306C103.478 28.2383 103.505 28.2383 103.493 28.1809C103.471 28.1656 103.455 28.1541 103.436 28.1465C103.463 28.1924 103.474 28.2268 103.444 28.2306Z" fill="#552C3C"/>
<path d="M104.442 27.1677C104.407 27.1448 104.377 27.1295 104.346 27.1104C104.342 27.1256 104.338 27.1486 104.335 27.1639L104.442 27.1639L104.442 27.1677Z" fill="#552C3C"/>
<path d="M87.8391 7.29578C87.9232 7.16578 88.0265 7.03195 88.1335 6.90576C87.8812 7.19254 87.6288 7.13519 87.8391 7.29578Z" fill="#552C3C"/>
<path d="M87.2961 40.2678C87.2081 40.1645 87.1661 40.111 87.1623 40.0728C87.1546 40.088 87.1508 40.1072 87.147 40.1263C87.2005 40.1875 87.254 40.241 87.2923 40.2678L87.2961 40.2678Z" fill="#552C3C"/>
<path d="M100.438 25.1832L100.66 25.0723C100.576 25.0837 100.496 25.122 100.438 25.1832Z" fill="#552C3C"/>
<path d="M95.4483 14.7979L95.3642 14.8055C95.3718 14.8284 95.3948 14.8323 95.4483 14.7979Z" fill="#552C3C"/>
<path d="M101.1 24.5181C101.264 24.6213 101.371 24.6672 101.455 24.6863C101.432 24.6481 101.417 24.6175 101.375 24.5678L101.096 24.5181L101.1 24.5181Z" fill="#552C3C"/>
<path d="M100.308 32.5322C100.308 32.5322 100.293 32.5743 100.301 32.6011C100.312 32.5781 100.312 32.5552 100.308 32.5322Z" fill="#552C3C"/>
<path d="M95.8345 15.4824C95.8077 15.4901 95.7733 15.5015 95.7274 15.5168C95.7656 15.5015 95.8001 15.4901 95.8345 15.4824Z" fill="#552C3C"/>
<path d="M86.9253 40.4247C86.9101 40.6503 86.8221 40.9448 87.1471 41.3463L87.3039 41.3845C87.2083 41.3195 87.0133 41.0862 86.9865 41.0098C86.803 40.6197 87.2618 40.9868 87.3995 41.113L87.4071 41.2736C88.2598 41.9695 87.5907 40.8415 87.7895 40.7345L88.2866 41.3615L87.9769 40.7383C88.1566 40.853 88.4931 41.1436 88.5007 41.3004C88.8869 41.4686 88.3975 41.0021 88.8028 41.2201C88.8602 41.2583 88.8831 41.2889 88.8984 41.3233L88.8372 41.048C88.9328 41.1857 89.254 41.4266 89.1049 41.4113C89.6211 41.5413 88.994 40.6771 89.4949 41.0327L89.514 41.0824C89.5905 40.6236 89.1278 40.6427 88.8449 39.9582L89.9996 40.8415L89.6134 40.4018C89.6555 40.3903 89.7434 40.3636 89.8964 40.5394C89.7167 40.1532 89.6976 40.3788 89.4911 40.05C89.9996 40.2947 89.6823 39.507 90.3705 40.1341C90.1029 39.7747 89.9996 40.0194 89.927 39.66C90.6764 40.3253 89.969 39.3732 90.4164 39.5759C90.7453 39.9774 90.4355 39.9009 90.8829 40.1035C90.34 39.4114 91.2538 40.0003 91.2385 39.7823C90.7529 39.2853 91.2576 39.3541 91.2653 39.0176C91.4182 39.1935 91.858 38.9641 92.1983 38.9832L92.2748 39.0711C91.8083 38.5434 92.0683 38.4708 92.0874 38.249C92.378 38.5511 92.4736 38.6888 92.5424 38.8876L92.6533 38.7729C92.5195 38.5855 92.4736 38.467 92.4889 38.337L92.833 38.7346C92.963 38.5626 92.6992 37.9967 93.1389 38.0502C92.8024 37.6946 92.0224 37.2396 91.9956 36.8036C92.1906 36.9834 92.5195 37.2969 92.5424 37.4269C92.5348 37.3849 92.4507 37.209 92.5654 37.2548L92.7986 37.6525C93.0242 37.7022 92.5807 37.3428 92.6801 37.3007C92.9439 37.5684 92.921 37.4384 93.1236 37.6602C93.1313 37.7022 92.9516 37.6105 93.028 37.7443C93.1542 37.7137 93.4104 37.7749 93.6437 37.9469C93.4831 37.8016 93.2842 37.5875 93.3072 37.4957C93.4372 37.3275 93.6781 37.7672 93.9037 37.8131C93.7546 37.5913 94.0413 37.6869 93.6475 37.2854C93.6934 37.2434 93.8884 37.4231 94.0146 37.511C93.9152 37.2587 94.3281 37.0981 93.8157 36.7616L93.766 36.7539C93.766 36.7539 93.766 36.7386 93.7622 36.7233C93.6207 36.0695 94.5193 36.4174 94.5996 35.9968L94.7334 36.1307C94.7334 35.8286 94.9782 35.7024 94.8023 35.3086C94.8481 35.2627 95.1502 35.4462 95.2917 35.6259C95.307 35.4118 95.1693 35.2474 95.5555 35.3009C95.6741 35.6489 95.8003 35.4653 95.6052 35.5915C95.8691 35.5571 96.1176 35.7368 95.915 35.2091C96.2018 35.6068 96.4579 35.5265 96.4274 35.3544L96.0794 35.2168C96.11 35.0868 96.2094 35.0485 96.3088 35.0065L96.7218 35.4959C97.5745 35.7368 96.3432 34.0123 97.4942 34.6929C97.2609 34.2953 97.1042 34.6394 96.8097 34.1959C97.0124 34.1156 97.8039 34.6126 97.8498 34.5706C98.2933 34.6279 97.3718 33.7332 97.7465 33.6988C97.5592 33.5649 97.108 33.1596 97.108 32.8575C97.3106 32.7772 97.953 33.3585 97.9951 33.5764C97.976 33.6223 97.9071 33.5879 97.8536 33.5343C97.8651 33.6376 97.8766 33.7676 98.106 33.8861L97.9645 33.7064C98.1977 33.7982 98.3775 33.5879 98.5916 33.8976C98.5457 33.6376 98.3736 33.5879 98.213 33.5841C98.626 33.6338 98.5036 33.3087 98.8478 33.2782C98.7292 33.2208 98.5151 33.0602 98.5457 33.0296C99.0199 32.9531 98.3622 32.6052 98.4769 32.349C98.8287 32.4866 99.0237 32.9723 99.0046 32.5784C99.2837 32.6281 99.4558 32.9799 99.5399 33.1558C99.4022 32.6778 100.06 33.0411 100.217 32.999L100.255 33.217C100.232 33.087 100.278 33.0449 100.324 32.999L99.9528 32.7275C100.06 32.7275 100.106 32.6893 100.24 32.8231C100.083 32.5593 99.6661 32.3299 99.4863 31.936C99.7196 32.0278 99.5246 31.546 99.9758 31.9475C99.6431 32.0163 100.289 32.2955 100.32 32.5363C100.339 32.4981 100.381 32.479 100.45 32.4828C100.507 32.5211 100.53 32.5784 100.542 32.6166C101.134 32.7849 100.156 32.0393 100.385 31.829C100.595 32.0966 100.89 32.2343 100.874 32.1463C100.783 32.2304 100.431 31.7869 100.328 31.5231C100.656 31.5689 100.343 31.2325 100.435 31.1789L100.263 31.1789C100.052 30.9074 100.152 30.8692 100.175 30.6933C100.37 30.873 100.213 30.9113 100.331 30.9571C100.018 30.4256 101.012 31.1483 100.882 30.7124C101.115 30.8042 101.341 31.156 101.513 31.2057C101.371 30.7239 102.025 31.351 101.945 30.9151C101.57 30.6436 101.639 30.7315 101.452 30.2918L101.387 30.8118L101.108 30.1542C101.016 30.2383 101.123 30.5442 101.016 30.5404C100.844 30.1886 100.913 30.2765 100.603 30.0509C101.207 30.4142 100.561 29.5271 101.027 29.7144L101.823 30.5174C102.389 30.6627 101.788 29.7335 102.262 29.6609L102.037 29.6112C101.758 29.2556 102.163 29.3971 102.121 29.1829C102.381 29.4582 102.534 29.5003 102.737 29.6265C102.534 29.4315 102.954 29.4429 102.446 28.8885L102.92 29.1179C103.283 29.0414 102.412 28.1046 102.714 27.9861C102.939 28.3417 103.226 28.4335 103.291 28.7814C103.364 28.7126 103.478 28.6973 103.291 28.5138C103.497 28.64 103.127 27.9593 103.448 28.1467C103.36 28.0014 103.092 27.7108 103.192 27.6534C103.253 27.6993 103.322 27.7873 103.322 27.7873C103.192 27.6534 103.268 27.4852 102.901 27.2558C103.952 27.8714 103.452 26.5866 104.354 27.1105C104.419 26.8657 104.518 26.5942 104.641 26.4337C104.713 26.5216 104.775 26.5675 104.717 26.5675C105.161 26.621 104.071 25.6804 104.568 25.7377C105.111 26.0551 104.683 26.0895 104.916 26.1813C105.371 26.6057 105.406 26.5101 105.413 26.3534C105.421 26.1966 105.379 25.9939 105.776 26.1086L105.776 26.2157C106.017 26.2692 106.048 26.0704 106.044 25.8524C106.044 25.6307 105.998 25.3898 106.17 25.2789C106.17 25.2789 106.254 25.3515 106.331 25.3821C106.132 25.0839 106.071 24.8392 106.059 24.625C106.143 24.5485 106.235 24.4453 106.316 24.3306C106.434 24.4185 106.4 24.4262 106.805 24.5256C106.824 24.453 106.576 24.3765 106.346 24.2885C106.407 24.2006 106.461 24.1126 106.503 24.0285C106.744 24.0285 107.019 24.0285 107.367 24.0973L107.18 24.3268C107.608 24.3803 107.684 24.2962 107.673 24.2006C107.665 24.1012 107.566 23.9941 107.696 23.9482L108.032 24.0362C108.292 23.6385 107.352 23.52 107.746 23.1988L107.413 23.2141C107.004 23.0955 107.172 23.0802 107.382 23.0496C107.589 23.0229 107.841 22.9846 107.539 22.8967L108.552 22.8508L108.648 22.8508C108.453 22.7782 108.086 22.6711 107.734 22.5678C107.379 22.4646 107.038 22.369 106.855 22.2849C107.665 22.304 108.312 22.5487 108.958 22.7208C108.828 22.5831 108.403 22.2467 107.868 22.2352C108.009 22.2734 108.319 22.3231 108.22 22.3881C107.344 22.2925 106.836 22.1931 106.614 22.0096C106.614 21.9943 106.614 21.9752 106.614 21.9599C107.444 21.8107 107.39 21.6272 107.249 21.4131C107.103 21.1951 106.893 20.9733 107.348 20.6216C106.824 20.4801 106.648 20.2201 106.472 19.8874C106.388 19.723 106.304 19.5394 106.201 19.3597C106.147 19.2718 106.09 19.18 106.021 19.0997C105.971 19.0347 105.941 18.9965 105.883 18.9582C105.207 19.8912 105.753 18.8741 104.95 19.723C104.817 19.6924 104.794 19.6465 104.84 19.5853L104.824 19.635C104.832 19.6121 104.836 19.5968 104.843 19.5777L105.077 18.8282C105.256 18.5261 105.341 18.725 105.516 18.5338C105.394 18.2853 105.788 18.1055 105.887 17.7652C105.616 18.0864 105.398 18.1247 105.406 17.9067L105.172 18.4382C104.473 18.6179 105.643 17.5205 104.947 17.6964L105.291 17.5205C105.004 17.5396 104.801 17.0196 104.006 17.5549C104.079 17.4364 104.274 17.1802 104.392 17.1764C104.17 16.7558 102.974 17.1687 103.134 16.511L103.36 16.3351C103.241 16.3351 102.874 16.6105 103.004 16.3351C103.092 16.2548 103.23 16.1593 103.214 16.1172C103.115 16.1554 102.702 16.3122 102.74 16.1172L103.035 15.9566C102.989 15.3792 102.002 16.0331 101.601 15.9069C102.197 15.3142 102.144 14.8745 102.117 14.6527L102.205 14.5724C101.914 14.1365 101.092 14.4462 100.523 14.343C100.958 13.4865 100.083 13.3641 100.11 12.6682C100.052 12.8288 99.6393 13.1232 99.5169 13.1232C99.559 12.9244 98.886 13.3182 99.4443 12.7829L99.4634 12.8211C99.9376 12.2246 99.6355 12.2055 99.5246 12.064L98.7904 12.7561C99.4978 11.3872 97.5401 12.2705 98.2895 11.1616C98.0295 11.261 97.9339 11.1616 97.6777 11.2572L98.0639 10.8787C97.9416 10.5613 97.8766 10.4007 97.5133 10.2172L97.8421 9.9992C97.7121 9.81948 96.5421 10.9092 96.3776 10.7869L96.9053 10.1713C96.6262 9.91125 96.8556 9.13886 96.0717 9.3874C96.1597 9.3071 96.3318 9.15033 96.4006 9.16945C96.2897 9.02797 96.2973 8.29381 95.5594 9.12356C96.0679 8.61118 95.3299 8.79472 94.9629 8.87502L95.3605 8.51941C94.7564 8.87884 94.6225 9.00503 94.3166 8.96679C94.3243 8.87884 94.5843 8.6303 94.5384 8.77942C94.5996 8.44676 94.0757 9.03179 94.114 8.66471L94.4161 8.485C94.3052 8.31675 94.1866 8.45823 93.831 8.66089C93.594 8.72589 93.6628 8.30146 93.984 7.94202C93.7584 8.12939 93.4028 8.33205 93.4181 8.15233C93.5366 8.01085 93.6437 7.96114 93.701 7.9382C93.724 7.44876 92.9172 8.02997 93.1275 7.49847C93.2498 7.36846 93.2995 7.29581 93.3263 7.2461C93.5022 7.44111 93.6322 7.60936 93.5901 7.62465C93.9381 7.27669 93.8501 7.06639 94.4467 6.70695C94.0643 6.84843 93.2919 7.21169 93.3072 6.90579C93.3339 6.86373 93.3607 6.82549 93.4066 6.76813L93.4601 6.74519C93.4601 6.67636 93.3989 6.68019 93.311 6.71078C93.3225 6.60754 93.3339 6.53489 93.2957 6.48518C93.5672 6.17928 93.2804 6.16016 93.2192 6.07221C92.8445 6.45841 92.8101 6.30164 92.5883 6.70695C92.6036 6.66872 92.6495 6.67636 92.7145 6.70695C92.7374 6.70695 92.7566 6.7146 92.7871 6.69931C92.7757 6.70695 92.7604 6.71843 92.7489 6.72607C92.8101 6.76431 92.8827 6.81784 92.9592 6.88667C92.7068 7.0205 92.4851 7.11992 92.6113 6.82931C92.3283 7.0358 92.0339 7.2461 91.8924 7.33787C92.3207 6.70695 92.4124 6.22134 92.7107 5.86955C92.2709 5.85426 92.0339 5.47571 91.1774 6.04545C91.0206 6.07221 91.3074 5.76631 91.3953 5.62866C91.5024 5.59425 91.5368 5.64778 91.6591 5.56748C91.3456 5.62101 91.2041 5.25393 90.6764 5.72425C90.7376 5.33805 91.2271 5.35717 90.9212 5.21569L91.1047 5.09333C91.4603 3.85444 89.1164 5.6516 89.6517 4.1374C89.6211 4.23299 89.6096 4.27888 89.5331 4.37065C89.4261 3.36118 87.9616 3.64796 88.1298 2.3823C88.1184 2.08022 87.7819 2.3823 87.4454 2.53143L87.8201 2.08787L87.1854 2.39759C86.608 2.51231 87.7857 0.99428 86.8412 1.35371L86.6042 1.66726C86.5506 1.51049 86.1109 1.49519 86.4436 1.19694C86.3824 1.23518 86.1224 1.44931 86.2256 1.26577L86.4359 1.04781L85.8126 1.15488C85.7668 0.799269 86.6921 0.336596 86.4397 0.00393063C86.2485 -0.0228356 85.5106 0.317478 85.4073 0.501017C85.4417 0.55455 85.3844 0.745737 85.1741 0.96369L84.9638 0.975162C84.3176 1.58696 83.5949 2.1567 83.3999 2.83733L83.9543 2.6232L83.7019 2.98263L83.5413 2.86027C83.3349 3.22735 83.6408 3.02469 83.874 2.90998C83.7249 3.08587 83.6369 3.22352 83.6102 3.31912L84.3787 2.88321C84.1531 3.15087 83.8166 3.29617 83.7899 3.54472C84.1455 3.34206 84.2678 2.91762 84.5814 2.86409C84.3749 3.23117 84.1187 3.44148 84.459 3.29235C84.3099 3.46824 84.1875 3.55237 84.0767 3.58296C84.3558 3.47207 84.3826 3.72443 84.7611 3.43383C84.4934 3.86974 85.1397 3.62884 84.5355 4.2177C84.7038 4.10298 85.1511 3.90033 85.2544 3.95386C84.3979 4.5236 85.5029 4.28652 84.6999 5.01304C85.4456 4.47771 85.3653 5.10863 85.9082 4.94038C85.8471 4.98245 85.7247 5.06274 85.74 5.01304C85.7935 5.16981 85.6291 5.39541 85.5756 5.58277C86.1185 5.06657 86.4053 5.10863 86.8183 4.87156C86.4359 5.51012 86.1185 5.41453 85.6673 5.94603C86.0918 5.51012 86.3212 5.73955 86.6347 5.33805C86.4168 5.75102 86.5659 5.57513 86.1759 6.06457C86.8565 5.41835 86.3786 6.04545 86.868 5.72043C86.6845 6.19075 86.283 6.37811 86.6424 6.33223C86.5124 6.60754 86.1415 6.70313 86.1415 6.70313C86.2906 6.8752 86.7036 6.29017 87.0248 6.0378C87.3574 6.08751 86.7456 6.49282 86.5544 6.81402C86.8068 6.79872 87.3536 6.43164 87.4224 6.54253C87.346 6.63048 87.3345 6.68019 87.2121 6.76049C87.736 6.489 87.606 7.11227 88.2484 6.76049C88.214 6.81402 88.1795 6.86373 88.1451 6.90196C88.3707 6.62666 88.6231 6.37046 88.8066 6.19457C88.8869 6.25575 89.254 6.01103 88.9558 6.36664C88.9213 6.31311 88.7875 6.44312 88.6652 6.52341L88.8831 6.45841C88.4816 6.99373 88.6193 6.51959 88.2713 6.86373C88.5696 6.85608 89.1278 6.63813 89.1087 6.88285C88.6728 7.36464 88.6919 6.77578 88.4319 7.33405L88.4319 6.98609C87.843 7.84261 88.3784 6.82931 87.7245 7.72789C87.8201 8.08733 88.2139 7.74701 88.3057 8.11027C88.6116 7.90761 88.6652 7.71642 88.9711 7.50994C89.7511 7.37611 88.0725 8.91708 88.9213 8.54618C89.2884 8.30146 89.8926 7.74319 89.7549 8.22116L89.1775 8.68383C89.3458 8.95532 90.0493 8.06438 89.9308 8.64559C89.6861 8.81001 89.5867 8.64559 89.5561 8.74119C89.2961 9.29945 89.9576 8.55382 90.0723 8.66854L89.6364 9.15033C89.9423 9.31092 90.535 9.23827 90.8791 9.41417C90.7262 9.53653 90.5388 9.63594 90.4585 9.8386C91.0168 9.93802 91.1009 10.5957 91.1468 11.1846L91.663 10.9092C91.6859 10.9398 91.5368 11.1425 91.4297 11.1884C91.403 11.4637 91.6897 10.9437 91.9039 10.8481C92.0033 10.8901 91.77 11.1693 91.6056 11.2419C92.1601 11.1234 92.9516 11.1387 92.7527 11.7925L92.5883 11.8652C92.6074 12.2055 93.6016 11.2534 93.3989 11.7887L93.2957 11.8269C93.5098 12.3852 94.3014 12.4502 93.9993 13.345C94.6264 12.8288 94.1293 13.9835 94.9514 13.2111C94.7793 13.8268 94.5728 13.9071 94.6187 14.4845C94.6646 14.603 95.242 14.1097 95.4255 14.1288L95.0126 14.5495L95.59 14.2512L95.1655 14.8248L95.3682 14.8133C95.3529 14.7483 95.4752 14.5456 95.5976 14.4309C95.9379 14.3927 95.6741 15.0886 95.4638 15.3066L96.1712 15.3066C96.0373 15.4327 95.9379 15.4595 95.8308 15.4939C96.1979 15.3945 95.3605 15.9872 95.8844 15.7883C95.957 15.6698 96.1444 15.5513 96.2323 15.471C96.0679 15.8113 96.2629 16.0101 96.5153 16.0484L96.2018 16.3084C96.3929 16.6449 96.8977 16.729 97.1883 17.0311C97.215 16.7902 97.7389 16.316 97.8727 16.3581L97.4674 16.8322C97.7963 16.6143 97.5439 16.576 97.9913 16.3581C98.0524 16.5187 97.5668 16.9316 97.3565 17.0119L97.6433 16.9928C97.5209 17.1305 97.4177 17.1687 97.2418 17.3293C97.5707 17.1114 97.0315 18.0023 97.5859 17.6084L97.4636 17.7461C97.758 18.0482 98.041 18.0291 98.3048 18.2508C98.691 17.8761 98.6987 18.0558 99.081 17.8188C99.1384 18.117 99.0351 18.6141 99.2837 18.7938C99.624 18.7556 99.6508 18.5147 99.9414 18.3579C99.6049 18.7135 99.8534 18.8971 99.494 19.0347C99.8075 19.2335 99.8917 19.2947 100.496 19.3368C100.603 19.1609 100.626 19.0576 100.763 18.9621C100.878 18.9621 100.752 19.2412 100.576 19.398L100.526 19.4171C101.108 19.3138 100.855 20.1474 100.897 20.6063C100.66 20.6407 100.416 20.6751 100.209 20.8892C100.236 20.8166 100.289 20.6713 100.331 20.7172C100.06 20.6407 99.9834 20.3692 99.8075 20.1971C99.7731 20.9466 99.3525 21.1186 99.1231 21.5813C98.7904 20.8586 99.3258 20.7019 99.2187 20.0059C99.234 20.6139 98.6413 20.6101 98.756 21.1186C98.5036 20.6713 98.5381 20.9007 98.4081 20.2812C98.3622 21.2181 98.171 20.4418 97.9607 21.0154C97.5936 20.5527 97.8651 20.1398 97.4636 20.4227C97.2724 20.1359 97.6318 19.8033 97.6318 19.8033C97.2227 19.788 97.4406 20.4954 97.3527 20.9007C96.8633 21.1034 97.1271 20.3807 96.9589 20.0212C96.653 20.2086 96.4159 20.8548 96.1903 20.828C96.175 20.7133 96.1291 20.6713 96.1826 20.5221C95.8576 21.0842 95.2229 20.5489 94.8443 21.2563C94.8176 21.1951 94.8023 21.1339 94.7946 21.0804C94.8558 21.436 94.8634 21.7954 94.852 22.0516C94.6684 22.0631 94.5117 22.499 94.439 22.0363C94.5537 22.0516 94.5614 21.8643 94.6149 21.719L94.4237 21.9178C94.2516 21.2563 94.6875 21.6884 94.6875 21.1989C94.3128 21.4131 93.8731 21.9637 93.5825 21.7763C93.5213 21.1263 94.2555 21.5584 93.8731 20.981L94.3205 21.2295C93.9802 20.2048 94.592 21.3022 94.2784 20.2048C93.6896 20.0174 93.6207 20.5374 93.0357 20.3462C92.9057 20.7057 93.0778 20.8816 92.9477 21.241C92.1142 21.891 92.2939 19.6083 91.6821 20.4724C91.5253 20.9045 91.4641 21.7266 91.0282 21.2907L91.1774 20.5566C90.6076 20.4839 90.8523 21.6119 90.2558 21.1186C90.3629 20.8319 90.7032 20.8739 90.6153 20.7898C90.2291 20.2086 90.3438 21.2066 90.0455 21.2066L89.9843 20.5566C89.3802 20.6598 88.711 21.1301 88.0419 21.2487C88.0801 21.0536 88.1948 20.851 88.0381 20.6522C87.193 20.9772 86.2332 20.5719 85.4188 20.1857L85.1091 20.7477C85.0364 20.7401 84.9752 20.4954 85.0517 20.3845C84.7343 20.1704 85.0364 20.7401 84.8835 20.9619C84.7038 21.0001 84.6464 20.6407 84.7611 20.4724C84.199 20.9466 83.1628 21.4972 82.5739 20.8969L82.6886 20.7286C82.2298 20.4992 82.1686 21.8796 81.7442 21.3557L81.8245 21.2563C80.8265 21.0116 79.7214 21.5278 78.9605 20.6789C78.8152 21.4857 77.9701 20.3195 77.909 21.4475C77.3392 20.8892 77.5036 20.6866 76.7007 20.3118C76.4865 20.2583 76.3795 21.0154 76.1156 21.1339L76.108 20.5451L75.7485 21.1645L75.5574 20.461L75.3088 20.6139C75.4082 20.6483 75.5191 20.8778 75.5038 21.0498C75.1138 21.3175 74.5555 20.6407 74.5479 20.3386L73.6302 20.8357C73.6455 20.656 73.7373 20.5642 73.8329 20.4686C73.4887 20.7975 73.8023 19.788 73.3855 20.2965C73.4467 20.4304 73.3511 20.6483 73.3434 20.7669C73.1178 20.4113 72.6093 20.4074 72.2307 20.5566L72.3034 20.1512C71.6227 20.048 70.8656 20.3462 70.1009 20.3386C70.3762 20.526 70.3112 21.2334 70.0894 21.2984L70.0015 20.6751C69.8562 21.0613 70.2347 20.9083 69.9403 21.3825C69.6535 21.3098 69.7491 20.6751 69.9135 20.4724L69.5656 20.6904C69.5464 20.503 69.6267 20.4074 69.6497 20.1704C69.5082 20.5566 69.0493 19.5471 68.8429 20.2162L68.8237 20.0327C68.059 20.0289 67.711 20.243 67.0878 20.2736C67.0763 20.8127 66.8316 20.6904 66.648 21.1263C66.1892 20.9542 65.6806 20.5336 65.13 20.5795C64.7438 20.8472 65.0153 21.0345 64.8432 21.3557C64.8165 20.8663 64.262 20.9122 64.5488 20.5604C63.8873 20.6407 63.7037 20.6598 62.8664 21.0575C62.9581 21.2563 63.0614 21.3442 63.0078 21.5125C62.8549 21.5928 62.6637 21.306 62.6828 21.0728L62.721 21.0231C61.7804 21.7572 60.553 19.5968 59.8035 20.6177L59.8456 20.568L59.0694 21.0995C58.7138 21.0154 59.2835 20.7324 59.0197 20.4265C58.1823 21.2448 57.6966 20.308 57.0084 20.851C56.473 19.4056 55.1156 20.9542 54.3929 20.0289L54.435 20.3692C54.2476 20.7019 54.2094 20.1742 54.0717 20.0977C54.0908 20.3615 54.2744 20.4036 54.1597 20.5871C52.5805 20.9963 50.9057 20.0901 49.2882 19.7842C48.6956 19.6924 48.9517 21.5431 48.2061 20.7324L48.4164 20.1015C47.2234 20.8586 45.9769 20.0748 44.8068 20.7172C44.8756 20.5718 44.8795 20.3807 44.9942 20.3845C44.7456 19.9256 44.0803 20.3615 44.0765 20.7363C43.8929 20.6942 44.0344 20.396 43.9235 20.2086C43.675 19.9371 43.3002 20.7936 43.1702 20.3386C43.1473 20.266 43.2391 20.1895 43.285 20.1551C43.1244 20.3768 42.5317 20.0977 42.6885 20.6292C42.2487 20.3768 41.8511 20.8625 41.4993 20.5527C41.2698 21.1454 40.7498 20.2698 40.6772 21.1033C40.7077 20.2392 39.9086 20.4074 39.6295 20.8127C39.7212 20.5527 39.3886 20.5413 39.4956 20.1818C39.1783 20.1933 38.8876 20.3539 38.945 20.7974C38.3638 19.7612 37.7749 21.631 37.4461 20.3042C36.5055 20.7707 35.6375 21.0842 34.7924 21.2869C34.823 20.4265 35.7254 21.2028 35.691 20.2965C34.888 20.6521 34.4253 21.3901 33.63 21.1836C33.4235 21.0651 33.7485 20.8089 33.8174 20.6636C33.0144 21.0192 32.2687 20.5871 31.5537 21.0536C31.5537 20.9733 31.634 20.8854 31.7067 20.8204C31.5652 20.8472 31.3816 20.6942 31.3969 21.0842L31.5346 20.9772C31.7602 21.5469 30.9763 22.1663 30.9496 22.4646C31.1866 21.3404 30.246 22.1816 30.6245 20.763C30.5328 20.8357 30.4142 21.0231 30.4372 21.2831C30.2995 21.2066 30.2575 21.0536 30.3951 20.7554C29.8904 20.9695 30.0701 21.3863 29.6151 21.3748C29.6151 21.1836 29.7068 21.111 29.7565 20.8892C29.5271 21.2601 29.2939 21.631 28.9077 21.4704C28.9306 21.3557 28.8847 21.2066 28.9994 21.2104C28.3379 21.2678 27.8714 22.1969 27.1449 21.8375C27.3591 21.0116 26.8964 21.566 26.8581 20.851L26.4681 21.0651L26.6249 21.4131C26.2846 21.4016 25.9787 21.9216 25.6881 21.6884L25.9405 21.394L25.2981 21.5278L25.6613 21.7993C25.3134 22.1663 25.6996 22.7017 25.2445 22.5028C25.3363 22.4302 24.9042 22.4952 24.7245 22.0746C24.5563 22.3002 24.3804 22.5411 24.128 22.3652C24.063 22.1358 24.1815 21.5775 24.1395 21.4245C23.9712 22.021 23.3403 21.589 23.1262 22.2237C23.195 22.0746 23.1988 21.6999 23.1759 21.6234L23.0344 22.109C22.8776 21.9522 22.8547 21.8796 22.8776 21.5813C22.3997 21.4934 23.0306 22.4875 22.4647 22.0975C22.5106 22.0593 22.4876 21.9866 22.5794 21.914C22.0096 21.7113 21.482 22.2199 20.9581 21.9828C20.8052 21.2639 21.4131 21.8069 21.2372 21.2028C20.484 21.3328 19.6772 22.0631 18.9506 21.8949L19.0845 21.9752C18.9851 22.9885 18.5415 21.4743 18.1744 21.9522C18.2662 21.8757 18.293 21.3901 18.27 21.501C17.7729 21.3366 17.2491 21.7496 16.4958 22.0708L16.5876 21.8107C16.2931 21.5775 15.8152 21.6769 15.494 21.5584C15.3984 21.8184 15.2187 21.7763 15.3296 22.1549C14.3507 20.6713 13.4636 22.9502 12.5918 21.7151C12.695 21.7151 12.8403 21.4857 12.7562 21.4857L12.0144 21.7266C12.0717 22.1702 12.11 21.9943 12.2667 22.3384C12.175 22.5984 11.9647 22.8049 11.7811 22.8049C12.1138 22.5105 11.7811 22.0937 11.6358 21.849C11.6588 21.9828 11.6091 22.1319 11.6244 22.2696C11.2382 21.4819 11.5594 23.1567 11.0317 22.629L11.0584 22.3958C10.8596 22.5143 10.6799 22.8202 10.4658 22.7552C10.3778 22.2428 10.6761 22.5181 10.6914 22.0975C10.3931 22.1281 10.1025 23.0649 9.83102 22.5564C9.9572 22.4149 10.1407 22.4111 10.2669 22.2696C9.9725 21.6693 9.93808 21.8222 9.72012 21.7266L9.74306 21.7419L9.23834 21.4704L9.36835 21.6348C8.99362 22.9655 8.60742 21.8796 8.10269 22.7514C8.59213 21.9255 8.18299 22.2734 8.22122 21.696C8.09122 21.5354 7.8962 21.3557 7.95356 21.1913C7.71648 21.6578 7.55589 20.8242 7.21941 21.5048C7.20411 21.3175 6.96322 21.4857 7.01675 21.0192C6.70702 21.1645 7.0894 21.3442 7.06263 21.5775C6.58466 22.2161 5.93845 20.8051 5.254 21.6807C4.66131 22.0402 4.55043 22.6711 4.00364 22.9808C3.81627 22.6826 4.15658 22.3002 4.15658 22.3002C3.85833 22.0249 3.63272 22.0746 3.34977 22.2887C3.40712 22.1243 3.34978 21.9866 3.26182 21.7802C3.03622 21.8299 3.10888 22.4608 2.81063 22.1855C2.86034 21.979 2.92916 21.6463 3.03623 21.436C2.76857 21.6081 2.50472 21.956 2.22941 22.1243C2.15676 21.7993 2.39766 21.631 2.49325 21.4207C2.18353 21.566 1.69026 21.7151 1.59467 22.2314L1.7438 22.369C1.70557 22.2543 1.75145 21.9522 1.81645 21.8796C2.08411 21.4781 2.19882 22.0593 2.21411 22.2466L2.01911 22.3652C2.22177 23.4588 2.81063 22.1893 3.20447 22.2543L3.04005 23.0496L3.44536 22.3881C3.53331 22.5946 3.59067 23.0382 3.39566 23.1567C3.67862 23.5505 3.64802 22.8737 3.88891 23.3135C3.91568 23.3823 3.90421 23.4205 3.87745 23.4511L4.15658 23.2141C4.10305 23.3823 4.20247 23.7761 4.03422 23.6614C4.53131 24.1203 4.8372 23.0649 5.02457 23.6691L4.98251 23.7188C5.67461 23.4511 5.04751 23.1338 5.56754 22.4493L5.9155 23.8909L5.98433 23.3058C6.05698 23.3249 6.19845 23.3708 6.17169 23.6041C6.43553 23.2026 6.12581 23.3517 6.27875 22.9732C6.62289 23.5047 7.22323 22.7246 7.30353 23.6538C7.42589 23.2102 6.97468 23.3135 7.34176 23.0037C7.445 24.0056 7.7662 22.8317 8.07975 23.2905C7.98415 23.8067 7.6859 23.5352 7.99944 23.9941C8.1868 23.1223 8.61124 24.1853 8.87508 24.017C8.88655 23.3211 9.44865 23.7264 9.8922 23.497C9.86543 23.7303 10.7258 23.8794 11.1387 24.1318L11.1273 24.2465C11.2076 23.5429 11.632 23.6767 11.9417 23.5314C11.9303 23.952 11.8729 24.1165 11.7046 24.3038L11.9953 24.3038C12.0641 24.0744 12.1559 23.9559 12.3432 23.8756L12.2706 24.3994C12.6568 24.3688 13.0506 23.78 13.5515 24.1318C13.5783 23.6423 13.1538 22.7667 13.6815 22.4417C13.7006 22.7055 13.7198 23.1605 13.5821 23.2676C13.628 23.2332 13.7427 23.0458 13.8345 23.1605L13.6242 23.6041C13.8498 23.7991 13.7427 23.2332 13.9262 23.2752C13.9262 23.6538 14.0601 23.5429 14.0333 23.845C13.9874 23.8832 13.8765 23.6882 13.8039 23.8373C14.0104 23.9062 14.2551 24.1279 14.3392 24.4147C14.3201 24.2006 14.3392 23.9062 14.4883 23.8564C14.8745 23.8297 14.6222 24.3115 14.8478 24.5065C14.9434 24.2426 15.1881 24.5141 15.1957 23.952C15.3104 23.952 15.3296 24.2197 15.3754 24.3726C15.5743 24.1241 16.3123 24.3 16.0867 23.6997L16.0369 23.6614C16.0369 23.6614 16.0561 23.65 16.0714 23.6385C16.729 23.0764 17.4364 23.9597 18.0903 23.715L18.0903 23.9023C18.4803 23.6882 18.9545 23.7761 19.2336 23.367C19.3483 23.367 19.5051 23.7111 19.4554 23.9367C19.7536 23.7953 19.788 23.5811 20.2163 23.8947C19.9181 24.2235 20.3195 24.1853 19.9104 24.1356C20.2966 24.3 20.3846 24.6021 20.8013 24.0859C20.6599 24.5677 21.0919 24.6938 21.2755 24.5485L21.004 24.2044C21.2105 24.1356 21.3902 24.1776 21.5737 24.2197L21.4743 24.8544C22.2658 25.6268 22.9006 23.5391 23.5047 24.8315C23.715 24.3879 23.0765 24.518 23.2638 23.9979C23.6271 24.082 24.0056 24.9959 24.1203 24.9997C24.6174 25.3515 24.5868 24.0706 25.1069 24.3115C25.0419 24.0859 24.9769 23.4779 25.3669 23.2638C25.7301 23.3479 25.8143 24.2159 25.5848 24.3956C25.4969 24.4147 25.4548 24.3421 25.4587 24.2656C25.3401 24.3459 25.1872 24.4453 25.3325 24.69L25.3784 24.4644C25.5581 24.6977 26.059 24.6709 25.9443 25.0456C26.2196 24.8277 26.0628 24.6747 25.8563 24.5562C26.3228 24.885 26.5867 24.5677 27.0684 24.7856C26.992 24.6594 26.9231 24.3956 26.9958 24.3956C27.7032 24.6747 27.3055 23.9635 27.7835 23.8641C28.055 24.2082 27.6879 24.69 28.1659 24.3994C28.4603 24.6327 28.227 24.9997 28.1123 25.1871C28.5521 24.7512 28.9306 25.4739 29.183 25.5542L28.9536 25.7377C29.0912 25.6307 29.2059 25.6307 29.3206 25.6345L29.1906 25.1795C29.3245 25.2598 29.443 25.2598 29.4392 25.4509C29.5806 25.1527 29.3321 24.6977 29.6112 24.2885C29.791 24.518 30.1619 24.04 30.223 24.6441C29.7068 24.4568 30.181 25.1106 29.9057 25.3018C29.9783 25.2865 30.0548 25.3018 30.1466 25.3554C30.1657 25.4242 30.1274 25.4815 30.0892 25.516C30.6322 26.0551 30.3378 24.8353 30.9037 24.8506C30.831 25.1909 31.0337 25.493 31.1254 25.4204C30.8998 25.4127 31.0184 24.8544 31.2249 24.5944C31.5881 24.8583 31.6187 24.3994 31.8061 24.43L31.5881 24.3076C31.6608 23.9673 31.8405 24.0132 32.0928 23.9062C32.1005 24.0056 32.0699 24.0553 32.0355 24.0859C32.3032 23.8259 32.6244 24.7856 32.9761 24.4185C33.1559 24.648 32.9953 25.0571 33.152 25.2139C33.5879 24.7741 33.6262 25.6804 34.085 25.3171C33.9512 24.8621 33.9282 24.973 34.2533 24.5294L33.4962 24.8506L33.9818 24.1891C33.7524 24.1815 33.5 24.4759 33.3623 24.3994C33.5918 24.0285 33.5688 24.1394 33.4618 23.7609C33.7753 24.4453 34.0812 23.3632 34.4406 23.8259L34.4292 24.9539C34.9721 25.4586 35.3927 24.3765 36.0963 24.6594L35.8707 24.4644C35.9663 24.017 36.3066 24.4032 36.5322 24.2197C36.5093 24.5983 36.6546 24.7359 36.7502 24.9692C36.7387 24.69 37.2664 24.9959 37.3314 24.2426L37.6449 24.7397C38.2147 24.9424 38.295 23.6653 38.8418 23.7914C38.6773 24.2006 38.9259 24.4682 38.5588 24.7627C38.7423 24.7665 38.9068 24.8353 38.9068 24.5753C39.0138 24.8124 39.4115 24.0668 39.5797 24.4262C39.6562 24.2618 39.683 23.8641 39.8856 23.8947C39.9086 23.9712 39.8856 24.082 39.8856 24.082C39.8856 23.8947 40.2068 23.8297 40.0271 23.4091C40.5892 24.5868 41.5987 23.3249 42.0881 24.3344C42.4858 24.2082 42.9676 24.0859 43.327 24.0591C43.3041 24.1738 43.327 24.2465 43.2582 24.2082C43.7553 24.56 43.5641 23.1261 44.1338 23.5161C44.4244 24.1279 43.8317 23.845 44.0115 24.0782C44.0918 25.3209 44.6959 23.91 45.0783 24.6327L44.9865 24.7053C45.2771 25.1259 45.6977 24.235 46.1757 24.3229C46.1757 24.3229 46.1528 24.4338 46.1757 24.5103C46.5007 23.8756 47.1202 23.6691 47.579 23.4932C47.4375 23.9788 47.3687 23.7494 47.4567 24.2426C47.6631 24.1738 47.3955 23.4511 47.8084 23.3096C47.9423 23.5773 48.2367 23.8067 48.2788 24.3344L47.8926 24.3612C48.0914 25.0418 48.3935 24.3382 48.6 24.4568L48.5732 24.755C49.1659 24.6594 49.1735 23.9062 49.8121 23.9597L49.7471 23.7341C50.095 22.9923 50.0377 24.1547 50.3856 23.6003L50.4927 24.3535C50.7221 24.17 51.2995 23.6232 51.7125 23.4817C51.4792 24.04 50.9974 24.3268 50.6954 24.6594C50.9248 24.6633 51.4716 24.6021 51.5901 24.2312C51.4984 24.3038 51.3836 24.4874 51.2919 24.3727C51.571 23.78 51.9381 23.4894 52.3931 23.5008C52.3128 24.9653 53.5785 23.8679 53.9073 25.0074C54.7103 24.4682 55.5018 25.2368 56.4386 25.1527C56.106 24.0132 56.7139 25.1221 56.6528 23.952C56.8669 23.8794 56.951 23.8947 56.9701 23.9712L56.9243 23.9253C56.9434 23.9482 56.9548 23.9635 56.9701 23.9788L57.6316 24.6747C57.7884 25.015 57.4252 24.9309 57.4443 25.1948C57.9222 25.2827 57.6431 25.6918 57.9605 26.0016C57.8955 25.5848 58.1249 25.4012 58.4002 25.5618L58.0178 25.0227C58.687 24.3994 58.5952 26.0054 59.2682 25.3859L59.0541 25.753C59.3982 25.5351 60.3274 25.7607 60.6677 24.82C60.7289 24.9539 60.8092 25.2751 60.6562 25.3592C61.4822 25.5007 62.4916 24.3612 63.134 24.9386L63.0728 25.2253C63.2258 25.1412 63.3405 24.69 63.5317 24.9768C63.5202 25.0953 63.4705 25.2636 63.5393 25.2789C63.6196 25.1795 63.9485 24.778 64.1511 24.9462L63.9752 25.2674C64.7782 25.6421 65.2103 24.4835 65.8871 24.2885C65.8871 25.1298 66.518 25.4051 66.8354 25.5389L66.8239 25.6574C67.7607 25.7607 68.4146 24.9615 69.2826 24.6288C69.8217 25.5427 71.1065 25.0112 71.9745 25.5236C71.8407 25.3706 71.9975 24.8659 72.1504 24.7818C72.3531 24.9539 72.7125 24.1968 72.6781 24.9692L72.6054 24.9539C72.7584 25.711 73.1752 25.5083 73.504 25.5312L73.5575 24.5218C74.4102 25.9901 75.7906 23.9826 76.2571 25.298C76.4636 25.0456 76.7159 25.0495 76.9224 24.7971L76.911 25.3401C77.4807 25.4777 77.7675 25.5465 78.4711 25.4165L78.3257 25.8027C78.7234 25.8371 78.8267 24.2426 79.1937 24.2121L79.3046 25.0189C79.9967 25.0074 80.7003 25.7148 81.3847 24.9845C81.3733 25.103 81.3542 25.3362 81.2394 25.3707C81.5645 25.3898 82.5013 25.9174 82.3827 24.8086C82.3904 25.5312 83.0978 24.8774 83.4725 24.56L83.4152 25.0915C83.7325 24.4109 83.7402 24.2235 84.1837 24.0362C84.287 24.105 84.2755 24.4644 84.1378 24.3268C84.4858 24.6059 84.4093 23.822 84.8338 24.105L84.677 24.4453C85.0364 24.4874 85.0058 24.3038 85.2047 23.9062C85.4303 23.692 85.8853 24.04 85.9388 24.5218C85.9885 24.2273 86.1835 23.8335 86.3938 23.975C86.4206 24.1585 86.3441 24.2694 86.3059 24.3268C86.9062 24.69 87.1968 23.7073 87.6098 24.2312C87.6174 24.4071 87.6442 24.495 87.6786 24.5485C87.2007 24.5371 86.8183 24.5065 86.8527 24.4682C86.8527 24.9577 87.2389 25.0456 86.933 25.7224C87.2427 25.3515 87.7704 24.5485 88.1451 24.778C88.1642 24.8239 88.1795 24.8736 88.1948 24.9462L88.1566 24.9997C88.2445 25.0495 88.321 24.9997 88.3937 24.9194C88.5122 24.9997 88.5887 25.0609 88.7034 25.0686C88.7493 25.4739 89.1431 25.2865 89.3381 25.3056C89.3228 24.7665 89.5752 24.8544 89.3381 24.4109C89.3687 24.4491 89.3037 24.4759 89.1737 24.4988C89.1431 24.5141 89.1125 24.5218 89.0934 24.5562C89.0934 24.5409 89.1011 24.5256 89.1049 24.5103C88.9787 24.5256 88.8143 24.5371 88.6269 24.5447C88.7799 24.2732 88.9366 24.0438 89.1508 24.3421C89.2502 23.9979 89.3572 23.6423 89.4184 23.4741C89.6823 24.2235 90.187 24.6288 90.2597 25.0915C90.8447 24.7894 91.64 24.8927 92.0071 23.8832C92.1753 23.7532 92.1983 24.1738 92.2595 24.3306C92.1639 24.43 92.0492 24.4147 91.9956 24.56C92.3283 24.3 92.9822 24.4606 93.0625 23.7532C93.4831 24.0706 92.8254 24.4032 93.4028 24.2885L93.3263 24.5027C94.4428 25.6115 95.1464 22.8049 96.3662 24.082C96.3203 24.0323 96.2935 23.9865 96.282 23.9023C97.716 24.5409 99.2378 23.302 100.653 24.3153C101.054 24.518 101.1 24.0706 101.345 23.7264L101.433 24.3038L101.853 23.6385C101.934 23.5697 102.014 23.5544 102.09 23.562C101.964 23.6232 102.289 24.1891 101.96 23.9482C101.899 23.9062 101.884 23.8144 101.876 23.7723C101.972 23.9903 101.544 24.0247 101.979 24.3382C101.631 24.3306 101.819 24.8315 101.463 24.7436C101.792 25.2521 100.97 24.8353 101.536 25.4548C100.936 24.8315 100.744 25.2598 100.924 25.6536C100.775 25.4318 100.637 25.5542 100.427 25.2559C100.312 25.3859 100.312 25.6115 100.649 25.906C99.689 25.4012 100.783 26.9499 99.7196 26.1392C99.6852 26.8313 99.5666 27.3934 99.3831 27.8637C98.7866 27.2405 99.6852 27.4393 99.0313 26.816C98.9701 27.3781 99.3143 28.0817 98.8593 28.2423C98.6948 28.2423 98.6413 27.9326 98.5648 27.8026C98.5036 28.3646 97.9071 28.3493 97.9645 28.9573C97.9071 28.9 97.8766 28.8082 97.8574 28.7317C97.823 28.8044 97.6395 28.77 97.9263 29.0414L97.9033 28.9114C98.3928 29.225 98.5266 29.9668 98.7292 30.1924C98.0257 29.3053 98.2551 30.265 97.3986 29.1141C97.4139 29.202 97.5018 29.3779 97.693 29.5538C97.5859 29.5538 97.4598 29.4621 97.303 29.1982C97.2571 29.5462 97.6242 29.768 97.4406 29.94C97.3068 29.8062 97.2915 29.7182 97.15 29.5424C97.3221 29.8941 97.4942 30.2459 97.2303 30.2803C97.1577 30.1924 97.0353 30.1044 97.0812 30.0586C96.8633 30.3568 97.3412 31.1942 96.8059 31.221C96.305 30.5556 96.5191 31.1254 95.9991 30.6359L95.9991 30.938L96.305 31.1216C96.1635 31.2439 96.4159 31.7295 96.1329 31.6798L96.022 31.3739L95.8691 31.7181L96.2018 31.7678C96.3279 32.1616 96.8556 32.391 96.5382 32.4293C96.5229 32.3413 96.4006 32.5555 96.0335 32.326C96.1291 32.5516 96.2285 32.7887 96.0067 32.7619C95.8194 32.6243 95.4676 32.1846 95.3452 32.0928C95.7008 32.5784 95.1502 32.5211 95.5173 33.0526C95.4408 32.9187 95.177 32.6549 95.112 32.609L95.3988 33.0067C95.2267 32.957 95.1655 32.9149 94.9629 32.6931C94.7143 32.8155 95.6626 33.2743 95.1655 33.217C95.154 33.1711 95.0967 33.129 95.0776 33.0411C94.7143 33.1176 94.8711 33.6835 94.4964 33.7179C93.9304 33.2705 94.5499 33.4158 94.0528 33.0564C93.854 33.4388 94.0566 34.2685 93.6551 34.4329L93.7622 34.4329C94.439 35.1939 93.1963 34.2914 93.3913 34.7732C93.3722 34.6853 93.0395 34.3297 93.1083 34.4176C92.7986 34.4979 92.8904 34.9912 92.8216 35.5074L92.6724 35.2856C92.3933 35.2359 92.2786 35.4921 92.0721 35.5303C92.2212 35.7521 92.118 35.7904 92.4315 36.016C91.0015 35.3468 92.2709 37.3046 91.0588 36.7654C91.0971 36.7233 90.9938 36.5092 90.9594 36.5398L90.8409 36.9987C91.1774 37.2893 91.0665 37.1516 91.3724 37.3313C91.5215 37.5531 91.5827 37.7787 91.5138 37.8475C91.4374 37.511 91.0129 37.3466 90.7797 37.2281C90.8829 37.316 90.9709 37.4384 91.0741 37.5302C90.3667 37.1248 91.6783 38.184 91.0971 38.0158L90.9441 37.8399C90.9518 38.0005 91.0971 38.2873 90.967 38.3217C90.5732 37.9928 90.8791 38.0731 90.5885 37.7672C90.4929 37.9049 91.0435 38.6811 90.577 38.4249C90.5273 38.2758 90.5961 38.2031 90.5426 38.054C90.0035 37.7443 90.0991 37.8666 89.9461 37.8819L89.9652 37.8819L89.5752 37.8858L89.7396 37.9508C90.535 39.0367 89.6173 38.4173 90.0379 39.2317C89.644 38.4555 89.732 38.8608 89.3381 38.4402C89.1737 38.3752 88.971 38.3255 88.8793 38.1878C89.1164 38.6123 88.4663 38.0808 88.8181 38.6964C88.6804 38.5702 88.7072 38.7843 88.3975 38.4287C88.3822 38.6543 88.6537 38.6314 88.8105 38.8035C89.0743 39.4382 87.8278 38.6926 88.1795 39.5759C88.2025 40.0615 88.6078 40.5471 88.6154 40.983C88.3325 40.8453 88.1948 40.4439 88.1948 40.4439C87.8851 40.3674 87.8316 40.4897 87.8736 40.7498C87.7819 40.6121 87.6595 40.5394 87.4798 40.4247C87.4263 40.5471 87.9004 40.9639 87.5907 40.8836C87.4645 40.7153 87.2542 40.4553 87.1471 40.268C87.1662 40.4936 87.3077 40.8415 87.3192 41.0671C87.0592 40.8645 87.0362 40.6542 86.9215 40.4668L86.9253 40.4247ZM93.0816 6.46223C93.1581 6.39341 93.2307 6.33223 93.2919 6.29017C93.3951 6.28634 93.3378 6.37811 93.2651 6.46223C93.2345 6.44694 93.1963 6.43165 93.1313 6.42017C93.116 6.43165 93.0969 6.44694 93.0778 6.46223L93.0816 6.46223ZM90.8944 9.23063C90.9173 9.2421 90.9441 9.25739 91.0015 9.27651L90.9938 9.28416C90.9518 9.26122 90.9173 9.2421 90.8944 9.23063ZM91.1965 9.43328C91.315 9.29181 91.4641 9.16945 91.4871 9.20768C91.3838 9.28033 91.38 9.42946 91.315 9.58623C91.2921 9.5327 91.2462 9.48299 91.1926 9.43711L91.1965 9.43328ZM88.0381 21.3978C88.1222 21.3863 88.191 21.3748 88.2369 21.3672C88.1948 21.3748 88.1375 21.3863 88.0381 21.4093L88.0381 21.3978ZM87.2312 21.4169C87.3307 21.436 87.453 21.4398 87.5792 21.436C87.606 21.6196 87.5792 21.8107 87.4951 21.8031C87.541 21.6807 87.3498 21.5737 87.2274 21.4169L87.2312 21.4169ZM88.9366 25.1412C88.8105 25.2177 88.7646 25.1106 88.7493 25.0036C88.8105 24.9959 88.8793 24.9768 88.9711 24.9386C88.9711 24.9194 88.9825 24.8965 88.9863 24.8736C88.9749 24.9768 88.9596 25.0724 88.9366 25.1451L88.9366 25.1412ZM102.239 23.5582C102.331 23.6156 102.419 23.6997 102.511 23.7991C102.434 23.7532 102.343 23.6385 102.239 23.5582Z" fill="#552C3C"/>
<path d="M87.3573 41.3957L87.3076 41.3843C87.3344 41.4034 87.3535 41.411 87.3573 41.3957Z" fill="#552C3C"/>
<path d="M92.7028 6.70312C92.7028 6.70312 92.6684 6.7146 92.6531 6.71077C92.6302 6.75283 92.611 6.79107 92.5957 6.82548C92.6416 6.79107 92.6875 6.75666 92.7334 6.72224L92.699 6.70312L92.7028 6.70312Z" fill="#552C3C"/>
<path d="M93.8232 36.7613C93.8041 36.7537 93.7811 36.7422 93.7544 36.7192C93.7773 36.7345 93.7888 36.746 93.8079 36.7575L93.8232 36.7575L93.8232 36.7613Z" fill="#552C3C"/>
<path d="M94.913 14.6375L95.0086 14.5381L94.8977 14.5954L94.913 14.6375Z" fill="#552C3C"/>
<path d="M90.7833 37.1781C90.7451 37.1475 90.7068 37.1208 90.6648 37.1055C90.6916 37.1284 90.7336 37.1552 90.7833 37.1781Z" fill="#552C3C"/>
<path d="M89.9536 37.8363L89.7127 37.8057C89.835 37.8363 89.9038 37.8401 89.9536 37.8363Z" fill="#552C3C"/>
<path d="M89.1928 38.2222C89.2539 38.2948 89.2998 38.3484 89.3457 38.3981L89.1928 38.2222Z" fill="#552C3C"/>
<path d="M97.8458 28.6743C97.8458 28.6743 97.8534 28.6514 97.8496 28.6361C97.8266 28.5099 97.8228 28.5749 97.8458 28.6743Z" fill="#552C3C"/>
<path d="M96.0258 32.2725C95.9837 32.1731 95.9455 32.0775 95.934 32.0049C95.8575 32.024 95.8116 32.0546 96.0258 32.2725Z" fill="#552C3C"/>
<path d="M100.41 25.1951C100.41 25.1951 100.41 25.1951 100.418 25.2031C100.422 25.1951 100.43 25.1911 100.438 25.1831L100.41 25.1951Z" fill="#552C3C"/>
<path d="M96.064 31.886C95.9417 31.8592 95.9149 31.9166 95.9302 32.0046C95.9952 31.9893 96.0793 31.9816 96.064 31.886Z" fill="#552C3C"/>
<path d="M86.4931 40.5432C86.5199 40.5662 86.539 40.5891 86.5505 40.6082L86.5352 40.5317L86.4931 40.5432Z" fill="#552C3C"/>
<path d="M86.5543 40.6045L86.5696 40.681C86.5696 40.681 86.5925 40.6504 86.5543 40.6045Z" fill="#552C3C"/>
<path d="M86.5658 40.6807C86.5429 40.7036 86.5047 40.7189 86.5964 40.8413L86.5658 40.6807Z" fill="#552C3C"/>
<path d="M87.472 39.9466L87.342 39.8013C87.3649 39.8357 87.407 39.8816 87.472 39.9466Z" fill="#552C3C"/>
<path d="M87.6632 39.6791C87.5752 39.702 87.2311 39.5223 87.2426 39.6867L87.3458 39.8053C87.1776 39.5644 87.8467 39.9659 87.667 39.6829L87.6632 39.6791Z" fill="#552C3C"/>
<path d="M90.3934 40.8912C91.074 41.0862 90.0148 40.6121 90.3284 40.4209L90.0263 40.505C90.206 40.6197 90.4469 40.7727 90.3972 40.895L90.3934 40.8912Z" fill="#552C3C"/>
<path d="M91.4296 40.3367C91.3608 40.1379 91.3455 40.0882 91.139 40.0347C91.1046 40.2067 91.3532 40.245 91.4296 40.3367Z" fill="#552C3C"/>
<path d="M95.4635 35.7139L95.8 36.0695C95.8306 35.9395 95.6662 35.9356 95.4635 35.7139Z" fill="#552C3C"/>
<path d="M94.4999 33.0981L94.2093 32.9604L94.4885 33.3161L94.4999 33.0981Z" fill="#552C3C"/>
<path d="M97.4672 35.1594L97.4749 34.8994L97.4519 35.0753L97.4672 35.1594Z" fill="#552C3C"/>
<path d="M104.591 27.6915L104.14 27.29C104.163 27.42 104.629 27.9095 104.591 27.6915Z" fill="#552C3C"/>
<path d="M108.151 23.2637C108.594 23.2446 109.003 23.1107 108.682 23.0151C108.514 23.1222 108.101 23.2063 108.151 23.2637Z" fill="#552C3C"/>
<path d="M99.3677 11.9722L99.1268 11.9722L99.1612 12.0525L99.3677 11.9722Z" fill="#552C3C"/>
<path d="M0.2677 21.4053L0.0268141 21.5735C-0.0305421 21.7379 0.00387022 22.1127 0.15682 22.0362L0.2677 21.4053Z" fill="#552C3C"/>
<path d="M1.06684 22.7475C1.25038 22.4416 1.45686 21.9025 1.34215 21.3213C1.16243 21.9293 1.12037 21.6769 0.925359 22.3996C0.772409 22.4722 0.653879 22.1969 0.680646 21.9637C0.627113 22.1243 0.439747 21.826 0.355625 22.2237C0.558284 22.7131 0.810656 22.7323 1.07832 22.3269C1.13567 22.4646 1.07831 22.6328 1.06684 22.7475Z" fill="#552C3C"/>
<path d="M16.1783 23.7337L16.0827 23.6572C16.1095 23.6993 16.1439 23.7222 16.1783 23.7337Z" fill="#552C3C"/>
<path d="M25.5427 24.0781C25.47 24.0934 25.4432 24.1546 25.4394 24.212C25.5044 24.1699 25.5618 24.1317 25.5427 24.0781Z" fill="#552C3C"/>
<path d="M27.1409 24.7779C27.1065 24.7588 27.0759 24.7473 27.0453 24.7358C27.0798 24.7932 27.118 24.8276 27.1409 24.7779Z" fill="#552C3C"/>
<path d="M16.1783 23.7339L16.4268 23.9327C16.4459 23.7262 16.2968 23.7798 16.1783 23.7339Z" fill="#552C3C"/>
<path d="M3.15082 21.2178C3.09729 21.2484 3.05523 21.3057 3.01317 21.386C3.05523 21.3593 3.09729 21.3363 3.13935 21.3172C3.13935 21.2828 3.14317 21.2522 3.14699 21.2178L3.15082 21.2178Z" fill="#552C3C"/>
<path d="M12.0524 24.2466L11.976 24.2466C11.953 24.3192 11.9339 24.4072 11.911 24.5066L12.0486 24.2466L12.0524 24.2466Z" fill="#552C3C"/>
<path d="M9.00879 23.5922C8.96673 23.814 8.91702 23.9172 8.85201 23.9593C8.85201 24.0625 8.85966 24.1849 8.8826 24.3378C8.95525 24.3608 8.9782 23.8255 9.00496 23.5884L9.00879 23.5922Z" fill="#552C3C"/>
<path d="M3.85815 23.3975L3.7702 23.4701C3.79315 23.4472 3.83139 23.4242 3.85815 23.3975Z" fill="#552C3C"/>
<path d="M14.3199 24.3608C14.3238 24.4411 14.3352 24.51 14.3505 24.552C14.3505 24.4832 14.3391 24.422 14.3199 24.3608Z" fill="#552C3C"/>
<path d="M30.066 25.4661C30.066 25.4661 30.0584 25.4584 30.0546 25.4546C29.9781 25.5158 30.0202 25.5043 30.066 25.4661Z" fill="#552C3C"/>
<path d="M56.9241 25.0684C56.6182 24.5866 57.4173 24.4528 56.9623 23.9175C57.0044 24.1278 56.5455 24.7549 56.9241 25.0684Z" fill="#552C3C"/>
<path d="M3.23108 21.2908C3.27314 21.2832 3.31902 21.2793 3.36108 21.287C3.30373 21.2679 3.26167 21.2717 3.23108 21.2908Z" fill="#552C3C"/>
<path d="M36.7385 24.9077C36.7385 24.9612 36.7576 25.0301 36.8073 25.141C36.792 25.0454 36.7652 24.9727 36.7385 24.9077Z" fill="#552C3C"/>
<path d="M31.7868 24.3765L31.9092 24.4491C31.8595 24.3994 31.8212 24.3841 31.7868 24.3765Z" fill="#552C3C"/>
<path d="M39.4725 24.4259C39.4725 24.4259 39.4381 24.3953 39.4151 24.3838C39.4342 24.4067 39.4534 24.4182 39.4725 24.4259Z" fill="#552C3C"/>
<path d="M39.4724 24.4258C39.5069 24.4564 39.5375 24.4756 39.5986 24.4258C39.591 24.3991 39.5833 24.38 39.5719 24.3608C39.5489 24.4144 39.5183 24.445 39.4724 24.4258Z" fill="#552C3C"/>
<path d="M42.13 24.38C42.1147 24.338 42.0956 24.3074 42.0803 24.2729C42.0536 24.2844 42.023 24.2921 41.9962 24.3035L42.1339 24.3838L42.13 24.38Z" fill="#552C3C"/>
<path d="M94.6721 20.5833C94.7333 20.7363 94.7677 20.9007 94.7983 21.0651C94.7562 20.6827 95.1539 20.5489 94.6721 20.5833Z" fill="#552C3C"/>
<path d="M3.15084 21.5199C3.16614 21.386 3.18908 21.3172 3.23114 21.2866C3.20055 21.2943 3.16996 21.3019 3.13937 21.3172C3.13173 21.3975 3.1279 21.474 3.15084 21.5199Z" fill="#552C3C"/>
<path d="M39.526 20.1436L39.9581 20.2239C39.8358 20.1703 39.679 20.1436 39.526 20.1436Z" fill="#552C3C"/>
<path d="M75.2015 20.6597L75.301 20.5947C75.2627 20.5833 75.2283 20.5947 75.2015 20.6597Z" fill="#552C3C"/>
<path d="M41.2352 20.1436C41.3117 20.3347 41.392 20.4418 41.4799 20.5145C41.499 20.4724 41.5181 20.438 41.5296 20.3768L41.2352 20.1436Z" fill="#552C3C"/>
<path d="M31.9359 24.1508C31.9626 24.0934 31.9894 24.059 32.0162 24.0322C31.955 24.0819 31.8785 24.0781 31.9359 24.1508Z" fill="#552C3C"/>
<path d="M73.9168 20.3462C73.8862 20.3844 73.8556 20.415 73.825 20.4456C73.8518 20.4188 73.8824 20.3883 73.9168 20.3462Z" fill="#552C3C"/>
<path d="M1.77045 22.3613L1.72074 22.3154C1.73221 22.346 1.7475 22.3651 1.77045 22.3613Z" fill="#552C3C"/>
<path d="M96.366 24.0244C96.3851 24.0435 96.4043 24.0665 96.431 24.0932C96.4081 24.0665 96.389 24.0474 96.366 24.0244Z" fill="#552C3C"/>
<path d="M29.8825 25.252C29.8481 25.2596 29.8099 25.2711 29.7793 25.294C29.8213 25.2864 29.8557 25.2672 29.8825 25.252Z" fill="#552C3C"/>
<path d="M89.1697 24.4414C89.1697 24.4414 89.1965 24.4069 89.2233 24.4031C89.1965 24.3572 89.1736 24.3152 89.1468 24.2808C89.1315 24.3381 89.1162 24.3955 89.1009 24.449C89.1238 24.449 89.1468 24.4452 89.1697 24.4414Z" fill="#552C3C"/>
<path d="M16.0827 23.6575C16.0674 23.6384 16.0559 23.6155 16.0483 23.5811C16.0598 23.6078 16.0598 23.6231 16.0674 23.6461L16.0827 23.6575Z" fill="#552C3C"/>
<path d="M76.1002 20.3921L76.1002 20.5297L76.169 20.4112L76.1002 20.3921Z" fill="#552C3C"/>
<path d="M11.6242 21.7993C11.6166 21.7534 11.5974 21.7037 11.5669 21.6616C11.5669 21.696 11.5936 21.7457 11.6242 21.7993Z" fill="#552C3C"/>
<path d="M9.70471 21.6804L9.43322 21.4893C9.55175 21.5963 9.63588 21.6499 9.70471 21.6804Z" fill="#552C3C"/>
<path d="M8.22864 21.413C8.20952 21.5086 8.2057 21.5774 8.19805 21.6424L8.22481 21.4092L8.22864 21.413Z" fill="#552C3C"/>
<path d="M31.6835 20.7822C31.7026 20.7822 31.7218 20.7708 31.7409 20.7593C31.8747 20.656 31.7829 20.6943 31.6835 20.7822Z" fill="#552C3C"/>
<path d="M24.9271 21.7841C24.8047 21.742 24.7053 21.7306 24.7015 22.0365C24.7741 21.937 24.8468 21.8414 24.9271 21.7841Z" fill="#552C3C"/>
<path d="M39.4802 20.1357C39.4802 20.1357 39.4802 20.1396 39.4802 20.1434C39.4955 20.1434 39.5108 20.1434 39.5299 20.1434L39.484 20.1357L39.4802 20.1357Z" fill="#552C3C"/>
<path d="M25.252 21.7915C25.1297 21.6845 25.0226 21.7074 24.927 21.7839C25.0302 21.8183 25.1488 21.8756 25.252 21.7915Z" fill="#552C3C"/>
<path d="M1.76274 21.1494C1.76274 21.1838 1.76274 21.2144 1.75509 21.2374L1.83539 21.1724L1.76274 21.1494Z" fill="#552C3C"/>
<path d="M1.75507 21.2334L1.67477 21.2984C1.70918 21.2984 1.74359 21.2946 1.75507 21.2334Z" fill="#552C3C"/>
<path d="M1.51031 21.432L1.67474 21.2981C1.61739 21.2981 1.54473 21.279 1.51031 21.432Z" fill="#552C3C"/>
<path d="M3.80841 21.2217C3.79694 21.2637 3.78929 21.3249 3.78547 21.4167L3.80841 21.2217Z" fill="#552C3C"/>
<path d="M4.38208 21.3635C4.2406 21.3176 4.02647 20.9467 3.82763 21.0691L3.80852 21.2258C3.90029 20.9352 4.24442 21.6923 4.37825 21.3635L4.38208 21.3635Z" fill="#552C3C"/>
<path d="M6.85974 23.772L6.36265 23.6152C6.45059 23.8217 6.56531 24.1009 6.33589 24.1506C6.96298 24.77 6.20588 23.6879 6.85974 23.7682L6.85974 23.772Z" fill="#552C3C"/>
<path d="M8.40068 24.0703C8.13302 24.1659 8.40068 24.3724 8.38921 24.4871C8.55745 24.2997 8.59951 24.25 8.40068 24.0703Z" fill="#552C3C"/>
<path d="M19.5432 24.0742L19.5164 24.5637C19.7229 24.4948 19.5164 24.3725 19.5432 24.0742Z" fill="#552C3C"/>
<path d="M21.673 21.5466L21.4741 21.2407L21.3785 21.6919L21.673 21.5466Z" fill="#552C3C"/>
<path d="M22.931 25.0304L22.8431 25.0992L23.1872 24.9233L22.931 25.0304Z" fill="#552C3C"/>
<path d="M41.6482 24.8542L41.587 24.2539C41.4494 24.361 41.4188 25.0378 41.6482 24.8542Z" fill="#552C3C"/>
<path d="M49.724 24.2428C49.8119 24.5449 50.0375 24.7361 50.179 24.4417C49.9993 24.3996 49.8158 24.1663 49.724 24.2428Z" fill="#552C3C"/>
<path d="M73.955 25.2251L73.7944 25.4239L74.1003 25.2557L73.955 25.2251Z" fill="#552C3C"/>
</g>
<defs>
<clipPath id="clip0_28_92967">
<rect width="42" height="108.95" fill="white" transform="translate(108.95) rotate(90)"/>
</clipPath>
</defs>
</svg>
