<svg width="109" height="42" viewBox="0 0 109 42" fill="none" xmlns="http://www.w3.org/2000/svg">
<g clip-path="url(#clip0_5_57)">
<path d="M86.0954 41.3041L86.1222 41.5182C86.2178 41.6559 86.4931 41.9082 86.5007 41.7973L86.0954 41.3079L86.0954 41.3041Z" fill="#FF0200"/>
<path d="M87.0591 41.6406C87.1814 41.717 87.277 41.8547 87.3535 41.9426C87.2082 41.6559 86.9061 41.1932 86.4511 40.8261C86.8105 41.327 86.6155 41.1626 87.0514 41.7515C87.0438 41.8623 86.8029 41.7132 86.6499 41.5373C86.7417 41.675 86.4588 41.5335 86.7073 41.8471C87.1317 42.1147 87.2464 42.0306 87.0629 41.6406L87.0591 41.6406Z" fill="#FF0200"/>
<path d="M93.915 36.7768L93.8232 36.7615C93.8614 36.7806 93.892 36.7844 93.915 36.7768Z" fill="#FF0200"/>
<path d="M97.8497 33.5266C97.8497 33.4731 97.8382 33.4234 97.7961 33.389C97.7808 33.4272 97.8114 33.4846 97.8497 33.5266Z" fill="#FF0200"/>
<path d="M98.9087 33.2627C98.882 33.2627 98.8628 33.2665 98.8399 33.2703C98.8934 33.2971 98.9317 33.3048 98.9087 33.2627Z" fill="#FF0200"/>
<path d="M93.915 36.7768L94.1521 36.8189C94.0144 36.6659 93.9953 36.7615 93.915 36.7768Z" fill="#FF0200"/>
<path d="M87.0819 40.0536C87.0819 40.0957 87.1086 40.1531 87.1469 40.2257C87.1469 40.1913 87.1469 40.1569 87.1469 40.1301C87.1239 40.1034 87.1048 40.0842 87.0781 40.0575L87.0819 40.0536Z" fill="#FF0200"/>
<path d="M92.6761 38.7422L92.6455 38.7728C92.6876 38.834 92.7411 38.9028 92.8023 38.9793L92.6723 38.7422L92.6761 38.7422Z" fill="#FF0200"/>
<path d="M91.0357 39.461C91.1772 39.6331 91.2307 39.7287 91.2346 39.7822C91.3072 39.8548 91.3952 39.939 91.5175 40.0384C91.5634 40.0269 91.1925 39.6369 91.0357 39.461Z" fill="#FF0200"/>
<path d="M93.6397 37.9431C93.6971 37.9966 93.7506 38.0425 93.785 38.0692C93.7391 38.0234 93.6894 37.9813 93.6397 37.9431Z" fill="#FF0200"/>
<path d="M84.4589 4.27879C84.4856 4.25202 84.5048 4.2329 84.5277 4.20996C84.4818 4.24055 84.4512 4.26732 84.4589 4.27879Z" fill="#FF0200"/>
<path d="M84.9139 0.97117L84.9522 0.97117C85.0248 0.898519 85.0975 0.829692 85.1701 0.760864L84.9139 0.97117Z" fill="#FF0200"/>
<path d="M100.53 32.6127C100.53 32.6127 100.522 32.6127 100.518 32.6127C100.534 32.6854 100.541 32.6624 100.53 32.6127Z" fill="#FF0200"/>
<path d="M105.658 18.767C105.436 19.2258 105.031 19.0117 104.828 19.5661C104.962 19.4017 105.581 19.134 105.658 18.767Z" fill="#FF0200"/>
<path d="M87.1661 40.0728C87.1776 40.0537 87.1929 40.0308 87.212 40.0193C87.1776 40.0308 87.1623 40.0461 87.1661 40.0728Z" fill="#FF0200"/>
<path d="M102.725 29.6302C102.763 29.6684 102.817 29.7105 102.916 29.7717C102.843 29.7105 102.782 29.6684 102.725 29.6302Z" fill="#FF0200"/>
<path d="M100.427 31.1789L100.526 31.1789C100.473 31.1674 100.446 31.1712 100.427 31.1789Z" fill="#FF0200"/>
<path d="M103.444 28.2308C103.444 28.2308 103.409 28.2231 103.39 28.2231C103.413 28.2308 103.432 28.2346 103.444 28.2308Z" fill="#FF0200"/>
<path d="M103.444 28.2307C103.478 28.2383 103.505 28.2383 103.493 28.181C103.471 28.1657 103.455 28.1542 103.436 28.1465C103.463 28.1924 103.474 28.2268 103.444 28.2307Z" fill="#FF0200"/>
<path d="M104.442 27.1676C104.407 27.1447 104.377 27.1294 104.346 27.1103C104.342 27.1256 104.338 27.1485 104.335 27.1638L104.442 27.1638L104.442 27.1676Z" fill="#FF0200"/>
<path d="M87.8391 7.29572C87.9232 7.16572 88.0265 7.03188 88.1335 6.9057C87.8812 7.19248 87.6288 7.13513 87.8391 7.29572Z" fill="#FF0200"/>
<path d="M87.2961 40.2678C87.2082 40.1646 87.1661 40.1111 87.1623 40.0728C87.1546 40.0881 87.1508 40.1072 87.147 40.1263C87.2005 40.1875 87.2541 40.2411 87.2923 40.2678L87.2961 40.2678Z" fill="#FF0200"/>
<path d="M100.438 25.1832L100.66 25.0723C100.576 25.0838 100.496 25.122 100.438 25.1832Z" fill="#FF0200"/>
<path d="M95.4483 14.7979L95.3642 14.8056C95.3718 14.8285 95.3948 14.8323 95.4483 14.7979Z" fill="#FF0200"/>
<path d="M101.1 24.5179C101.264 24.6212 101.371 24.6671 101.455 24.6862C101.432 24.6479 101.417 24.6174 101.375 24.5677L101.096 24.5179L101.1 24.5179Z" fill="#FF0200"/>
<path d="M100.308 32.5324C100.308 32.5324 100.293 32.5745 100.301 32.6012C100.312 32.5783 100.312 32.5554 100.308 32.5324Z" fill="#FF0200"/>
<path d="M95.8345 15.4824C95.8077 15.49 95.7733 15.5015 95.7274 15.5168C95.7656 15.5015 95.8001 15.49 95.8345 15.4824Z" fill="#FF0200"/>
<path d="M86.9253 40.4247C86.9101 40.6503 86.8221 40.9447 87.1471 41.3462L87.3039 41.3844C87.2083 41.3194 87.0133 41.0862 86.9865 41.0097C86.803 40.6197 87.2618 40.9868 87.3995 41.1129L87.4071 41.2735C88.2598 41.9695 87.5907 40.8415 87.7895 40.7344L88.2866 41.3615L87.9769 40.7382C88.1566 40.8529 88.4931 41.1435 88.5007 41.3003C88.8869 41.4686 88.3975 41.0021 88.8028 41.22C88.8602 41.2582 88.8831 41.2888 88.8984 41.3233L88.8372 41.0479C88.9328 41.1856 89.254 41.4265 89.1049 41.4112C89.6211 41.5412 88.994 40.677 89.4949 41.0326L89.514 41.0824C89.5905 40.6235 89.1278 40.6426 88.8449 39.9582L89.9996 40.8415L89.6134 40.4017C89.6555 40.3903 89.7434 40.3635 89.8964 40.5394C89.7167 40.1532 89.6976 40.3788 89.4911 40.0499C89.9996 40.2947 89.6823 39.507 90.3705 40.1341C90.1029 39.7746 89.9996 40.0194 89.927 39.6599C90.6764 40.3253 89.969 39.3731 90.4164 39.5758C90.7453 39.9773 90.4355 39.9008 90.8829 40.1035C90.34 39.4114 91.2538 40.0002 91.2385 39.7823C90.7529 39.2852 91.2576 39.354 91.2653 39.0175C91.4182 39.1934 91.858 38.964 92.1983 38.9831L92.2748 39.0711C91.8083 38.5434 92.0683 38.4707 92.0874 38.249C92.378 38.551 92.4736 38.6887 92.5424 38.8875L92.6533 38.7728C92.5195 38.5855 92.4736 38.4669 92.4889 38.3369L92.833 38.7346C92.963 38.5625 92.6992 37.9966 93.1389 38.0501C92.8024 37.6945 92.0224 37.2395 91.9956 36.8036C92.1906 36.9833 92.5195 37.2968 92.5424 37.4269C92.5348 37.3848 92.4507 37.2089 92.5654 37.2548L92.7986 37.6525C93.0242 37.7022 92.5807 37.3427 92.6801 37.3007C92.9439 37.5683 92.921 37.4383 93.1236 37.6601C93.1313 37.7022 92.9516 37.6104 93.028 37.7442C93.1542 37.7136 93.4104 37.7748 93.6437 37.9469C93.4831 37.8016 93.2842 37.5875 93.3072 37.4957C93.4372 37.3274 93.6781 37.7672 93.9037 37.8131C93.7546 37.5913 94.0413 37.6869 93.6475 37.2854C93.6934 37.2433 93.8884 37.423 94.0146 37.511C93.9152 37.2586 94.3281 37.098 93.8157 36.7615L93.766 36.7539C93.766 36.7539 93.766 36.7386 93.7622 36.7233C93.6207 36.0694 94.5193 36.4174 94.5996 35.9968L94.7334 36.1306C94.7334 35.8285 94.9782 35.7023 94.8023 35.3085C94.8481 35.2626 95.1502 35.4462 95.2917 35.6259C95.307 35.4117 95.1693 35.2473 95.5555 35.3009C95.6741 35.6488 95.8003 35.4653 95.6052 35.5915C95.8691 35.557 96.1176 35.7368 95.915 35.2091C96.2018 35.6068 96.4579 35.5265 96.4274 35.3544L96.0794 35.2167C96.11 35.0867 96.2094 35.0485 96.3088 35.0064L96.7218 35.4959C97.5745 35.7368 96.3432 34.0123 97.4942 34.6929C97.2609 34.2952 97.1042 34.6393 96.8097 34.1958C97.0124 34.1155 97.8039 34.6126 97.8498 34.5705C98.2933 34.6279 97.3718 33.7331 97.7465 33.6987C97.5592 33.5649 97.108 33.1596 97.108 32.8575C97.3106 32.7772 97.953 33.3584 97.9951 33.5763C97.976 33.6222 97.9071 33.5878 97.8536 33.5343C97.8651 33.6375 97.8766 33.7675 98.106 33.8861L97.9645 33.7064C98.1977 33.7981 98.3775 33.5878 98.5916 33.8975C98.5457 33.6375 98.3736 33.5878 98.213 33.584C98.626 33.6337 98.5036 33.3087 98.8478 33.2781C98.7292 33.2207 98.5151 33.0601 98.5457 33.0295C99.0199 32.9531 98.3622 32.6051 98.4769 32.3489C98.8287 32.4866 99.0237 32.9722 99.0046 32.5783C99.2837 32.6281 99.4558 32.9798 99.5399 33.1557C99.4022 32.6778 100.06 33.041 100.217 32.999L100.255 33.2169C100.232 33.0869 100.278 33.0448 100.324 32.999L99.9528 32.7275C100.06 32.7275 100.106 32.6892 100.24 32.8231C100.083 32.5592 99.6661 32.3298 99.4863 31.936C99.7196 32.0277 99.5246 31.5459 99.9758 31.9474C99.6431 32.0163 100.289 32.2954 100.32 32.5363C100.339 32.498 100.381 32.4789 100.45 32.4828C100.507 32.521 100.53 32.5783 100.542 32.6166C101.134 32.7848 100.156 32.0392 100.385 31.8289C100.595 32.0966 100.89 32.2342 100.874 32.1463C100.783 32.2304 100.431 31.7868 100.328 31.523C100.656 31.5689 100.343 31.2324 100.435 31.1789L100.263 31.1789C100.052 30.9074 100.152 30.8691 100.175 30.6932C100.37 30.873 100.213 30.9112 100.331 30.9571C100.018 30.4256 101.012 31.1483 100.882 30.7124C101.115 30.8041 101.341 31.1559 101.513 31.2056C101.371 30.7238 102.025 31.3509 101.945 30.915C101.57 30.6435 101.639 30.7315 101.452 30.2917L101.387 30.8118L101.108 30.1541C101.016 30.2382 101.123 30.5441 101.016 30.5403C100.844 30.1885 100.913 30.2765 100.603 30.0509C101.207 30.4141 100.561 29.527 101.027 29.7144L101.823 30.5173C102.389 30.6627 101.788 29.7335 102.262 29.6608L102.037 29.6111C101.758 29.2555 102.163 29.397 102.121 29.1829C102.381 29.4582 102.534 29.5002 102.737 29.6264C102.534 29.4314 102.954 29.4429 102.446 28.8884L102.92 29.1179C103.283 29.0414 102.412 28.1046 102.714 27.986C102.939 28.3416 103.226 28.4334 103.291 28.7814C103.364 28.7125 103.478 28.6972 103.291 28.5137C103.497 28.6399 103.127 27.9593 103.448 28.1466C103.36 28.0013 103.092 27.7107 103.192 27.6534C103.253 27.6993 103.322 27.7872 103.322 27.7872C103.192 27.6534 103.268 27.4851 102.901 27.2557C103.952 27.8713 103.452 26.5865 104.354 27.1104C104.419 26.8657 104.518 26.5942 104.641 26.4336C104.713 26.5215 104.775 26.5674 104.717 26.5674C105.161 26.621 104.071 25.6803 104.568 25.7377C105.111 26.055 104.683 26.0895 104.916 26.1812C105.371 26.6057 105.406 26.5101 105.413 26.3533C105.421 26.1965 105.379 25.9939 105.776 26.1086L105.776 26.2156C106.017 26.2692 106.048 26.0703 106.044 25.8524C106.044 25.6306 105.998 25.3897 106.17 25.2788C106.17 25.2788 106.254 25.3515 106.331 25.3821C106.132 25.0838 106.071 24.8391 106.059 24.625C106.143 24.5485 106.235 24.4452 106.316 24.3305C106.434 24.4185 106.4 24.4261 106.805 24.5255C106.824 24.4529 106.576 24.3764 106.346 24.2885C106.407 24.2005 106.461 24.1126 106.503 24.0285C106.744 24.0285 107.019 24.0285 107.367 24.0973L107.18 24.3267C107.608 24.3802 107.684 24.2961 107.673 24.2005C107.665 24.1011 107.566 23.994 107.696 23.9482L108.032 24.0361C108.292 23.6384 107.352 23.5199 107.746 23.1987L107.413 23.214C107.004 23.0955 107.172 23.0802 107.382 23.0496C107.589 23.0228 107.841 22.9846 107.539 22.8966L108.552 22.8507L108.648 22.8507C108.453 22.7781 108.086 22.671 107.734 22.5678C107.379 22.4645 107.038 22.369 106.855 22.2848C107.665 22.3039 108.312 22.5487 108.958 22.7207C108.828 22.5831 108.403 22.2466 107.868 22.2351C108.009 22.2734 108.319 22.3231 108.22 22.3881C107.344 22.2925 106.836 22.1931 106.614 22.0095C106.614 21.9942 106.614 21.9751 106.614 21.9598C107.444 21.8107 107.39 21.6271 107.249 21.413C107.103 21.1951 106.893 20.9733 107.348 20.6215C106.824 20.48 106.648 20.22 106.472 19.8873C106.388 19.7229 106.304 19.5394 106.201 19.3597C106.147 19.2717 106.09 19.1799 106.021 19.0996C105.971 19.0346 105.941 18.9964 105.883 18.9582C105.207 19.8912 105.753 18.874 104.95 19.7229C104.817 19.6923 104.794 19.6464 104.84 19.5853L104.824 19.635C104.832 19.612 104.836 19.5967 104.843 19.5776L105.077 18.8282C105.256 18.5261 105.341 18.7249 105.516 18.5337C105.394 18.2852 105.788 18.1055 105.887 17.7652C105.616 18.0864 105.398 18.1246 105.406 17.9066L105.172 18.4381C104.473 18.6179 105.643 17.5204 104.947 17.6963L105.291 17.5204C105.004 17.5396 104.801 17.0195 104.006 17.5549C104.079 17.4363 104.274 17.1801 104.392 17.1763C104.17 16.7557 102.974 17.1687 103.134 16.511L103.36 16.3351C103.241 16.3351 102.874 16.6104 103.004 16.3351C103.092 16.2548 103.23 16.1592 103.214 16.1171C103.115 16.1554 102.702 16.3121 102.74 16.1171L103.035 15.9565C102.989 15.3791 102.002 16.033 101.601 15.9068C102.197 15.3141 102.144 14.8744 102.117 14.6526L102.205 14.5723C101.914 14.1364 101.092 14.4462 100.523 14.3429C100.958 13.4864 100.083 13.364 100.11 12.6681C100.052 12.8287 99.6393 13.1231 99.5169 13.1231C99.559 12.9243 98.886 13.3181 99.4443 12.7828L99.4634 12.8211C99.9376 12.2246 99.6355 12.2054 99.5246 12.064L98.7904 12.7561C99.4978 11.3872 97.5401 12.2704 98.2895 11.1616C98.0295 11.261 97.9339 11.1616 97.6777 11.2571L98.0639 10.8786C97.9416 10.5612 97.8766 10.4006 97.5133 10.2171L97.8421 9.99914C97.7121 9.81942 96.5421 10.9092 96.3776 10.7868L96.9053 10.1712C96.6262 9.91119 96.8556 9.13879 96.0717 9.38734C96.1597 9.30704 96.3318 9.15027 96.4006 9.16938C96.2897 9.02791 96.2973 8.29375 95.5594 9.1235C96.0679 8.61112 95.3299 8.79466 94.9629 8.87496L95.3605 8.51935C94.7564 8.87878 94.6225 9.00496 94.3166 8.96673C94.3243 8.87878 94.5843 8.63024 94.5384 8.77936C94.5996 8.4467 94.0758 9.03173 94.114 8.66465L94.4161 8.48493C94.3052 8.31669 94.1866 8.45817 93.831 8.66083C93.594 8.72583 93.6628 8.3014 93.984 7.94196C93.7584 8.12933 93.4028 8.33198 93.4181 8.15227C93.5366 8.01079 93.6437 7.96108 93.701 7.93814C93.724 7.4487 92.9172 8.02991 93.1275 7.49841C93.2498 7.3684 93.2995 7.29575 93.3263 7.24604C93.5022 7.44105 93.6322 7.6093 93.5901 7.62459C93.9381 7.27663 93.8501 7.06633 94.4467 6.70689C94.0643 6.84837 93.2919 7.21163 93.3072 6.90573C93.3339 6.86367 93.3607 6.82543 93.4066 6.76807L93.4601 6.74513C93.4601 6.6763 93.3989 6.68013 93.311 6.71072C93.3225 6.60748 93.3339 6.53482 93.2957 6.48512C93.5672 6.17922 93.2804 6.1601 93.2192 6.07215C92.8445 6.45835 92.8101 6.30158 92.5883 6.70689C92.6036 6.66866 92.6495 6.6763 92.7145 6.70689C92.7374 6.70689 92.7566 6.71454 92.7871 6.69925C92.7757 6.70689 92.7604 6.71836 92.7489 6.72601C92.8101 6.76425 92.8827 6.81778 92.9592 6.88661C92.7068 7.02044 92.4851 7.11986 92.6113 6.82925C92.3283 7.03574 92.0339 7.24604 91.8924 7.33781C92.3207 6.70689 92.4124 6.22128 92.7107 5.86949C92.2709 5.8542 92.0339 5.47565 91.1774 6.04539C91.0206 6.07215 91.3074 5.76625 91.3953 5.6286C91.5024 5.59418 91.5368 5.64772 91.6591 5.56742C91.3456 5.62095 91.2041 5.25387 90.6764 5.72419C90.7376 5.33799 91.2271 5.35711 90.9212 5.21563L91.1047 5.09327C91.4603 3.85438 89.1164 5.65154 89.6517 4.13734C89.6211 4.23293 89.6096 4.27882 89.5331 4.37059C89.4261 3.36112 87.9616 3.6479 88.1298 2.38224C88.1184 2.08016 87.7819 2.38224 87.4454 2.53136L87.8201 2.08781L87.1854 2.39753C86.608 2.51225 87.7857 0.994219 86.8412 1.35365L86.6042 1.6672C86.5506 1.51043 86.1109 1.49513 86.4436 1.19688C86.3824 1.23512 86.1224 1.44924 86.2256 1.26571L86.4359 1.04775L85.8126 1.15482C85.7668 0.799208 86.6921 0.336535 86.4397 0.0038696C86.2485 -0.0228966 85.5106 0.317417 85.4073 0.500956C85.4417 0.554489 85.3844 0.745676 85.1741 0.963629L84.9638 0.975101C84.3176 1.5869 83.5949 2.15664 83.3999 2.83726L83.9543 2.62313L83.7019 2.98257L83.5413 2.86021C83.3349 3.22729 83.6408 3.02463 83.874 2.90992C83.7249 3.08581 83.6369 3.22346 83.6102 3.31906L84.3787 2.88315C84.1531 3.15081 83.8166 3.29611 83.7899 3.54466C84.1455 3.342 84.2678 2.91756 84.5814 2.86403C84.3749 3.23111 84.1187 3.44142 84.459 3.29229C84.3099 3.46818 84.1875 3.5523 84.0767 3.58289C84.3558 3.47201 84.3826 3.72437 84.7611 3.43377C84.4934 3.86967 85.1397 3.62878 84.5355 4.21764C84.7038 4.10292 85.1511 3.90027 85.2544 3.9538C84.3979 4.52354 85.5029 4.28646 84.6999 5.01297C85.4456 4.47765 85.3653 5.10857 85.9082 4.94032C85.8471 4.98238 85.7247 5.06268 85.74 5.01297C85.7935 5.16975 85.6291 5.39535 85.5756 5.58271C86.1185 5.06651 86.4053 5.10857 86.8183 4.8715C86.4359 5.51006 86.1185 5.41447 85.6673 5.94597C86.0918 5.51006 86.3212 5.73949 86.6347 5.33799C86.4168 5.75096 86.5659 5.57507 86.1759 6.0645C86.8565 5.41829 86.3786 6.04539 86.868 5.72037C86.6845 6.19069 86.283 6.37805 86.6424 6.33217C86.5124 6.60748 86.1415 6.70307 86.1415 6.70307C86.2906 6.87514 86.7036 6.29011 87.0248 6.03774C87.3574 6.08745 86.7456 6.49276 86.5544 6.81396C86.8068 6.79866 87.3536 6.43158 87.4224 6.54247C87.346 6.63042 87.3345 6.68013 87.2121 6.76043C87.736 6.48894 87.606 7.11221 88.2484 6.76043C88.214 6.81396 88.1795 6.86367 88.1451 6.9019C88.3707 6.62659 88.6231 6.3704 88.8066 6.19451C88.8869 6.25569 89.254 6.01097 88.9558 6.36658C88.9213 6.31305 88.7875 6.44305 88.6652 6.52335L88.8831 6.45835C88.4816 6.99367 88.6193 6.51953 88.2713 6.86367C88.5696 6.85602 89.1278 6.63807 89.1087 6.88279C88.6728 7.36458 88.6919 6.77572 88.4319 7.33399L88.4319 6.98603C87.843 7.84255 88.3784 6.82925 87.7245 7.72783C87.8201 8.08726 88.2139 7.74695 88.3057 8.11021C88.6116 7.90755 88.6652 7.71636 88.9711 7.50988C89.7511 7.37605 88.0725 8.91702 88.9213 8.54611C89.2884 8.30139 89.8926 7.74313 89.7549 8.2211L89.1775 8.68377C89.3458 8.95525 90.0493 8.06432 89.9308 8.64553C89.6861 8.80995 89.5867 8.64553 89.5561 8.74113C89.2961 9.29939 89.9576 8.55376 90.0723 8.66847L89.6364 9.15027C89.9423 9.31086 90.535 9.23821 90.8791 9.4141C90.7262 9.53646 90.5388 9.63588 90.4585 9.83854C91.0168 9.93796 91.1009 10.5956 91.1468 11.1845L91.663 10.9092C91.6859 10.9398 91.5368 11.1424 91.4297 11.1883C91.403 11.4636 91.6897 10.9436 91.9039 10.848C92.0033 10.8901 91.77 11.1692 91.6056 11.2419C92.1601 11.1233 92.9516 11.1386 92.7527 11.7925L92.5883 11.8651C92.6074 12.2054 93.6016 11.2533 93.3989 11.7886L93.2957 11.8269C93.5098 12.3852 94.3014 12.4502 93.9993 13.3449C94.6264 12.8287 94.1293 13.9835 94.9514 13.2111C94.7793 13.8267 94.5728 13.907 94.6187 14.4844C94.6646 14.6029 95.242 14.1097 95.4255 14.1288L95.0126 14.5494L95.59 14.2511L95.1655 14.8247L95.3682 14.8132C95.3529 14.7482 95.4752 14.5456 95.5976 14.4309C95.9379 14.3926 95.6741 15.0885 95.4638 15.3065L96.1712 15.3065C96.0373 15.4327 95.9379 15.4594 95.8308 15.4939C96.1979 15.3944 95.3605 15.9871 95.8844 15.7883C95.957 15.6698 96.1444 15.5512 96.2323 15.4709C96.0679 15.8112 96.2629 16.0101 96.5153 16.0483L96.2018 16.3083C96.3929 16.6448 96.8977 16.7289 97.1883 17.031C97.215 16.7901 97.7389 16.316 97.8727 16.358L97.4674 16.8322C97.7963 16.6142 97.5439 16.576 97.9913 16.358C98.0524 16.5186 97.5668 16.9316 97.3565 17.0119L97.6433 16.9928C97.5209 17.1304 97.4177 17.1687 97.2418 17.3293C97.5707 17.1113 97.0315 18.0022 97.5859 17.6084L97.4636 17.746C97.758 18.0481 98.041 18.029 98.3048 18.2508C98.691 17.8761 98.6987 18.0558 99.081 17.8187C99.1384 18.1169 99.0351 18.614 99.2837 18.7938C99.624 18.7555 99.6508 18.5146 99.9414 18.3578C99.6049 18.7135 99.8534 18.897 99.494 19.0346C99.8075 19.2335 99.8917 19.2947 100.496 19.3367C100.603 19.1608 100.626 19.0576 100.763 18.962C100.878 18.962 100.752 19.2411 100.576 19.3979L100.526 19.417C101.108 19.3138 100.855 20.1474 100.897 20.6062C100.66 20.6406 100.416 20.675 100.209 20.8892C100.236 20.8165 100.289 20.6712 100.331 20.7171C100.06 20.6406 99.9834 20.3691 99.8075 20.1971C99.7731 20.9465 99.3525 21.1186 99.1231 21.5813C98.7904 20.8586 99.3258 20.7018 99.2187 20.0059C99.234 20.6139 98.6413 20.61 98.756 21.1186C98.5036 20.6712 98.5381 20.9006 98.4081 20.2812C98.3622 21.218 98.171 20.4418 97.9607 21.0153C97.5936 20.5527 97.8651 20.1397 97.4636 20.4227C97.2724 20.1359 97.6318 19.8032 97.6318 19.8032C97.2227 19.7879 97.4406 20.4953 97.3527 20.9006C96.8633 21.1033 97.1271 20.3806 96.9589 20.0212C96.653 20.2085 96.4159 20.8547 96.1903 20.828C96.175 20.7133 96.1291 20.6712 96.1826 20.5221C95.8576 21.0842 95.2229 20.5488 94.8443 21.2562C94.8176 21.1951 94.8023 21.1339 94.7946 21.0803C94.8558 21.436 94.8634 21.7954 94.852 22.0516C94.6684 22.0631 94.5117 22.499 94.439 22.0363C94.5537 22.0516 94.5614 21.8642 94.6149 21.7189L94.4237 21.9177C94.2516 21.2562 94.6875 21.6883 94.6875 21.1989C94.3128 21.413 93.8731 21.9636 93.5825 21.7763C93.5213 21.1262 94.2555 21.5583 93.8731 20.9809L94.3205 21.2295C93.9802 20.2047 94.592 21.3021 94.2784 20.2047C93.6896 20.0173 93.6207 20.5374 93.0357 20.3462C92.9057 20.7056 93.0778 20.8815 92.9477 21.2409C92.1142 21.891 92.2939 19.6082 91.6821 20.4724C91.5253 20.9045 91.4641 21.7266 91.0282 21.2907L91.1774 20.5565C90.6076 20.4838 90.8523 21.6118 90.2558 21.1186C90.3629 20.8318 90.7032 20.8739 90.6153 20.7897C90.2291 20.2085 90.3438 21.2065 90.0455 21.2065L89.9843 20.5565C89.3802 20.6597 88.711 21.1301 88.0419 21.2486C88.0801 21.0536 88.1948 20.8509 88.0381 20.6521C87.193 20.9771 86.2332 20.5718 85.4188 20.1856L85.1091 20.7477C85.0364 20.74 84.9752 20.4953 85.0517 20.3844C84.7343 20.1703 85.0364 20.74 84.8835 20.9618C84.7038 21 84.6464 20.6406 84.7611 20.4724C84.199 20.9465 83.1628 21.4971 82.5739 20.8968L82.6886 20.7286C82.2298 20.4991 82.1686 21.8795 81.7442 21.3557L81.8245 21.2562C80.8265 21.0115 79.7214 21.5277 78.9605 20.6789C78.8152 21.4857 77.9701 20.3194 77.909 21.4474C77.3392 20.8892 77.5036 20.6865 76.7007 20.3118C76.4865 20.2582 76.3795 21.0153 76.1156 21.1339L76.108 20.545L75.7485 21.1645L75.5574 20.4609L75.3088 20.6139C75.4082 20.6483 75.5191 20.8777 75.5038 21.0498C75.1138 21.3174 74.5555 20.6406 74.5479 20.3385L73.6302 20.8356C73.6455 20.6559 73.7373 20.5641 73.8328 20.4685C73.4887 20.7974 73.8023 19.7879 73.3855 20.2965C73.4466 20.4303 73.3511 20.6483 73.3434 20.7668C73.1178 20.4112 72.6093 20.4074 72.2307 20.5565L72.3034 20.1512C71.6227 20.0479 70.8656 20.3462 70.1009 20.3385C70.3762 20.5259 70.3112 21.2333 70.0894 21.2983L70.0015 20.675C69.8562 21.0612 70.2347 20.9083 69.9403 21.3824C69.6535 21.3098 69.7491 20.675 69.9135 20.4724L69.5655 20.6903C69.5464 20.503 69.6267 20.4074 69.6497 20.1703C69.5082 20.5565 69.0493 19.547 68.8429 20.2162L68.8237 20.0326C68.059 20.0288 67.711 20.2429 67.0878 20.2735C67.0763 20.8127 66.8316 20.6903 66.648 21.1262C66.1892 20.9542 65.6806 20.5336 65.13 20.5794C64.7438 20.8471 65.0153 21.0345 64.8432 21.3557C64.8165 20.8662 64.262 20.9121 64.5488 20.5603C63.8873 20.6406 63.7038 20.6597 62.8664 21.0574C62.9581 21.2562 63.0614 21.3442 63.0078 21.5124C62.8549 21.5927 62.6637 21.3059 62.6828 21.0727L62.721 21.023C61.7804 21.7571 60.553 19.5967 59.8035 20.6177L59.8456 20.568L59.0694 21.0995C58.7138 21.0153 59.2835 20.7324 59.0197 20.4265C58.1823 21.2448 57.6966 20.308 57.0084 20.8509C56.473 19.4055 55.1156 20.9542 54.3929 20.0288L54.435 20.3691C54.2476 20.7018 54.2094 20.1741 54.0717 20.0976C54.0909 20.3615 54.2744 20.4035 54.1597 20.5871C52.5805 20.9962 50.9057 20.09 49.2882 19.7841C48.6956 19.6923 48.9517 21.543 48.2061 20.7324L48.4164 20.1015C47.2234 20.8586 45.9769 20.0747 44.8068 20.7171C44.8756 20.5718 44.8795 20.3806 44.9942 20.3844C44.7456 19.9256 44.0803 20.3615 44.0765 20.7362C43.8929 20.6941 44.0344 20.3959 43.9235 20.2085C43.675 19.937 43.3002 20.7936 43.1702 20.3385C43.1473 20.2659 43.2391 20.1894 43.285 20.155C43.1244 20.3768 42.5317 20.0976 42.6885 20.6291C42.2487 20.3768 41.8511 20.8624 41.4993 20.5527C41.2698 21.1453 40.7498 20.2697 40.6772 21.1033C40.7077 20.2391 39.9086 20.4074 39.6295 20.8127C39.7212 20.5527 39.3886 20.5412 39.4956 20.1818C39.1783 20.1932 38.8876 20.3538 38.945 20.7974C38.3638 19.7612 37.7749 21.631 37.4461 20.3041C36.5055 20.7706 35.6375 21.0842 34.7924 21.2868C34.823 20.4265 35.7254 21.2027 35.691 20.2965C34.888 20.6521 34.4253 21.3901 33.63 21.1836C33.4235 21.0651 33.7485 20.8089 33.8174 20.6636C33.0144 21.0192 32.2687 20.5871 31.5537 21.0536C31.5537 20.9733 31.634 20.8853 31.7067 20.8203C31.5652 20.8471 31.3816 20.6941 31.3969 21.0842L31.5346 20.9771C31.7602 21.5468 30.9763 22.1663 30.9496 22.4645C31.1866 21.3404 30.246 22.1816 30.6245 20.763C30.5328 20.8356 30.4142 21.023 30.4372 21.283C30.2995 21.2065 30.2575 21.0536 30.3951 20.7553C29.8904 20.9695 30.0701 21.3862 29.6151 21.3748C29.6151 21.1836 29.7068 21.1109 29.7565 20.8892C29.5271 21.2601 29.2939 21.631 28.9077 21.4704C28.9306 21.3557 28.8847 21.2065 28.9994 21.2104C28.3379 21.2677 27.8714 22.1969 27.1449 21.8374C27.3591 21.0115 26.8964 21.566 26.8581 20.8509L26.4681 21.0651L26.6249 21.413C26.2846 21.4015 25.9787 21.9216 25.6881 21.6883L25.9404 21.3939L25.2981 21.5277L25.6613 21.7992C25.3134 22.1663 25.6996 22.7016 25.2445 22.5028C25.3363 22.4301 24.9042 22.4951 24.7245 22.0745C24.5563 22.3001 24.3804 22.541 24.128 22.3651C24.063 22.1357 24.1815 21.5774 24.1395 21.4245C23.9712 22.021 23.3403 21.5889 23.1262 22.2236C23.195 22.0745 23.1988 21.6998 23.1759 21.6233L23.0344 22.1089C22.8776 21.9522 22.8547 21.8795 22.8776 21.5813C22.3997 21.4933 23.0306 22.4875 22.4647 22.0975C22.5106 22.0592 22.4876 21.9866 22.5794 21.9139C22.0096 21.7113 21.482 22.2198 20.9581 21.9827C20.8052 21.2639 21.4131 21.8069 21.2372 21.2027C20.484 21.3327 19.6772 22.063 18.9506 21.8948L19.0845 21.9751C18.9851 22.9884 18.5415 21.4742 18.1744 21.9522C18.2662 21.8757 18.293 21.3901 18.27 21.501C17.7729 21.3365 17.2491 21.7495 16.4958 22.0707L16.5876 21.8107C16.2931 21.5774 15.8152 21.6768 15.494 21.5583C15.3984 21.8183 15.2187 21.7763 15.3296 22.1548C14.3507 20.6712 13.4636 22.9502 12.5918 21.7151C12.695 21.7151 12.8403 21.4857 12.7562 21.4857L12.0144 21.7266C12.0717 22.1701 12.11 21.9942 12.2667 22.3384C12.175 22.5984 11.9647 22.8049 11.7811 22.8049C12.1138 22.5104 11.7811 22.0936 11.6358 21.8489C11.6588 21.9827 11.6091 22.1319 11.6243 22.2695C11.2382 21.4818 11.5594 23.1566 11.0317 22.629L11.0584 22.3957C10.8596 22.5142 10.6799 22.8201 10.4658 22.7551C10.3778 22.2428 10.6761 22.5181 10.6914 22.0975C10.3931 22.1281 10.1025 23.0649 9.83102 22.5563C9.9572 22.4148 10.1407 22.411 10.2669 22.2695C9.9725 21.6692 9.93808 21.8222 9.72013 21.7266L9.74307 21.7419L9.23834 21.4704L9.36835 21.6348C8.99362 22.9655 8.60742 21.8795 8.10269 22.7513C8.59213 21.9254 8.18299 22.2734 8.22122 21.696C8.09122 21.5354 7.8962 21.3557 7.95356 21.1912C7.71649 21.6577 7.5559 20.8242 7.21941 21.5048C7.20411 21.3174 6.96322 21.4857 7.01675 21.0192C6.70702 21.1645 7.0894 21.3442 7.06263 21.5774C6.58466 22.216 5.93845 20.805 5.254 21.6807C4.66131 22.0401 4.55043 22.671 4.00364 22.9807C3.81627 22.6825 4.15658 22.3001 4.15658 22.3001C3.85833 22.0248 3.63272 22.0745 3.34977 22.2886C3.40712 22.1242 3.34977 21.9866 3.26183 21.7801C3.03623 21.8298 3.10888 22.4607 2.81063 22.1854C2.86034 21.9789 2.92916 21.6463 3.03623 21.436C2.76857 21.608 2.50472 21.956 2.22941 22.1242C2.15676 21.7992 2.39766 21.631 2.49325 21.4207C2.18353 21.566 1.69026 21.7151 1.59467 22.2313L1.7438 22.3689C1.70556 22.2542 1.75145 21.9522 1.81645 21.8795C2.08411 21.478 2.19882 22.0592 2.21411 22.2466L2.01911 22.3651C2.22177 23.4587 2.81063 22.1892 3.20447 22.2542L3.04004 23.0496L3.44536 22.3881C3.53331 22.5945 3.59067 23.0381 3.39566 23.1566C3.67862 23.5505 3.64802 22.8737 3.88892 23.3134C3.91568 23.3822 3.90421 23.4205 3.87744 23.4511L4.15658 23.214C4.10305 23.3822 4.20246 23.7761 4.03422 23.6614C4.53131 24.1202 4.8372 23.0649 5.02457 23.669L4.98251 23.7187C5.67461 23.4511 5.04752 23.1337 5.56755 22.4492L5.91551 23.8908L5.98433 23.3058C6.05698 23.3249 6.19846 23.3708 6.17169 23.604C6.43553 23.2025 6.12581 23.3516 6.27876 22.9731C6.62289 23.5046 7.22323 22.7246 7.30353 23.6537C7.42589 23.2102 6.97468 23.3134 7.34176 23.0037C7.445 24.0055 7.7662 22.8316 8.07975 23.2905C7.98415 23.8067 7.68589 23.5352 7.99944 23.994C8.1868 23.1222 8.61124 24.1852 8.87508 24.017C8.88655 23.3211 9.44864 23.7264 9.8922 23.497C9.86543 23.7302 10.7258 23.8793 11.1387 24.1317L11.1273 24.2464C11.2076 23.5428 11.632 23.6767 11.9417 23.5314C11.9302 23.952 11.8729 24.1164 11.7046 24.3038L11.9953 24.3038C12.0641 24.0743 12.1559 23.9558 12.3432 23.8755L12.2706 24.3994C12.6568 24.3688 13.0506 23.7799 13.5515 24.1317C13.5783 23.6423 13.1538 22.7666 13.6815 22.4416C13.7006 22.7054 13.7198 23.1605 13.5821 23.2675C13.628 23.2331 13.7427 23.0457 13.8345 23.1605L13.6242 23.604C13.8498 23.799 13.7427 23.2331 13.9262 23.2752C13.9262 23.6537 14.0601 23.5428 14.0333 23.8449C13.9874 23.8831 13.8765 23.6881 13.8039 23.8373C14.0104 23.9061 14.2551 24.1279 14.3392 24.4146C14.3201 24.2005 14.3392 23.9061 14.4883 23.8564C14.8745 23.8296 14.6222 24.3114 14.8478 24.5064C14.9434 24.2426 15.1881 24.5141 15.1957 23.952C15.3104 23.952 15.3296 24.2196 15.3754 24.3726C15.5743 24.124 16.3123 24.2999 16.0867 23.6996L16.0369 23.6614C16.0369 23.6614 16.0561 23.6499 16.0714 23.6384C16.729 23.0763 17.4364 23.9596 18.0903 23.7149L18.0903 23.9023C18.4803 23.6881 18.9545 23.7761 19.2336 23.3669C19.3483 23.3669 19.5051 23.7111 19.4554 23.9367C19.7536 23.7952 19.788 23.5811 20.2163 23.8946C19.9181 24.2235 20.3195 24.1852 19.9104 24.1355C20.2966 24.2999 20.3845 24.602 20.8013 24.0858C20.6599 24.5676 21.0919 24.6938 21.2755 24.5485L21.004 24.2043C21.2105 24.1355 21.3902 24.1776 21.5737 24.2196L21.4743 24.8544C22.2658 25.6268 22.9006 23.539 23.5047 24.8314C23.715 24.3879 23.0765 24.5179 23.2638 23.9979C23.6271 24.082 24.0056 24.9959 24.1203 24.9997C24.6174 25.3515 24.5868 24.0705 25.1069 24.3114C25.0419 24.0858 24.9769 23.4778 25.3669 23.2637C25.7301 23.3478 25.8143 24.2158 25.5848 24.3955C25.4969 24.4147 25.4548 24.342 25.4587 24.2655C25.3401 24.3458 25.1872 24.4452 25.3325 24.69L25.3784 24.4644C25.5581 24.6976 26.059 24.6708 25.9443 25.0456C26.2196 24.8276 26.0628 24.6747 25.8563 24.5561C26.3228 24.885 26.5867 24.5676 27.0685 24.7856C26.992 24.6594 26.9231 24.3955 26.9958 24.3955C27.7032 24.6747 27.3055 23.9634 27.7835 23.864C28.055 24.2082 27.6879 24.69 28.1659 24.3994C28.4603 24.6326 28.227 24.9997 28.1123 25.187C28.5521 24.7511 28.9306 25.4738 29.183 25.5541L28.9536 25.7377C29.0912 25.6306 29.2059 25.6306 29.3206 25.6344L29.1906 25.1794C29.3245 25.2597 29.443 25.2597 29.4392 25.4509C29.5807 25.1526 29.3321 24.6976 29.6112 24.2885C29.791 24.5179 30.1619 24.0399 30.223 24.6441C29.7068 24.4567 30.181 25.1106 29.9057 25.3018C29.9783 25.2865 30.0548 25.3018 30.1466 25.3553C30.1657 25.4241 30.1274 25.4815 30.0892 25.5159C30.6322 26.055 30.3378 24.8353 30.9037 24.8506C30.831 25.1909 31.0337 25.4929 31.1254 25.4203C30.8998 25.4126 31.0184 24.8544 31.2249 24.5944C31.5881 24.8582 31.6187 24.3994 31.8061 24.4299L31.5881 24.3076C31.6608 23.9673 31.8405 24.0132 32.0929 23.9061C32.1005 24.0055 32.0699 24.0552 32.0355 24.0858C32.3032 23.8258 32.6244 24.7856 32.9761 24.4185C33.1559 24.6479 32.9953 25.057 33.152 25.2138C33.5879 24.7741 33.6262 25.6803 34.085 25.3171C33.9512 24.862 33.9282 24.9729 34.2533 24.5294L33.4962 24.8506L33.9818 24.189C33.7524 24.1814 33.5 24.4758 33.3623 24.3994C33.5918 24.0285 33.5688 24.1393 33.4618 23.7608C33.7753 24.4452 34.0812 23.3631 34.4406 23.8258L34.4292 24.9538C34.9721 25.4585 35.3927 24.3764 36.0963 24.6594L35.8707 24.4644C35.9663 24.017 36.3066 24.4032 36.5322 24.2196C36.5093 24.5982 36.6546 24.7358 36.7502 24.9691C36.7387 24.69 37.2664 24.9959 37.3314 24.2426L37.6449 24.7397C38.2147 24.9423 38.295 23.6652 38.8418 23.7914C38.6773 24.2005 38.9259 24.4682 38.5588 24.7626C38.7423 24.7664 38.9068 24.8353 38.9068 24.5752C39.0138 24.8123 39.4115 24.0667 39.5797 24.4261C39.6562 24.2617 39.683 23.864 39.8856 23.8946C39.9086 23.9711 39.8856 24.082 39.8856 24.082C39.8856 23.8946 40.2068 23.8296 40.0271 23.409C40.5892 24.5867 41.5987 23.3249 42.0881 24.3344C42.4858 24.2082 42.9676 24.0858 43.327 24.059C43.3041 24.1738 43.327 24.2464 43.2582 24.2082C43.7553 24.56 43.5641 23.126 44.1338 23.5161C44.4244 24.1279 43.8317 23.8449 44.0115 24.0782C44.0918 25.3209 44.6959 23.9099 45.0783 24.6326L44.9865 24.7053C45.2771 25.1259 45.6977 24.2349 46.1757 24.3229C46.1757 24.3229 46.1528 24.4338 46.1757 24.5102C46.5007 23.8755 47.1202 23.669 47.579 23.4931C47.4375 23.9787 47.3687 23.7493 47.4567 24.2426C47.6631 24.1738 47.3955 23.4511 47.8084 23.3096C47.9423 23.5773 48.2367 23.8067 48.2788 24.3344L47.8926 24.3611C48.0914 25.0417 48.3935 24.3382 48.6 24.4567L48.5732 24.755C49.1659 24.6594 49.1735 23.9061 49.8121 23.9596L49.7471 23.734C50.095 22.9922 50.0377 24.1546 50.3856 23.6002L50.4927 24.3535C50.7221 24.1699 51.2995 23.6231 51.7125 23.4817C51.4792 24.0399 50.9974 24.3267 50.6954 24.6594C50.9248 24.6632 51.4716 24.602 51.5901 24.2311C51.4984 24.3038 51.3836 24.4873 51.2919 24.3726C51.571 23.7799 51.9381 23.4893 52.3931 23.5008C52.3128 24.9653 53.5785 23.8679 53.9073 25.0073C54.7103 24.4682 55.5018 25.2368 56.4386 25.1526C56.106 24.0132 56.7139 25.122 56.6528 23.952C56.8669 23.8793 56.951 23.8946 56.9701 23.9711L56.9242 23.9252C56.9434 23.9482 56.9548 23.9634 56.9701 23.9787L57.6316 24.6747C57.7884 25.015 57.4252 24.9309 57.4443 25.1947C57.9222 25.2826 57.6431 25.6918 57.9605 26.0015C57.8955 25.5847 58.1249 25.4012 58.4002 25.5618L58.0178 25.0226C58.687 24.3994 58.5952 26.0053 59.2682 25.3859L59.0541 25.753C59.3982 25.535 60.3274 25.7606 60.6677 24.82C60.7289 24.9538 60.8092 25.275 60.6562 25.3591C61.4822 25.5006 62.4916 24.3611 63.134 24.9385L63.0728 25.2253C63.2258 25.1412 63.3405 24.69 63.5317 24.9767C63.5202 25.0953 63.4705 25.2635 63.5393 25.2788C63.6196 25.1794 63.9485 24.7779 64.1511 24.9462L63.9752 25.2673C64.7782 25.6421 65.2103 24.4835 65.8871 24.2885C65.8871 25.1297 66.518 25.405 66.8354 25.5388L66.8239 25.6574C67.7607 25.7606 68.4146 24.9614 69.2826 24.6288C69.8217 25.5427 71.1065 25.0112 71.9745 25.5235C71.8407 25.3706 71.9975 24.8659 72.1504 24.7817C72.3531 24.9538 72.7125 24.1967 72.6781 24.9691L72.6054 24.9538C72.7584 25.7109 73.1752 25.5082 73.504 25.5312L73.5575 24.5217C74.4102 25.99 75.7906 23.9826 76.2571 25.2979C76.4636 25.0456 76.716 25.0494 76.9224 24.797L76.911 25.34C77.4807 25.4777 77.7675 25.5465 78.4711 25.4165L78.3257 25.8027C78.7234 25.8371 78.8267 24.2426 79.1937 24.212L79.3046 25.0188C79.9967 25.0073 80.7003 25.7147 81.3847 24.9844C81.3733 25.1029 81.3542 25.3362 81.2394 25.3706C81.5645 25.3897 82.5013 25.9174 82.3827 24.8085C82.3904 25.5312 83.0978 24.8773 83.4725 24.56L83.4152 25.0915C83.7325 24.4108 83.7402 24.2235 84.1837 24.0361C84.287 24.1049 84.2755 24.4644 84.1378 24.3267C84.4858 24.6058 84.4093 23.822 84.8338 24.1049L84.677 24.4452C85.0364 24.4873 85.0058 24.3038 85.2047 23.9061C85.4303 23.692 85.8853 24.0399 85.9388 24.5217C85.9885 24.2273 86.1835 23.8334 86.3938 23.9749C86.4206 24.1585 86.3441 24.2694 86.3059 24.3267C86.9062 24.69 87.1968 23.7073 87.6098 24.2311C87.6174 24.407 87.6442 24.495 87.6786 24.5485C87.2007 24.537 86.8183 24.5064 86.8527 24.4682C86.8527 24.9576 87.2389 25.0456 86.933 25.7224C87.2427 25.3515 87.7704 24.5485 88.1451 24.7779C88.1642 24.8238 88.1795 24.8735 88.1948 24.9462L88.1566 24.9997C88.2445 25.0494 88.321 24.9997 88.3937 24.9194C88.5122 24.9997 88.5887 25.0609 88.7034 25.0685C88.7493 25.4738 89.1431 25.2865 89.3381 25.3056C89.3228 24.7664 89.5752 24.8544 89.3381 24.4108C89.3687 24.4491 89.3037 24.4758 89.1737 24.4988C89.1431 24.5141 89.1125 24.5217 89.0934 24.5561C89.0934 24.5408 89.1011 24.5255 89.1049 24.5102C88.9787 24.5255 88.8143 24.537 88.6269 24.5447C88.7799 24.2732 88.9366 24.0438 89.1508 24.342C89.2502 23.9979 89.3572 23.6423 89.4184 23.474C89.6823 24.2235 90.187 24.6288 90.2597 25.0915C90.8447 24.7894 91.64 24.8926 92.0071 23.8832C92.1753 23.7531 92.1983 24.1738 92.2595 24.3305C92.1639 24.4299 92.0492 24.4147 91.9956 24.56C92.3283 24.2999 92.9822 24.4605 93.0625 23.7531C93.4831 24.0705 92.8254 24.4032 93.4028 24.2885L93.3263 24.5026C94.4428 25.6115 95.1464 22.8049 96.3662 24.082C96.3203 24.0323 96.2935 23.9864 96.282 23.9023C97.716 24.5408 99.2378 23.3019 100.653 24.3152C101.054 24.5179 101.1 24.0705 101.345 23.7264L101.433 24.3038L101.853 23.6384C101.934 23.5696 102.014 23.5543 102.09 23.562C101.964 23.6231 102.289 24.1891 101.96 23.9482C101.899 23.9061 101.884 23.8143 101.876 23.7723C101.972 23.9902 101.544 24.0246 101.979 24.3382C101.631 24.3305 101.819 24.8314 101.463 24.7435C101.792 25.2521 100.97 24.8353 101.536 25.4547C100.936 24.8314 100.744 25.2597 100.924 25.6535C100.775 25.4318 100.637 25.5541 100.427 25.2559C100.312 25.3859 100.312 25.6115 100.649 25.9059C99.689 25.4012 100.783 26.9498 99.7196 26.1392C99.6852 26.8313 99.5666 27.3934 99.3831 27.8637C98.7866 27.2404 99.6852 27.4392 99.0313 26.816C98.9701 27.3781 99.3143 28.0816 98.8593 28.2422C98.6948 28.2422 98.6413 27.9325 98.5648 27.8025C98.5036 28.3646 97.9071 28.3493 97.9645 28.9573C97.9071 28.8999 97.8766 28.8081 97.8574 28.7317C97.823 28.8043 97.6395 28.7699 97.9263 29.0414L97.9033 28.9114C98.3928 29.2249 98.5266 29.9667 98.7292 30.1923C98.0257 29.3052 98.2551 30.265 97.3986 29.114C97.4139 29.202 97.5018 29.3779 97.693 29.5538C97.5859 29.5538 97.4598 29.462 97.303 29.1982C97.2571 29.5461 97.6242 29.7679 97.4406 29.94C97.3068 29.8061 97.2915 29.7182 97.15 29.5423C97.3221 29.8941 97.4942 30.2459 97.2303 30.2803C97.1577 30.1923 97.0353 30.1044 97.0812 30.0585C96.8633 30.3568 97.3412 31.1942 96.8059 31.2209C96.305 30.5556 96.5191 31.1253 95.9991 30.6359L95.9991 30.938L96.305 31.1215C96.1635 31.2439 96.4159 31.7295 96.1329 31.6798L96.022 31.3739L95.8691 31.718L96.2018 31.7677C96.3279 32.1616 96.8556 32.391 96.5382 32.4292C96.5229 32.3413 96.4006 32.5554 96.0335 32.326C96.1291 32.5516 96.2285 32.7887 96.0067 32.7619C95.8194 32.6242 95.4676 32.1845 95.3452 32.0927C95.7008 32.5783 95.1502 32.521 95.5173 33.0525C95.4408 32.9187 95.177 32.6548 95.112 32.6089L95.3988 33.0066C95.2267 32.9569 95.1655 32.9148 94.9629 32.6931C94.7143 32.8154 95.6626 33.2743 95.1655 33.2169C95.154 33.171 95.0967 33.129 95.0776 33.041C94.7143 33.1175 94.8711 33.6834 94.4964 33.7178C93.9304 33.2704 94.5499 33.4157 94.0528 33.0563C93.854 33.4387 94.0566 34.2684 93.6551 34.4329L93.7622 34.4329C94.439 35.1938 93.1963 34.2914 93.3913 34.7732C93.3722 34.6852 93.0395 34.3296 93.1083 34.4176C92.7986 34.4979 92.8904 34.9911 92.8216 35.5073L92.6724 35.2856C92.3933 35.2358 92.2786 35.492 92.0721 35.5303C92.2212 35.7521 92.118 35.7903 92.4315 36.0159C91.0015 35.3467 92.2709 37.3045 91.0588 36.7653C91.0971 36.7233 90.9938 36.5092 90.9594 36.5397L90.8409 36.9986C91.1774 37.2892 91.0665 37.1515 91.3724 37.3313C91.5215 37.553 91.5827 37.7786 91.5138 37.8475C91.4374 37.511 91.0129 37.3466 90.7797 37.228C90.8829 37.316 90.9709 37.4383 91.0741 37.5301C90.3667 37.1248 91.6783 38.184 91.0971 38.0157L90.9441 37.8398C90.9517 38.0004 91.0971 38.2872 90.967 38.3216C90.5732 37.9928 90.8791 38.0731 90.5885 37.7672C90.4929 37.9048 91.0435 38.681 90.577 38.4249C90.5273 38.2757 90.5961 38.2031 90.5426 38.0539C90.0035 37.7442 90.0991 37.8666 89.9461 37.8819L89.9652 37.8819L89.5752 37.8857L89.7396 37.9507C90.535 39.0367 89.6173 38.4172 90.0379 39.2317C89.644 38.4554 89.732 38.8608 89.3381 38.4401C89.1737 38.3751 88.971 38.3254 88.8793 38.1878C89.1164 38.6122 88.4663 38.0807 88.8181 38.6963C88.6804 38.5702 88.7072 38.7843 88.3975 38.4287C88.3822 38.6543 88.6537 38.6313 88.8105 38.8034C89.0743 39.4381 87.8278 38.6925 88.1795 39.5758C88.2025 40.0614 88.6078 40.547 88.6154 40.9829C88.3325 40.8453 88.1948 40.4438 88.1948 40.4438C87.8851 40.3673 87.8316 40.4897 87.8736 40.7497C87.7819 40.612 87.6595 40.5394 87.4798 40.4247C87.4263 40.547 87.9004 40.9638 87.5907 40.8835C87.4645 40.7153 87.2542 40.4553 87.1471 40.2679C87.1662 40.4935 87.3077 40.8415 87.3192 41.0671C87.0592 40.8644 87.0362 40.6541 86.9215 40.4667L86.9253 40.4247ZM93.0816 6.46217C93.1581 6.39335 93.2307 6.33217 93.2919 6.29011C93.3951 6.28628 93.3378 6.37805 93.2651 6.46217C93.2345 6.44688 93.1963 6.43158 93.1313 6.42011C93.116 6.43158 93.0969 6.44688 93.0778 6.46217L93.0816 6.46217ZM90.8944 9.23056C90.9173 9.24204 90.9441 9.25733 91.0015 9.27645L90.9938 9.2841C90.9518 9.26115 90.9173 9.24204 90.8944 9.23056ZM91.1965 9.43322C91.315 9.29174 91.4641 9.16938 91.4871 9.20762C91.3838 9.28027 91.38 9.4294 91.315 9.58617C91.2921 9.53264 91.2462 9.48293 91.1926 9.43705L91.1965 9.43322ZM88.0381 21.3977C88.1222 21.3862 88.191 21.3748 88.2369 21.3671C88.1948 21.3748 88.1375 21.3862 88.0381 21.4092L88.0381 21.3977ZM87.2312 21.4168C87.3307 21.436 87.453 21.4398 87.5792 21.436C87.606 21.6195 87.5792 21.8107 87.4951 21.803C87.541 21.6807 87.3498 21.5736 87.2274 21.4168L87.2312 21.4168ZM88.9366 25.1412C88.8105 25.2176 88.7646 25.1106 88.7493 25.0035C88.8105 24.9959 88.8793 24.9767 88.9711 24.9385C88.9711 24.9194 88.9825 24.8964 88.9863 24.8735C88.9749 24.9767 88.9596 25.0723 88.9366 25.145L88.9366 25.1412ZM102.239 23.5581C102.331 23.6155 102.419 23.6996 102.511 23.799C102.434 23.7531 102.343 23.6384 102.239 23.5581Z" fill="#FF0200"/>
<path d="M87.3573 41.3959L87.3076 41.3844C87.3344 41.4035 87.3535 41.4112 87.3573 41.3959Z" fill="#FF0200"/>
<path d="M92.7028 6.70294C92.7028 6.70294 92.6684 6.71441 92.6531 6.71059C92.6302 6.75265 92.6111 6.79089 92.5958 6.8253C92.6417 6.79089 92.6875 6.75647 92.7334 6.72206L92.699 6.70294L92.7028 6.70294Z" fill="#FF0200"/>
<path d="M93.8232 36.7615C93.8041 36.7538 93.7811 36.7424 93.7544 36.7194C93.7773 36.7347 93.7888 36.7462 93.8079 36.7577L93.8232 36.7577L93.8232 36.7615Z" fill="#FF0200"/>
<path d="M94.913 14.6373L95.0086 14.5379L94.8977 14.5953L94.913 14.6373Z" fill="#FF0200"/>
<path d="M90.7833 37.1782C90.7451 37.1477 90.7068 37.1209 90.6648 37.1056C90.6916 37.1285 90.7336 37.1553 90.7833 37.1782Z" fill="#FF0200"/>
<path d="M89.9536 37.836L89.7127 37.8054C89.835 37.836 89.9038 37.8398 89.9536 37.836Z" fill="#FF0200"/>
<path d="M89.1927 38.2222C89.2539 38.2948 89.2998 38.3484 89.3457 38.3981L89.1927 38.2222Z" fill="#FF0200"/>
<path d="M97.8458 28.6743C97.8458 28.6743 97.8534 28.6514 97.8496 28.6361C97.8266 28.5099 97.8228 28.5749 97.8458 28.6743Z" fill="#FF0200"/>
<path d="M96.0257 32.2724C95.9837 32.1729 95.9454 32.0774 95.934 32.0047C95.8575 32.0238 95.8116 32.0544 96.0257 32.2724Z" fill="#FF0200"/>
<path d="M100.41 25.1953C100.41 25.1953 100.41 25.1953 100.418 25.2033C100.422 25.1953 100.43 25.1913 100.438 25.1833L100.41 25.1953Z" fill="#FF0200"/>
<path d="M96.064 31.8861C95.9416 31.8594 95.9149 31.9167 95.9302 32.0047C95.9952 31.9894 96.0793 31.9817 96.064 31.8861Z" fill="#FF0200"/>
<path d="M86.4931 40.5431C86.5199 40.566 86.539 40.589 86.5504 40.6081L86.5352 40.5316L86.4931 40.5431Z" fill="#FF0200"/>
<path d="M86.5543 40.6042L86.5696 40.6807C86.5696 40.6807 86.5926 40.6501 86.5543 40.6042Z" fill="#FF0200"/>
<path d="M86.5658 40.6808C86.5429 40.7038 86.5046 40.7191 86.5964 40.8414L86.5658 40.6808Z" fill="#FF0200"/>
<path d="M87.472 39.9466L87.342 39.8013C87.3649 39.8357 87.407 39.8816 87.472 39.9466Z" fill="#FF0200"/>
<path d="M87.6631 39.679C87.5752 39.702 87.2311 39.5223 87.2425 39.6867L87.3458 39.8052C87.1775 39.5643 87.8467 39.9658 87.667 39.6829L87.6631 39.679Z" fill="#FF0200"/>
<path d="M90.3934 40.8912C91.074 41.0862 90.0148 40.612 90.3284 40.4208L90.0263 40.505C90.206 40.6197 90.4469 40.7726 90.3972 40.895L90.3934 40.8912Z" fill="#FF0200"/>
<path d="M91.4296 40.3366C91.3608 40.1378 91.3455 40.0881 91.139 40.0345C91.1046 40.2066 91.3532 40.2449 91.4296 40.3366Z" fill="#FF0200"/>
<path d="M95.4636 35.7138L95.8001 36.0694C95.8307 35.9394 95.6662 35.9356 95.4636 35.7138Z" fill="#FF0200"/>
<path d="M94.4999 33.0983L94.2093 32.9606L94.4885 33.3162L94.4999 33.0983Z" fill="#FF0200"/>
<path d="M97.4672 35.1593L97.4748 34.8993L97.4519 35.0752L97.4672 35.1593Z" fill="#FF0200"/>
<path d="M104.591 27.6916L104.14 27.2901C104.163 27.4201 104.629 27.9095 104.591 27.6916Z" fill="#FF0200"/>
<path d="M108.151 23.2636C108.594 23.2445 109.003 23.1107 108.682 23.0151C108.514 23.1221 108.101 23.2063 108.151 23.2636Z" fill="#FF0200"/>
<path d="M99.3676 11.9722L99.1267 11.9722L99.1612 12.0525L99.3676 11.9722Z" fill="#FF0200"/>
<path d="M0.2677 21.4053L0.0268141 21.5736C-0.0305421 21.738 0.0038702 22.1127 0.15682 22.0363L0.2677 21.4053Z" fill="#FF0200"/>
<path d="M1.06684 22.7475C1.25038 22.4416 1.45686 21.9024 1.34215 21.3212C1.16243 21.9292 1.12037 21.6768 0.925359 22.3995C0.772409 22.4722 0.653879 22.1969 0.680646 21.9636C0.627113 22.1242 0.439747 21.826 0.355625 22.2236C0.558284 22.7131 0.810656 22.7322 1.07832 22.3269C1.13567 22.4645 1.07831 22.6328 1.06684 22.7475Z" fill="#FF0200"/>
<path d="M16.1783 23.7339L16.0827 23.6575C16.1094 23.6995 16.1438 23.7225 16.1783 23.7339Z" fill="#FF0200"/>
<path d="M25.5427 24.0781C25.47 24.0934 25.4432 24.1546 25.4394 24.212C25.5044 24.1699 25.5618 24.1317 25.5427 24.0781Z" fill="#FF0200"/>
<path d="M27.1409 24.7778C27.1065 24.7587 27.0759 24.7473 27.0453 24.7358C27.0797 24.7931 27.118 24.8275 27.1409 24.7778Z" fill="#FF0200"/>
<path d="M16.1783 23.734L16.4268 23.9328C16.4459 23.7264 16.2968 23.7799 16.1783 23.734Z" fill="#FF0200"/>
<path d="M3.15079 21.218C3.09725 21.2485 3.0552 21.3059 3.01314 21.3862C3.0552 21.3594 3.09726 21.3365 3.13932 21.3174C3.13932 21.283 3.14314 21.2524 3.14696 21.218L3.15079 21.218Z" fill="#FF0200"/>
<path d="M12.0524 24.2463L11.976 24.2463C11.953 24.319 11.9339 24.4069 11.911 24.5064L12.0486 24.2463L12.0524 24.2463Z" fill="#FF0200"/>
<path d="M9.00879 23.5924C8.96673 23.8142 8.91702 23.9174 8.85201 23.9595C8.85201 24.0627 8.85966 24.1851 8.8826 24.338C8.95525 24.361 8.9782 23.8256 9.00496 23.5886L9.00879 23.5924Z" fill="#FF0200"/>
<path d="M3.85815 23.3975L3.7702 23.4701C3.79315 23.4472 3.83139 23.4242 3.85815 23.3975Z" fill="#FF0200"/>
<path d="M14.32 24.3611C14.3238 24.4414 14.3353 24.5102 14.3506 24.5523C14.3506 24.4834 14.3391 24.4223 14.32 24.3611Z" fill="#FF0200"/>
<path d="M30.0661 25.4662C30.0661 25.4662 30.0584 25.4585 30.0546 25.4547C29.9781 25.5159 30.0202 25.5044 30.0661 25.4662Z" fill="#FF0200"/>
<path d="M56.9241 25.0684C56.6182 24.5866 57.4173 24.4528 56.9623 23.9175C57.0044 24.1278 56.5455 24.7549 56.9241 25.0684Z" fill="#FF0200"/>
<path d="M3.23105 21.2906C3.27311 21.283 3.31899 21.2792 3.36105 21.2868C3.3037 21.2677 3.26164 21.2715 3.23105 21.2906Z" fill="#FF0200"/>
<path d="M36.7385 24.9079C36.7385 24.9614 36.7576 25.0303 36.8073 25.1411C36.792 25.0456 36.7652 24.9729 36.7385 24.9079Z" fill="#FF0200"/>
<path d="M31.7868 24.3764L31.9091 24.4491C31.8594 24.3993 31.8212 24.3841 31.7868 24.3764Z" fill="#FF0200"/>
<path d="M39.4725 24.426C39.4725 24.426 39.4381 24.3954 39.4151 24.384C39.4342 24.4069 39.4534 24.4184 39.4725 24.426Z" fill="#FF0200"/>
<path d="M39.4724 24.4261C39.5069 24.4567 39.5375 24.4758 39.5986 24.4261C39.591 24.3993 39.5833 24.3802 39.5719 24.3611C39.5489 24.4146 39.5183 24.4452 39.4724 24.4261Z" fill="#FF0200"/>
<path d="M42.13 24.3803C42.1147 24.3382 42.0956 24.3076 42.0803 24.2732C42.0536 24.2847 42.023 24.2923 41.9962 24.3038L42.1339 24.3841L42.13 24.3803Z" fill="#FF0200"/>
<path d="M94.6721 20.5833C94.7333 20.7362 94.7677 20.9006 94.7983 21.0651C94.7562 20.6827 95.1539 20.5488 94.6721 20.5833Z" fill="#FF0200"/>
<path d="M3.15084 21.5199C3.16614 21.3861 3.18908 21.3173 3.23114 21.2867C3.20055 21.2943 3.16996 21.302 3.13937 21.3173C3.13173 21.3976 3.1279 21.474 3.15084 21.5199Z" fill="#FF0200"/>
<path d="M39.526 20.1434L39.9581 20.2237C39.8357 20.1702 39.679 20.1434 39.526 20.1434Z" fill="#FF0200"/>
<path d="M75.2015 20.6597L75.301 20.5947C75.2627 20.5832 75.2283 20.5947 75.2015 20.6597Z" fill="#FF0200"/>
<path d="M41.2352 20.1434C41.3117 20.3346 41.392 20.4417 41.4799 20.5143C41.499 20.4723 41.5181 20.4379 41.5296 20.3767L41.2352 20.1434Z" fill="#FF0200"/>
<path d="M31.9359 24.1508C31.9626 24.0935 31.9894 24.0591 32.0162 24.0323C31.955 24.082 31.8785 24.0782 31.9359 24.1508Z" fill="#FF0200"/>
<path d="M73.9168 20.3461C73.8862 20.3844 73.8557 20.415 73.8251 20.4455C73.8518 20.4188 73.8824 20.3882 73.9168 20.3461Z" fill="#FF0200"/>
<path d="M1.77045 22.3613L1.72074 22.3154C1.73221 22.346 1.7475 22.3651 1.77045 22.3613Z" fill="#FF0200"/>
<path d="M96.366 24.0247C96.3851 24.0438 96.4043 24.0667 96.431 24.0935C96.4081 24.0667 96.389 24.0476 96.366 24.0247Z" fill="#FF0200"/>
<path d="M29.8825 25.252C29.8481 25.2597 29.8098 25.2711 29.7792 25.2941C29.8213 25.2864 29.8557 25.2673 29.8825 25.252Z" fill="#FF0200"/>
<path d="M89.1698 24.4413C89.1698 24.4413 89.1965 24.4069 89.2233 24.4031C89.1965 24.3572 89.1736 24.3151 89.1468 24.2807C89.1315 24.3381 89.1162 24.3954 89.1009 24.4489C89.1239 24.4489 89.1468 24.4451 89.1698 24.4413Z" fill="#FF0200"/>
<path d="M16.0827 23.6575C16.0674 23.6384 16.0559 23.6155 16.0483 23.5811C16.0598 23.6078 16.0598 23.6231 16.0674 23.6461L16.0827 23.6575Z" fill="#FF0200"/>
<path d="M76.1002 20.3921L76.1002 20.5297L76.169 20.4112L76.1002 20.3921Z" fill="#FF0200"/>
<path d="M11.6242 21.7992C11.6166 21.7533 11.5974 21.7036 11.5669 21.6616C11.5669 21.696 11.5936 21.7457 11.6242 21.7992Z" fill="#FF0200"/>
<path d="M9.70468 21.6806L9.43319 21.4894C9.55172 21.5965 9.63585 21.65 9.70468 21.6806Z" fill="#FF0200"/>
<path d="M8.22864 21.4129C8.20952 21.5085 8.2057 21.5773 8.19805 21.6423L8.22481 21.4091L8.22864 21.4129Z" fill="#FF0200"/>
<path d="M31.6835 20.782C31.7026 20.782 31.7218 20.7706 31.7409 20.7591C31.8747 20.6559 31.7829 20.6941 31.6835 20.782Z" fill="#FF0200"/>
<path d="M24.927 21.7838C24.8047 21.7418 24.7053 21.7303 24.7014 22.0362C24.7741 21.9368 24.8467 21.8412 24.927 21.7838Z" fill="#FF0200"/>
<path d="M39.4802 20.1357C39.4802 20.1357 39.4802 20.1396 39.4802 20.1434C39.4955 20.1434 39.5108 20.1434 39.5299 20.1434L39.484 20.1357L39.4802 20.1357Z" fill="#FF0200"/>
<path d="M25.252 21.7915C25.1297 21.6844 25.0226 21.7073 24.927 21.7838C25.0302 21.8182 25.1488 21.8756 25.252 21.7915Z" fill="#FF0200"/>
<path d="M1.76277 21.1492C1.76277 21.1836 1.76277 21.2142 1.75512 21.2372L1.83542 21.1722L1.76277 21.1492Z" fill="#FF0200"/>
<path d="M1.75507 21.2333L1.67477 21.2983C1.70918 21.2983 1.74359 21.2945 1.75507 21.2333Z" fill="#FF0200"/>
<path d="M1.51031 21.432L1.67474 21.2982C1.61739 21.2982 1.54473 21.2791 1.51031 21.432Z" fill="#FF0200"/>
<path d="M3.80841 21.2217C3.79694 21.2638 3.78929 21.325 3.78547 21.4168L3.80841 21.2217Z" fill="#FF0200"/>
<path d="M4.38208 21.3634C4.2406 21.3175 4.02647 20.9466 3.82763 21.0689L3.80852 21.2257C3.90029 20.9351 4.24442 21.6922 4.37825 21.3634L4.38208 21.3634Z" fill="#FF0200"/>
<path d="M6.85974 23.7722L6.36265 23.6154C6.45059 23.8219 6.56531 24.101 6.33589 24.1507C6.96298 24.7702 6.20588 23.6881 6.85974 23.7684L6.85974 23.7722Z" fill="#FF0200"/>
<path d="M8.40071 24.0704C8.13305 24.166 8.40071 24.3725 8.38924 24.4872C8.55748 24.2999 8.59954 24.2502 8.40071 24.0704Z" fill="#FF0200"/>
<path d="M19.5431 24.0742L19.5164 24.5637C19.7228 24.4948 19.5164 24.3725 19.5431 24.0742Z" fill="#FF0200"/>
<path d="M21.673 21.5467L21.4742 21.2408L21.3786 21.692L21.673 21.5467Z" fill="#FF0200"/>
<path d="M22.931 25.0302L22.8431 25.099L23.1872 24.9231L22.931 25.0302Z" fill="#FF0200"/>
<path d="M41.6482 24.8544L41.587 24.254C41.4494 24.3611 41.4188 25.0379 41.6482 24.8544Z" fill="#FF0200"/>
<path d="M49.724 24.2426C49.812 24.5447 50.0376 24.7359 50.179 24.4415C49.9993 24.3994 49.8158 24.1662 49.724 24.2426Z" fill="#FF0200"/>
<path d="M73.955 25.2252L73.7944 25.424L74.1003 25.2557L73.955 25.2252Z" fill="#FF0200"/>
</g>
<defs>
<clipPath id="clip0_5_57">
<rect width="42" height="108.95" fill="white" transform="translate(108.95) rotate(90)"/>
</clipPath>
</defs>
</svg>
