<svg width="109" height="42" viewBox="0 0 109 42" fill="none" xmlns="http://www.w3.org/2000/svg">
<g clip-path="url(#clip0_5_162)">
<path d="M22.8546 0.695892L22.8278 0.481761C22.7322 0.344106 22.4569 0.0917404 22.4492 0.202629L22.8546 0.692068V0.695892Z" fill="#FF0200"/>
<path d="M21.8909 0.359399C21.7685 0.282924 21.6729 0.145269 21.5964 0.0573232C21.7417 0.344104 22.0438 0.806779 22.4988 1.17386C22.1394 0.672948 22.3344 0.837367 21.8985 0.24851C21.9062 0.137622 22.147 0.28675 22.3 0.462642C22.2082 0.324987 22.4912 0.466464 22.2426 0.152917C21.8182 -0.114745 21.7035 -0.0306226 21.887 0.359399H21.8909Z" fill="#FF0200"/>
<path d="M15.035 5.22323L15.1268 5.23853C15.0885 5.21941 15.0579 5.21558 15.035 5.22323Z" fill="#FF0200"/>
<path d="M11.1003 8.47337C11.1003 8.5269 11.1117 8.57661 11.1538 8.61102C11.1691 8.57279 11.1385 8.51543 11.1003 8.47337Z" fill="#FF0200"/>
<path d="M10.0412 8.7373C10.068 8.7373 10.0871 8.73348 10.11 8.72966C10.0565 8.70289 10.0183 8.69524 10.0412 8.7373Z" fill="#FF0200"/>
<path d="M15.035 5.2232L14.7979 5.18114C14.9356 5.33409 14.9547 5.2385 15.035 5.2232Z" fill="#FF0200"/>
<path d="M21.8681 1.94632C21.8681 1.90426 21.8413 1.8469 21.8031 1.77425C21.8031 1.80867 21.8031 1.84308 21.8031 1.86985C21.826 1.89661 21.8451 1.91573 21.8719 1.9425L21.8681 1.94632Z" fill="#FF0200"/>
<path d="M16.2738 3.25781L16.3044 3.22722C16.2624 3.16604 16.2088 3.09721 16.1477 3.02074L16.2777 3.25781H16.2738Z" fill="#FF0200"/>
<path d="M17.9142 2.539C17.7727 2.36693 17.7192 2.27134 17.7154 2.21781C17.6427 2.14515 17.5548 2.06103 17.4324 1.96162C17.3866 1.97309 17.7575 2.36311 17.9142 2.539Z" fill="#FF0200"/>
<path d="M15.3102 4.05695C15.2529 4.00341 15.1993 3.95753 15.1649 3.93076C15.2108 3.97665 15.2605 4.01871 15.3102 4.05695Z" fill="#FF0200"/>
<path d="M24.4911 37.7212C24.4643 37.748 24.4452 37.7671 24.4222 37.79C24.4681 37.7594 24.4987 37.7327 24.4911 37.7212Z" fill="#FF0200"/>
<path d="M24.036 41.0288H23.9978C23.9252 41.1015 23.8525 41.1703 23.7799 41.2391L24.036 41.0288Z" fill="#FF0200"/>
<path d="M8.41997 9.38727C8.41997 9.38727 8.42761 9.38727 8.43144 9.38727C8.41614 9.31462 8.4085 9.33756 8.41997 9.38727Z" fill="#FF0200"/>
<path d="M3.29218 23.233C3.51395 22.7742 3.91927 22.9883 4.12193 22.4339C3.9881 22.5983 3.36865 22.866 3.29218 23.233Z" fill="#FF0200"/>
<path d="M21.7838 1.92718C21.7724 1.9463 21.7571 1.96924 21.738 1.98071C21.7724 1.96924 21.7877 1.95395 21.7838 1.92718Z" fill="#FF0200"/>
<path d="M6.22508 12.3698C6.18684 12.3316 6.13331 12.2895 6.03389 12.2283C6.10654 12.2895 6.16772 12.3316 6.22508 12.3698Z" fill="#FF0200"/>
<path d="M8.52309 10.8211H8.42367C8.4772 10.8326 8.50397 10.8288 8.52309 10.8211Z" fill="#FF0200"/>
<path d="M5.5062 13.7692C5.5062 13.7692 5.54061 13.7769 5.55973 13.7769C5.53679 13.7692 5.51767 13.7654 5.5062 13.7692Z" fill="#FF0200"/>
<path d="M5.50621 13.7693C5.47179 13.7617 5.44503 13.7617 5.4565 13.819C5.47944 13.8343 5.49474 13.8458 5.51385 13.8535C5.48709 13.8076 5.47562 13.7732 5.50621 13.7693Z" fill="#FF0200"/>
<path d="M4.50823 14.8324C4.54265 14.8553 4.57324 14.8706 4.60383 14.8897C4.60765 14.8744 4.61147 14.8515 4.6153 14.8362H4.50823V14.8324Z" fill="#FF0200"/>
<path d="M21.1108 34.7043C21.0267 34.8343 20.9235 34.9681 20.8164 35.0943C21.0688 34.8075 21.3212 34.8649 21.1108 34.7043Z" fill="#FF0200"/>
<path d="M21.6539 1.73218C21.7418 1.83542 21.7839 1.88895 21.7877 1.92719C21.7953 1.91189 21.7992 1.89277 21.803 1.87365C21.7494 1.81247 21.6959 1.75894 21.6577 1.73218H21.6539Z" fill="#FF0200"/>
<path d="M8.51174 16.8168L8.28996 16.9277C8.37409 16.9162 8.45438 16.878 8.51174 16.8168Z" fill="#FF0200"/>
<path d="M13.5016 27.2021L13.5858 27.1944C13.5781 27.1715 13.5552 27.1677 13.5016 27.2021Z" fill="#FF0200"/>
<path d="M7.85019 17.4821C7.68577 17.3788 7.57871 17.3329 7.49458 17.3138C7.51753 17.3521 7.53282 17.3826 7.57488 17.4323L7.85402 17.4821H7.85019Z" fill="#FF0200"/>
<path d="M8.64167 9.46759C8.64167 9.46759 8.65696 9.42553 8.64932 9.39876C8.63784 9.42171 8.63784 9.44465 8.64167 9.46759Z" fill="#FF0200"/>
<path d="M13.1155 26.5176C13.1422 26.51 13.1767 26.4985 13.2225 26.4832C13.1843 26.4985 13.1499 26.51 13.1155 26.5176Z" fill="#FF0200"/>
<path d="M22.0246 1.57533C22.0399 1.34973 22.1278 1.0553 21.8028 0.653807L21.646 0.615567C21.7416 0.680571 21.9366 0.91382 21.9634 0.990295C22.147 1.38032 21.6881 1.01324 21.5505 0.887055L21.5428 0.726456C20.6901 0.0305344 21.3593 1.15854 21.1604 1.26561L20.6633 0.638511L20.9731 1.26178C20.7933 1.14707 20.4569 0.856463 20.4492 0.69969C20.063 0.531445 20.5525 0.997942 20.1471 0.779988C20.0898 0.741751 20.0668 0.711162 20.0515 0.676748L20.1127 0.952058C20.0171 0.814404 19.6959 0.573506 19.8451 0.588801C19.3289 0.458794 19.9559 1.32296 19.455 0.967354L19.4359 0.917643C19.3594 1.37649 19.8221 1.35737 20.1051 2.04182L18.9503 1.15854L19.3365 1.59827C19.2944 1.60974 19.2065 1.63651 19.0535 1.46062C19.2333 1.84682 19.2524 1.62121 19.4589 1.95006C18.9503 1.70534 19.2677 2.49303 18.5794 1.86593C18.8471 2.22537 18.9503 1.98064 19.023 2.34008C18.2735 1.67475 18.9809 2.62686 18.5335 2.4242C18.2047 2.02271 18.5144 2.09918 18.067 1.89652C18.61 2.58862 17.6961 1.99976 17.7114 2.21772C18.197 2.7148 17.6923 2.64598 17.6846 2.98247C17.5317 2.80657 17.092 3.036 16.7517 3.01688L16.6752 2.92893C17.1417 3.45661 16.8817 3.52926 16.8625 3.75104C16.5719 3.44896 16.4763 3.31131 16.4075 3.11247L16.2966 3.22719C16.4305 3.41455 16.4763 3.53308 16.461 3.66309L16.1169 3.26542C15.9869 3.43749 16.2507 4.0034 15.811 3.94987C16.1475 4.30548 16.9275 4.76051 16.9543 5.19641C16.7593 5.0167 16.4305 4.70315 16.4075 4.57314C16.4152 4.61521 16.4993 4.7911 16.3846 4.74521L16.1513 4.34754C15.9257 4.29783 16.3693 4.65726 16.2699 4.69933C16.006 4.43166 16.029 4.56167 15.8263 4.3399C15.8187 4.29783 15.9984 4.3896 15.9219 4.25577C15.7957 4.28636 15.5395 4.22518 15.3063 4.05312C15.4669 4.19842 15.6657 4.41255 15.6428 4.50432C15.5128 4.67256 15.2719 4.23283 15.0463 4.18695C15.1954 4.40872 14.9086 4.31313 15.3025 4.71462C15.2566 4.75668 15.0616 4.57697 14.9354 4.48902C15.0348 4.74139 14.6218 4.90199 15.1342 5.23848L15.1839 5.24612C15.1839 5.24612 15.1839 5.26142 15.1877 5.27671C15.3292 5.93057 14.4306 5.58261 14.3503 6.00322L14.2165 5.86939C14.2165 6.17147 13.9718 6.29765 14.1477 6.6915C14.1018 6.73738 13.7997 6.55384 13.6582 6.37413C13.6429 6.58826 13.7806 6.75268 13.3944 6.69915C13.2759 6.35118 13.1497 6.53472 13.3447 6.40854C13.0809 6.44295 12.8323 6.26324 13.035 6.79091C12.7482 6.39325 12.492 6.47354 12.5226 6.64561L12.8706 6.78327C12.84 6.91328 12.7405 6.95151 12.6411 6.99357L12.2282 6.50413C11.3755 6.26324 12.6067 7.98775 11.4558 7.30712C11.689 7.70479 11.8458 7.36065 12.1402 7.80421C11.9376 7.88451 11.146 7.38742 11.1002 7.42948C10.6566 7.37212 11.5781 8.26688 11.2034 8.3013C11.3908 8.43513 11.842 8.84044 11.842 9.14252C11.6393 9.22282 10.9969 8.64161 10.9549 8.42366C10.974 8.37777 11.0428 8.41218 11.0963 8.46572C11.0849 8.36248 11.0734 8.23247 10.844 8.11393L10.9854 8.29365C10.7522 8.20188 10.5725 8.41218 10.3584 8.10246C10.4042 8.36247 10.5763 8.41218 10.7369 8.41601C10.3239 8.3663 10.4463 8.69132 10.1022 8.72191C10.2207 8.77926 10.4348 8.93986 10.4042 8.97045C9.93009 9.04693 10.5878 9.39489 10.4731 9.65108C10.1213 9.51342 9.92627 9.02781 9.94539 9.42165C9.66625 9.37194 9.49419 9.02016 9.41006 8.84427C9.54772 9.32223 8.89003 8.95898 8.73326 9.00104L8.69502 8.78309C8.71796 8.91309 8.67208 8.95515 8.62619 9.00104L8.9971 9.27253C8.89003 9.27253 8.84415 9.31076 8.71032 9.17693C8.86709 9.44077 9.28388 9.6702 9.46359 10.064C9.23035 9.97227 9.42536 10.4541 8.97416 10.0526C9.30682 9.98374 8.66061 9.70461 8.63002 9.46371C8.6109 9.50195 8.56884 9.52107 8.50001 9.51725C8.44265 9.47901 8.41971 9.42165 8.40824 9.38341C7.81556 9.21517 8.79444 9.9608 8.56501 10.1711C8.35471 9.90344 8.06028 9.76579 8.07558 9.85373C8.16735 9.76961 8.51913 10.2132 8.62237 10.477C8.29353 10.4311 8.60708 10.7676 8.51531 10.8211H8.68737C8.89768 11.0926 8.79826 11.1309 8.77532 11.3068C8.58031 11.127 8.73708 11.0888 8.61855 11.0429C8.93209 11.5744 7.93792 10.8517 8.06793 11.2876C7.83468 11.1959 7.60908 10.8441 7.43701 10.7944C7.57849 11.2762 6.92463 10.6491 7.00493 11.085C7.37965 11.3565 7.31083 11.2685 7.49819 11.7083L7.56319 11.1882L7.84233 11.8459C7.9341 11.7618 7.82703 11.4559 7.9341 11.4597C8.10617 11.8115 8.03734 11.7235 8.34706 11.9491C7.74291 11.5859 8.38912 12.473 7.92263 12.2856L7.12729 11.4827C6.56137 11.3373 7.1617 12.2665 6.68756 12.3392L6.91316 12.3889C7.19229 12.7445 6.78697 12.603 6.82904 12.8171C6.56902 12.5418 6.41607 12.4998 6.21341 12.3736C6.41607 12.5686 5.99546 12.5571 6.50402 13.1116L6.02987 12.8821C5.66662 12.9586 6.53843 13.8954 6.23635 14.014C6.01075 13.6584 5.72397 13.5666 5.65897 13.2186C5.58632 13.2875 5.47161 13.3028 5.65897 13.4863C5.45249 13.3601 5.82339 14.0407 5.5022 13.8534C5.59014 13.9987 5.8578 14.2893 5.75839 14.3466C5.69721 14.3007 5.62838 14.2128 5.62838 14.2128C5.75839 14.3466 5.68191 14.5149 6.04899 14.7443C4.99746 14.1287 5.49837 15.4135 4.59597 14.8896C4.53096 15.1343 4.43155 15.4058 4.30919 15.5664C4.23654 15.4785 4.17536 15.4326 4.23271 15.4326C3.78916 15.379 4.87893 16.3197 4.38184 16.2623C3.83887 15.945 4.26713 15.9105 4.03388 15.8188C3.57885 15.3943 3.54444 15.4899 3.53679 15.6467C3.52914 15.8035 3.5712 16.0061 3.17354 15.8914V15.7844C2.93264 15.7308 2.90205 15.9297 2.90587 16.1476C2.90587 16.3694 2.95176 16.6103 2.77969 16.7212C2.77969 16.7212 2.69557 16.6485 2.61909 16.6179C2.81793 16.9162 2.87911 17.1609 2.89058 17.375C2.80646 17.4515 2.71469 17.5548 2.63439 17.6695C2.51585 17.5815 2.55026 17.5739 2.14495 17.4745C2.12583 17.5471 2.37437 17.6236 2.6038 17.7115C2.54262 17.7995 2.48908 17.8874 2.44702 17.9715C2.20613 17.9715 1.93082 17.9715 1.58286 17.9027L1.77022 17.6733C1.34196 17.6198 1.26549 17.7039 1.27696 17.7995C1.28461 17.8989 1.38402 18.006 1.25402 18.0518L0.917526 17.9639C0.657511 18.3616 1.59815 18.4801 1.20431 18.8013L1.53697 18.786C1.94611 18.9045 1.77787 18.9198 1.56756 18.9504C1.36108 18.9772 1.10871 19.0154 1.41079 19.1034L0.397497 19.1493H0.301903C0.496914 19.2219 0.863994 19.329 1.21578 19.4322C1.57139 19.5355 1.9117 19.631 2.09524 19.7152C1.28461 19.6961 0.638393 19.4513 -0.00782013 19.2793C0.122187 19.4169 0.546623 19.7534 1.08195 19.7649C0.940468 19.7266 0.630745 19.6769 0.730163 19.6119C1.6058 19.7075 2.11436 19.8069 2.33614 19.9905C2.33614 20.0058 2.33614 20.0249 2.33614 20.0402C1.50638 20.1893 1.55991 20.3729 1.70139 20.587C1.8467 20.8049 2.057 21.0267 1.60198 21.3785C2.12583 21.52 2.30172 21.78 2.47761 22.1127C2.56174 22.2771 2.64586 22.4606 2.7491 22.6403C2.80263 22.7283 2.85999 22.8201 2.92882 22.9004C2.97852 22.9654 3.00911 23.0036 3.06647 23.0418C3.74327 22.1088 3.19648 23.126 3.99946 22.2771C4.1333 22.3077 4.15624 22.3536 4.11035 22.4147L4.12565 22.365C4.118 22.388 4.11418 22.4033 4.10653 22.4224L3.87328 23.1718C3.69356 23.4739 3.60944 23.2751 3.43355 23.4663C3.55591 23.7148 3.16206 23.8945 3.06265 24.2348C3.33413 23.9136 3.55209 23.8754 3.54444 24.0934L3.77769 23.5619C4.47743 23.3821 3.30737 24.4796 4.00329 24.3037L3.65915 24.4796C3.94593 24.4604 4.14859 24.9805 4.94393 24.4451C4.87128 24.5637 4.67627 24.8199 4.55773 24.8237C4.77951 25.2443 5.97634 24.8313 5.81574 25.489L5.59014 25.6649C5.70868 25.6649 6.07576 25.3896 5.94575 25.6649C5.8578 25.7452 5.72015 25.8408 5.73544 25.8829C5.83486 25.8446 6.24783 25.6879 6.20959 25.8829L5.91516 26.0435C5.96105 26.6209 6.94757 25.967 7.34906 26.0932C6.75256 26.6859 6.80609 27.1256 6.83286 27.3474L6.74491 27.4277C7.03552 27.8636 7.85762 27.5538 8.42736 27.6571C7.99145 28.5136 8.86709 28.636 8.84032 29.3319C8.89768 29.1713 9.31065 28.8769 9.433 28.8769C9.39094 29.0757 10.0639 28.6819 9.50566 29.2172L9.48654 29.1789C9.01239 29.7754 9.31447 29.7946 9.42536 29.936L10.1595 29.2439C9.45212 30.6128 11.4099 29.7296 10.6604 30.8384C10.9204 30.739 11.016 30.8384 11.2722 30.7428L10.886 31.1214C11.0084 31.4388 11.0734 31.5994 11.4366 31.7829L11.1078 32.0009C11.2378 32.1806 12.4079 31.0908 12.5723 31.2132L12.0446 31.8288C12.3238 32.0888 12.0943 32.8612 12.8782 32.6127C12.7903 32.693 12.6182 32.8497 12.5494 32.8306C12.6602 32.9721 12.6526 33.7063 13.3906 32.8765C12.882 33.3889 13.62 33.2053 13.9871 33.125L13.5894 33.4807C14.1936 33.1212 14.3274 32.995 14.6333 33.0333C14.6256 33.1212 14.3656 33.3698 14.4115 33.2206C14.3503 33.5533 14.8742 32.9683 14.836 33.3353L14.5339 33.5151C14.6448 33.6833 14.7633 33.5418 15.1189 33.3392C15.356 33.2742 15.2872 33.6986 14.966 34.058C15.1916 33.8707 15.5472 33.668 15.5319 33.8477C15.4133 33.9892 15.3063 34.0389 15.2489 34.0619C15.226 34.5513 16.0328 33.9701 15.8225 34.5016C15.7001 34.6316 15.6504 34.7042 15.6236 34.754C15.4478 34.5589 15.3177 34.3907 15.3598 34.3754C15.0118 34.7234 15.0998 34.9337 14.5033 35.2931C14.8857 35.1516 15.6581 34.7884 15.6428 35.0943C15.616 35.1363 15.5892 35.1746 15.5433 35.2319L15.4898 35.2549C15.4898 35.3237 15.551 35.3199 15.6389 35.2893C15.6275 35.3925 15.616 35.4652 15.6542 35.5149C15.3828 35.8208 15.6695 35.8399 15.7307 35.9278C16.1054 35.5416 16.1399 35.6984 16.3616 35.2931C16.3463 35.3313 16.3004 35.3237 16.2354 35.2931C16.2125 35.2931 16.1934 35.2855 16.1628 35.3008C16.1743 35.2931 16.1896 35.2816 16.201 35.274C16.1399 35.2357 16.0672 35.1822 15.9907 35.1134C16.2431 34.9796 16.4649 34.8801 16.3387 35.1707C16.6216 34.9643 16.9161 34.754 17.0576 34.6622C16.6293 35.2931 16.5375 35.7787 16.2393 36.1305C16.679 36.1458 16.9161 36.5244 17.7726 35.9546C17.9294 35.9278 17.6426 36.2337 17.5546 36.3714C17.4476 36.4058 17.4132 36.3523 17.2908 36.4326C17.6043 36.379 17.7458 36.7461 18.2735 36.2758C18.2123 36.662 17.7229 36.6429 18.0288 36.7844L17.8452 36.9067C17.4896 38.1456 19.8336 36.3485 19.2983 37.8627C19.3289 37.7671 19.3403 37.7212 19.4168 37.6294C19.5239 38.6389 20.9884 38.3521 20.8201 39.6178C20.8316 39.9198 21.1681 39.6178 21.5046 39.4686L21.1298 39.9122L21.7646 39.6025C22.342 39.4878 21.1643 41.0058 22.1087 40.6463L22.3458 40.3328C22.3993 40.4896 22.8391 40.5049 22.5064 40.8031C22.5676 40.7649 22.8276 40.5508 22.7243 40.7343L22.514 40.9522L23.1373 40.8452C23.1832 41.2008 22.2578 41.6635 22.5102 41.9961C22.7014 42.0229 23.4394 41.6826 23.5426 41.499C23.5082 41.4455 23.5656 41.2543 23.7759 41.0364L23.9862 41.0249C24.6324 40.4131 25.3551 39.8434 25.5501 39.1627L24.9956 39.3769L25.248 39.0174L25.4086 39.1398C25.6151 38.7727 25.3092 38.9754 25.0759 39.0901C25.2251 38.9142 25.313 38.7765 25.3398 38.6809L24.5712 39.1168C24.7968 38.8492 25.1333 38.7039 25.1601 38.4553C24.8045 38.658 24.6821 39.0824 24.3686 39.136C24.575 38.7689 24.8312 38.5586 24.4909 38.7077C24.64 38.5318 24.7624 38.4477 24.8733 38.4171C24.5942 38.528 24.5674 38.2756 24.1888 38.5662C24.4565 38.1303 23.8103 38.3712 24.4144 37.7824C24.2462 37.8971 23.7988 38.0997 23.6956 38.0462C24.5521 37.4765 23.447 37.7135 24.25 36.987C23.5044 37.5223 23.5847 36.8914 23.0417 37.0597C23.1029 37.0176 23.2253 36.9373 23.21 36.987C23.1564 36.8303 23.3208 36.6046 23.3744 36.4173C22.8314 36.9335 22.5446 36.8914 22.1317 37.1285C22.514 36.4899 22.8314 36.5855 23.2826 36.054C22.8582 36.4899 22.6287 36.2605 22.3152 36.662C22.5332 36.249 22.384 36.4249 22.774 35.9355C22.0934 36.5817 22.5714 35.9546 22.082 36.2796C22.2655 35.8093 22.667 35.6219 22.3076 35.6678C22.4376 35.3925 22.8085 35.2969 22.8085 35.2969C22.6593 35.1249 22.2464 35.7099 21.9252 35.9623C21.5925 35.9126 22.2043 35.5072 22.3955 35.186C22.1431 35.2013 21.5963 35.5684 21.5275 35.4575C21.604 35.3696 21.6155 35.3199 21.7378 35.2396C21.214 35.5111 21.344 34.8878 20.7016 35.2396C20.736 35.186 20.7704 35.1363 20.8048 35.0981C20.5792 35.3734 20.3269 35.6296 20.1433 35.8055C20.063 35.7443 19.6959 35.989 19.9942 35.6334C20.0286 35.687 20.1624 35.5569 20.2848 35.4766L20.0668 35.5416C20.4683 35.0063 20.3307 35.4805 20.6786 35.1363C20.3804 35.144 19.8221 35.3619 19.8412 35.1172C20.2771 34.6354 20.258 35.2243 20.518 34.666V35.014C21.1069 34.1575 20.5716 35.1707 21.2254 34.2722C21.1298 33.9127 20.736 34.253 20.6442 33.8898C20.3383 34.0925 20.2848 34.2836 19.9789 34.4901C19.1988 34.624 20.8775 33.083 20.0286 33.4539C19.6615 33.6986 19.0574 34.2569 19.195 33.7789L19.7724 33.3162C19.6042 33.0447 18.9006 33.9357 19.0191 33.3545C19.2639 33.19 19.3633 33.3545 19.3939 33.2589C19.6539 32.7006 18.9924 33.4462 18.8777 33.3315L19.3136 32.8497C19.0077 32.6891 18.415 32.7618 18.0708 32.5859C18.2238 32.4635 18.4112 32.3641 18.4915 32.1615C17.9332 32.062 17.8491 31.4044 17.8032 30.8155L17.287 31.0908C17.264 31.0602 17.4132 30.8576 17.5202 30.8117C17.547 30.5364 17.2602 31.0564 17.0461 31.152C16.9467 31.1099 17.1799 30.8308 17.3443 30.7581C16.7899 30.8767 15.9984 30.8614 16.1972 30.2075L16.3616 30.1349C16.3425 29.7946 15.3483 30.7467 15.551 30.2113L15.6542 30.1731C15.4401 29.6148 14.6486 29.5498 14.9507 28.6551C14.3236 29.1713 14.8207 28.0165 13.9986 28.7889C14.1706 28.1733 14.3771 28.093 14.3312 27.5156C14.2853 27.3971 13.708 27.8903 13.5244 27.8712L13.9374 27.4506L13.36 27.7489L13.7844 27.1753L13.5818 27.1868C13.5971 27.2518 13.4747 27.4544 13.3523 27.5691C13.012 27.6074 13.2759 26.9115 13.4862 26.6935H12.7788C12.9126 26.5673 13.012 26.5406 13.1191 26.5061C12.752 26.6056 13.5894 26.0129 13.0656 26.2117C12.9929 26.3302 12.8055 26.4488 12.7176 26.5291C12.882 26.1888 12.687 25.9899 12.4346 25.9517L12.7482 25.6917C12.557 25.3552 12.0523 25.2711 11.7617 24.969C11.7349 25.2099 11.211 25.684 11.0772 25.642L11.4825 25.1678C11.1537 25.3858 11.4061 25.424 10.9587 25.642C10.8975 25.4814 11.3831 25.0684 11.5934 24.9881L11.3066 25.0072C11.429 24.8696 11.5322 24.8313 11.7081 24.6707C11.3793 24.8887 11.9184 23.9978 11.364 24.3916L11.4864 24.254C11.1919 23.9519 10.909 23.971 10.6451 23.7492C10.2589 24.1239 10.2513 23.9442 9.86891 24.1813C9.81156 23.8831 9.9148 23.386 9.66625 23.2062C9.32594 23.2445 9.29917 23.4854 9.00857 23.6422C9.34506 23.2865 9.09652 23.103 9.45595 22.9654C9.1424 22.7665 9.05828 22.7053 8.45413 22.6633C8.34706 22.8392 8.32412 22.9424 8.18646 23.038C8.07175 23.038 8.19794 22.7589 8.37383 22.6021L8.42354 22.583C7.84233 22.6862 8.09469 21.8526 8.05263 21.3938C8.28971 21.3594 8.53443 21.325 8.74091 21.1108C8.71414 21.1835 8.66061 21.3288 8.61855 21.2829C8.89003 21.3594 8.96651 21.6309 9.1424 21.8029C9.17681 21.0535 9.59743 20.8814 9.82685 20.4187C10.1595 21.1414 9.62419 21.2982 9.73126 21.9941C9.71596 21.3861 10.3086 21.39 10.1939 20.8814C10.4463 21.3288 10.4119 21.0994 10.5419 21.7188C10.5878 20.782 10.779 21.5582 10.9893 20.9847C11.3563 21.4473 11.0849 21.8603 11.4864 21.5773C11.6775 21.8641 11.3181 22.1968 11.3181 22.1968C11.7273 22.2121 11.5093 21.5047 11.5972 21.0994C12.0867 20.8967 11.8228 21.6194 11.9911 21.9788C12.297 21.7915 12.5341 21.1453 12.7597 21.172C12.775 21.2867 12.8208 21.3288 12.7673 21.4779C13.0923 20.9158 13.7271 21.4512 14.1056 20.7438C14.1324 20.8049 14.1477 20.8661 14.1553 20.9197C14.0941 20.564 14.0865 20.2046 14.098 19.9484C14.2815 19.9369 14.4383 19.501 14.5109 19.9637C14.3962 19.9484 14.3886 20.1358 14.335 20.2811L14.5262 20.0823C14.6983 20.7438 14.2624 20.3117 14.2624 20.8011C14.6371 20.587 15.0769 20.0364 15.3675 20.2237C15.4286 20.8738 14.6945 20.4417 15.0769 21.0191L14.6295 20.7705C14.9698 21.7953 14.358 20.6979 14.6715 21.7953C15.2604 21.9827 15.3292 21.4626 15.9143 21.6538C16.0443 21.2944 15.8722 21.1185 16.0022 20.7591C16.8358 20.109 16.6561 22.3918 17.2679 21.5276C17.4246 21.0955 17.4858 20.2734 17.9217 20.7093L17.7726 21.4435C18.3423 21.5162 18.0976 20.3882 18.6941 20.8814C18.587 21.1682 18.2467 21.1261 18.3347 21.2103C18.7209 21.7915 18.6062 20.7935 18.9044 20.7935L18.9656 21.4435C19.5698 21.3403 20.2389 20.8699 20.9081 20.7514C20.8698 20.9464 20.7551 21.1491 20.9119 21.3479C21.7569 21.0229 22.7167 21.4282 23.5312 21.8144L23.8409 21.2523C23.9135 21.26 23.9747 21.5047 23.8982 21.6156C24.2156 21.8297 23.9135 21.26 24.0665 21.0382C24.2462 20.9999 24.3035 21.3594 24.1888 21.5276C24.7509 21.0535 25.7872 20.5029 26.376 21.1032L26.2613 21.2714C26.7202 21.5009 26.7813 20.1205 27.2058 20.6443L27.1255 20.7438C28.1235 20.9885 29.2285 20.4723 29.9895 21.3211C30.1348 20.5143 30.9798 21.6806 31.041 20.5526C31.6107 21.1108 31.4463 21.3135 32.2493 21.6882C32.4634 21.7418 32.5705 20.9847 32.8343 20.8661L32.842 21.455L33.2014 20.8355L33.3926 21.5391L33.6411 21.3861C33.5417 21.3517 33.4308 21.1223 33.4461 20.9502C33.8361 20.6826 34.3944 21.3594 34.4021 21.6615L35.3198 21.1644C35.3045 21.3441 35.2127 21.4359 35.1171 21.5315C35.4612 21.2026 35.1477 22.2121 35.5645 21.7035C35.5033 21.5697 35.5989 21.3517 35.6065 21.2332C35.8321 21.5888 36.3407 21.5926 36.7192 21.4435L36.6466 21.8488C37.3272 21.9521 38.0843 21.6538 38.8491 21.6615C38.5738 21.4741 38.6388 20.7667 38.8605 20.7017L38.9485 21.325C39.0938 20.9388 38.7152 21.0917 39.0097 20.6176C39.2964 20.6902 39.2009 21.325 39.0364 21.5276L39.3844 21.3097C39.4035 21.497 39.3232 21.5926 39.3003 21.8297C39.4417 21.4435 39.9006 22.453 40.1071 21.7838L40.1262 21.9674C40.8909 21.9712 41.2389 21.7571 41.8622 21.7265C41.8737 21.1873 42.1184 21.3097 42.3019 20.8738C42.7608 21.0458 43.2693 21.4664 43.8199 21.4206C44.2061 21.1529 43.9346 20.9655 44.1067 20.6443C44.1335 21.1338 44.6879 21.0879 44.4011 21.4397C45.0627 21.3594 45.2462 21.3403 46.0836 20.9426C45.9918 20.7438 45.8886 20.6558 45.9421 20.4876C46.0951 20.4073 46.2863 20.694 46.2671 20.9273L46.2289 20.977C47.1695 20.2428 48.397 22.4033 49.1464 21.3823L49.1044 21.432L49.8806 20.9005C50.2362 20.9847 49.6664 21.2676 49.9303 21.5735C50.7677 20.7552 51.2533 21.692 51.9416 21.1491C52.4769 22.5945 53.8343 21.0458 54.557 21.9712L54.515 21.6309C54.7023 21.2982 54.7406 21.8259 54.8782 21.9024C54.8591 21.6385 54.6755 21.5965 54.7903 21.4129C56.3695 21.0038 58.0443 21.91 59.6617 22.2159C60.2544 22.3077 59.9982 20.457 60.7438 21.2676L60.5335 21.8985C61.7265 21.1414 62.9731 21.9253 64.1431 21.2829C64.0743 21.4282 64.0705 21.6194 63.9558 21.6156C64.2043 22.0744 64.8697 21.6385 64.8735 21.2638C65.057 21.3058 64.9155 21.6041 65.0264 21.7915C65.275 22.063 65.6497 21.2064 65.7797 21.6615C65.8026 21.7341 65.7109 21.8106 65.665 21.845C65.8256 21.6232 66.4183 21.9024 66.2615 21.3709C66.7012 21.6232 67.0989 21.1376 67.4507 21.4473C67.6801 20.8546 68.2001 21.7303 68.2728 20.8967C68.2422 21.7609 69.0414 21.5926 69.3205 21.1873C69.2287 21.4473 69.5614 21.4588 69.4543 21.8182C69.7717 21.8068 70.0623 21.6462 70.0049 21.2026C70.5862 22.2388 71.175 20.369 71.5038 21.6959C72.4445 21.2294 73.3125 20.9158 74.1575 20.7132C74.1269 21.5735 73.2245 20.7973 73.2589 21.7035C74.0619 21.3479 74.5246 20.6099 75.3199 20.8164C75.5264 20.9349 75.2014 21.1911 75.1326 21.3364C75.9356 20.9808 76.6812 21.4129 77.3962 20.9464C77.3962 21.0267 77.3159 21.1147 77.2433 21.1797C77.3848 21.1529 77.5683 21.3058 77.553 20.9158L77.4154 21.0229C77.1898 20.4532 77.9736 19.8337 78.0004 19.5355C77.7633 20.6596 78.704 19.8184 78.3254 21.237C78.4172 21.1644 78.5357 20.977 78.5128 20.717C78.6504 20.7935 78.6925 20.9464 78.5548 21.2447C79.0596 21.0305 78.8798 20.6138 79.3349 20.6252C79.3349 20.8164 79.2431 20.8891 79.1934 21.1108C79.4228 20.7399 79.6561 20.369 80.0423 20.5296C80.0193 20.6443 80.0652 20.7935 79.9505 20.7896C80.612 20.7323 81.0785 19.8031 81.805 20.1625C81.5909 20.9885 82.0536 20.434 82.0918 21.1491L82.4818 20.9349L82.325 20.587C82.6654 20.5985 82.9713 20.0784 83.2619 20.3117L83.0095 20.6061L83.6519 20.4723L83.2886 20.2008C83.6366 19.8337 83.2504 19.2984 83.7054 19.4972C83.6136 19.5699 84.0457 19.5049 84.2254 19.9255C84.3937 19.6999 84.5696 19.459 84.822 19.6349C84.887 19.8643 84.7684 20.4226 84.8105 20.5755C84.9787 19.979 85.6096 20.4111 85.8238 19.7764C85.7549 19.9255 85.7511 20.3002 85.7741 20.3767L85.9155 19.8911C86.0723 20.0478 86.0953 20.1205 86.0723 20.4187C86.5503 20.5067 85.9194 19.5125 86.4853 19.9025C86.4394 19.9408 86.4623 20.0134 86.3706 20.0861C86.9403 20.2887 87.468 19.7802 87.9918 20.0172C88.1448 20.7361 87.5368 20.1931 87.7127 20.7973C88.466 20.6673 89.2728 19.9369 89.9993 20.1052L89.8655 20.0249C89.9649 19.0116 90.4084 20.5258 90.7755 20.0478C90.6837 20.1243 90.657 20.6099 90.6799 20.499C91.177 20.6635 91.7009 20.2505 92.4541 19.9293L92.3624 20.1893C92.6568 20.4226 93.1348 20.3231 93.456 20.4417C93.5516 20.1817 93.7313 20.2237 93.6204 19.8452C94.5993 21.3288 95.4864 19.0498 96.3582 20.2849C96.2549 20.2849 96.1096 20.5143 96.1938 20.5143L96.9356 20.2734C96.8782 19.8299 96.84 20.0058 96.6832 19.6616C96.775 19.4016 96.9853 19.1951 97.1688 19.1951C96.8362 19.4896 97.1688 19.9064 97.3141 20.1511C97.2912 20.0172 97.3409 19.8681 97.3256 19.7305C97.7118 20.5182 97.3906 18.8434 97.9183 19.371L97.8915 19.6043C98.0903 19.4857 98.2701 19.1798 98.4842 19.2449C98.5721 19.7572 98.2739 19.4819 98.2586 19.9025C98.5568 19.8719 98.8474 18.9351 99.1189 19.4437C98.9927 19.5852 98.8092 19.589 98.683 19.7305C98.9774 20.3308 99.0119 20.1778 99.2298 20.2734L99.2069 20.2581L99.7116 20.5296L99.5816 20.3652C99.9563 19.0345 100.343 20.1205 100.847 19.2487C100.358 20.0746 100.767 19.7266 100.729 20.304C100.859 20.4646 101.054 20.6443 100.996 20.8088C101.233 20.3423 101.394 21.1758 101.731 20.4952C101.746 20.6826 101.987 20.5143 101.933 20.9808C102.243 20.8355 101.861 20.6558 101.887 20.4226C102.365 19.784 103.011 21.195 103.696 20.3193C104.289 19.9599 104.4 19.329 104.946 19.0193C105.134 19.3175 104.793 19.6999 104.793 19.6999C105.092 19.9752 105.317 19.9255 105.6 19.7113C105.543 19.8758 105.6 20.0134 105.688 20.2199C105.914 20.1702 105.841 19.5393 106.139 19.8146C106.09 20.0211 106.021 20.3537 105.914 20.564C106.181 20.392 106.445 20.044 106.721 19.8758C106.793 20.2008 106.552 20.369 106.457 20.5793C106.766 20.434 107.26 20.2849 107.355 19.7687L107.206 19.631C107.244 19.7458 107.198 20.0478 107.133 20.1205C106.866 20.522 106.751 19.9408 106.736 19.7534L106.931 19.6349C106.728 18.5413 106.139 19.8108 105.745 19.7458L105.91 18.9504L105.505 19.6119C105.417 19.4054 105.359 18.9619 105.554 18.8434C105.271 18.4495 105.302 19.1263 105.061 18.6866C105.034 18.6178 105.046 18.5795 105.072 18.5489L104.793 18.786C104.847 18.6178 104.747 18.2239 104.916 18.3386C104.419 17.8798 104.113 18.9351 103.925 18.331L103.967 18.2813C103.275 18.5489 103.902 18.8663 103.382 19.5508L103.034 18.1092L102.966 18.6942C102.893 18.6751 102.751 18.6292 102.778 18.396C102.514 18.7975 102.824 18.6483 102.671 19.0269C102.327 18.4954 101.727 19.2754 101.646 18.3463C101.524 18.7898 101.975 18.6866 101.608 18.9963C101.505 17.9945 101.184 19.1684 100.87 18.7095C100.966 18.1933 101.264 18.4648 100.951 18.006C100.763 18.8778 100.339 17.8148 100.075 17.983C100.063 18.6789 99.5013 18.2736 99.0577 18.503C99.0845 18.2698 98.2242 18.1207 97.8112 17.8683L97.8227 17.7536C97.7424 18.4572 97.3179 18.3233 97.0082 18.4686C97.0197 18.048 97.0771 17.8836 97.2453 17.6962H96.9547C96.8859 17.9257 96.7941 18.0442 96.6067 18.1245L96.6794 17.6006C96.2932 17.6312 95.8993 18.2201 95.3984 17.8683C95.3717 18.3577 95.7961 19.2334 95.2684 19.5584C95.2493 19.2946 95.2302 18.8395 95.3678 18.7325C95.322 18.7669 95.2072 18.9542 95.1155 18.8395L95.3258 18.396C95.1002 18.201 95.2072 18.7669 95.0237 18.7248C95.0237 18.3463 94.8899 18.4572 94.9166 18.1551C94.9625 18.1168 95.0734 18.3119 95.1461 18.1627C94.9396 18.0939 94.6949 17.8721 94.6107 17.5853C94.6299 17.7995 94.6107 18.0939 94.4616 18.1436C94.0754 18.1704 94.3278 17.6886 94.1022 17.4936C94.0066 17.7574 93.7619 17.4859 93.7542 18.048C93.6395 18.048 93.6204 17.7804 93.5745 17.6274C93.3757 17.8759 92.6377 17.7001 92.8633 18.3004L92.913 18.3386C92.913 18.3386 92.8939 18.3501 92.8786 18.3616C92.2209 18.9237 91.5135 18.0404 90.8596 18.2851V18.0977C90.4696 18.3119 89.9955 18.2239 89.7163 18.6331C89.6016 18.6331 89.4449 18.2889 89.4946 18.0633C89.1963 18.2048 89.1619 18.4189 88.7336 18.1054C89.0319 17.7765 88.6304 17.8148 89.0395 17.8645C88.6533 17.7001 88.5654 17.398 88.1486 17.9142C88.2901 17.4324 87.858 17.3062 87.6745 17.4515L87.9459 17.7957C87.7395 17.8645 87.5597 17.8224 87.3762 17.7804L87.4756 17.1456C86.6841 16.3732 86.0494 18.461 85.4452 17.1686C85.2349 17.6121 85.8735 17.4821 85.6861 18.0021C85.3229 17.918 84.9443 17.0041 84.8296 17.0003C84.3325 16.6485 84.3631 17.9295 83.8431 17.6886C83.9081 17.9142 83.9731 18.5222 83.5831 18.7363C83.2198 18.6522 83.1357 17.7842 83.3651 17.6045C83.4531 17.5853 83.4951 17.658 83.4913 17.7345C83.6098 17.6542 83.7628 17.5548 83.6175 17.31L83.5716 17.5356C83.3919 17.3024 82.891 17.3292 83.0057 16.9544C82.7304 17.1724 82.8871 17.3253 83.0936 17.4439C82.6271 17.115 82.3633 17.4324 81.8815 17.2144C81.958 17.3406 82.0268 17.6045 81.9541 17.6045C81.2467 17.3253 81.6444 18.0365 81.1665 18.136C80.895 17.7918 81.262 17.31 80.7841 17.6006C80.4896 17.3674 80.7229 17.0003 80.8376 16.8129C80.3979 17.2489 80.0193 16.5262 79.767 16.4459L79.9964 16.2623C79.8587 16.3694 79.744 16.3694 79.6293 16.3656L79.7593 16.8206C79.6255 16.7403 79.5069 16.7403 79.5108 16.5491C79.3693 16.8474 79.6178 17.3024 79.3387 17.7115C79.159 17.4821 78.7881 17.9601 78.7269 17.3559C79.2431 17.5433 78.769 16.8894 79.0443 16.6982C78.9716 16.7135 78.8951 16.6982 78.8034 16.6447C78.7843 16.5759 78.8225 16.5185 78.8607 16.4841C78.3178 15.945 78.6122 17.1647 78.0463 17.1494C78.1189 16.8091 77.9163 16.507 77.8245 16.5797C78.0501 16.5873 77.9316 17.1456 77.7251 17.4056C77.3618 17.1418 77.3312 17.6006 77.1439 17.5701L77.3618 17.6924C77.2892 18.0327 77.1095 17.9868 76.8571 18.0939C76.8494 17.9945 76.88 17.9448 76.9144 17.9142C76.6468 18.1742 76.3256 17.2144 75.9738 17.5815C75.7941 17.3521 75.9547 16.943 75.7979 16.7862C75.362 17.2259 75.3238 16.3197 74.8649 16.6829C74.9987 17.138 75.0217 17.0271 74.6967 17.4706L75.4538 17.1494L74.9682 17.8109C75.1976 17.8186 75.4499 17.5242 75.5876 17.6006C75.3582 17.9715 75.3811 17.8607 75.4882 18.2392C75.1746 17.5548 74.8687 18.6369 74.5093 18.1742L74.5208 17.0462C73.9778 16.5415 73.5572 17.6236 72.8536 17.3406L73.0792 17.5356C72.9836 17.983 72.6433 17.5968 72.4177 17.7804C72.4407 17.4018 72.2954 17.2642 72.1998 17.0309C72.2112 17.31 71.6836 17.0041 71.6186 17.7574L71.305 17.2603C70.7353 17.0577 70.655 18.3348 70.1082 18.2086C70.2726 17.7995 70.0241 17.5318 70.3911 17.2374C70.2076 17.2336 70.0432 17.1647 70.0432 17.4247C69.9361 17.1877 69.5384 17.9333 69.3702 17.5739C69.2937 17.7383 69.267 18.136 69.0643 18.1054C69.0414 18.0289 69.0643 17.918 69.0643 17.918C69.0643 18.1054 68.7431 18.1704 68.9228 18.591C68.3607 17.4133 67.3513 18.6751 66.8618 17.6656C66.4642 17.7918 65.9824 17.9142 65.6229 17.941C65.6459 17.8262 65.6229 17.7536 65.6918 17.7918C65.1947 17.44 65.3859 18.8739 64.8161 18.4839C64.5255 17.8721 65.1182 18.1551 64.9385 17.9218C64.8582 16.6791 64.254 18.0901 63.8717 17.3674L63.9634 17.2947C63.6728 16.8741 63.2522 17.7651 62.7742 17.6771C62.7742 17.6771 62.7972 17.5662 62.7742 17.4898C62.4492 18.1245 61.8298 18.331 61.3709 18.5069C61.5124 18.0213 61.5812 18.2507 61.4933 17.7574C61.2868 17.8262 61.5545 18.5489 61.1415 18.6904C61.0077 18.4227 60.7132 18.1933 60.6712 17.6656L61.0574 17.6389C60.8585 16.9583 60.5565 17.6618 60.35 17.5433L60.3768 17.245C59.7841 17.3406 59.7764 18.0939 59.1379 18.0404L59.2029 18.266C58.8549 19.0078 58.9123 17.8454 58.5643 18.3998L58.4572 17.6465C58.2278 17.8301 57.6504 18.3769 57.2375 18.5183C57.4707 17.9601 57.9525 17.6733 58.2546 17.3406C58.0252 17.3368 57.4784 17.398 57.3598 17.7689C57.4516 17.6962 57.5663 17.5127 57.6581 17.6274C57.3789 18.2201 57.0119 18.5107 56.5568 18.4992C56.6371 17.0347 55.3715 18.1321 55.0426 16.9927C54.2396 17.5318 53.4481 16.7632 52.5113 16.8474C52.844 17.9868 52.236 16.878 52.2972 18.048C52.0831 18.1207 51.9989 18.1054 51.9798 18.0289L52.0257 18.0748C52.0066 18.0518 51.9951 18.0365 51.9798 18.0213L51.3183 17.3253C51.1615 16.985 51.5248 17.0691 51.5057 16.8053C51.0277 16.7174 51.3068 16.3082 50.9895 15.9985C51.0545 16.4153 50.825 16.5988 50.5497 16.4382L50.9321 16.9774C50.2629 17.6006 50.3547 15.9947 49.6817 16.6141L49.8959 16.247C49.5517 16.465 48.6226 16.2394 48.2822 17.18C48.2211 17.0462 48.1408 16.725 48.2937 16.6409C47.4678 16.4994 46.4583 17.6389 45.8159 17.0615L45.8771 16.7747C45.7242 16.8588 45.6094 17.31 45.4183 17.0233C45.4297 16.9047 45.4794 16.7365 45.4106 16.7212C45.3303 16.8206 45.0015 17.2221 44.7988 17.0538L44.9747 16.7327C44.1717 16.3579 43.7396 17.5165 43.0628 17.7115C43.0628 16.8703 42.4319 16.595 42.1145 16.4612L42.126 16.3426C41.1892 16.2394 40.5353 17.0385 39.6673 17.3712C39.1282 16.4573 37.8434 16.9888 36.9754 16.4765C37.1093 16.6294 36.9525 17.1341 36.7995 17.2183C36.5969 17.0462 36.2375 17.8033 36.2719 17.0309L36.3445 17.0462C36.1916 16.2891 35.7748 16.4918 35.4459 16.4688L35.3924 17.4783C34.5397 16.01 33.1593 18.0174 32.6928 16.7021C32.4864 16.9544 32.234 16.9506 32.0275 17.203L32.039 16.66C31.4692 16.5223 31.1825 16.4535 30.4789 16.5835L30.6242 16.1973C30.2265 16.1629 30.1233 17.7574 29.7562 17.788L29.6453 16.9812C28.9532 16.9927 28.2496 16.2853 27.5652 17.0156C27.5767 16.8971 27.5958 16.6638 27.7105 16.6294C27.3855 16.6103 26.4487 16.0826 26.5672 17.1915C26.5596 16.4688 25.8522 17.1227 25.4774 17.44L25.5348 16.9085C25.2174 17.5892 25.2098 17.7765 24.7662 17.9639C24.663 17.8951 24.6744 17.5356 24.8121 17.6733C24.4641 17.3942 24.5406 18.178 24.1162 17.8951L24.273 17.5548C23.9135 17.5127 23.9441 17.6962 23.7453 18.0939C23.5197 18.308 23.0647 17.9601 23.0111 17.4783C22.9614 17.7727 22.7664 18.1666 22.5561 18.0251C22.5293 17.8415 22.6058 17.7306 22.644 17.6733C22.0437 17.31 21.7531 18.2927 21.3401 17.7689C21.3325 17.593 21.3057 17.505 21.2713 17.4515C21.7493 17.463 22.1317 17.4936 22.0972 17.5318C22.0972 17.0424 21.711 16.9544 22.0169 16.2776C21.7072 16.6485 21.1795 17.4515 20.8048 17.2221C20.7857 17.1762 20.7704 17.1265 20.7551 17.0538L20.7933 17.0003C20.7054 16.9506 20.6289 17.0003 20.5563 17.0806C20.4377 17.0003 20.3613 16.9391 20.2466 16.9315C20.2007 16.5262 19.8068 16.7135 19.6118 16.6944C19.6271 17.2336 19.3747 17.1456 19.6118 17.5892C19.5812 17.5509 19.6462 17.5242 19.7762 17.5012C19.8068 17.4859 19.8374 17.4783 19.8565 17.4439C19.8565 17.4592 19.8489 17.4745 19.8451 17.4898C19.9712 17.4745 20.1357 17.463 20.323 17.4553C20.1701 17.7268 20.0133 17.9562 19.7992 17.658C19.6998 18.0021 19.5927 18.3577 19.5315 18.526C19.2677 17.7765 18.7629 17.3712 18.6903 16.9085C18.1053 17.2106 17.3099 17.1074 16.9428 18.1168C16.7746 18.2469 16.7517 17.8262 16.6905 17.6695C16.7861 17.5701 16.9008 17.5853 16.9543 17.44C16.6216 17.7001 15.9678 17.5395 15.8875 18.2469C15.4669 17.9295 16.1246 17.5968 15.5472 17.7115L15.6236 17.4974C14.5071 16.3885 13.8035 19.1951 12.5838 17.918C12.6297 17.9677 12.6564 18.0136 12.6679 18.0977C11.234 17.4592 9.71214 18.6981 8.29735 17.6848C7.89586 17.4821 7.84997 17.9295 7.60525 18.2736L7.51731 17.6962L7.0967 18.3616C7.0164 18.4304 6.9361 18.4457 6.85963 18.438C6.98581 18.3769 6.66079 17.8109 6.98963 18.0518C7.05081 18.0939 7.06611 18.1857 7.07375 18.2277C6.97816 18.0098 7.40642 17.9754 6.97051 17.6618C7.31847 17.6695 7.13111 17.1686 7.48672 17.2565C7.15788 16.7479 7.97998 17.1647 7.41407 16.5453C8.0144 17.1686 8.20558 16.7403 8.02587 16.3465C8.17499 16.5682 8.31265 16.4459 8.52295 16.7441C8.63767 16.6141 8.63767 16.3885 8.30118 16.0941C9.26094 16.5988 8.16735 15.0502 9.23035 15.8608C9.26476 15.1687 9.3833 14.6066 9.56684 14.1363C10.1633 14.7596 9.26476 14.5608 9.91862 15.184C9.9798 14.6219 9.63566 13.9184 10.0907 13.7578C10.2551 13.7578 10.3086 14.0675 10.3851 14.1975C10.4463 13.6354 11.0428 13.6507 10.9854 13.0427C11.0428 13.1001 11.0734 13.1919 11.0925 13.2683C11.1269 13.1957 11.3105 13.2301 11.0237 12.9586L11.0466 13.0886C10.5572 12.7751 10.4234 12.0333 10.2207 11.8077C10.9243 12.6948 10.6948 11.735 11.5514 12.886C11.5361 12.798 11.4481 12.6221 11.2569 12.4462C11.364 12.4462 11.4902 12.538 11.647 12.8018C11.6928 12.4539 11.3258 12.2321 11.5093 12.06C11.6431 12.1939 11.6584 12.2818 11.7999 12.4577C11.6278 12.1059 11.4558 11.7541 11.7196 11.7197C11.7923 11.8077 11.9146 11.8956 11.8687 11.9415C12.0867 11.6432 11.6087 10.8058 12.144 10.7791C12.645 11.4444 12.4308 10.8747 12.9508 11.3641V11.062L12.645 10.8785C12.7864 10.7561 12.5341 10.2705 12.817 10.3202L12.9279 10.6261L13.0809 10.282L12.7482 10.2323C12.622 9.83844 12.0943 9.60902 12.4117 9.57078C12.427 9.65872 12.5494 9.44459 12.9164 9.67402C12.8208 9.44842 12.7214 9.21135 12.9432 9.23811C13.1306 9.37577 13.4824 9.8155 13.6047 9.90727C13.2491 9.42165 13.7997 9.47901 13.4326 8.94751C13.5091 9.08134 13.773 9.34518 13.838 9.39106L13.5512 8.99339C13.7232 9.0431 13.7844 9.08516 13.9871 9.30694C14.2356 9.18458 13.2873 8.72573 13.7844 8.78309C13.7959 8.82897 13.8533 8.87103 13.8724 8.95898C14.2356 8.8825 14.0789 8.31659 14.4536 8.28218C15.0195 8.72955 14.4 8.58425 14.8971 8.94368C15.096 8.56131 14.8933 7.73156 15.2948 7.56713H15.1877C14.5109 6.80621 15.7537 7.70861 15.5586 7.22682C15.5778 7.31477 15.9104 7.67038 15.8416 7.58243C16.1513 7.50213 16.0596 7.00887 16.1284 6.49266L16.2775 6.71444C16.5566 6.76415 16.6714 6.50796 16.8778 6.46972C16.7287 6.24794 16.832 6.20971 16.5184 5.9841C17.9485 6.65326 16.679 4.6955 17.8911 5.23465C17.8529 5.27671 17.9561 5.49084 17.9905 5.46025L18.1091 5.0014C17.7726 4.7108 17.8835 4.84845 17.5776 4.66874C17.4285 4.44696 17.3673 4.22136 17.4361 4.15253C17.5126 4.48902 17.937 4.65344 18.1703 4.77198C18.067 4.68403 17.9791 4.56167 17.8758 4.4699C18.5832 4.87522 17.2717 3.81604 17.8529 3.98429L18.0058 4.16018C17.9982 3.99958 17.8529 3.7128 17.9829 3.67839C18.3767 4.00723 18.0708 3.92693 18.3614 4.23283C18.457 4.09518 17.9064 3.31896 18.3729 3.57515C18.4226 3.72427 18.3538 3.79692 18.4073 3.94605C18.9465 4.25577 18.8509 4.13341 19.0038 4.11812H18.9847L19.3747 4.11429L19.2103 4.04929C18.415 2.96335 19.3327 3.58279 18.9121 2.76834C19.3059 3.54456 19.218 3.13924 19.6118 3.55985C19.7762 3.62486 19.9789 3.67456 20.0707 3.81222C19.8336 3.38778 20.4836 3.91928 20.1318 3.30366C20.2695 3.42985 20.2427 3.21571 20.5525 3.57132C20.5677 3.34572 20.2963 3.36866 20.1395 3.19659C19.8757 2.56185 21.1222 3.30748 20.7704 2.4242C20.7475 1.93858 20.3421 1.45297 20.3345 1.01706C20.6175 1.15472 20.7551 1.55621 20.7551 1.55621C21.0648 1.63269 21.1184 1.51032 21.0763 1.25031C21.1681 1.38796 21.2904 1.46062 21.4702 1.57533C21.5237 1.45297 21.0495 1.03618 21.3593 1.11648C21.4854 1.28472 21.6958 1.54474 21.8028 1.7321C21.7837 1.5065 21.6422 1.15854 21.6307 0.932938C21.8908 1.1356 21.9137 1.3459 22.0284 1.53327L22.0246 1.57533ZM15.8684 35.5378C15.7919 35.6067 15.7192 35.6678 15.6581 35.7099C15.5548 35.7137 15.6122 35.6219 15.6848 35.5378C15.7154 35.5531 15.7537 35.5684 15.8187 35.5799C15.834 35.5684 15.8531 35.5531 15.8722 35.5378H15.8684ZM18.0555 32.7694C18.0326 32.758 18.0058 32.7427 17.9485 32.7235L17.9561 32.7159C17.9982 32.7388 18.0326 32.758 18.0555 32.7694ZM17.7535 32.5668C17.6349 32.7083 17.4858 32.8306 17.4629 32.7924C17.5661 32.7197 17.5699 32.5706 17.6349 32.4138C17.6579 32.4674 17.7038 32.5171 17.7573 32.563L17.7535 32.5668ZM20.9119 20.6023C20.8278 20.6138 20.7589 20.6252 20.7131 20.6329C20.7551 20.6252 20.8125 20.6138 20.9119 20.5908V20.6023ZM21.7187 20.5832C21.6193 20.564 21.4969 20.5602 21.3707 20.564C21.344 20.3805 21.3707 20.1893 21.4549 20.197C21.409 20.3193 21.6002 20.4264 21.7225 20.5832H21.7187ZM20.0133 16.8588C20.1395 16.7824 20.1854 16.8894 20.2007 16.9965C20.1395 17.0041 20.0707 17.0233 19.9789 17.0615C19.9789 17.0806 19.9674 17.1036 19.9636 17.1265C19.9751 17.0233 19.9904 16.9277 20.0133 16.855V16.8588ZM6.7105 18.4419C6.61873 18.3845 6.53078 18.3004 6.43901 18.201C6.51549 18.2469 6.60726 18.3616 6.7105 18.4419Z" fill="#FF0200"/>
<path d="M21.5927 0.604099L21.6424 0.61557C21.6156 0.596451 21.5965 0.588804 21.5927 0.604099Z" fill="#FF0200"/>
<path d="M16.2471 35.297C16.2471 35.297 16.2815 35.2855 16.2968 35.2894C16.3198 35.2473 16.3389 35.2091 16.3542 35.1746C16.3083 35.2091 16.2624 35.2435 16.2165 35.2779L16.251 35.297H16.2471Z" fill="#FF0200"/>
<path d="M15.1268 5.23852C15.1459 5.24616 15.1688 5.25764 15.1956 5.28058C15.1727 5.26528 15.1612 5.25381 15.1421 5.24234H15.1268V5.23852Z" fill="#FF0200"/>
<path d="M14.0369 27.3627L13.9413 27.4621L14.0522 27.4047L14.0369 27.3627Z" fill="#FF0200"/>
<path d="M18.1666 4.82176C18.2049 4.85235 18.2431 4.87911 18.2852 4.89441C18.2584 4.87147 18.2163 4.8447 18.1666 4.82176Z" fill="#FF0200"/>
<path d="M18.9964 4.16399L19.2373 4.19458C19.1149 4.16399 19.0461 4.16017 18.9964 4.16399Z" fill="#FF0200"/>
<path d="M19.7572 3.77783C19.696 3.70518 19.6502 3.65165 19.6043 3.60194L19.7572 3.77783Z" fill="#FF0200"/>
<path d="M11.1042 13.3257C11.1042 13.3257 11.0965 13.3486 11.1004 13.3639C11.1233 13.4901 11.1271 13.4251 11.1042 13.3257Z" fill="#FF0200"/>
<path d="M12.9242 9.72764C12.9663 9.82705 13.0045 9.92265 13.016 9.9953C13.0925 9.97618 13.1383 9.94559 12.9242 9.72764Z" fill="#FF0200"/>
<path d="M8.53973 16.8047C8.53973 16.8047 8.53973 16.8047 8.53172 16.7967C8.52771 16.8047 8.5197 16.8087 8.51169 16.8167L8.53973 16.8047Z" fill="#FF0200"/>
<path d="M12.8859 10.1139C13.0083 10.1406 13.0351 10.0833 13.0198 9.99533C12.9548 10.0106 12.8706 10.0183 12.8859 10.1139Z" fill="#FF0200"/>
<path d="M22.4569 1.45691C22.4301 1.43397 22.411 1.41103 22.3995 1.39191L22.4148 1.46838L22.4569 1.45691Z" fill="#FF0200"/>
<path d="M22.3956 1.39572L22.3803 1.31925C22.3803 1.31925 22.3574 1.34984 22.3956 1.39572Z" fill="#FF0200"/>
<path d="M22.3841 1.31915C22.4071 1.29621 22.4453 1.28092 22.3535 1.15856L22.3841 1.31915Z" fill="#FF0200"/>
<path d="M21.478 2.05333L21.608 2.19864C21.585 2.16423 21.543 2.11834 21.478 2.05333Z" fill="#FF0200"/>
<path d="M21.2868 2.32097C21.3747 2.29803 21.7189 2.47774 21.7074 2.31332L21.6042 2.19478C21.7724 2.43568 21.1033 2.03419 21.283 2.31714L21.2868 2.32097Z" fill="#FF0200"/>
<path d="M18.5566 1.10884C17.876 0.91383 18.9351 1.38798 18.6216 1.57916L18.9237 1.49504C18.7439 1.38033 18.503 1.22738 18.5528 1.10502L18.5566 1.10884Z" fill="#FF0200"/>
<path d="M17.5203 1.66338C17.5892 1.86221 17.6044 1.91192 17.8109 1.96545C17.8453 1.79339 17.5968 1.75515 17.5203 1.66338Z" fill="#FF0200"/>
<path d="M13.4864 6.28619L13.1499 5.93059C13.1193 6.06059 13.2837 6.06442 13.4864 6.28619Z" fill="#FF0200"/>
<path d="M14.45 8.90171L14.7406 9.03937L14.4615 8.68376L14.45 8.90171Z" fill="#FF0200"/>
<path d="M11.4828 6.84069L11.4751 7.10071L11.4981 6.92481L11.4828 6.84069Z" fill="#FF0200"/>
<path d="M4.35901 14.3084L4.81021 14.7099C4.78727 14.5799 4.32077 14.0905 4.35901 14.3084Z" fill="#FF0200"/>
<path d="M0.79918 18.7364C0.355626 18.7555 -0.0535151 18.8893 0.267679 18.9849C0.435924 18.8779 0.848888 18.7937 0.79918 18.7364Z" fill="#FF0200"/>
<path d="M9.5823 30.0278H9.82319L9.78878 29.9475L9.5823 30.0278Z" fill="#FF0200"/>
<path d="M108.682 20.5947L108.923 20.4264C108.98 20.262 108.946 19.8873 108.793 19.9637L108.682 20.5947Z" fill="#FF0200"/>
<path d="M107.883 19.2525C107.7 19.5584 107.493 20.0976 107.608 20.6788C107.788 20.0708 107.83 20.3232 108.025 19.6005C108.178 19.5278 108.296 19.8031 108.269 20.0364C108.323 19.8758 108.51 20.174 108.594 19.7764C108.392 19.2869 108.139 19.2678 107.872 19.6731C107.814 19.5355 107.872 19.3672 107.883 19.2525Z" fill="#FF0200"/>
<path d="M92.7717 18.2661L92.8673 18.3425C92.8405 18.3005 92.8061 18.2775 92.7717 18.2661Z" fill="#FF0200"/>
<path d="M83.4073 17.9219C83.4799 17.9066 83.5067 17.8454 83.5105 17.788C83.4455 17.8301 83.3882 17.8683 83.4073 17.9219Z" fill="#FF0200"/>
<path d="M81.809 17.2222C81.8434 17.2413 81.874 17.2527 81.9046 17.2642C81.8702 17.2069 81.832 17.1725 81.809 17.2222Z" fill="#FF0200"/>
<path d="M92.7717 18.266L92.5231 18.0672C92.504 18.2736 92.6531 18.2201 92.7717 18.266Z" fill="#FF0200"/>
<path d="M105.799 20.782C105.853 20.7515 105.895 20.6941 105.937 20.6138C105.895 20.6406 105.853 20.6635 105.811 20.6826C105.811 20.717 105.807 20.7476 105.803 20.782H105.799Z" fill="#FF0200"/>
<path d="M96.8975 17.7537H96.974C96.9969 17.681 97.0161 17.5931 97.039 17.4936L96.9013 17.7537H96.8975Z" fill="#FF0200"/>
<path d="M99.9412 18.4076C99.9832 18.1858 100.033 18.0825 100.098 18.0405C100.098 17.9372 100.09 17.8149 100.067 17.6619C99.9947 17.639 99.9718 18.1743 99.945 18.4114L99.9412 18.4076Z" fill="#FF0200"/>
<path d="M105.092 18.6025L105.18 18.5299C105.157 18.5528 105.119 18.5758 105.092 18.6025Z" fill="#FF0200"/>
<path d="M94.63 17.6389C94.6262 17.5586 94.6147 17.4898 94.5994 17.4477C94.5994 17.5166 94.6109 17.5777 94.63 17.6389Z" fill="#FF0200"/>
<path d="M78.8839 16.5338C78.8839 16.5338 78.8915 16.5415 78.8954 16.5453C78.9718 16.4841 78.9298 16.4956 78.8839 16.5338Z" fill="#FF0200"/>
<path d="M52.0259 16.9316C52.3318 17.4134 51.5326 17.5472 51.9876 18.0825C51.9456 17.8722 52.4044 17.2451 52.0259 16.9316Z" fill="#FF0200"/>
<path d="M105.719 20.7094C105.677 20.717 105.631 20.7208 105.589 20.7132C105.646 20.7323 105.688 20.7285 105.719 20.7094Z" fill="#FF0200"/>
<path d="M72.2115 17.0921C72.2115 17.0386 72.1923 16.9697 72.1426 16.8589C72.1579 16.9544 72.1847 17.0271 72.2115 17.0921Z" fill="#FF0200"/>
<path d="M77.1632 17.6236L77.0408 17.5509C77.0905 17.6007 77.1288 17.6159 77.1632 17.6236Z" fill="#FF0200"/>
<path d="M69.4775 17.574C69.4775 17.574 69.5119 17.6046 69.5348 17.616C69.5157 17.5931 69.4966 17.5816 69.4775 17.574Z" fill="#FF0200"/>
<path d="M69.4775 17.5739C69.4431 17.5433 69.4125 17.5242 69.3513 17.5739C69.359 17.6007 69.3666 17.6198 69.3781 17.6389C69.401 17.5854 69.4316 17.5548 69.4775 17.5739Z" fill="#FF0200"/>
<path d="M66.8199 17.6197C66.8352 17.6618 66.8543 17.6924 66.8696 17.7268C66.8964 17.7153 66.927 17.7077 66.9538 17.6962L66.8161 17.6159L66.8199 17.6197Z" fill="#FF0200"/>
<path d="M14.2778 21.4167C14.2167 21.2638 14.1822 21.0994 14.1517 20.9349C14.1937 21.3173 13.796 21.4512 14.2778 21.4167Z" fill="#FF0200"/>
<path d="M105.799 20.4801C105.784 20.6139 105.761 20.6827 105.719 20.7133C105.749 20.7057 105.78 20.698 105.811 20.6827C105.818 20.6024 105.822 20.526 105.799 20.4801Z" fill="#FF0200"/>
<path d="M69.4239 21.8566L68.9918 21.7763C69.1142 21.8298 69.271 21.8566 69.4239 21.8566Z" fill="#FF0200"/>
<path d="M33.7484 21.3403L33.649 21.4053C33.6872 21.4168 33.7216 21.4053 33.7484 21.3403Z" fill="#FF0200"/>
<path d="M67.7148 21.8566C67.6383 21.6654 67.558 21.5583 67.4701 21.4857C67.4509 21.5277 67.4318 21.5621 67.4203 21.6233L67.7148 21.8566Z" fill="#FF0200"/>
<path d="M77.0141 17.8492C76.9873 17.9065 76.9605 17.9409 76.9338 17.9677C76.995 17.918 77.0714 17.9218 77.0141 17.8492Z" fill="#FF0200"/>
<path d="M35.0331 21.6539C35.0637 21.6156 35.0943 21.585 35.1249 21.5545C35.0981 21.5812 35.0675 21.6118 35.0331 21.6539Z" fill="#FF0200"/>
<path d="M107.18 19.6387L107.229 19.6846C107.218 19.654 107.202 19.6349 107.18 19.6387Z" fill="#FF0200"/>
<path d="M12.5839 17.9753C12.5648 17.9562 12.5457 17.9333 12.5189 17.9065C12.5419 17.9333 12.561 17.9524 12.5839 17.9753Z" fill="#FF0200"/>
<path d="M79.0675 16.748C79.1019 16.7403 79.1401 16.7289 79.1707 16.7059C79.1286 16.7136 79.0942 16.7327 79.0675 16.748Z" fill="#FF0200"/>
<path d="M19.7802 17.5587C19.7802 17.5587 19.7534 17.5931 19.7267 17.5969C19.7534 17.6428 19.7764 17.6849 19.8031 17.7193C19.8184 17.6619 19.8337 17.6046 19.849 17.5511C19.8261 17.5511 19.8031 17.5549 19.7802 17.5587Z" fill="#FF0200"/>
<path d="M92.8672 18.3425C92.8825 18.3616 92.894 18.3845 92.9017 18.4189C92.8902 18.3922 92.8902 18.3769 92.8825 18.3539L92.8672 18.3425Z" fill="#FF0200"/>
<path d="M32.8498 21.6079V21.4703L32.7809 21.5888L32.8498 21.6079Z" fill="#FF0200"/>
<path d="M97.3257 20.2008C97.3334 20.2467 97.3525 20.2964 97.3831 20.3384C97.3831 20.304 97.3563 20.2543 97.3257 20.2008Z" fill="#FF0200"/>
<path d="M99.2453 20.3194L99.5167 20.5106C99.3982 20.4035 99.3141 20.35 99.2453 20.3194Z" fill="#FF0200"/>
<path d="M100.721 20.5871C100.74 20.4915 100.744 20.4227 100.752 20.3577L100.725 20.5909L100.721 20.5871Z" fill="#FF0200"/>
<path d="M77.2664 21.218C77.2473 21.218 77.2282 21.2294 77.2091 21.2409C77.0753 21.3441 77.167 21.3059 77.2664 21.218Z" fill="#FF0200"/>
<path d="M84.0229 20.2162C84.1453 20.2582 84.2447 20.2697 84.2485 19.9638C84.1759 20.0632 84.1032 20.1588 84.0229 20.2162Z" fill="#FF0200"/>
<path d="M69.4697 21.8643C69.4697 21.8643 69.4697 21.8604 69.4697 21.8566C69.4545 21.8566 69.4392 21.8566 69.42 21.8566L69.4659 21.8643H69.4697Z" fill="#FF0200"/>
<path d="M83.6979 20.2085C83.8203 20.3156 83.9274 20.2927 84.023 20.2162C83.9197 20.1818 83.8012 20.1244 83.6979 20.2085Z" fill="#FF0200"/>
<path d="M107.187 20.8508C107.187 20.8164 107.187 20.7858 107.195 20.7628L107.115 20.8278L107.187 20.8508Z" fill="#FF0200"/>
<path d="M107.195 20.7667L107.275 20.7017C107.241 20.7017 107.206 20.7055 107.195 20.7667Z" fill="#FF0200"/>
<path d="M107.44 20.568L107.275 20.7018C107.333 20.7018 107.405 20.7209 107.44 20.568Z" fill="#FF0200"/>
<path d="M105.142 20.7783C105.153 20.7362 105.161 20.675 105.164 20.5832L105.142 20.7783Z" fill="#FF0200"/>
<path d="M104.568 20.6366C104.709 20.6825 104.923 21.0534 105.122 20.9311L105.141 20.7743C105.05 21.0649 104.706 20.3078 104.572 20.6366H104.568Z" fill="#FF0200"/>
<path d="M102.09 18.2278L102.587 18.3846C102.499 18.1781 102.385 17.899 102.614 17.8493C101.987 17.2298 102.744 18.3119 102.09 18.2316V18.2278Z" fill="#FF0200"/>
<path d="M100.549 17.9296C100.817 17.834 100.549 17.6275 100.561 17.5128C100.392 17.7001 100.35 17.7498 100.549 17.9296Z" fill="#FF0200"/>
<path d="M89.4068 17.9258L89.4336 17.4363C89.2271 17.5052 89.4336 17.6275 89.4068 17.9258Z" fill="#FF0200"/>
<path d="M87.2769 20.4533L87.4758 20.7592L87.5714 20.308L87.2769 20.4533Z" fill="#FF0200"/>
<path d="M86.019 16.9698L86.1069 16.901L85.7628 17.0769L86.019 16.9698Z" fill="#FF0200"/>
<path d="M67.3017 17.1456L67.3629 17.746C67.5006 17.6389 67.5312 16.9621 67.3017 17.1456Z" fill="#FF0200"/>
<path d="M59.2259 17.7574C59.138 17.4553 58.9124 17.2641 58.7709 17.5585C58.9506 17.6006 59.1342 17.8338 59.2259 17.7574Z" fill="#FF0200"/>
<path d="M34.995 16.7748L35.1556 16.576L34.8497 16.7443L34.995 16.7748Z" fill="#FF0200"/>
</g>
<defs>
<clipPath id="clip0_5_162">
<rect width="42" height="108.95" fill="white" transform="matrix(0 -1 1 0 0 42)"/>
</clipPath>
</defs>
</svg>
