<svg width="109" height="42" viewBox="0 0 109 42" fill="none" xmlns="http://www.w3.org/2000/svg">
<g clip-path="url(#clip0_26_23078)">
<path d="M22.8545 0.695801L22.8278 0.481669C22.7322 0.344014 22.4569 0.0916489 22.4492 0.202537L22.8545 0.691976L22.8545 0.695801Z" />
<path d="M21.8909 0.359369C21.7685 0.282894 21.6729 0.145239 21.5964 0.0572927C21.7417 0.344073 22.0438 0.806749 22.4988 1.17383C22.1394 0.672918 22.3344 0.837336 21.8985 0.24848C21.9062 0.137591 22.1471 0.286719 22.3 0.462612C22.2082 0.324957 22.4912 0.466433 22.2426 0.152886C21.8182 -0.114776 21.7035 -0.0306531 21.887 0.359369L21.8909 0.359369Z" />
<path d="M15.035 5.22323L15.1268 5.23853C15.0886 5.21941 15.058 5.21558 15.035 5.22323Z" />
<path d="M11.1002 8.47343C11.1002 8.52696 11.1117 8.57667 11.1538 8.61108C11.169 8.57285 11.1385 8.51549 11.1002 8.47343Z" />
<path d="M10.0412 8.7373C10.068 8.7373 10.0871 8.73348 10.11 8.72966C10.0565 8.70289 10.0183 8.69524 10.0412 8.7373Z" />
<path d="M15.0349 5.22332L14.7979 5.18126C14.9355 5.33421 14.9546 5.23862 15.0349 5.22332Z" />
<path d="M21.8681 1.94629C21.8681 1.90423 21.8413 1.84687 21.8031 1.77422C21.8031 1.80864 21.8031 1.84305 21.8031 1.86982C21.826 1.89658 21.8452 1.9157 21.8719 1.94246L21.8681 1.94629Z" />
<path d="M16.2739 3.25781L16.3045 3.22722C16.2624 3.16604 16.2089 3.09721 16.1477 3.02074L16.2777 3.25781L16.2739 3.25781Z" />
<path d="M17.9143 2.53906C17.7728 2.36699 17.7193 2.2714 17.7154 2.21787C17.6428 2.14522 17.5548 2.06109 17.4325 1.96168C17.3866 1.97315 17.7575 2.36317 17.9143 2.53906Z" />
<path d="M15.3102 4.05688C15.2529 4.00335 15.1993 3.95747 15.1649 3.9307C15.2108 3.97659 15.2605 4.01865 15.3102 4.05688Z" />
<path d="M24.4911 37.7212C24.4643 37.748 24.4452 37.7671 24.4222 37.79C24.4681 37.7594 24.4987 37.7327 24.4911 37.7212Z" />
<path d="M24.0361 41.0287L23.9979 41.0287C23.9252 41.1014 23.8526 41.1702 23.7799 41.239L24.0361 41.0287Z" />
<path d="M8.41995 9.38721C8.41995 9.38721 8.4276 9.38721 8.43142 9.38721C8.41613 9.31456 8.40848 9.3375 8.41995 9.38721Z" />
<path d="M3.29224 23.2329C3.51401 22.7741 3.91933 22.9882 4.12199 22.4337C3.98816 22.5982 3.36871 22.8658 3.29224 23.2329Z" />
<path d="M21.7838 1.92718C21.7723 1.9463 21.757 1.96924 21.7379 1.98071C21.7723 1.96924 21.7876 1.95395 21.7838 1.92718Z" />
<path d="M6.22512 12.3699C6.18689 12.3316 6.13335 12.2896 6.03394 12.2284C6.10659 12.2896 6.16777 12.3316 6.22512 12.3699Z" />
<path d="M8.52312 10.8211L8.42371 10.8211C8.47724 10.8326 8.504 10.8288 8.52312 10.8211Z" />
<path d="M5.50623 13.7692C5.50623 13.7692 5.54064 13.7769 5.55976 13.7769C5.53682 13.7692 5.5177 13.7654 5.50623 13.7692Z" />
<path d="M5.50626 13.7694C5.47185 13.7617 5.44508 13.7617 5.45655 13.8191C5.47949 13.8344 5.49479 13.8459 5.51391 13.8535C5.48714 13.8076 5.47567 13.7732 5.50626 13.7694Z" />
<path d="M4.50818 14.8323C4.54259 14.8552 4.57318 14.8705 4.60377 14.8896C4.6076 14.8744 4.61142 14.8514 4.61524 14.8361L4.50818 14.8361L4.50818 14.8323Z" />
<path d="M21.1108 34.7042C21.0267 34.8342 20.9235 34.9681 20.8164 35.0942C21.0688 34.8075 21.3211 34.8648 21.1108 34.7042Z" />
<path d="M21.6538 1.73224C21.7418 1.83548 21.7838 1.88901 21.7876 1.92725C21.7953 1.91195 21.7991 1.89283 21.8029 1.87371C21.7494 1.81253 21.6959 1.759 21.6576 1.73224L21.6538 1.73224Z" />
<path d="M8.51169 16.8168L8.28992 16.9277C8.37404 16.9163 8.45434 16.878 8.51169 16.8168Z" />
<path d="M13.5016 27.2021L13.5857 27.1945C13.5781 27.1716 13.5551 27.1677 13.5016 27.2021Z" />
<path d="M7.85024 17.4819C7.68582 17.3787 7.57875 17.3328 7.49463 17.3137C7.51757 17.3519 7.53287 17.3825 7.57493 17.4322L7.85406 17.4819L7.85024 17.4819Z" />
<path d="M8.64169 9.46753C8.64169 9.46753 8.65699 9.42547 8.64934 9.3987C8.63787 9.42164 8.63787 9.44459 8.64169 9.46753Z" />
<path d="M13.1155 26.5176C13.1422 26.5099 13.1767 26.4985 13.2225 26.4832C13.1843 26.4985 13.1499 26.5099 13.1155 26.5176Z" />
<path d="M22.0246 1.57527C22.0399 1.34967 22.1278 1.05524 21.8028 0.653748L21.6461 0.615505C21.7416 0.680512 21.9367 0.913761 21.9634 0.990235C22.147 1.38026 21.6881 1.01318 21.5505 0.886994L21.5428 0.726395C20.6901 0.030472 21.3593 1.15848 21.1604 1.26555L20.6633 0.638451L20.9731 1.26172C20.7934 1.14701 20.4569 0.856404 20.4492 0.699627C20.063 0.531384 20.5525 0.997879 20.1471 0.779927C20.0898 0.741688 20.0668 0.711102 20.0516 0.676689L20.1127 0.951996C20.0171 0.814343 19.6959 0.573445 19.8451 0.588742C19.3289 0.458733 19.956 1.3229 19.455 0.967293L19.4359 0.917584C19.3595 1.37643 19.8221 1.35732 20.1051 2.04176L18.9503 1.15848L19.3365 1.59821C19.2944 1.60968 19.2065 1.63645 19.0536 1.46056C19.2333 1.84676 19.2524 1.62115 19.4589 1.94999C18.9503 1.70528 19.2677 2.49297 18.5794 1.86587C18.8471 2.2253 18.9503 1.98058 19.023 2.34002C18.2735 1.67468 18.9809 2.6268 18.5335 2.42414C18.2047 2.02264 18.5144 2.09912 18.067 1.89646C18.61 2.58856 17.6961 1.9997 17.7114 2.21766C18.197 2.71474 17.6923 2.64592 17.6847 2.9824C17.5317 2.80651 17.092 3.03594 16.7517 3.01682L16.6752 2.92887C17.1417 3.45655 16.8817 3.5292 16.8625 3.75098C16.5719 3.4489 16.4763 3.31125 16.4075 3.11242L16.2966 3.22712C16.4305 3.41449 16.4763 3.53302 16.4611 3.66303L16.1169 3.26536C15.9869 3.43743 16.2507 4.00335 15.811 3.94981C16.1475 4.30542 16.9276 4.76044 16.9543 5.19635C16.7593 5.01664 16.4305 4.70309 16.4075 4.57308C16.4152 4.61515 16.4993 4.79103 16.3846 4.74515L16.1513 4.34748C15.9257 4.29777 16.3693 4.6572 16.2699 4.69926C16.006 4.4316 16.029 4.56161 15.8263 4.33984C15.8187 4.29778 15.9984 4.38954 15.9219 4.25571C15.7957 4.2863 15.5395 4.22512 15.3063 4.05305C15.4669 4.19836 15.6657 4.41249 15.6428 4.50426C15.5128 4.6725 15.2719 4.23277 15.0463 4.18689C15.1954 4.40866 14.9086 4.31307 15.3025 4.71456C15.2566 4.75662 15.0616 4.57691 14.9354 4.48896C15.0348 4.74133 14.6218 4.90192 15.1342 5.23841L15.1839 5.24606C15.1839 5.24606 15.1839 5.26136 15.1877 5.27665C15.3292 5.93051 14.4306 5.58255 14.3503 6.00316L14.2165 5.86933C14.2165 6.17141 13.9718 6.29759 14.1477 6.69144C14.1018 6.73732 13.7997 6.55378 13.6583 6.37407C13.643 6.5882 13.7806 6.75262 13.3944 6.69909C13.2759 6.35112 13.1497 6.53466 13.3447 6.40848C13.0809 6.44289 12.8323 6.26318 13.035 6.79086C12.7482 6.39318 12.492 6.47348 12.5226 6.64555L12.8706 6.78321C12.84 6.91322 12.7406 6.95145 12.6411 6.99351L12.2282 6.50407C11.3755 6.26318 12.6067 7.98769 11.4558 7.30706C11.689 7.70473 11.8458 7.36059 12.1402 7.80415C11.9376 7.88445 11.1461 7.38736 11.1002 7.42942C10.6566 7.37206 11.5781 8.26682 11.2034 8.30124C11.3908 8.43507 11.842 8.84038 11.842 9.14246C11.6393 9.22276 10.9969 8.64155 10.9549 8.4236C10.974 8.37771 11.0428 8.41212 11.0963 8.46566C11.0849 8.36242 11.0734 8.23241 10.844 8.11387L10.9855 8.29359C10.7522 8.20182 10.5725 8.41212 10.3584 8.1024C10.4042 8.36241 10.5763 8.41212 10.7369 8.41594C10.3239 8.36624 10.4463 8.69126 10.1022 8.72185C10.2207 8.7792 10.4348 8.9398 10.4042 8.97039C9.9301 9.04686 10.5878 9.39483 10.4731 9.65102C10.1213 9.51336 9.92628 9.02774 9.94539 9.42159C9.66626 9.37188 9.49419 9.0201 9.41007 8.8442C9.54773 9.32217 8.89004 8.95892 8.73327 9.00098L8.69503 8.78302C8.71797 8.91303 8.67209 8.95509 8.6262 9.00098L8.99711 9.27246C8.89004 9.27246 8.84416 9.3107 8.71033 9.17687C8.8671 9.44071 9.28389 9.67014 9.4636 10.064C9.23035 9.97221 9.42536 10.454 8.97416 10.0525C9.30683 9.98368 8.66062 9.70455 8.63003 9.46365C8.61091 9.50189 8.56885 9.52101 8.50002 9.51719C8.44266 9.47895 8.41972 9.42159 8.40825 9.38335C7.81557 9.21511 8.79445 9.96074 8.56502 10.171C8.35472 9.90338 8.06029 9.76573 8.07558 9.85367C8.16735 9.76955 8.51914 10.2131 8.62238 10.4769C8.29354 10.4311 8.60708 10.7675 8.51531 10.8211L8.68738 10.8211C8.89769 11.0926 8.79827 11.1308 8.77533 11.3067C8.58032 11.127 8.73709 11.0887 8.61856 11.0429C8.9321 11.5744 7.93793 10.8517 8.06794 11.2876C7.83469 11.1958 7.60909 10.844 7.43702 10.7943C7.5785 11.2761 6.92464 10.649 7.00494 11.0849C7.37966 11.3564 7.31083 11.2685 7.4982 11.7082L7.5632 11.1882L7.84234 11.8458C7.93411 11.7617 7.82704 11.4558 7.93411 11.4596C8.10617 11.8114 8.03735 11.7235 8.34707 11.9491C7.74292 11.5858 8.38913 12.4729 7.92263 12.2856L7.12729 11.4826C6.56138 11.3373 7.16171 12.2665 6.68756 12.3391L6.91317 12.3888C7.1923 12.7444 6.78698 12.6029 6.82904 12.8171C6.56903 12.5418 6.41608 12.4997 6.21342 12.3735C6.41608 12.5685 5.99547 12.5571 6.50402 13.1115L6.02988 12.8821C5.66662 12.9586 6.53844 13.8954 6.23636 14.0139C6.01076 13.6583 5.72398 13.5665 5.65898 13.2186C5.58633 13.2874 5.47161 13.3027 5.65898 13.4862C5.45249 13.36 5.8234 14.0407 5.5022 13.8533C5.59015 13.9986 5.85781 14.2892 5.75839 14.3466C5.69721 14.3007 5.62839 14.2127 5.62839 14.2127C5.75839 14.3466 5.68192 14.5148 6.049 14.7442C4.99747 14.1286 5.49838 15.4134 4.59598 14.8895C4.53097 15.1343 4.43156 15.4058 4.3092 15.5663C4.23654 15.4784 4.17536 15.4325 4.23272 15.4325C3.78917 15.379 4.87893 16.3196 4.38185 16.2623C3.83887 15.9449 4.26713 15.9105 4.03389 15.8187C3.57886 15.3943 3.54445 15.4899 3.5368 15.6466C3.52915 15.8034 3.57121 16.0061 3.17354 15.8914L3.17354 15.7843C2.93265 15.7308 2.90206 15.9296 2.90588 16.1476C2.90588 16.3693 2.95177 16.6102 2.7797 16.7211C2.7797 16.7211 2.69558 16.6485 2.6191 16.6179C2.81793 16.9161 2.87911 17.1608 2.89059 17.375C2.80646 17.4515 2.71469 17.5547 2.6344 17.6694C2.51586 17.5815 2.55027 17.5738 2.14496 17.4744C2.12584 17.547 2.37438 17.6235 2.60381 17.7115C2.54263 17.7994 2.48909 17.8874 2.44703 17.9715C2.20614 17.9715 1.93083 17.9715 1.58287 17.9027L1.77023 17.6732C1.34197 17.6197 1.26549 17.7038 1.27697 17.7994C1.28461 17.8988 1.38403 18.0059 1.25402 18.0518L0.917534 17.9638C0.657519 18.3615 1.59816 18.48 1.20431 18.8012L1.53698 18.7859C1.94612 18.9045 1.77788 18.9198 1.56757 18.9504C1.36109 18.9771 1.10872 19.0154 1.4108 19.1033L0.397505 19.1492L0.301911 19.1492C0.496922 19.2218 0.864001 19.3289 1.21579 19.4322C1.57139 19.5354 1.91171 19.631 2.09525 19.7151C1.28461 19.696 0.638401 19.4513 -0.00781223 19.2792C0.122195 19.4169 0.546631 19.7533 1.08195 19.7648C0.940476 19.7266 0.630753 19.6769 0.73017 19.6119C1.60581 19.7075 2.11437 19.8069 2.33614 19.9904C2.33614 20.0057 2.33614 20.0248 2.33614 20.0401C1.50639 20.1893 1.55992 20.3728 1.7014 20.5869C1.8467 20.8049 2.05701 21.0267 1.60198 21.3784C2.12584 21.5199 2.30173 21.7799 2.47762 22.1126C2.56174 22.277 2.64587 22.4606 2.74911 22.6403C2.80264 22.7282 2.86 22.82 2.92882 22.9003C2.97853 22.9653 3.00912 23.0035 3.06648 23.0418C3.74328 22.1088 3.19649 23.1259 3.99947 22.277C4.1333 22.3076 4.15625 22.3535 4.11036 22.4147L4.12566 22.365C4.11801 22.3879 4.11418 22.4032 4.10654 22.4223L3.87329 23.1718C3.69357 23.4739 3.60945 23.275 3.43356 23.4662C3.55592 23.7147 3.16207 23.8945 3.06265 24.2348C3.33414 23.9136 3.55209 23.8753 3.54445 24.0933L3.77769 23.5618C4.47744 23.3821 3.30737 24.4795 4.0033 24.3036L3.65916 24.4795C3.94594 24.4604 4.1486 24.9804 4.94394 24.4451C4.87129 24.5636 4.67627 24.8198 4.55774 24.8236C4.77952 25.2442 5.97635 24.8313 5.81575 25.489L5.59015 25.6649C5.70869 25.6649 6.07577 25.3895 5.94576 25.6649C5.85781 25.7452 5.72016 25.8407 5.73545 25.8828C5.83487 25.8446 6.24783 25.6878 6.2096 25.8828L5.91517 26.0434C5.96105 26.6208 6.94758 25.9669 7.34907 26.0931C6.75257 26.6858 6.8061 27.1255 6.83287 27.3473L6.74492 27.4276C7.03552 27.8635 7.85763 27.5538 8.42737 27.657C7.99146 28.5135 8.8671 28.6359 8.84033 29.3318C8.89769 29.1712 9.31065 28.8768 9.43301 28.8768C9.39095 29.0756 10.0639 28.6818 9.50566 29.2171L9.48654 29.1789C9.0124 29.7754 9.31448 29.7945 9.42536 29.936L10.1595 29.2439C9.45213 30.6128 11.4099 29.7295 10.6604 30.8384C10.9204 30.739 11.016 30.8384 11.2722 30.7428L10.886 31.1213C11.0084 31.4387 11.0734 31.5993 11.4367 31.7828L11.1078 32.0008C11.2378 32.1805 12.4079 31.0907 12.5723 31.2131L12.0446 31.8287C12.3238 32.0887 12.0943 32.8611 12.8782 32.6126C12.7903 32.6929 12.6182 32.8497 12.5494 32.8306C12.6603 32.972 12.6526 33.7062 13.3906 32.8764C12.882 33.3888 13.62 33.2053 13.9871 33.125L13.5894 33.4806C14.1936 33.1212 14.3274 32.995 14.6333 33.0332C14.6257 33.1212 14.3656 33.3697 14.4115 33.2206C14.3503 33.5532 14.8742 32.9682 14.836 33.3353L14.5339 33.515C14.6448 33.6832 14.7633 33.5418 15.1189 33.3391C15.356 33.2741 15.2872 33.6985 14.966 34.058C15.1916 33.8706 15.5472 33.668 15.5319 33.8477C15.4133 33.9891 15.3063 34.0389 15.2489 34.0618C15.226 34.5512 16.0328 33.97 15.8225 34.5015C15.7001 34.6315 15.6504 34.7042 15.6237 34.7539C15.4478 34.5589 15.3178 34.3906 15.3598 34.3753C15.0119 34.7233 15.0998 34.9336 14.5033 35.293C14.8857 35.1516 15.6581 34.7883 15.6428 35.0942C15.616 35.1363 15.5892 35.1745 15.5434 35.2319L15.4898 35.2548C15.4898 35.3236 15.551 35.3198 15.639 35.2892C15.6275 35.3925 15.616 35.4651 15.6542 35.5148C15.3828 35.8207 15.6695 35.8398 15.7307 35.9278C16.1054 35.5416 16.1399 35.6984 16.3616 35.293C16.3463 35.3313 16.3005 35.3236 16.2355 35.293C16.2125 35.293 16.1934 35.2854 16.1628 35.3007C16.1743 35.293 16.1896 35.2816 16.201 35.2739C16.1399 35.2357 16.0672 35.1822 15.9907 35.1133C16.2431 34.9795 16.4649 34.8801 16.3387 35.1707C16.6217 34.9642 16.9161 34.7539 17.0576 34.6621C16.6293 35.293 16.5375 35.7787 16.2393 36.1304C16.679 36.1457 16.9161 36.5243 17.7726 35.9546C17.9294 35.9278 17.6426 36.2337 17.5546 36.3713C17.4476 36.4058 17.4132 36.3522 17.2908 36.4325C17.6044 36.379 17.7458 36.7461 18.2735 36.2757C18.2123 36.6619 17.7229 36.6428 18.0288 36.7843L17.8452 36.9067C17.4896 38.1456 19.8336 36.3484 19.2983 37.8626C19.3289 37.767 19.3403 37.7211 19.4168 37.6294C19.5239 38.6388 20.9884 38.352 20.8201 39.6177C20.8316 39.9198 21.1681 39.6177 21.5046 39.4686L21.1298 39.9121L21.7646 39.6024C22.342 39.4877 21.1643 41.0057 22.1087 40.6463L22.3458 40.3327C22.3993 40.4895 22.8391 40.5048 22.5064 40.8031C22.5676 40.7648 22.8276 40.5507 22.7243 40.7342L22.514 40.9522L23.1373 40.8451C23.1832 41.2007 22.2579 41.6634 22.5102 41.9961C22.7014 42.0228 23.4394 41.6825 23.5426 41.499C23.5082 41.4454 23.5656 41.2543 23.7759 41.0363L23.9862 41.0248C24.6324 40.413 25.3551 39.8433 25.5501 39.1627L24.9957 39.3768L25.248 39.0174L25.4086 39.1397C25.6151 38.7727 25.3092 38.9753 25.076 39.09C25.2251 38.9141 25.313 38.7765 25.3398 38.6809L24.5712 39.1168C24.7968 38.8491 25.1333 38.7038 25.1601 38.4553C24.8045 38.6579 24.6821 39.0824 24.3686 39.1359C24.575 38.7688 24.8312 38.5585 24.4909 38.7076C24.64 38.5318 24.7624 38.4476 24.8733 38.417C24.5942 38.5279 24.5674 38.2756 24.1888 38.5662C24.4565 38.1303 23.8103 38.3712 24.4144 37.7823C24.2462 37.897 23.7988 38.0997 23.6956 38.0461C24.5521 37.4764 23.447 37.7135 24.25 36.987C23.5044 37.5223 23.5847 36.8914 23.0417 37.0596C23.1029 37.0176 23.2253 36.9373 23.21 36.987C23.1564 36.8302 23.3209 36.6046 23.3744 36.4172C22.8314 36.9334 22.5446 36.8914 22.1317 37.1284C22.514 36.4899 22.8314 36.5855 23.2826 36.054C22.8582 36.4899 22.6288 36.2605 22.3152 36.6619C22.5332 36.249 22.384 36.4249 22.7741 35.9354C22.0934 36.5816 22.5714 35.9546 22.082 36.2796C22.2655 35.8093 22.667 35.6219 22.3076 35.6678C22.4376 35.3925 22.8085 35.2969 22.8085 35.2969C22.6593 35.1248 22.2464 35.7098 21.9252 35.9622C21.5925 35.9125 22.2043 35.5072 22.3955 35.186C22.1431 35.2013 21.5963 35.5684 21.5275 35.4575C21.604 35.3695 21.6155 35.3198 21.7378 35.2395C21.214 35.511 21.344 34.8877 20.7016 35.2395C20.736 35.186 20.7704 35.1363 20.8048 35.098C20.5792 35.3733 20.3269 35.6295 20.1433 35.8054C20.063 35.7442 19.6959 35.989 19.9942 35.6334C20.0286 35.6869 20.1624 35.5569 20.2848 35.4766L20.0668 35.5416C20.4683 35.0063 20.3307 35.4804 20.6786 35.1363C20.3804 35.1439 19.8221 35.3619 19.8412 35.1172C20.2772 34.6354 20.258 35.2242 20.518 34.666L20.518 35.0139C21.1069 34.1574 20.5716 35.1707 21.2254 34.2721C21.1298 33.9127 20.736 34.253 20.6442 33.8897C20.3383 34.0924 20.2848 34.2836 19.9789 34.4901C19.1989 34.6239 20.8775 33.0829 20.0286 33.4538C19.6615 33.6985 19.0574 34.2568 19.195 33.7788L19.7724 33.3162C19.6042 33.0447 18.9006 33.9356 19.0191 33.3544C19.2639 33.19 19.3633 33.3544 19.3939 33.2588C19.6539 32.7005 18.9924 33.4462 18.8777 33.3315L19.3136 32.8497C19.0077 32.6891 18.415 32.7617 18.0709 32.5858C18.2238 32.4635 18.4112 32.3641 18.4915 32.1614C17.9332 32.062 17.8491 31.4043 17.8032 30.8154L17.287 31.0907C17.264 31.0602 17.4132 30.8575 17.5202 30.8116C17.547 30.5363 17.2602 31.0563 17.0461 31.1519C16.9467 31.1099 17.1799 30.8307 17.3443 30.7581C16.7899 30.8766 15.9984 30.8613 16.1972 30.2075L16.3616 30.1348C16.3425 29.7945 15.3483 30.7466 15.551 30.2113L15.6542 30.1731C15.4401 29.6148 14.6486 29.5498 14.9507 28.655C14.3236 29.1712 14.8207 28.0165 13.9986 28.7889C14.1706 28.1732 14.3771 28.0929 14.3312 27.5155C14.2853 27.397 13.708 27.8903 13.5244 27.8712L13.9374 27.4505L13.36 27.7488L13.7844 27.1752L13.5818 27.1867C13.5971 27.2517 13.4747 27.4544 13.3523 27.5691C13.012 27.6073 13.2759 26.9114 13.4862 26.6934L12.7788 26.6934C12.9126 26.5673 13.012 26.5405 13.1191 26.5061C12.752 26.6055 13.5894 26.0128 13.0656 26.2117C12.9929 26.3302 12.8056 26.4487 12.7176 26.529C12.882 26.1887 12.687 25.9899 12.4347 25.9516L12.7482 25.6916C12.557 25.3551 12.0523 25.271 11.7617 24.9689C11.7349 25.2098 11.2111 25.684 11.0772 25.6419L11.4825 25.1678C11.1537 25.3857 11.4061 25.424 10.9587 25.6419C10.8975 25.4813 11.3831 25.0684 11.5934 24.9881L11.3066 25.0072C11.429 24.8695 11.5322 24.8313 11.7081 24.6707C11.3793 24.8886 11.9184 23.9977 11.364 24.3916L11.4864 24.2539C11.1919 23.9518 10.909 23.9709 10.6451 23.7492C10.2589 24.1239 10.2513 23.9442 9.86892 24.1812C9.81156 23.883 9.9148 23.3859 9.66626 23.2062C9.32595 23.2444 9.29918 23.4853 9.00858 23.6421C9.34507 23.2865 9.09652 23.1029 9.45595 22.9653C9.14241 22.7665 9.05829 22.7053 8.45413 22.6632C8.34707 22.8391 8.32413 22.9424 8.18647 23.0379C8.07176 23.0379 8.19794 22.7588 8.37384 22.602L8.42354 22.5829C7.84234 22.6862 8.0947 21.8526 8.05264 21.3937C8.28971 21.3593 8.53443 21.3249 8.74092 21.1108C8.71415 21.1834 8.66062 21.3287 8.61856 21.2828C8.89004 21.3593 8.96652 21.6308 9.14241 21.8029C9.17682 21.0534 9.59743 20.8814 9.82686 20.4187C10.1595 21.1414 9.6242 21.2981 9.73127 21.9941C9.71597 21.3861 10.3087 21.3899 10.1939 20.8814C10.4463 21.3287 10.4119 21.0993 10.5419 21.7188C10.5878 20.7819 10.779 21.5582 10.9893 20.9846C11.3564 21.4473 11.0849 21.8602 11.4864 21.5773C11.6776 21.8641 11.3181 22.1967 11.3181 22.1967C11.7273 22.212 11.5093 21.5046 11.5973 21.0993C12.0867 20.8966 11.8229 21.6193 11.9911 21.9788C12.297 21.7914 12.5341 21.1452 12.7597 21.172C12.775 21.2867 12.8208 21.3287 12.7673 21.4779C13.0923 20.9158 13.7271 21.4511 14.1056 20.7437C14.1324 20.8049 14.1477 20.8661 14.1553 20.9196C14.0942 20.564 14.0865 20.2045 14.098 19.9484C14.2815 19.9369 14.4383 19.501 14.5109 19.9637C14.3962 19.9484 14.3886 20.1357 14.3351 20.281L14.5262 20.0822C14.6983 20.7437 14.2624 20.3116 14.2624 20.8011C14.6371 20.5869 15.0769 20.0363 15.3675 20.2237C15.4286 20.8737 14.6945 20.4416 15.0769 21.019L14.6295 20.7705C14.9698 21.7952 14.358 20.6978 14.6715 21.7952C15.2604 21.9826 15.3292 21.4626 15.9143 21.6537C16.0443 21.2943 15.8722 21.1184 16.0022 20.759C16.8358 20.109 16.6561 22.3917 17.2679 21.5276C17.4246 21.0955 17.4858 20.2734 17.9217 20.7093L17.7726 21.4434C18.3423 21.5161 18.0976 20.3881 18.6941 20.8814C18.5871 21.1681 18.2467 21.1261 18.3347 21.2102C18.7209 21.7914 18.6062 20.7934 18.9044 20.7934L18.9656 21.4434C19.5698 21.3402 20.2389 20.8699 20.9081 20.7513C20.8698 20.9464 20.7551 21.149 20.9119 21.3478C21.7569 21.0228 22.7167 21.4281 23.5312 21.8143L23.8409 21.2523C23.9135 21.2599 23.9747 21.5046 23.8982 21.6155C24.2156 21.8296 23.9135 21.2599 24.0665 21.0381C24.2462 20.9999 24.3036 21.3593 24.1888 21.5276C24.7509 21.0534 25.7872 20.5028 26.376 21.1031L26.2613 21.2714C26.7202 21.5008 26.7813 20.1204 27.2058 20.6443L27.1255 20.7437C28.1235 20.9884 29.2285 20.4722 29.9895 21.3211C30.1348 20.5143 30.9798 21.6805 31.041 20.5525C31.6107 21.1108 31.4463 21.3134 32.2493 21.6882C32.4634 21.7417 32.5705 20.9846 32.8343 20.8661L32.842 21.4549L33.2014 20.8355L33.3926 21.539L33.6411 21.3861C33.5417 21.3517 33.4308 21.1222 33.4461 20.9502C33.8361 20.6825 34.3944 21.3593 34.4021 21.6614L35.3198 21.1643C35.3045 21.344 35.2127 21.4358 35.1171 21.5314C35.4612 21.2025 35.1477 22.212 35.5645 21.7035C35.5033 21.5696 35.5989 21.3517 35.6065 21.2331C35.8321 21.5887 36.3407 21.5926 36.7192 21.4434L36.6466 21.8488C37.3272 21.952 38.0843 21.6537 38.8491 21.6614C38.5738 21.474 38.6388 20.7666 38.8605 20.7016L38.9485 21.3249C39.0938 20.9387 38.7152 21.0917 39.0097 20.6175C39.2965 20.6902 39.2009 21.3249 39.0364 21.5276L39.3844 21.3096C39.4035 21.497 39.3232 21.5926 39.3003 21.8296C39.4418 21.4434 39.9006 22.4529 40.1071 21.7838L40.1262 21.9673C40.891 21.9711 41.2389 21.757 41.8622 21.7264C41.8737 21.1873 42.1184 21.3096 42.3019 20.8737C42.7608 21.0458 43.2693 21.4664 43.8199 21.4205C44.2061 21.1528 43.9347 20.9655 44.1067 20.6443C44.1335 21.1337 44.6879 21.0878 44.4012 21.4396C45.0627 21.3593 45.2462 21.3402 46.0836 20.9425C45.9918 20.7437 45.8886 20.6558 45.9421 20.4875C46.0951 20.4072 46.2863 20.694 46.2671 20.9272L46.2289 20.9769C47.1695 20.2428 48.397 22.4032 49.1464 21.3823L49.1044 21.432L49.8806 20.9005C50.2362 20.9846 49.6665 21.2676 49.9303 21.5735C50.7677 20.7552 51.2533 21.692 51.9416 21.149C52.4769 22.5944 53.8343 21.0458 54.557 21.9711L54.515 21.6308C54.7023 21.2981 54.7406 21.8258 54.8782 21.9023C54.8591 21.6385 54.6756 21.5964 54.7903 21.4129C56.3695 21.0037 58.0443 21.9099 59.6617 22.2158C60.2544 22.3076 59.9982 20.4569 60.7438 21.2676L60.5335 21.8985C61.7265 21.1414 62.9731 21.9252 64.1432 21.2828C64.0743 21.4281 64.0705 21.6193 63.9558 21.6155C64.2043 22.0744 64.8697 21.6385 64.8735 21.2637C65.057 21.3058 64.9155 21.604 65.0264 21.7914C65.275 22.0629 65.6497 21.2064 65.7797 21.6614C65.8027 21.734 65.7109 21.8105 65.665 21.8449C65.8256 21.6232 66.4183 21.9023 66.2615 21.3708C66.7012 21.6232 67.0989 21.1375 67.4507 21.4473C67.6801 20.8546 68.2001 21.7302 68.2728 20.8966C68.2422 21.7608 69.0414 21.5926 69.3205 21.1873C69.2287 21.4473 69.5614 21.4587 69.4543 21.8182C69.7717 21.8067 70.0623 21.6461 70.005 21.2025C70.5862 22.2388 71.175 20.369 71.5039 21.6958C72.4445 21.2293 73.3125 20.9158 74.1575 20.7131C74.1269 21.5735 73.2245 20.7972 73.259 21.7035C74.0619 21.3478 74.5246 20.6099 75.32 20.8163C75.5264 20.9349 75.2014 21.1911 75.1326 21.3364C75.9356 20.9808 76.6812 21.4129 77.3962 20.9464C77.3962 21.0267 77.3159 21.1146 77.2433 21.1796C77.3848 21.1528 77.5683 21.3058 77.553 20.9158L77.4154 21.0228C77.1898 20.4531 77.9736 19.8336 78.0004 19.5354C77.7633 20.6596 78.704 19.8184 78.3254 21.237C78.4172 21.1643 78.5357 20.9769 78.5128 20.7169C78.6504 20.7934 78.6925 20.9464 78.5548 21.2446C79.0596 21.0305 78.8799 20.6137 79.3349 20.6252C79.3349 20.8163 79.2431 20.889 79.1934 21.1108C79.4228 20.7399 79.6561 20.369 80.0423 20.5296C80.0193 20.6443 80.0652 20.7934 79.9505 20.7896C80.612 20.7322 81.0785 19.8031 81.805 20.1625C81.5909 20.9884 82.0536 20.434 82.0918 21.149L82.4818 20.9349L82.3251 20.5869C82.6654 20.5984 82.9713 20.0784 83.2619 20.3116L83.0095 20.606L83.6519 20.4722L83.2886 20.2007C83.6366 19.8336 83.2504 19.2983 83.7054 19.4972C83.6137 19.5698 84.0457 19.5048 84.2255 19.9254C84.3937 19.6998 84.5696 19.4589 84.822 19.6348C84.887 19.8642 84.7684 20.4225 84.8105 20.5755C84.9787 19.9789 85.6096 20.411 85.8238 19.7763C85.755 19.9254 85.7511 20.3001 85.7741 20.3766L85.9156 19.891C86.0723 20.0478 86.0953 20.1204 86.0723 20.4187C86.5503 20.5066 85.9194 19.5125 86.4853 19.9025C86.4394 19.9407 86.4623 20.0134 86.3706 20.086C86.9403 20.2887 87.468 19.7801 87.9918 20.0172C88.1448 20.7361 87.5368 20.1931 87.7127 20.7972C88.466 20.6672 89.2728 19.9369 89.9993 20.1051L89.8655 20.0248C89.9649 19.0115 90.4084 20.5257 90.7755 20.0478C90.6838 20.1243 90.657 20.6099 90.6799 20.499C91.177 20.6634 91.7009 20.2504 92.4541 19.9292L92.3624 20.1893C92.6568 20.4225 93.1348 20.3231 93.456 20.4416C93.5516 20.1816 93.7313 20.2237 93.6204 19.8451C94.5993 21.3287 95.4864 19.0498 96.3582 20.2848C96.255 20.2848 96.1097 20.5143 96.1938 20.5143L96.9356 20.2734C96.8782 19.8298 96.84 20.0057 96.6832 19.6616C96.775 19.4016 96.9853 19.1951 97.1688 19.1951C96.8362 19.4895 97.1688 19.9063 97.3141 20.151C97.2912 20.0172 97.3409 19.8681 97.3256 19.7304C97.7118 20.5181 97.3906 18.8433 97.9183 19.371L97.8915 19.6042C98.0903 19.4857 98.2701 19.1798 98.4842 19.2448C98.5721 19.7572 98.2739 19.4819 98.2586 19.9025C98.5568 19.8719 98.8475 18.9351 99.1189 19.4436C98.9928 19.5851 98.8092 19.5889 98.683 19.7304C98.9774 20.3307 99.0119 20.1778 99.2298 20.2734L99.2069 20.2581L99.7116 20.5296L99.5816 20.3651C99.9563 19.0345 100.343 20.1204 100.847 19.2486C100.358 20.0745 100.767 19.7266 100.729 20.304C100.859 20.4646 101.054 20.6443 100.996 20.8087C101.233 20.3422 101.394 21.1758 101.731 20.4952C101.746 20.6825 101.987 20.5143 101.933 20.9808C102.243 20.8355 101.861 20.6558 101.887 20.4225C102.365 19.7839 103.012 21.1949 103.696 20.3193C104.289 19.9598 104.4 19.3289 104.946 19.0192C105.134 19.3174 104.793 19.6998 104.793 19.6998C105.092 19.9751 105.317 19.9254 105.6 19.7113C105.543 19.8757 105.6 20.0134 105.688 20.2198C105.914 20.1701 105.841 19.5392 106.139 19.8145C106.09 20.021 106.021 20.3537 105.914 20.564C106.181 20.3919 106.445 20.044 106.721 19.8757C106.793 20.2007 106.552 20.369 106.457 20.5793C106.766 20.434 107.26 20.2849 107.355 19.7686L107.206 19.631C107.244 19.7457 107.199 20.0478 107.133 20.1204C106.866 20.5219 106.751 19.9407 106.736 19.7533L106.931 19.6348C106.728 18.5412 106.139 19.8107 105.745 19.7457L105.91 18.9504L105.505 19.6119C105.417 19.4054 105.359 18.9618 105.554 18.8433C105.271 18.4495 105.302 19.1263 105.061 18.6865C105.034 18.6177 105.046 18.5795 105.073 18.5489L104.793 18.7859C104.847 18.6177 104.747 18.2239 104.916 18.3386C104.419 17.8797 104.113 18.9351 103.925 18.3309L103.967 18.2812C103.275 18.5489 103.902 18.8662 103.382 19.5507L103.034 18.1091L102.966 18.6942C102.893 18.6751 102.751 18.6292 102.778 18.3959C102.514 18.7974 102.824 18.6483 102.671 19.0268C102.327 18.4953 101.727 19.2754 101.646 18.3462C101.524 18.7898 101.975 18.6865 101.608 18.9962C101.505 17.9944 101.184 19.1683 100.87 18.7095C100.966 18.1933 101.264 18.4647 100.951 18.0059C100.763 18.8777 100.339 17.8147 100.075 17.983C100.063 18.6789 99.5013 18.2736 99.0578 18.503C99.0845 18.2697 98.2242 18.1206 97.8112 17.8682L97.8227 17.7535C97.7424 18.4571 97.318 18.3233 97.0082 18.4686C97.0197 18.048 97.0771 17.8835 97.2453 17.6962L96.9547 17.6962C96.8859 17.9256 96.7941 18.0441 96.6067 18.1244L96.6794 17.6006C96.2932 17.6312 95.8993 18.22 95.3984 17.8682C95.3717 18.3577 95.7961 19.2333 95.2684 19.5583C95.2493 19.2945 95.2302 18.8395 95.3678 18.7324C95.322 18.7668 95.2072 18.9542 95.1155 18.8395L95.3258 18.3959C95.1002 18.2009 95.2072 18.7668 95.0237 18.7248C95.0237 18.3462 94.8899 18.4571 94.9166 18.155C94.9625 18.1168 95.0734 18.3118 95.1461 18.1627C94.9396 18.0938 94.6949 17.8721 94.6107 17.5853C94.6299 17.7994 94.6107 18.0938 94.4616 18.1436C94.0754 18.1703 94.3278 17.6885 94.1022 17.4935C94.0066 17.7574 93.7619 17.4859 93.7542 18.048C93.6395 18.048 93.6204 17.7803 93.5745 17.6273C93.3757 17.8759 92.6377 17.7 92.8633 18.3003L92.913 18.3386C92.913 18.3386 92.8939 18.35 92.8786 18.3615C92.2209 18.9236 91.5135 18.0403 90.8596 18.285L90.8596 18.0977C90.4696 18.3118 89.9955 18.2239 89.7164 18.633C89.6016 18.633 89.4449 18.2889 89.4946 18.0633C89.1963 18.2047 89.1619 18.4189 88.7337 18.1053C89.0319 17.7765 88.6304 17.8147 89.0396 17.8644C88.6534 17.7 88.5654 17.3979 88.1486 17.9141C88.2901 17.4323 87.858 17.3062 87.6745 17.4515L87.946 17.7956C87.7395 17.8644 87.5598 17.8224 87.3762 17.7803L87.4756 17.1456C86.6841 16.3732 86.0494 18.4609 85.4452 17.1685C85.2349 17.6121 85.8735 17.482 85.6861 18.0021C85.3229 17.918 84.9443 17.0041 84.8296 17.0003C84.3325 16.6485 84.3631 17.9294 83.8431 17.6885C83.9081 17.9141 83.9731 18.5221 83.5831 18.7362C83.2198 18.6521 83.1357 17.7841 83.3651 17.6044C83.4531 17.5853 83.4951 17.6579 83.4913 17.7344C83.6098 17.6541 83.7628 17.5547 83.6175 17.31L83.5716 17.5356C83.3919 17.3023 82.891 17.3291 83.0057 16.9544C82.7304 17.1723 82.8871 17.3253 83.0936 17.4438C82.6271 17.115 82.3633 17.4323 81.8815 17.2144C81.958 17.3406 82.0268 17.6044 81.9541 17.6044C81.2468 17.3253 81.6444 18.0365 81.1665 18.1359C80.895 17.7918 81.2621 17.31 80.7841 17.6006C80.4897 17.3673 80.7229 17.0003 80.8376 16.8129C80.3979 17.2488 80.0193 16.5261 79.767 16.4458L79.9964 16.2623C79.8587 16.3693 79.744 16.3693 79.6293 16.3655L79.7593 16.8205C79.6255 16.7402 79.507 16.7402 79.5108 16.5491C79.3693 16.8473 79.6178 17.3023 79.3387 17.7115C79.159 17.482 78.7881 17.96 78.7269 17.3559C79.2431 17.5432 78.769 16.8894 79.0443 16.6982C78.9716 16.7135 78.8951 16.6982 78.8034 16.6446C78.7843 16.5758 78.8225 16.5185 78.8607 16.484C78.3178 15.9449 78.6122 17.1647 78.0463 17.1494C78.1189 16.8091 77.9163 16.507 77.8245 16.5796C78.0501 16.5873 77.9316 17.1456 77.7251 17.4056C77.3618 17.1417 77.3312 17.6006 77.1439 17.57L77.3618 17.6924C77.2892 18.0327 77.1095 17.9868 76.8571 18.0938C76.8494 17.9944 76.88 17.9447 76.9145 17.9141C76.6468 18.1741 76.3256 17.2144 75.9738 17.5815C75.7941 17.352 75.9547 16.9429 75.7979 16.7861C75.362 17.2259 75.3238 16.3196 74.8649 16.6829C74.9988 17.1379 75.0217 17.027 74.6967 17.4706L75.4538 17.1494L74.9682 17.8109C75.1976 17.8185 75.45 17.5241 75.5876 17.6006C75.3582 17.9715 75.3811 17.8606 75.4882 18.2391C75.1747 17.5547 74.8688 18.6368 74.5093 18.1741L74.5208 17.0461C73.9778 16.5414 73.5572 17.6235 72.8536 17.3406L73.0792 17.5356C72.9836 17.983 72.6433 17.5968 72.4177 17.7803C72.4407 17.4017 72.2954 17.2641 72.1998 17.0308C72.2113 17.31 71.6836 17.0041 71.6186 17.7574L71.305 17.2603C70.7353 17.0576 70.655 18.3347 70.1082 18.2086C70.2726 17.7994 70.0241 17.5318 70.3911 17.2373C70.2076 17.2335 70.0432 17.1647 70.0432 17.4247C69.9361 17.1876 69.5385 17.9332 69.3702 17.5738C69.2937 17.7382 69.267 18.1359 69.0643 18.1053C69.0414 18.0288 69.0643 17.918 69.0643 17.918C69.0643 18.1053 68.7431 18.1703 68.9228 18.5909C68.3607 17.4132 67.3513 18.6751 66.8618 17.6656C66.4642 17.7918 65.9824 17.9141 65.6229 17.9409C65.6459 17.8262 65.6229 17.7535 65.6918 17.7918C65.1947 17.44 65.3859 18.8739 64.8161 18.4839C64.5255 17.8721 65.1182 18.155 64.9385 17.9218C64.8582 16.6791 64.254 18.09 63.8717 17.3673L63.9634 17.2947C63.6728 16.8741 63.2522 17.765 62.7742 17.6771C62.7742 17.6771 62.7972 17.5662 62.7742 17.4897C62.4492 18.1244 61.8298 18.3309 61.3709 18.5068C61.5124 18.0212 61.5812 18.2506 61.4933 17.7574C61.2868 17.8262 61.5545 18.5489 61.1415 18.6903C61.0077 18.4227 60.7132 18.1933 60.6712 17.6656L61.0574 17.6388C60.8585 16.9582 60.5565 17.6618 60.35 17.5432L60.3768 17.245C59.7841 17.3406 59.7764 18.0938 59.1379 18.0403L59.2029 18.2659C58.8549 19.0077 58.9123 17.8453 58.5643 18.3997L58.4572 17.6465C58.2278 17.83 57.6504 18.3768 57.2375 18.5183C57.4707 17.96 57.9525 17.6732 58.2546 17.3406C58.0252 17.3367 57.4784 17.3979 57.3598 17.7688C57.4516 17.6962 57.5663 17.5126 57.6581 17.6273C57.3789 18.22 57.0119 18.5106 56.5568 18.4992C56.6371 17.0347 55.3715 18.1321 55.0426 16.9926C54.2397 17.5318 53.4481 16.7632 52.5113 16.8473C52.844 17.9868 52.236 16.8779 52.2972 18.048C52.0831 18.1206 51.9989 18.1053 51.9798 18.0288L52.0257 18.0747C52.0066 18.0518 51.9951 18.0365 51.9798 18.0212L51.3183 17.3253C51.1615 16.985 51.5248 17.0691 51.5057 16.8052C51.0277 16.7173 51.3068 16.3082 50.9895 15.9984C51.0545 16.4152 50.825 16.5988 50.5497 16.4382L50.9321 16.9773C50.263 17.6006 50.3547 15.9946 49.6817 16.6141L49.8959 16.247C49.5517 16.4649 48.6226 16.2393 48.2823 17.18C48.2211 17.0461 48.1408 16.7249 48.2937 16.6408C47.4678 16.4993 46.4583 17.6388 45.8159 17.0614L45.8771 16.7747C45.7242 16.8588 45.6095 17.31 45.4183 17.0232C45.4297 16.9047 45.4795 16.7364 45.4106 16.7211C45.3303 16.8205 45.0015 17.222 44.7988 17.0538L44.9747 16.7326C44.1717 16.3579 43.7396 17.5165 43.0628 17.7115C43.0628 16.8702 42.4319 16.5949 42.1146 16.4611L42.126 16.3426C41.1892 16.2393 40.5353 17.0385 39.6674 17.3712C39.1282 16.4573 37.8434 16.9888 36.9754 16.4764C37.1093 16.6293 36.9525 17.1341 36.7995 17.2182C36.5969 17.0461 36.2375 17.8032 36.2719 17.0308L36.3445 17.0461C36.1916 16.289 35.7748 16.4917 35.4459 16.4688L35.3924 17.4782C34.5397 16.0099 33.1593 18.0174 32.6928 16.702C32.4864 16.9544 32.234 16.9505 32.0275 17.2029L32.039 16.6599C31.4693 16.5223 31.1825 16.4535 30.4789 16.5835L30.6242 16.1973C30.2265 16.1629 30.1233 17.7574 29.7562 17.7879L29.6453 16.9811C28.9532 16.9926 28.2497 16.2852 27.5652 17.0155C27.5767 16.897 27.5958 16.6638 27.7105 16.6293C27.3855 16.6102 26.4487 16.0826 26.5672 17.1914C26.5596 16.4688 25.8522 17.1226 25.4774 17.44L25.5348 16.9085C25.2174 17.5891 25.2098 17.7765 24.7662 17.9638C24.663 17.895 24.6745 17.5356 24.8121 17.6732C24.4641 17.3941 24.5406 18.178 24.1162 17.895L24.273 17.5547C23.9135 17.5126 23.9441 17.6962 23.7453 18.0938C23.5197 18.308 23.0647 17.96 23.0111 17.4782C22.9614 17.7727 22.7664 18.1665 22.5561 18.025C22.5293 17.8415 22.6058 17.7306 22.6441 17.6732C22.0437 17.31 21.7531 18.2927 21.3402 17.7688C21.3325 17.5929 21.3057 17.505 21.2713 17.4515C21.7493 17.4629 22.1317 17.4935 22.0973 17.5318C22.0973 17.0423 21.7111 16.9544 22.017 16.2776C21.7072 16.6485 21.1796 17.4515 20.8048 17.222C20.7857 17.1761 20.7704 17.1264 20.7551 17.0538L20.7934 17.0003C20.7054 16.9505 20.6289 17.0003 20.5563 17.0806C20.4377 17.0003 20.3613 16.9391 20.2466 16.9314C20.2007 16.5261 19.8068 16.7135 19.6118 16.6944C19.6271 17.2335 19.3747 17.1456 19.6118 17.5891C19.5812 17.5509 19.6462 17.5241 19.7762 17.5012C19.8068 17.4859 19.8374 17.4782 19.8565 17.4438C19.8565 17.4591 19.8489 17.4744 19.8451 17.4897C19.9713 17.4744 20.1357 17.4629 20.323 17.4553C20.1701 17.7268 20.0133 17.9562 19.7992 17.6579C19.6998 18.0021 19.5927 18.3577 19.5315 18.5259C19.2677 17.7765 18.7629 17.3712 18.6903 16.9085C18.1053 17.2106 17.3099 17.1073 16.9428 18.1168C16.7746 18.2468 16.7517 17.8262 16.6905 17.6694C16.7861 17.57 16.9008 17.5853 16.9543 17.44C16.6217 17.7 15.9678 17.5394 15.8875 18.2468C15.4669 17.9294 16.1246 17.5968 15.5472 17.7115L15.6237 17.4973C14.5071 16.3885 13.8036 19.1951 12.5838 17.918C12.6297 17.9677 12.6564 18.0135 12.6679 18.0977C11.234 17.4591 9.71215 18.698 8.29736 17.6847C7.89587 17.482 7.84998 17.9294 7.60526 18.2736L7.51732 17.6962L7.0967 18.3615C7.01641 18.4303 6.93611 18.4456 6.85963 18.438C6.98582 18.3768 6.6608 17.8109 6.98964 18.0518C7.05082 18.0938 7.06612 18.1856 7.07376 18.2277C6.97817 18.0097 7.40643 17.9753 6.97052 17.6618C7.31848 17.6694 7.13112 17.1685 7.48673 17.2564C7.15788 16.7479 7.97999 17.1647 7.41408 16.5452C8.0144 17.1685 8.20559 16.7402 8.02587 16.3464C8.175 16.5682 8.31266 16.4458 8.52296 16.7441C8.63767 16.6141 8.63767 16.3885 8.30118 16.094C9.26094 16.5988 8.16735 15.0501 9.23035 15.8608C9.26477 15.1687 9.3833 14.6066 9.56684 14.1363C10.1633 14.7595 9.26477 14.5607 9.91863 15.184C9.97981 14.6219 9.63567 13.9183 10.0907 13.7577C10.2551 13.7577 10.3087 14.0674 10.3851 14.1974C10.4463 13.6354 11.0428 13.6507 10.9855 13.0427C11.0428 13.1 11.0734 13.1918 11.0925 13.2683C11.1269 13.1956 11.3105 13.23 11.0237 12.9586L11.0466 13.0886C10.5572 12.775 10.4234 12.0332 10.2207 11.8076C10.9243 12.6947 10.6948 11.735 11.5514 12.8859C11.5361 12.798 11.4481 12.6221 11.2569 12.4462C11.364 12.4462 11.4902 12.5379 11.647 12.8018C11.6928 12.4538 11.3258 12.232 11.5093 12.06C11.6431 12.1938 11.6584 12.2817 11.7999 12.4576C11.6278 12.1059 11.4558 11.7541 11.7196 11.7197C11.7923 11.8076 11.9146 11.8956 11.8687 11.9414C12.0867 11.6432 11.6087 10.8058 12.144 10.779C12.645 11.4444 12.4308 10.8746 12.9509 11.3641L12.9509 11.062L12.645 10.8784C12.7864 10.7561 12.5341 10.2705 12.817 10.3202L12.9279 10.6261L13.0809 10.2819L12.7482 10.2322C12.622 9.83838 12.0943 9.60896 12.4117 9.57072C12.427 9.65866 12.5494 9.44453 12.9164 9.67396C12.8208 9.44836 12.7214 9.21128 12.9432 9.23805C13.1306 9.37571 13.4824 9.81544 13.6047 9.90721C13.2491 9.42159 13.7997 9.47895 13.4327 8.94745C13.5091 9.08128 13.773 9.34512 13.838 9.391L13.5512 8.99333C13.7233 9.04304 13.7844 9.0851 13.9871 9.30688C14.2356 9.18452 13.2873 8.72567 13.7844 8.78302C13.7959 8.82891 13.8533 8.87097 13.8724 8.95892C14.2356 8.88244 14.0789 8.31653 14.4536 8.28212C15.0195 8.72949 14.4001 8.58419 14.8971 8.94362C15.096 8.56125 14.8933 7.7315 15.2948 7.56707L15.1877 7.56707C14.5109 6.80615 15.7537 7.70855 15.5587 7.22676C15.5778 7.31471 15.9104 7.67031 15.8416 7.58237C16.1513 7.50207 16.0596 7.00881 16.1284 6.4926L16.2775 6.71438C16.5566 6.76409 16.6714 6.5079 16.8778 6.46966C16.7287 6.24788 16.832 6.20964 16.5184 5.98404C17.9485 6.6532 16.679 4.69544 17.8911 5.23459C17.8529 5.27665 17.9561 5.49078 17.9906 5.46019L18.1091 5.00134C17.7726 4.71074 17.8835 4.84839 17.5776 4.66868C17.4285 4.4469 17.3673 4.2213 17.4361 4.15247C17.5126 4.48896 17.937 4.65338 18.1703 4.77192C18.067 4.68397 17.9791 4.56161 17.8758 4.46984C18.5832 4.87516 17.2717 3.81598 17.8529 3.98423L18.0058 4.16012C17.9982 3.99952 17.8529 3.71274 17.9829 3.67833C18.3768 4.00717 18.0709 3.92687 18.3615 4.23277C18.457 4.09512 17.9064 3.31889 18.3729 3.57508C18.4226 3.72421 18.3538 3.79686 18.4073 3.94599C18.9465 4.25571 18.8509 4.13335 19.0038 4.11806L18.9847 4.11806L19.3747 4.11423L19.2103 4.04923C18.415 2.96329 19.3327 3.58273 18.9121 2.76828C19.3059 3.54449 19.218 3.13918 19.6118 3.55979C19.7762 3.62479 19.9789 3.6745 20.0707 3.81216C19.8336 3.38772 20.4836 3.91922 20.1318 3.3036C20.2695 3.42978 20.2427 3.21565 20.5525 3.57126C20.5678 3.34566 20.2963 3.3686 20.1395 3.19653C19.8757 2.56179 21.1222 3.30742 20.7704 2.42414C20.7475 1.93852 20.3422 1.45291 20.3345 1.017C20.6175 1.15466 20.7551 1.55615 20.7551 1.55615C21.0648 1.63263 21.1184 1.51027 21.0763 1.25025C21.1681 1.38791 21.2904 1.46056 21.4702 1.57527C21.5237 1.45291 21.0495 1.03612 21.3593 1.11642C21.4855 1.28466 21.6958 1.54468 21.8028 1.73204C21.7837 1.50644 21.6422 1.15848 21.6308 0.932877C21.8908 1.13554 21.9137 1.34584 22.0284 1.53321L22.0246 1.57527ZM15.8684 35.5378C15.7919 35.6066 15.7192 35.6678 15.6581 35.7098C15.5548 35.7137 15.6122 35.6219 15.6848 35.5378C15.7154 35.5531 15.7537 35.5684 15.8187 35.5798C15.834 35.5684 15.8531 35.5531 15.8722 35.5378L15.8684 35.5378ZM18.0556 32.7694C18.0326 32.7579 18.0058 32.7426 17.9485 32.7235L17.9561 32.7158C17.9982 32.7388 18.0326 32.7579 18.0556 32.7694ZM17.7535 32.5667C17.6349 32.7082 17.4858 32.8306 17.4629 32.7923C17.5661 32.7197 17.5699 32.5705 17.6349 32.4138C17.6579 32.4673 17.7038 32.517 17.7573 32.5629L17.7535 32.5667ZM20.9119 20.6022C20.8278 20.6137 20.7589 20.6252 20.7131 20.6328C20.7551 20.6252 20.8125 20.6137 20.9119 20.5907L20.9119 20.6022ZM21.7187 20.5831C21.6193 20.564 21.4969 20.5602 21.3707 20.564C21.344 20.3804 21.3707 20.1893 21.4549 20.1969C21.409 20.3193 21.6002 20.4263 21.7225 20.5831L21.7187 20.5831ZM20.0133 16.8588C20.1395 16.7823 20.1854 16.8894 20.2007 16.9964C20.1395 17.0041 20.0707 17.0232 19.9789 17.0614C19.9789 17.0805 19.9674 17.1035 19.9636 17.1264C19.9751 17.0232 19.9904 16.9276 20.0133 16.8549L20.0133 16.8588ZM6.71051 18.4418C6.61874 18.3844 6.53079 18.3003 6.43902 18.2009C6.5155 18.2468 6.60727 18.3615 6.71051 18.4418Z" />
<path d="M21.5927 0.604008L21.6424 0.615479C21.6156 0.59636 21.5965 0.588713 21.5927 0.604008Z" />
<path d="M16.2471 35.2971C16.2471 35.2971 16.2816 35.2856 16.2969 35.2895C16.3198 35.2474 16.3389 35.2092 16.3542 35.1748C16.3083 35.2092 16.2624 35.2436 16.2166 35.278L16.251 35.2971L16.2471 35.2971Z" />
<path d="M15.1268 5.23846C15.1459 5.2461 15.1689 5.25758 15.1957 5.28052C15.1727 5.26522 15.1612 5.25375 15.1421 5.24228L15.1268 5.24228L15.1268 5.23846Z" />
<path d="M14.0369 27.3627L13.9413 27.4622L14.0522 27.4048L14.0369 27.3627Z" />
<path d="M18.1666 4.82164C18.2049 4.85222 18.2431 4.87899 18.2852 4.89429C18.2584 4.87134 18.2163 4.84458 18.1666 4.82164Z" />
<path d="M18.9963 4.16399L19.2372 4.19458C19.1149 4.16399 19.046 4.16017 18.9963 4.16399Z" />
<path d="M19.7572 3.77783C19.696 3.70518 19.6501 3.65165 19.6042 3.60194L19.7572 3.77783Z" />
<path d="M11.1041 13.3257C11.1041 13.3257 11.0965 13.3486 11.1003 13.3639C11.1233 13.4901 11.1271 13.4251 11.1041 13.3257Z" />
<path d="M12.9242 9.7277C12.9663 9.82711 13.0045 9.92271 13.016 9.99536C13.0924 9.97624 13.1383 9.94565 12.9242 9.7277Z" />
<path d="M8.53976 16.8046C8.53976 16.8046 8.53976 16.8046 8.53175 16.7966C8.52774 16.8046 8.51973 16.8086 8.51172 16.8167L8.53976 16.8046Z" />
<path d="M12.886 10.1137C13.0083 10.1405 13.0351 10.0832 13.0198 9.9952C12.9548 10.0105 12.8707 10.0181 12.886 10.1137Z" />
<path d="M22.4569 1.45679C22.4301 1.43385 22.411 1.41091 22.3995 1.39179L22.4148 1.46826L22.4569 1.45679Z" />
<path d="M22.3957 1.39575L22.3804 1.31928C22.3804 1.31928 22.3574 1.34987 22.3957 1.39575Z" />
<path d="M22.3841 1.31909C22.407 1.29615 22.4453 1.28086 22.3535 1.1585L22.3841 1.31909Z" />
<path d="M21.4779 2.05343L21.6079 2.19873C21.585 2.16432 21.5429 2.11843 21.4779 2.05343Z" />
<path d="M21.2868 2.32091C21.3748 2.29796 21.7189 2.47768 21.7075 2.31326L21.6042 2.19472C21.7725 2.43562 21.1033 2.03413 21.283 2.31708L21.2868 2.32091Z" />
<path d="M18.5566 1.10878C17.876 0.913769 18.9352 1.38791 18.6216 1.5791L18.9237 1.49498C18.744 1.38027 18.5031 1.22732 18.5528 1.10496L18.5566 1.10878Z" />
<path d="M17.5204 1.6635C17.5892 1.86233 17.6045 1.91204 17.811 1.96558C17.8454 1.79351 17.5969 1.75527 17.5204 1.6635Z" />
<path d="M13.4864 6.28613L13.1499 5.93052C13.1193 6.06053 13.2837 6.06436 13.4864 6.28613Z" />
<path d="M14.45 8.90165L14.7406 9.03931L14.4614 8.6837L14.45 8.90165Z" />
<path d="M11.4827 6.84082L11.4751 7.10083L11.498 6.92494L11.4827 6.84082Z" />
<path d="M4.35904 14.3085L4.81024 14.71C4.7873 14.58 4.3208 14.0905 4.35904 14.3085Z" />
<path d="M0.799165 18.7363C0.35561 18.7554 -0.0535303 18.8893 0.267664 18.9849C0.435909 18.8778 0.848873 18.7937 0.799165 18.7363Z" />
<path d="M9.58228 30.0278L9.82317 30.0278L9.78876 29.9475L9.58228 30.0278Z" />
<path d="M108.682 20.5947L108.923 20.4265C108.98 20.2621 108.946 19.8873 108.793 19.9638L108.682 20.5947Z" />
<path d="M107.883 19.2525C107.7 19.5584 107.493 20.0975 107.608 20.6787C107.787 20.0707 107.83 20.3231 108.025 19.6004C108.177 19.5278 108.296 19.8031 108.269 20.0363C108.323 19.8757 108.51 20.174 108.594 19.7763C108.392 19.2869 108.139 19.2677 107.872 19.6731C107.814 19.5354 107.872 19.3672 107.883 19.2525Z" />
<path d="M92.7717 18.2661L92.8673 18.3425C92.8406 18.3005 92.8061 18.2775 92.7717 18.2661Z" />
<path d="M83.4073 17.9219C83.4799 17.9066 83.5067 17.8454 83.5105 17.788C83.4455 17.8301 83.3882 17.8683 83.4073 17.9219Z" />
<path d="M81.8091 17.2221C81.8435 17.2412 81.8741 17.2527 81.9047 17.2642C81.8703 17.2068 81.832 17.1724 81.8091 17.2221Z" />
<path d="M92.7717 18.2659L92.5232 18.067C92.504 18.2735 92.6532 18.22 92.7717 18.2659Z" />
<path d="M105.799 20.782C105.853 20.7514 105.895 20.694 105.937 20.6137C105.895 20.6405 105.853 20.6634 105.811 20.6826C105.811 20.717 105.807 20.7476 105.803 20.782L105.799 20.782Z" />
<path d="M96.8976 17.7537L96.9741 17.7537C96.997 17.681 97.0161 17.5931 97.0391 17.4936L96.9014 17.7537L96.8976 17.7537Z" />
<path d="M99.9412 18.4076C99.9832 18.1858 100.033 18.0825 100.098 18.0405C100.098 17.9372 100.09 17.8149 100.067 17.6619C99.9947 17.639 99.9718 18.1743 99.945 18.4114L99.9412 18.4076Z" />
<path d="M105.092 18.6025L105.18 18.5299C105.157 18.5528 105.119 18.5758 105.092 18.6025Z" />
<path d="M94.63 17.6389C94.6261 17.5586 94.6147 17.4898 94.5994 17.4477C94.5994 17.5166 94.6108 17.5777 94.63 17.6389Z" />
<path d="M78.8839 16.5337C78.8839 16.5337 78.8916 16.5413 78.8954 16.5452C78.9719 16.484 78.9298 16.4955 78.8839 16.5337Z" />
<path d="M52.0259 16.9316C52.3318 17.4134 51.5326 17.5472 51.9876 18.0825C51.9456 17.8722 52.4044 17.2451 52.0259 16.9316Z" />
<path d="M105.719 20.7094C105.677 20.7171 105.631 20.7209 105.589 20.7133C105.646 20.7324 105.688 20.7286 105.719 20.7094Z" />
<path d="M72.2114 17.092C72.2114 17.0385 72.1923 16.9697 72.1426 16.8588C72.1579 16.9544 72.1846 17.027 72.2114 17.092Z" />
<path d="M77.1631 17.6235L77.0408 17.5509C77.0905 17.6006 77.1287 17.6159 77.1631 17.6235Z" />
<path d="M69.4775 17.5739C69.4775 17.5739 69.512 17.6045 69.5349 17.616C69.5158 17.593 69.4967 17.5816 69.4775 17.5739Z" />
<path d="M69.4775 17.5739C69.4431 17.5433 69.4125 17.5242 69.3513 17.5739C69.359 17.6007 69.3666 17.6198 69.3781 17.6389C69.401 17.5854 69.4316 17.5548 69.4775 17.5739Z" />
<path d="M66.82 17.6197C66.8353 17.6618 66.8544 17.6924 66.8697 17.7268C66.8965 17.7153 66.9271 17.7077 66.9538 17.6962L66.8162 17.6159L66.82 17.6197Z" />
<path d="M14.2778 21.4167C14.2166 21.2637 14.1822 21.0993 14.1516 20.9349C14.1937 21.3173 13.796 21.4511 14.2778 21.4167Z" />
<path d="M105.799 20.4801C105.784 20.614 105.761 20.6828 105.719 20.7134C105.749 20.7057 105.78 20.6981 105.811 20.6828C105.818 20.6025 105.822 20.526 105.799 20.4801Z" />
<path d="M69.4239 21.8567L68.9918 21.7764C69.1142 21.8299 69.271 21.8567 69.4239 21.8567Z" />
<path d="M33.7483 21.3403L33.6489 21.4053C33.6872 21.4167 33.7216 21.4053 33.7483 21.3403Z" />
<path d="M67.7148 21.8567C67.6384 21.6655 67.5581 21.5584 67.4701 21.4858C67.451 21.5278 67.4319 21.5623 67.4204 21.6234L67.7148 21.8567Z" />
<path d="M77.0141 17.8492C76.9874 17.9066 76.9606 17.941 76.9338 17.9678C76.995 17.9181 77.0715 17.9219 77.0141 17.8492Z" />
<path d="M35.0331 21.6538C35.0637 21.6156 35.0943 21.585 35.1249 21.5544C35.0981 21.5812 35.0675 21.6117 35.0331 21.6538Z" />
<path d="M107.18 19.6387L107.229 19.6846C107.218 19.654 107.203 19.6349 107.18 19.6387Z" />
<path d="M12.5839 17.9753C12.5648 17.9562 12.5457 17.9333 12.5189 17.9065C12.5419 17.9333 12.561 17.9524 12.5839 17.9753Z" />
<path d="M79.0675 16.748C79.1019 16.7404 79.1402 16.7289 79.1707 16.706C79.1287 16.7136 79.0943 16.7328 79.0675 16.748Z" />
<path d="M19.7802 17.5586C19.7802 17.5586 19.7535 17.5931 19.7267 17.5969C19.7535 17.6428 19.7764 17.6848 19.8032 17.7192C19.8185 17.6619 19.8337 17.6045 19.849 17.551C19.8261 17.551 19.8032 17.5548 19.7802 17.5586Z" />
<path d="M92.8673 18.3425C92.8826 18.3616 92.8941 18.3845 92.9017 18.4189C92.8903 18.3922 92.8903 18.3769 92.8826 18.3539L92.8673 18.3425Z" />
<path d="M32.8498 21.6079L32.8498 21.4703L32.781 21.5888L32.8498 21.6079Z" />
<path d="M97.3258 20.2007C97.3335 20.2466 97.3526 20.2963 97.3832 20.3384C97.3832 20.304 97.3564 20.2543 97.3258 20.2007Z" />
<path d="M99.2452 20.3193L99.5167 20.5105C99.3982 20.4034 99.3141 20.3499 99.2452 20.3193Z" />
<path d="M100.721 20.587C100.74 20.4914 100.744 20.4226 100.752 20.3576L100.725 20.5908L100.721 20.587Z" />
<path d="M77.2664 21.218C77.2473 21.218 77.2282 21.2295 77.2091 21.241C77.0753 21.3442 77.167 21.306 77.2664 21.218Z" />
<path d="M84.0229 20.2162C84.1453 20.2582 84.2447 20.2697 84.2485 19.9638C84.1759 20.0632 84.1032 20.1588 84.0229 20.2162Z" />
<path d="M69.4697 21.8643C69.4697 21.8643 69.4697 21.8604 69.4697 21.8566C69.4545 21.8566 69.4392 21.8566 69.42 21.8566L69.4659 21.8643L69.4697 21.8643Z" />
<path d="M83.698 20.2085C83.8204 20.3155 83.9274 20.2926 84.023 20.2161C83.9198 20.1817 83.8012 20.1244 83.698 20.2085Z" />
<path d="M107.187 20.8508C107.187 20.8164 107.187 20.7858 107.195 20.7629L107.115 20.8279L107.187 20.8508Z" />
<path d="M107.195 20.7666L107.275 20.7016C107.241 20.7016 107.206 20.7054 107.195 20.7666Z" />
<path d="M107.44 20.568L107.275 20.7019C107.333 20.7019 107.405 20.721 107.44 20.568Z" />
<path d="M105.141 20.7783C105.153 20.7363 105.161 20.6751 105.164 20.5833L105.141 20.7783Z" />
<path d="M104.568 20.6367C104.709 20.6826 104.923 21.0535 105.122 20.9312L105.141 20.7744C105.05 21.065 104.706 20.3079 104.572 20.6367L104.568 20.6367Z" />
<path d="M102.09 18.2277L102.587 18.3845C102.499 18.178 102.385 17.8989 102.614 17.8492C101.987 17.2298 102.744 18.3119 102.09 18.2316L102.09 18.2277Z" />
<path d="M100.549 17.9294C100.817 17.8338 100.549 17.6274 100.561 17.5127C100.392 17.7 100.35 17.7497 100.549 17.9294Z" />
<path d="M89.4069 17.9258L89.4336 17.4363C89.2271 17.5052 89.4336 17.6275 89.4069 17.9258Z" />
<path d="M87.277 20.4531L87.4758 20.759L87.5714 20.3078L87.277 20.4531Z" />
<path d="M86.0189 16.9698L86.1068 16.901L85.7627 17.0769L86.0189 16.9698Z" />
<path d="M67.3018 17.1455L67.3629 17.7458C67.5006 17.6388 67.5312 16.962 67.3018 17.1455Z" />
<path d="M59.2259 17.7574C59.138 17.4553 58.9124 17.2642 58.7709 17.5586C58.9506 17.6006 59.1341 17.8339 59.2259 17.7574Z" />
<path d="M34.995 16.7749L35.1556 16.5761L34.8497 16.7443L34.995 16.7749Z" />
</g>
<defs>
<clipPath id="clip0_26_23078">
<rect width="42" height="108.95" fill="white" transform="translate(0 42) rotate(-90)"/>
</clipPath>
</defs>
</svg>
