<svg width="12" height="401" viewBox="0 0 12 401" fill="none" xmlns="http://www.w3.org/2000/svg">
<path d="M0.334381 34.2566C0.33438 35.8267 1.67184 34.9944 2.45202 35.325C2.86069 37.1962 1.44893 36.1927 0.743049 36.8273C1.11457 37.996 2.37772 38.8932 2.30342 39.7639C2.08051 39.8288 2.0062 39.9971 1.70899 39.7993C2.78639 41.036 1.74614 43.4679 3.12075 44.9082C3.0093 45.0144 2.89784 45.0705 2.78639 45.0971C3.49227 44.8639 4.161 44.8285 4.68112 44.8757C4.68112 45.5782 5.53561 46.1802 4.68112 46.4459C4.68112 46.015 4.34676 45.9795 4.04954 45.7759L4.42106 46.5137C3.12075 47.1778 3.97524 45.5073 3.0093 45.5073C3.41797 46.9446 4.49536 48.6181 4.12385 49.719C2.86069 49.9492 3.71518 47.1453 2.56348 48.6122L3.04645 46.9092C1.04026 48.2108 3.19506 45.8733 1.04026 47.0716C0.668745 49.3146 1.67184 49.5802 1.30032 51.8145C2.0062 52.3191 2.34057 51.6492 3.04645 52.1509C4.30961 55.3296 -0.11144 54.6537 1.56038 56.9912C2.41487 57.5962 4.01239 57.8294 3.1579 59.494L1.74614 58.9273C1.59754 61.0966 3.78948 60.1669 2.82354 62.4395C2.26627 62.0351 2.34057 60.7336 2.19196 61.0612C1.07741 62.5339 3.0093 62.103 3.0093 63.2364L1.74614 63.4695C1.9319 65.7805 2.86069 68.3246 3.0836 70.8864C2.71208 70.7447 2.30342 70.3049 1.9319 70.9041C2.56348 74.1329 1.78329 77.7956 1.04026 80.9093L2.11766 82.0987C2.11766 82.3762 1.63469 82.6123 1.41178 82.3112C1.00311 83.5242 2.11766 82.3732 2.52633 82.9576C2.60063 83.6482 1.89475 83.8696 1.56038 83.4328C2.48917 85.5755 3.56657 89.5333 2.37772 91.7882L2.04335 91.3484C1.59753 93.1045 4.27245 93.3317 3.26936 94.9609L3.0836 94.6481C2.60063 98.4613 3.60372 102.676 1.96905 105.583C3.52942 106.135 1.26317 109.358 3.45512 109.603C2.37772 111.781 1.96905 111.155 1.26317 114.222C1.15171 115.039 2.63778 115.444 2.86069 116.456L1.70899 116.48L2.89784 117.855L1.52323 118.587L1.82044 119.537C1.89475 119.159 2.34057 118.734 2.67493 118.79C3.19505 120.275 1.89475 122.406 1.30032 122.444L2.26626 125.954C1.82044 125.877 1.63468 125.286 1.33747 124.823C2.48917 126.697 0.148618 125.163 1.18886 126.88C1.44893 126.65 1.85759 127.004 2.11766 127.043C1.41177 127.898 1.41177 129.846 1.70899 131.287L0.928802 131.009C0.743045 133.612 1.30032 136.496 1.30032 139.418C1.67184 138.37 3.04645 138.612 3.1579 139.468L1.9319 139.81C2.67493 140.362 2.37772 138.916 3.30651 140.052C3.1579 141.144 1.9319 140.787 1.52323 140.159L1.9319 141.487C1.56038 141.563 1.37462 141.254 0.928802 141.174C1.67184 141.717 -0.297203 143.464 1.00311 144.249L0.631588 144.323C0.631588 147.242 1.04026 148.567 1.11456 150.946C2.15481 150.993 1.9319 151.923 2.78638 152.631C2.45202 154.378 1.63468 156.32 1.70899 158.425C2.22911 159.906 2.60063 158.856 3.2322 159.523C2.26626 159.632 2.37772 161.736 1.67183 160.644C1.82044 163.174 1.85759 163.873 2.63778 167.069C3.00929 166.721 3.19505 166.332 3.52942 166.535C3.67802 167.117 3.12075 167.854 2.67493 167.772L2.56347 167.618C3.97524 171.207 -0.2229 175.903 1.78329 178.76L1.67183 178.601L2.71208 181.564C2.56347 182.927 2.0062 180.746 1.41177 181.756C3.00929 184.952 1.18886 186.805 2.22911 189.438C-0.594417 191.475 2.41487 196.669 0.631586 199.42L1.30032 199.26C1.93189 199.972 0.928799 200.119 0.780193 200.645C1.30032 200.571 1.37462 199.874 1.74614 200.314C2.52632 206.338 0.780193 212.745 0.185766 218.92C7.49817e-06 221.177 3.60372 220.2 2.04335 223.049L0.817344 222.24C2.30341 226.797 0.780192 231.557 2.0062 236.02C1.70898 235.754 1.33747 235.745 1.37462 235.312C0.482978 236.253 1.33747 238.797 2.04335 238.812C1.96904 239.506 1.37462 238.974 1.0031 239.402C0.482978 240.347 2.1548 241.775 1.26316 242.277C1.11456 242.362 0.96595 242.011 0.891646 241.837C1.33747 242.454 0.780191 244.706 1.82044 244.116C1.33747 245.789 2.26626 247.318 1.67183 248.655C2.82353 249.526 1.11456 251.521 2.74923 251.798C1.0774 251.677 1.41177 254.735 2.19195 255.791C1.67183 255.437 1.67183 256.712 0.965949 256.296C0.965949 257.503 1.30031 258.61 2.1548 258.4C0.148612 260.626 3.78947 262.875 1.18886 264.129C2.0805 267.718 2.71208 271.038 3.08359 274.267C1.41177 274.152 2.93499 270.699 1.15171 270.838C1.85759 273.901 3.26935 275.666 2.86068 278.703C2.63777 279.488 2.11765 278.257 1.85759 277.992C2.56347 281.052 1.70898 283.909 2.60062 286.63C2.45201 286.622 2.26626 286.329 2.1548 286.052C2.19195 286.589 1.89474 287.3 2.67492 287.238L2.45201 286.716C3.56656 285.86 4.75542 288.847 5.34984 288.941C3.15789 288.029 4.79257 291.63 2.04335 290.184C2.19195 290.538 2.56347 290.981 3.04644 290.898C2.89783 291.424 2.60062 291.589 2.00619 291.058C2.41486 292.979 3.2322 292.297 3.2322 294.038C2.86068 294.033 2.71207 293.681 2.30341 293.501C3.00929 294.384 3.75232 295.269 3.41796 296.739C3.19505 296.65 2.89783 296.822 2.89783 296.382C3.00929 298.908 4.82972 300.691 4.12384 303.462C2.52632 302.645 3.60371 304.407 2.19195 304.551L2.60062 306.042L3.26935 305.443C3.26935 306.747 4.27244 307.904 3.78947 309.026L3.2322 308.055L3.49226 310.501L4.01238 309.117C4.71826 310.439 5.75851 308.975 5.38699 310.714C5.23839 310.36 5.38699 312.021 4.56966 312.7L4.56966 312.694C5.01548 313.341 5.4613 314.005 5.12693 314.97C4.68111 315.221 3.60371 314.769 3.3065 314.931C4.4582 315.569 3.64086 317.989 4.86687 318.798C4.56966 318.529 3.86377 318.514 3.71517 318.603L4.64396 319.137C4.34675 319.742 4.19814 319.831 3.60371 319.733C3.41795 321.554 5.34984 319.155 4.60681 321.315C4.5325 321.147 4.3839 321.227 4.23529 320.873C3.82662 323.042 4.82972 325.064 4.3839 327.056C2.97214 327.643 4.04953 325.314 2.86068 325.987C3.12074 328.862 4.5325 331.937 4.19814 334.718L4.34675 334.198C6.31578 334.585 3.3808 336.27 4.30959 337.675C4.16099 337.33 3.2322 337.223 3.41795 337.318C3.08359 339.221 3.90093 341.211 4.5325 344.097L4.01238 343.74C3.56656 344.862 3.75232 346.694 3.52941 347.907C4.04953 348.267 3.93808 348.961 4.68111 348.539C1.78328 352.278 6.24148 355.67 3.82662 358.987C3.82662 358.591 3.3808 358.042 3.3808 358.358L3.86377 361.183C4.71826 360.958 4.3839 360.811 5.05263 360.218C5.57275 360.575 5.94427 361.372 5.94427 362.074C5.38699 360.805 4.56965 362.086 4.08668 362.635C4.34674 362.543 4.64396 362.732 4.90402 362.685C3.3808 364.161 6.613 362.933 5.6099 364.946L5.16408 364.84C5.38699 365.592 5.98142 366.289 5.86996 367.1C4.86687 367.437 5.42414 366.297 4.60681 366.244C4.68111 367.387 6.50154 368.499 5.49845 369.532C5.23838 369.048 5.20123 368.349 4.94117 367.865C3.78947 368.989 4.08668 369.122 3.90092 369.957L3.90092 369.875L3.3808 371.808L3.71517 371.315C6.31578 372.743 4.19814 374.225 5.86996 376.152C4.27244 374.281 4.94117 375.842 3.82662 375.701C3.52941 376.194 3.15789 376.94 2.86068 376.728C3.75232 377.637 2.1548 378.248 3.4551 379.532C3.08359 379.588 3.4551 380.506 2.52631 380.299C2.82353 381.482 3.15789 380.019 3.60371 380.119C4.82972 381.943 2.11764 384.404 3.78947 387.028C4.49535 389.289 5.72135 389.708 6.31578 391.806C5.72135 392.515 4.97832 391.225 4.97832 391.225C4.4582 392.367 4.5325 393.229 4.97832 394.306C4.64396 394.088 4.38389 394.312 3.97523 394.643C4.08668 395.507 5.31269 395.221 4.75541 396.36C4.34674 396.166 3.71516 395.915 3.3065 395.496C3.64086 396.514 4.30959 397.52 4.64396 398.574C4.01238 398.854 3.67801 397.936 3.26934 397.565C3.56656 398.751 3.82662 400.634 4.82971 401L5.20123 400.239C5.23838 400.669 4.34674 400.46 4.16098 400.141C3.3808 399.126 4.49535 398.677 4.86687 398.618L5.08978 399.368C7.20742 398.598 4.75541 396.352 4.86687 394.84L6.42724 395.472L5.12693 393.923C5.5356 393.592 6.39008 393.368 6.61299 394.114C7.39318 393.031 6.05572 393.155 6.91021 392.223C7.05881 392.119 7.13312 392.166 7.17027 392.261L6.72445 391.201C7.05881 391.408 7.80185 391.024 7.57894 391.677C8.47058 389.776 6.42724 388.613 7.57894 387.896L7.69039 388.055C7.17027 385.42 6.53869 387.801 5.23838 385.821L8.02476 384.49L6.87306 384.23C6.91021 383.959 6.98451 383.419 7.46748 383.519C6.6873 382.507 6.98451 383.69 6.24148 383.103C7.28172 381.792 5.75851 379.493 7.57894 379.198C6.72445 378.729 6.91021 380.449 6.31578 379.053C8.24767 378.655 5.98142 377.436 6.87306 376.241C7.87615 376.607 7.35603 377.74 8.24767 376.545C6.53869 375.822 8.61918 374.216 8.28482 373.207C6.94736 373.159 7.72754 371.014 7.28172 369.32C7.72754 369.426 8.02476 366.132 8.50773 364.559L8.73064 364.606C7.35603 364.302 7.61609 362.676 7.35603 361.493C8.17336 361.54 8.50773 361.752 8.84209 362.393L8.84209 361.28C8.39627 361.017 8.17336 360.672 8.02476 359.949L9.02785 360.229C8.95355 358.748 7.839 357.249 8.50773 355.345C7.54179 355.239 5.86996 356.859 5.23838 354.846C5.75851 354.772 6.65015 354.696 6.83591 355.224C6.7616 355.053 6.42724 354.607 6.613 354.262L7.46748 355.067C7.839 354.2 6.7616 354.613 6.83591 353.919C7.57894 353.934 7.35603 353.406 7.95045 353.506C8.02476 353.683 7.65324 354.111 7.95045 354.377C8.09906 353.595 8.50773 352.65 9.065 352.337C8.65634 352.405 8.06191 352.337 7.98761 351.765C7.95046 350.283 8.87925 351.257 9.25076 350.395C8.73064 350.038 9.25076 349.094 8.17337 349.067C8.17337 348.633 8.69349 348.554 8.9907 348.385C8.50773 347.618 8.84209 344.808 7.69039 345.67L7.61609 345.868C7.61609 345.833 7.61609 345.788 7.57894 345.744C6.50154 343.232 8.21052 340.529 7.72755 338.038L8.09906 338.038C7.69039 336.553 7.839 334.732 7.05882 333.67C7.05882 333.23 7.72755 332.631 8.17337 332.82C7.9133 331.684 7.46748 331.557 8.09906 329.913C8.73064 331.055 8.65634 329.517 8.58203 331.084C8.9164 329.606 9.47367 329.272 8.47058 327.687C9.39937 328.227 9.65943 326.575 9.36222 325.872L8.69349 326.908C8.54488 326.12 8.65634 325.43 8.69349 324.727L9.91949 325.105C11.4056 322.083 7.35603 319.654 9.88234 317.352C9.02785 316.552 9.28792 318.993 8.24767 318.278C8.39628 316.888 10.1796 315.439 10.1796 315.002C10.8483 313.099 8.35912 313.225 8.8421 311.233C8.39628 311.487 7.20742 311.729 6.79876 310.239C6.94736 308.846 8.65634 308.527 8.9907 309.406C9.02785 309.74 8.87925 309.902 8.73064 309.887C8.87925 310.336 9.06501 310.926 9.54798 310.377L9.10216 310.197C9.54798 309.507 9.51083 307.591 10.2167 308.043C9.80804 306.992 9.51083 307.594 9.25076 308.373C9.88234 306.588 9.25076 305.584 9.69658 303.749C9.43652 304.041 8.95355 304.309 8.95355 304.02C9.51083 301.325 8.09906 302.834 7.91331 301.007C8.58204 299.971 9.51083 301.379 8.95355 299.54C9.39937 298.418 10.1053 299.301 10.4768 299.749C9.62228 298.076 11.034 296.621 11.1827 295.665L11.5542 296.547C11.3313 296.019 11.3313 295.588 11.3684 295.148L10.4768 295.653C10.6254 295.136 10.6254 294.697 10.9969 294.705C10.4025 294.171 9.54798 295.113 8.73064 294.056C9.17646 293.366 8.24767 291.955 9.43652 291.716C9.02786 293.888 10.6254 291.477 10.8111 293.312C10.6625 292.958 10.6625 292.524 10.8111 292.005C10.9597 291.928 11.0712 292.079 11.1083 292.22C12.1486 290.143 9.77089 291.264 9.80804 289.113C10.4768 289.387 11.0712 288.614 10.9226 288.263C10.9226 289.13 9.80804 288.679 9.32507 287.882C9.84519 286.501 8.95355 286.383 8.9907 285.659L8.76779 286.486C8.09906 286.205 8.21052 285.515 7.98761 284.553C8.50773 284.47 8.35913 285.426 8.58204 285.084C7.43033 284.016 9.77089 282.67 8.9907 281.179C9.43652 280.489 10.2167 281.111 10.5139 280.506C9.65943 278.836 11.4056 278.697 10.6997 276.941C9.80804 277.446 10.031 277.534 9.17646 276.301L9.80804 279.187L8.50773 277.337C8.50773 278.207 9.06501 279.175 8.9164 279.695C8.21052 278.812 8.39628 278.904 7.6904 279.32C9.02786 278.128 6.91021 276.956 7.80185 275.58L9.9938 275.622C10.9597 273.55 8.87925 271.941 9.43652 269.253L9.06501 270.117C8.21052 269.757 8.95355 268.456 8.58204 267.585C9.32507 267.665 9.58513 267.122 10.031 266.75C9.47368 266.794 10.0681 264.781 8.61919 264.536L9.58513 263.335C9.9938 261.163 7.50464 260.856 7.72755 258.769C8.50773 259.398 9.02786 258.451 9.62228 259.847C9.62228 259.15 9.77089 258.524 9.25077 258.513C9.69659 258.105 8.24767 256.579 8.95355 255.939C8.61919 255.644 7.87616 255.549 7.91331 254.767C8.06191 254.682 8.28482 254.77 8.28482 254.77C7.91331 254.767 7.80185 253.545 6.98452 254.23C9.28792 252.084 6.83591 248.23 8.7678 246.362C8.50773 244.842 8.28482 243.009 8.24767 241.628C8.47058 241.716 8.61919 241.631 8.54489 241.893C9.21362 239.99 6.42724 240.721 7.20743 238.555C8.39628 237.448 7.83901 239.706 8.28482 239.016C10.6997 238.715 7.95046 236.401 9.36222 234.943L9.51083 235.297C10.3282 234.181 8.58204 232.576 8.7678 230.755C8.7678 230.755 8.99071 230.843 9.13931 230.766C7.91331 229.521 7.50464 227.163 7.17028 225.41C8.09907 225.956 7.65325 226.207 8.61919 225.873C8.47058 225.088 7.09597 226.103 6.79876 224.536C7.31888 224.025 7.7647 222.895 8.80495 222.745L8.80495 224.223C10.1796 223.465 8.80495 222.308 9.02786 221.529L9.62228 221.629C9.43653 219.362 7.98761 219.33 8.06192 216.895L7.6161 217.146C6.16718 215.815 8.43343 216.03 7.35603 214.702L8.80495 214.301C8.43343 213.421 7.39319 211.222 7.09597 209.649C8.17337 210.541 8.73065 212.385 9.39938 213.524C9.39938 212.654 9.28792 210.564 8.58204 210.113C8.73065 210.464 9.06501 210.906 8.8421 211.252C7.6904 210.183 7.13313 208.779 7.13313 207.043C9.9938 207.35 7.83901 202.522 10.0681 201.261C9.02786 198.192 10.5139 195.173 10.3653 191.596C8.13622 192.865 10.291 190.551 8.02477 190.772C7.87616 189.94 7.91331 189.621 8.06192 189.547L9.43653 187.024C10.1053 186.425 9.9195 187.815 10.4396 187.738C10.6254 185.914 11.4056 186.974 12 185.766C11.1827 186.014 10.8483 185.132 11.1455 184.093L10.1053 185.557C8.87925 183.007 12 183.355 10.8111 180.785L11.517 181.596C11.1084 180.277 11.517 176.732 9.69659 175.44C9.95665 175.206 10.5882 174.899 10.7368 175.478C10.9969 172.329 8.80495 168.465 9.9195 166.016L10.4768 166.255C10.3282 165.667 9.43653 165.231 9.9938 164.496C10.2167 164.534 10.5511 164.732 10.5882 164.46C10.4025 164.15 9.62229 162.899 9.95665 162.12L10.5882 162.787C11.3313 159.715 9.06501 158.071 8.6935 155.494C10.3282 155.5 10.8483 153.083 11.1084 151.876L11.3313 151.917C11.517 148.34 9.9938 145.84 9.32507 142.526C11.1084 140.468 10.0681 135.557 11.0712 132.252C10.774 132.756 9.80805 132.169 9.62229 131.582C9.95665 130.806 8.47059 129.436 9.99381 129.56L9.99381 129.838C11.4427 129.253 11.0341 127.659 11.0712 126.414L9.10217 126.207C11.9628 122.952 8.06192 117.675 10.6254 115.898C10.1424 115.113 10.1424 114.139 9.65944 113.36L10.6997 113.401C10.9597 111.223 11.1084 110.137 10.8483 107.445L11.5913 107.994C11.6656 106.477 8.54489 106.079 8.50774 104.677L10.0681 104.255C10.0681 101.607 11.4056 98.9276 9.99381 96.3097C10.2167 96.354 10.6625 96.4307 10.7368 96.8587C10.774 95.6132 11.8142 92.0361 9.65944 92.4906C11.0712 92.4611 9.80805 89.7576 9.17647 88.3291L10.2167 88.5505C8.87926 87.3434 8.54489 87.305 8.17338 85.6197C8.32198 85.2213 8.99071 85.2685 8.73065 85.7998C9.28793 84.4687 7.76471 84.7638 8.28483 83.1494L8.95356 83.7515C9.02786 82.3821 8.6935 82.4913 7.91332 81.7357C7.50465 80.8739 8.17338 79.1385 9.10217 78.9348C8.54489 78.7489 7.76471 77.9992 8.02477 77.1935C8.39629 77.0843 8.58205 77.3794 8.6935 77.527C9.39938 75.2367 7.50465 74.1211 8.50774 72.548C8.84211 72.5155 9.02787 72.4122 9.13932 72.2824C9.13932 74.1004 9.06502 75.5673 8.99071 75.4286C9.95666 75.4286 10.1053 73.9588 11.4427 75.1275C10.7368 73.947 9.17647 71.9312 9.62229 70.4968C9.69659 70.426 9.80805 70.361 9.95666 70.3079L10.0681 70.4555C10.1796 70.1249 10.0681 69.8298 9.9195 69.5494C10.0681 69.0919 10.1796 68.8027 10.2167 68.3629C10.9969 68.1947 10.6254 66.6777 10.6625 65.9457C9.62229 66.0077 9.7709 65.0456 8.91641 65.9457C8.99071 65.8306 9.02787 66.0844 9.10217 66.5714C9.10217 66.6806 9.13932 66.8105 9.21362 66.8843C9.21362 66.8695 9.13932 66.8518 9.13932 66.8341C9.13932 67.3152 9.17647 67.9438 9.21362 68.6551C8.6935 68.0766 8.24768 67.4716 8.80496 66.66C8.13623 66.2851 7.43034 65.869 7.13313 65.6358C8.58205 64.6324 9.36223 62.6992 10.291 62.4306C9.6966 60.1935 9.91951 57.1594 7.95047 55.7516C7.69041 55.1141 8.50774 55.0197 8.80496 54.7836C8.99071 55.1495 8.95356 55.5863 9.25078 55.787C8.73065 54.515 9.06502 52.0181 7.69041 51.7141C8.32198 50.1115 8.95356 52.6143 8.73065 50.4125L9.13932 50.7106C11.3313 46.378 5.64707 43.6656 8.47059 38.8608C8.28483 39.1943 8.21053 39.3596 7.98762 39.4274C9.21363 33.9497 6.83592 28.1384 8.80496 22.7344C9.21363 21.1967 8.32199 21.0314 7.65326 20.0929L8.76781 19.7593L7.4675 18.1567C6.50156 15.8842 10.2167 14.2196 8.43344 11.342L7.69041 11.7138C7.83902 10.6809 7.24459 8.44074 8.09908 8.61192C7.95047 8.50567 7.31889 8.27251 7.69041 7.86817L8.28483 7.83571L7.28174 5.2975C7.69041 3.32892 9.62229 5.60445 9.73375 2.73274C9.51084 1.66434 8.02477 -0.307196 7.61611 0.0941936C7.61611 0.525097 7.24459 1.19506 6.65016 1.22753L6.35295 0.250618C4.60682 0.0735337 2.86069 -0.676121 1.63469 1.72041L2.67494 3.3909L1.82045 3.92806L1.82045 2.52319C0.96596 3.32007 1.67184 3.82771 2.15481 4.39143C1.70899 4.52424 1.41178 4.76035 1.22602 5.09091L2.86069 6.73188C2.19196 6.92963 1.52323 5.99698 1.15172 7.09786C1.9319 7.86522 2.67494 6.36001 3.15791 7.63206C2.37772 8.43189 1.74614 8.19873 2.41487 9.13432C1.96905 9.26713 1.67184 9.06644 1.48608 8.69456C2.00621 9.52981 1.70899 10.9052 2.63778 11.3361C1.67184 12.1684 2.89784 14.1546 1.26317 14.072C1.67184 14.3347 2.56348 15.5418 2.60063 16.3092C0.631595 14.9072 2.48918 19.1809 0.371533 18.809C2.11766 19.8449 1.15172 22.5543 2.11766 24.3901C1.96905 24.2868 1.70899 24.0861 1.7833 23.9238C1.63469 24.9568 1.11457 25.2578 0.780201 25.9219C2.22912 26.0547 2.56348 27.6632 3.45512 28.5309C2.04336 29.797 1.74614 27.7606 0.408683 28.159C1.59754 28.0941 1.59754 30.3608 2.56348 29.9299C1.70899 30.8979 2.15481 30.7651 0.928807 31.2639C2.74924 31.4351 1.22602 32.167 2.34057 32.9698C1.44893 34.3717 0.631593 33.3299 1.18887 34.8705C0.631593 35.6024 1.56698e-05 34.233 1.56698e-05 34.233L0.334381 34.2566ZM3.49227 70.8952C3.45512 70.5794 3.41797 70.3109 3.41797 70.1397C3.41797 70.2961 3.41797 70.5145 3.49227 70.8952ZM3.49227 73.9735C3.52942 73.5987 3.52942 73.1324 3.52942 72.6366C3.90094 72.5274 4.27245 72.6454 4.2353 72.9553C3.97524 72.7871 3.78948 73.5131 3.49227 73.9735ZM10.7368 67.4598C10.8854 67.9468 10.6625 68.1091 10.4768 68.177C10.4768 67.9468 10.4396 67.6782 10.3653 67.324C10.3282 67.3093 10.291 67.2798 10.2539 67.268C10.4396 67.3152 10.6254 67.3683 10.774 67.4598L10.7368 67.4598Z" fill="#552C3C"/>
</svg>
