<svg width="29" height="31" viewBox="0 0 29 31" fill="none" xmlns="http://www.w3.org/2000/svg">
<path fill-rule="evenodd" clip-rule="evenodd" d="M26.4373 12.7073C26.4579 12.804 26.4774 12.9012 26.4956 12.9988L26.5899 13.0145L26.4994 13.0188C26.63 13.7241 26.6983 14.4512 26.6983 15.1944L26.6983 15.2091L26.8489 15.2159L27.0216 15.4102C27.3669 15.4102 27.5827 15.2807 27.5827 15.1943C27.7986 15.108 28.6403 15.5181 28.7698 15.7555C28.7095 16.0931 28.3461 16.0737 27.9919 16.0548C27.7121 16.0398 27.438 16.0252 27.3237 16.1871C27.518 16.3598 27.6907 16.554 27.8633 16.7483L27.518 16.7051C27.3206 16.738 27.4867 16.796 27.6151 16.8408C27.6552 16.8548 27.6917 16.8675 27.7122 16.8778C27.378 16.8197 27.3862 17.0159 27.3943 17.2096C27.3983 17.3036 27.4022 17.3971 27.3669 17.4605H27.8201C28.3536 17.9213 27.879 18.0755 27.441 18.2178C27.0993 18.3289 26.7798 18.4327 26.9784 18.6692L27.6043 19.1871L26.9568 19.0576C27.0304 19.1259 27.1141 19.1904 27.1941 19.2519C27.4428 19.4433 27.655 19.6066 27.4101 19.7699C26.7008 20.0802 26.5321 20.6579 26.3664 21.2256C26.2094 21.7634 26.0551 22.2921 25.446 22.5756C25.5085 22.6069 25.5509 22.623 25.5926 22.6314C24.8408 22.6145 24.921 23.0506 25.0179 23.5772L25.0287 23.6359L25.036 23.6764C25.1439 24.2591 25.2518 24.9066 24.4748 24.7987L24.3453 24.5828C24.2382 24.7864 24.2108 24.74 24.1497 24.6363C24.0877 24.5312 23.991 24.3672 23.741 24.3454C24.0863 24.7483 23.9712 24.9785 23.8561 25.2087C23.7986 25.3238 23.741 25.4389 23.741 25.5756C23.6987 25.4769 23.7117 25.4151 23.7258 25.3479C23.7332 25.3123 23.741 25.2752 23.741 25.2303C23.6956 25.2044 23.6346 25.155 23.5715 25.104C23.4246 24.9851 23.2662 24.857 23.2662 24.9929C23.6592 25.779 23.4338 26.1414 23.2074 26.5054C23.1229 26.6411 23.0384 26.7771 22.9856 26.9353C22.836 26.7558 22.6218 26.627 22.3751 26.4785C22.0879 26.3058 21.7567 26.1065 21.4317 25.7699C21.4648 25.8694 21.5207 26.0199 21.5847 26.1924C21.6455 26.3565 21.7139 26.5408 21.777 26.7195C21.4748 26.5037 21.4964 26.8058 21.5396 27.1296C21.6691 27.0433 21.8633 26.8922 21.8633 26.8922V26.9353C21.8633 26.9126 21.8693 26.8959 21.875 26.882L21.8636 26.8706L21.8204 26.9137L21.7556 26.7411C21.7988 26.7627 21.842 26.7842 21.8851 26.8274V26.8488C21.943 26.7908 21.9835 26.733 21.9604 26.706C22.2064 26.8924 22.2346 26.9777 22.282 27.1217C22.3151 27.2219 22.3575 27.3505 22.4892 27.5612C22.4483 27.5729 22.4042 27.61 22.3564 27.6501C22.2281 27.7579 22.0737 27.8876 21.8849 27.6044C21.8179 27.6547 21.7509 27.6399 21.6636 27.6207C21.6385 27.6151 21.6117 27.6092 21.5827 27.6044C21.5827 27.7123 21.4532 27.7771 21.4532 27.7771V27.7123C21.4101 27.6476 21.3669 27.6044 21.3238 27.5613C21.0203 27.477 20.9539 28.0775 20.8982 28.581C20.8826 28.722 20.8678 28.8555 20.8489 28.9641C20.8086 28.4537 20.6596 28.286 20.5008 28.1073C20.4064 28.001 20.3085 27.8908 20.2279 27.7024C20.2682 27.7392 20.5509 27.6363 20.8705 27.4965C20.8058 27.4533 20.741 27.367 20.6547 27.1943C20.3859 26.9901 20.3153 27.1714 20.2347 27.3781C20.1536 27.5865 20.0623 27.8206 19.7482 27.7123C19.7482 27.6476 19.7482 27.4965 19.6619 27.3238C19.4676 27.2375 19.4676 27.7123 19.554 28.0361C19.3165 27.5397 18.8633 27.3022 18.777 27.5828C18.772 27.6928 18.7728 27.7878 18.7735 27.869C18.7757 28.1383 18.7767 28.2569 18.5612 28.2735V27.8634C18.3617 27.7415 18.3386 27.9041 18.3166 28.0591C18.2976 28.1927 18.2795 28.3206 18.1497 28.2554C18.2396 28.2777 18.1607 27.9641 18.0648 27.9066C17.834 28.1373 17.8172 28.3052 17.7741 28.7369C17.7608 28.8705 17.7449 29.0294 17.7194 29.2231L17.6331 28.6188C17.4292 29.0062 16.9749 29.7404 16.8161 29.147C16.9828 30.0489 16.4052 29.8928 16.0615 29.7998C16.0008 29.7834 15.9472 29.7689 15.9065 29.7627C15.9928 29.7195 15.9928 29.4605 15.9928 29.331C15.6148 29.9207 15.1839 29.7372 14.7668 29.5595C14.5884 29.4836 14.4127 29.4087 14.2446 29.3958L14.2014 28.4893C14.0731 28.4992 13.9628 28.8795 13.8457 29.283C13.707 29.7615 13.5588 30.2726 13.3597 30.2375L13.5324 29.8058C12.9661 29.907 12.703 29.7807 12.2992 29.5868L12.2158 29.5469L12.3237 28.9425C12.2003 29.0772 12.0885 29.1302 11.9763 29.1834C11.8727 29.2325 11.7687 29.2818 11.6547 29.3958C11.6132 28.6495 11.2532 28.6996 10.8042 28.7621L10.7482 28.7699C10.295 28.813 9.77698 28.7699 9.7554 27.885L9.28058 28.921C9.24212 28.9049 9.19985 28.8918 9.15654 28.8783C8.90817 28.8009 8.62521 28.7128 8.82734 28.0145L8.8705 28.0576C9.10388 27.5909 8.97119 27.6382 8.81399 27.6942C8.70951 27.7315 8.5942 27.7726 8.56835 27.6692C8.39568 27.7123 8.02878 28.1656 8.05036 28.3598C7.89732 28.0282 7.60696 27.8139 7.32706 27.6072C6.89642 27.2893 6.49051 26.9896 6.64748 26.3094C6.41963 26.2848 6.17422 26.2918 5.92727 26.2988C5.30872 26.3165 4.68058 26.3344 4.29496 25.8562L4.40288 25.7699C4.29496 25.4677 4.16547 24.8418 4.8777 24.2159C4.69513 24.1399 4.42141 24.1549 4.13969 24.1705C3.62209 24.199 3.07749 24.229 3.02158 23.6979L3.41007 23.6116C3.44857 23.3999 3.02363 23.4113 2.83936 23.4163C2.817 23.4169 2.79819 23.4174 2.78417 23.4174C2.76876 23.3711 2.86345 23.3249 2.95815 23.2786C2.99603 23.2601 3.03391 23.2416 3.06475 23.2231C3.17799 23.0249 3.01272 23.0403 2.84294 23.0561C2.75384 23.0643 2.6635 23.0727 2.61151 23.0505L2.91367 22.921C3.06628 22.4866 2.67613 22.2693 2.26421 22.04C1.91881 21.8476 1.55811 21.6468 1.48921 21.3022C1.64029 21.3886 1.94245 21.1728 2.05036 21.0648C1.26694 21.2031 1.0083 20.7947 0.807573 20.4777C0.726274 20.3493 0.654473 20.2359 0.561151 20.1799L1.01439 20.2231C0.5876 20.048 0.815555 19.8396 1.03992 19.6345C1.25806 19.4351 1.4728 19.2388 1.07914 19.0792L0.582734 19.5756C0.690648 19.2951 0.431655 19.1656 0 19.3382C0.113143 19.1779 0.271593 19.1124 0.414173 19.0534C0.597971 18.9774 0.755396 18.9122 0.755396 18.6692C0.877522 18.6316 0.942401 18.6676 1.00521 18.7025C1.0867 18.7477 1.1647 18.791 1.35971 18.6692L1.85367 18.1423C1.67692 18.2283 1.52231 18.1936 1.36753 18.1588C1.18353 18.1175 0.999281 18.0761 0.777294 18.2375C0.949989 17.9929 1.36258 18.0073 1.68235 18.0185C1.79462 18.0224 1.89544 18.0259 1.97043 18.0177L2.00719 17.9785C2.09353 17.9569 2.09353 17.8922 1.98561 17.7411C1.33761 17.8923 1.3057 17.7895 1.28142 17.7112C1.25717 17.6331 1.24051 17.5794 0.625899 17.8274C0.523653 17.4835 0.613558 17.1556 0.699073 16.8437C0.812119 16.4314 0.917493 16.0471 0.561151 15.6907C1.12095 15.5631 1.18469 15.279 1.24247 15.0215C1.31166 14.7131 1.37229 14.4429 2.26619 14.5253C2.30935 14.2015 1.98561 13.8994 1.35971 13.5972C1.26608 13.644 1.3417 13.7134 1.41525 13.7809C1.44342 13.8067 1.47128 13.8323 1.48921 13.8562C1.07914 13.7267 1.07914 13.2519 1.1223 13.0792C1.21756 13.1626 1.3046 13.2541 1.39385 13.348C1.62816 13.5945 1.87768 13.8569 2.33094 14.0289C2.23762 13.7956 1.93138 13.4614 1.70293 13.2122C1.61434 13.1155 1.53745 13.0316 1.48921 12.9713L2.33094 13.0361C2.06371 12.8613 2.20762 12.8383 2.35011 12.8156C2.50684 12.7905 2.66185 12.7658 2.26619 12.5397H2.00719C2.09831 12.3005 1.91895 12.1274 1.72921 11.9443C1.55941 11.7805 1.38129 11.6086 1.38129 11.3742L1.70504 11.4821C1.75871 11.4361 1.70615 11.3465 1.65187 11.254C1.55335 11.0861 1.44915 10.9085 1.96403 10.9641C1.95625 11.003 1.94566 11.0391 1.9353 11.0745C1.91693 11.1371 1.89928 11.1973 1.89928 11.2663C2.28655 11.3556 2.56075 11.3217 2.7999 11.292C2.90728 11.2787 3.0076 11.2663 3.10791 11.2663C3.08288 11.066 2.78202 10.9529 2.53367 10.8594C2.35378 10.7918 2.20144 10.7345 2.20144 10.662C2.57118 10.7473 2.58486 10.7577 2.687 10.8351C2.73988 10.8751 2.81646 10.9332 2.97842 11.0289L2.97454 11.0069C2.91008 10.6406 2.81707 10.1121 2.30935 9.60441C2.39568 9.62599 2.5036 9.69074 2.5036 9.69074C2.60973 9.56531 2.51745 9.34067 2.43116 9.1306C2.32441 8.87075 2.22682 8.63319 2.52518 8.63319L2.56835 8.7411C2.95371 8.7905 2.93193 8.56395 2.91309 8.36798C2.89077 8.1359 2.87258 7.9467 3.53957 8.30944C3.65763 8.31788 3.65048 8.35596 3.64043 8.40954C3.62476 8.49309 3.60202 8.61432 4.03597 8.71952C4.34509 8.65328 4.11773 8.42892 3.89407 8.2082C3.68684 8.00371 3.48279 7.80235 3.71148 7.73275C3.70862 7.74093 3.72854 7.75742 3.75851 7.78221C3.7821 7.80173 3.81191 7.82639 3.84173 7.85621C3.97074 7.59817 4.07834 7.23302 4.16451 6.88881C4.12345 6.87456 4.07899 6.86345 4.07899 6.86345L4.20848 6.84186V6.90061C4.68868 7.06672 4.84066 6.83271 4.99226 6.59928C5.16363 6.33541 5.33452 6.07228 5.97842 6.38858C5.69834 6.23454 5.65451 6.08958 5.61699 5.9655C5.60107 5.91285 5.58629 5.86396 5.55507 5.81973C5.58601 5.85515 5.63543 5.90812 5.67626 5.93534C5.78577 5.88841 5.65714 5.69406 5.54519 5.52491C5.50311 5.46133 5.46339 5.40131 5.43955 5.35401C5.42496 5.34095 5.41036 5.33108 5.39577 5.33108C5.39577 5.22316 5.54685 5.26633 5.54685 5.26633H5.52526C5.42343 5.24596 5.41769 5.28326 5.45365 5.36008C5.64178 5.45013 5.63321 5.25178 5.62557 5.07511C5.61927 4.92942 5.61361 4.79849 5.71942 4.85621C5.55442 4.67286 5.6386 4.61412 5.73384 4.54767C5.75069 4.53591 5.76795 4.52386 5.78417 4.51088C5.77096 4.77508 5.8952 4.918 6.04308 5.0881C6.1368 5.19592 6.24001 5.31465 6.32374 5.48211C6.50721 5.40057 6.4163 5.10242 6.32382 4.79907C6.22046 4.46008 6.11513 4.1146 6.38849 4.05765L6.92806 4.3598C6.64985 3.92263 6.75384 3.76193 6.83073 3.64311C6.8791 3.56836 6.91674 3.51018 6.84173 3.41016C6.89449 3.45237 6.94596 3.48813 6.99677 3.52343C7.15381 3.63253 7.30456 3.73727 7.46763 4.01448C7.4855 3.89831 7.57367 3.87094 7.65707 3.84505C7.77511 3.8084 7.8836 3.77472 7.76978 3.49649L7.48921 3.41016C7.78367 3.41016 7.8775 3.1331 7.96621 2.87113C8.06607 2.57626 8.15945 2.30052 8.52518 2.46052L9.08633 3.60441C9.30042 3.76752 9.35078 3.58392 9.39891 3.40844C9.45268 3.21243 9.50367 3.02655 9.77698 3.34542C9.75075 3.31045 9.72763 3.28013 9.70724 3.2534C9.62941 3.15138 9.5913 3.10142 9.57345 3.04546C9.55657 2.99253 9.55756 2.9339 9.55948 2.81981C9.56024 2.77456 9.56115 2.72058 9.56115 2.65477C9.49446 2.62142 9.45067 2.714 9.4003 2.8205C9.35285 2.9208 9.29957 3.03344 9.21583 3.06484L9.25899 2.20153L8.84892 2.80585C8.85159 2.73648 8.85459 2.67734 8.85718 2.62618C8.8654 2.46398 8.86956 2.38191 8.84625 2.3087C8.82244 2.23392 8.76998 2.16827 8.66394 2.03557C8.6417 2.00774 8.6171 1.97696 8.58993 1.94254C8.68637 1.67464 8.84134 1.76321 8.99143 1.849C9.14364 1.93599 9.29084 2.02012 9.36691 1.72671C9.46285 1.78001 9.52193 1.92282 9.58577 2.07713C9.65118 2.23523 9.72158 2.40539 9.84173 2.50369C9.91567 2.23959 10.1189 2.39431 10.3071 2.53761C10.4603 2.65424 10.6035 2.7633 10.6591 2.6329C10.6475 2.67519 10.6479 2.73487 10.6835 2.82743C10.7217 2.77825 10.7586 2.74291 10.7916 2.71124C10.889 2.61783 10.9531 2.55641 10.9209 2.26628L10.705 2.17995C10.7119 2.17995 10.7182 2.17914 10.7242 2.17759C10.702 2.16762 10.6834 2.15831 10.6834 2.15831L10.7285 2.17632C10.7777 2.16001 10.7965 2.09104 10.8164 2.01848C10.8521 1.88799 10.8909 1.74592 11.1151 1.87779C11.1799 1.55405 11.1367 0.906566 10.9424 0.949732C11.0072 0.863401 11.2446 1.14398 11.2878 1.53247C11.5015 1.48157 11.4945 1.17142 11.4884 0.907704C11.4817 0.612274 11.4763 0.375115 11.7842 0.625991C11.7842 0.638552 11.7805 0.654768 11.7764 0.673043C11.7664 0.717572 11.7536 0.774328 11.7842 0.820235C11.877 0.860038 11.9454 0.867217 11.9994 0.846786C11.9229 0.958486 11.9788 1.14325 12.028 1.3056C12.0908 1.5132 12.1426 1.68414 11.8921 1.6188C12.0084 2.00662 12.117 1.95308 12.2272 1.89879C12.3009 1.86244 12.3753 1.82575 12.4532 1.92095C12.5265 1.63996 12.4684 1.36589 12.416 1.1183C12.3757 0.928514 12.3388 0.75425 12.3669 0.604408C12.4024 0.764247 12.4672 0.792559 12.5612 0.83365C12.5814 0.842495 12.603 0.851932 12.6259 0.863401L12.4317 0.366998C12.5396 0.345415 12.6259 0.323832 12.7338 0.194336L12.5612 0.431746C12.634 0.4516 12.723 0.534363 12.8208 0.625276C13.0419 0.830849 13.3079 1.07809 13.5324 0.733904C13.446 0.949732 13.295 1.3598 13.554 1.6188C13.7514 1.42133 13.7583 1.51322 13.7725 1.70075C13.783 1.84116 13.7976 2.03519 13.8993 2.20153C14.0446 2.14704 14.0676 1.97791 14.0889 1.82116C14.1183 1.6054 14.1445 1.41312 14.482 1.57563C14.5468 1.57563 14.482 1.27347 14.4173 1.14398C14.4257 1.1484 14.434 1.1526 14.4423 1.15658C14.462 1.11139 14.4954 1.13864 14.5171 1.18782C14.6495 1.23444 14.7618 1.22831 14.8687 1.22247C15.0348 1.2134 15.1878 1.20505 15.3826 1.3965C15.2445 1.25205 15.1441 1.08625 15.3669 0.863401C15.299 1.1214 15.4362 1.21707 15.5795 1.31705C15.6639 1.37599 15.7505 1.43642 15.7986 1.53247L15.8633 1.27347C15.9712 1.55405 15.8417 1.66196 15.7338 1.74829C15.7554 1.66196 15.7122 1.59721 15.6475 1.59721C15.4317 1.79146 15.4532 2.78426 15.7122 2.89218C16.0144 2.67635 16.036 1.9857 16.0144 1.72671C16.1917 1.87269 16.3185 1.61565 16.4437 1.36205C16.5777 1.09075 16.7096 0.823382 16.8993 1.05765C16.9434 1.05765 16.9912 1.23843 17.05 1.46089C17.1349 1.78194 17.2427 2.18979 17.3957 2.26628C17.5397 1.98937 17.4677 1.87163 17.3984 1.75843C17.3328 1.65106 17.2696 1.54778 17.3957 1.31664C17.4868 2.11421 17.8186 1.89525 18.175 1.66C18.4937 1.44964 18.8322 1.22625 19.036 1.70513L18.7554 2.35261C18.8633 2.46052 18.9928 2.52527 19.1655 2.52527L19.0791 2.07203C19.2734 1.96412 19.5755 2.22311 19.2734 2.69793C19.6524 2.36835 19.7169 2.49173 19.8222 2.69341C19.8549 2.75587 19.8914 2.82583 19.9424 2.89218C19.8723 2.85441 19.8399 2.83013 19.8251 2.819C19.8179 2.8136 19.8148 2.8113 19.8136 2.81205C19.8126 2.81261 19.8127 2.81486 19.8128 2.8188C19.8136 2.84225 19.8163 2.92538 19.6187 3.06484C19.7492 3.39117 19.8428 3.35978 20.0019 3.30638C20.0532 3.28914 20.1114 3.26962 20.1799 3.25908C20.0504 3.47491 19.9856 3.8634 20.0504 3.90657C20.2879 3.697 20.4982 3.72257 20.7166 3.74911C20.8356 3.76357 20.9569 3.77832 21.0863 3.75549L20.9784 3.94973C21.2403 3.95943 21.3671 4.18272 21.4939 4.40607C21.6492 4.67971 21.8046 4.95346 22.2086 4.83462H22.2302V4.76988C22.2417 4.74017 22.2534 4.71281 22.2652 4.68763C22.2539 4.66649 22.2395 4.64969 22.2261 4.63407C22.1818 4.58243 22.1484 4.54359 22.2734 4.403V4.67057C22.4321 4.34801 22.6185 4.40635 22.8059 4.46497C22.9177 4.49997 23.0299 4.53506 23.1367 4.4893C23.1193 4.51981 23.0983 4.55384 23.0765 4.58926C22.9903 4.72923 22.8908 4.89087 22.9424 4.94254C23.1806 4.65152 23.2646 4.66859 23.3487 4.68566C23.4018 4.69644 23.4549 4.70722 23.5468 4.64038C23.5468 4.76174 23.4539 4.8831 23.3677 4.99573C23.2546 5.14349 23.1531 5.27621 23.2878 5.37419C23.3957 5.41736 23.6331 5.17995 23.7842 4.9857C23.6115 5.26628 23.5899 5.59002 23.6547 5.7411C23.5627 5.79366 23.5587 5.73422 23.5551 5.67967C23.5527 5.64463 23.5505 5.6116 23.5252 5.6116C23.3987 5.72757 23.3752 5.78174 23.349 5.84204C23.3216 5.90518 23.2913 5.97503 23.1367 6.12959C23.1652 6.17715 23.2525 6.10314 23.3392 6.02949C23.4494 5.93604 23.5588 5.84317 23.5468 6.00009L23.0935 6.25908C23.0605 6.37459 23.1789 6.33871 23.2558 6.31541C23.2795 6.30823 23.2992 6.30225 23.3094 6.30225C23.2314 6.31338 23.1018 6.42214 22.9679 6.55446C23.0144 6.59826 23.0605 6.64244 23.1063 6.68698C23.3007 6.51637 23.4875 6.27977 23.6615 6.05938C23.7891 5.89789 23.9099 5.74491 24.0216 5.63318C24.0216 5.97472 24.2897 6.0136 24.5466 6.05086C24.6956 6.07247 24.8409 6.09354 24.9281 6.17275L24.4532 6.51808C24.6043 6.56124 24.7554 6.53966 24.9928 6.41016L25.1439 6.58283C24.8849 6.62599 24.7122 6.71232 24.3453 7.01448C24.4168 7.03646 24.4742 7.07522 24.5312 7.11368C24.6854 7.21773 24.8362 7.31952 25.2517 7.08051C25.2441 7.23745 25.2705 7.41994 25.2958 7.59486C25.3402 7.90099 25.3812 8.18395 25.2302 8.26628C25.3728 8.31381 25.4398 8.42529 25.5016 8.52818C25.6083 8.70563 25.6995 8.85751 26.1367 8.6116C26.1406 8.61272 26.1443 8.61397 26.1478 8.61534C26.3617 8.52163 26.5683 8.43896 26.5683 8.43896H26.5899C26.4388 8.54687 26.3309 8.61162 26.223 8.67636C26.2148 8.6743 26.2063 8.67264 26.1975 8.67141C26.2124 8.73878 26.1588 8.84795 26.1058 8.95595C25.993 9.18555 25.8829 9.40986 26.4389 9.21592C26.227 9.47761 26.195 9.47309 26.102 9.45991C26.0339 9.45027 25.9331 9.43599 25.705 9.51808C25.5392 9.71318 25.7129 9.74955 25.8614 9.78065C26.0414 9.81835 26.1844 9.84829 25.6403 10.144C25.8708 10.1901 25.9105 10.1439 25.9731 10.0711C26.0276 10.0075 26.0996 9.92374 26.3309 9.8634C25.8092 10.1425 25.8877 10.2783 25.9721 10.4243C26.0379 10.5379 26.1072 10.6578 25.8993 10.8562C26.0966 10.8365 26.1541 10.7942 26.2058 10.7561C26.2672 10.711 26.3205 10.6718 26.5899 10.6835C26.3309 10.7483 26.3309 10.921 26.3309 10.921L26.9784 10.7483L26.03 11.2579C26.058 11.3375 26.0852 11.4176 26.1115 11.498C26.2132 11.474 26.3018 11.4432 26.3826 11.4151C26.6202 11.3325 26.7898 11.2735 27.0216 11.4821H26.9568C26.6559 11.6274 26.7791 11.6829 26.9425 11.7565C27.119 11.836 27.3424 11.9366 27.1295 12.1943C27.1841 12.0851 27.0401 12.1227 26.8778 12.1651C26.7834 12.1897 26.6829 12.2159 26.6115 12.2159L26.8962 12.3379C26.8585 12.3246 26.8186 12.3296 26.7626 12.367C26.5479 12.5066 26.6215 12.5286 26.702 12.5528C26.7833 12.5772 26.8715 12.6036 26.6763 12.7555C26.6266 12.7129 26.5395 12.7007 26.4373 12.7073ZM26.3666 12.3961L26.3489 12.3238C26.3723 12.3371 26.3951 12.3515 26.4173 12.367C26.4008 12.3776 26.3839 12.3872 26.3666 12.3961ZM22.1439 27.6692C22.1007 27.7987 21.9928 27.7123 21.9281 27.6044C21.9712 27.5612 22.0144 27.5181 22.0576 27.4533V27.3886C22.0576 27.3886 22.1223 27.5828 22.1439 27.6692Z" fill="#FF0200"/>
<path d="M26.9137 12.3454C26.9079 12.3425 26.9021 12.34 26.8962 12.3379L26.9137 12.3454Z" fill="#FF0200"/>
<path d="M25.2517 7.08051L25.2518 7.07923L25.3597 7.01448C25.3218 7.03892 25.2859 7.06086 25.2517 7.08051Z" fill="#FF0200"/>
<path d="M12.0863 0.77707C12.0472 0.794477 12.019 0.818247 11.9994 0.846786C12.0332 0.833981 12.0614 0.810331 12.0863 0.77707Z" fill="#FF0200"/>
<path d="M10.6591 2.6329C10.6622 2.62573 10.665 2.61784 10.6675 2.60918C10.6643 2.61646 10.6615 2.62432 10.6591 2.6329Z" fill="#FF0200"/>
<path d="M10.6675 2.60918C10.6778 2.57349 10.6835 2.52484 10.6835 2.46052C10.7308 2.50784 10.7158 2.53026 10.6933 2.56418C10.6848 2.57692 10.6752 2.59127 10.6675 2.60918Z" fill="#FF0200"/>
<path d="M5.52518 5.78426C5.52518 5.78426 5.53696 5.79899 5.55507 5.81973C5.54648 5.80755 5.53664 5.79572 5.52518 5.78426Z" fill="#FF0200"/>
<path d="M3.73381 7.72671C3.71983 7.72671 3.71289 7.72872 3.71148 7.73275C3.71851 7.73061 3.72595 7.7286 3.73381 7.72671Z" fill="#FF0200"/>
<path d="M18.1079 28.2303C18.1247 28.2447 18.1385 28.2526 18.1497 28.2554C18.1369 28.249 18.123 28.2407 18.1079 28.2303Z" fill="#FF0200"/>
<path d="M20.223 27.6907C20.223 27.6956 20.2247 27.6994 20.2279 27.7024L20.223 27.6907Z" fill="#FF0200"/>
<path d="M21.9496 26.6979L21.9604 26.706C21.9577 26.7029 21.9541 26.7002 21.9496 26.6979Z" fill="#FF0200"/>
<path d="M25.7482 22.6404C25.6927 22.6355 25.641 22.6325 25.5926 22.6314C25.6373 22.6404 25.6812 22.6404 25.7482 22.6404Z" fill="#FF0200"/>
<path d="M15.7122 1.96413C15.7122 1.96413 15.7985 1.8778 15.7985 1.81305C15.7338 1.85621 15.6906 1.89938 15.7122 1.96413Z" fill="#FF0200"/>
<path d="M25.0363 6.43181L25.0794 6.47498C25.0794 6.47498 25.2305 6.38865 25.3384 6.3239L25.0363 6.43181Z" fill="#FF0200"/>
<path d="M27.0001 12.3886L27.108 12.4318C27.108 12.4318 27.0433 12.4102 27.0001 12.3886Z" fill="#FF0200"/>
<path d="M23.9786 4.89936C23.957 4.94253 23.8491 5.07203 23.8491 5.07203C23.8707 5.03967 23.8923 5.0127 23.9138 4.98573C23.9354 4.95876 23.957 4.93172 23.9786 4.89936Z" fill="#FF0200"/>
<path d="M26.892 15.2375L26.8489 15.1944L27.2158 15.2375H26.892Z" fill="#FF0200"/>
<path d="M6.88518 3.43169L6.69094 3.23745C6.76745 3.29866 6.81142 3.34902 6.84591 3.38853C6.86006 3.40475 6.87262 3.41913 6.88518 3.43169Z" fill="#FF0200"/>
<path d="M26.6982 10.1224V10.5325C26.8708 10.3814 27.1298 10.1871 27.2377 10.3382C27.4671 9.98373 27.3691 10.0372 27.1968 10.1313C27.0123 10.2319 26.7428 10.379 26.6982 10.1224Z" fill="#FF0200"/>
<path d="M26.8051 8.79908C26.7262 8.89246 26.6345 9.00097 26.5037 8.91377C26.5901 8.69795 26.6548 8.69795 26.9138 8.69795C26.8786 8.71205 26.8433 8.75378 26.8051 8.79908Z" fill="#FF0200"/>
<path d="M20.2234 3.0864L20.239 3.05362C20.2341 3.0644 20.2289 3.07533 20.2234 3.0864Z" fill="#FF0200"/>
<path d="M20.239 3.05362C20.2906 2.9408 20.3098 2.84432 20.3249 2.76905C20.3476 2.65529 20.3607 2.59 20.4608 2.59L20.239 3.05362Z" fill="#FF0200"/>
<path d="M17.9568 1.20874L18.0432 1.14399L17.7194 1.27349L17.9568 1.20874Z" fill="#FF0200"/>
<path d="M3.90674 6.21587L4.46789 6.60435C4.46789 6.45328 3.88516 5.93529 3.90674 6.21587Z" fill="#FF0200"/>
<path d="M1.68331 12.367C1.33798 12.367 1.07899 12.4965 1.40273 12.6908C1.43018 12.6359 1.49643 12.5887 1.5587 12.5444C1.64332 12.4842 1.7206 12.4292 1.68331 12.367Z" fill="#FF0200"/>
<path d="M9.58269 29.0073L9.79852 28.8347L9.88485 28.921L9.58269 29.0073Z" fill="#FF0200"/>
</svg>
