<svg width="29" height="31" viewBox="0 0 29 31" fill="none" xmlns="http://www.w3.org/2000/svg">
<path fill-rule="evenodd" clip-rule="evenodd" d="M26.4373 12.7072C26.4579 12.8039 26.4774 12.9011 26.4956 12.9987L26.5899 13.0144L26.4994 13.0187C26.63 13.724 26.6983 14.4512 26.6983 15.1943L26.6983 15.209L26.8489 15.2159L27.0216 15.4101C27.3669 15.4101 27.5827 15.2806 27.5827 15.1943C27.7986 15.1079 28.6403 15.518 28.7698 15.7554C28.7095 16.093 28.3461 16.0736 27.9919 16.0547C27.7121 16.0398 27.438 16.0252 27.3237 16.1871C27.518 16.3597 27.6907 16.554 27.8633 16.7482L27.518 16.7051C27.3206 16.738 27.4867 16.7959 27.6151 16.8407C27.6552 16.8547 27.6917 16.8675 27.7122 16.8777C27.378 16.8196 27.3862 17.0159 27.3943 17.2096C27.3983 17.3036 27.4022 17.397 27.3669 17.4605H27.8201C28.3536 17.9212 27.879 18.0754 27.441 18.2178C27.0993 18.3288 26.7798 18.4326 26.9784 18.6691L27.6043 19.1871L26.9568 19.0576C27.0304 19.1259 27.1141 19.1903 27.1941 19.2518C27.4428 19.4432 27.655 19.6065 27.4101 19.7698C26.7008 20.0801 26.5321 20.6579 26.3664 21.2255C26.2094 21.7633 26.0551 22.2921 25.446 22.5756C25.5085 22.6068 25.5509 22.623 25.5926 22.6313C24.8408 22.6145 24.921 23.0505 25.0179 23.5771L25.0287 23.6358L25.036 23.6763C25.1439 24.259 25.2518 24.9065 24.4748 24.7986L24.3453 24.5828C24.2382 24.7863 24.2108 24.7399 24.1497 24.6363C24.0877 24.5311 23.991 24.3671 23.741 24.3454C24.0863 24.7482 23.9712 24.9784 23.8561 25.2087C23.7986 25.3238 23.741 25.4389 23.741 25.5756C23.6987 25.4769 23.7117 25.415 23.7258 25.3479C23.7332 25.3123 23.741 25.2751 23.741 25.2302C23.6956 25.2043 23.6346 25.155 23.5715 25.1039C23.4246 24.9851 23.2662 24.857 23.2662 24.9928C23.6592 25.7789 23.4338 26.1413 23.2074 26.5054C23.1229 26.6411 23.0384 26.777 22.9856 26.9353C22.836 26.7557 22.6218 26.6269 22.3751 26.4785C22.0879 26.3057 21.7567 26.1064 21.4317 25.7698C21.4648 25.8693 21.5207 26.0199 21.5847 26.1924C21.6455 26.3564 21.7139 26.5407 21.777 26.7195C21.4748 26.5036 21.4964 26.8058 21.5396 27.1295C21.6691 27.0432 21.8633 26.8921 21.8633 26.8921V26.9353C21.8633 26.9126 21.8693 26.8958 21.875 26.8819L21.8636 26.8705L21.8204 26.9137L21.7556 26.741C21.7988 26.7626 21.842 26.7842 21.8851 26.8274V26.8487C21.943 26.7908 21.9835 26.7329 21.9604 26.706C22.2064 26.8923 22.2346 26.9777 22.282 27.1216C22.3151 27.2218 22.3575 27.3504 22.4892 27.5612C22.4483 27.5729 22.4042 27.6099 22.3564 27.65C22.2281 27.7578 22.0737 27.8876 21.8849 27.6043C21.8179 27.6546 21.7509 27.6398 21.6636 27.6206C21.6385 27.6151 21.6117 27.6092 21.5827 27.6043C21.5827 27.7123 21.4532 27.777 21.4532 27.777V27.7123C21.4101 27.6475 21.3669 27.6044 21.3238 27.5612C21.0203 27.4769 20.9539 28.0774 20.8982 28.5809C20.8826 28.7219 20.8678 28.8554 20.8489 28.9641C20.8086 28.4536 20.6596 28.2859 20.5008 28.1072C20.4064 28.001 20.3085 27.8908 20.2279 27.7023C20.2682 27.7391 20.5509 27.6363 20.8705 27.4964C20.8058 27.4533 20.741 27.3669 20.6547 27.1943C20.3859 26.99 20.3153 27.1713 20.2347 27.3781C20.1536 27.5864 20.0623 27.8206 19.7482 27.7123C19.7482 27.6475 19.7482 27.4964 19.6619 27.3238C19.4676 27.2374 19.4676 27.7123 19.554 28.036C19.3165 27.5396 18.8633 27.3022 18.777 27.5828C18.772 27.6928 18.7728 27.7877 18.7735 27.869C18.7757 28.1383 18.7767 28.2568 18.5612 28.2734V27.8633C18.3617 27.7414 18.3386 27.9041 18.3166 28.059C18.2976 28.1926 18.2795 28.3206 18.1497 28.2554C18.2396 28.2776 18.1607 27.9641 18.0648 27.9065C17.834 28.1373 17.8172 28.3051 17.7741 28.7369C17.7608 28.8704 17.7449 29.0293 17.7194 29.2231L17.6331 28.6187C17.4292 29.0062 16.9749 29.7403 16.8161 29.1469C16.9828 30.0488 16.4052 29.8927 16.0615 29.7998C16.0008 29.7834 15.9472 29.7689 15.9065 29.7626C15.9928 29.7195 15.9928 29.4605 15.9928 29.331C15.6148 29.9206 15.1839 29.7371 14.7668 29.5594C14.5884 29.4835 14.4127 29.4086 14.2446 29.3957L14.2014 28.4892C14.0731 28.4991 13.9628 28.8794 13.8457 29.283C13.707 29.7614 13.5588 30.2726 13.3597 30.2374L13.5324 29.8058C12.9661 29.9069 12.703 29.7806 12.2992 29.5867L12.2158 29.5468L12.3237 28.9425C12.2003 29.0771 12.0885 29.1301 11.9763 29.1833C11.8727 29.2324 11.7687 29.2817 11.6547 29.3957C11.6132 28.6495 11.2532 28.6996 10.8042 28.7621L10.7482 28.7698C10.295 28.813 9.77698 28.7698 9.7554 27.8849L9.28058 28.9209C9.24212 28.9049 9.19985 28.8917 9.15654 28.8782C8.90817 28.8008 8.62521 28.7127 8.82734 28.0144L8.8705 28.0576C9.10388 27.5908 8.97119 27.6381 8.81399 27.6942C8.70951 27.7314 8.5942 27.7725 8.56835 27.6691C8.39568 27.7123 8.02878 28.1655 8.05036 28.3597C7.89732 28.0282 7.60696 27.8138 7.32706 27.6072C6.89642 27.2892 6.49051 26.9896 6.64748 26.3094C6.41963 26.2847 6.17422 26.2917 5.92727 26.2988C5.30872 26.3164 4.68058 26.3343 4.29496 25.8561L4.40288 25.7698C4.29496 25.4677 4.16547 24.8418 4.8777 24.2159C4.69513 24.1398 4.42141 24.1549 4.13969 24.1704C3.62209 24.1989 3.07749 24.229 3.02158 23.6979L3.41007 23.6115C3.44857 23.3998 3.02363 23.4112 2.83936 23.4162C2.817 23.4168 2.79819 23.4173 2.78417 23.4173C2.76876 23.371 2.86345 23.3248 2.95815 23.2786C2.99603 23.2601 3.03391 23.2416 3.06475 23.2231C3.17799 23.0249 3.01272 23.0402 2.84294 23.056C2.75384 23.0643 2.6635 23.0727 2.61151 23.0504L2.91367 22.9209C3.06628 22.4865 2.67613 22.2693 2.26421 22.0399C1.91881 21.8476 1.55811 21.6467 1.48921 21.3022C1.64029 21.3885 1.94245 21.1727 2.05036 21.0648C1.26694 21.203 1.0083 20.7946 0.807573 20.4776C0.726274 20.3493 0.654473 20.2359 0.561151 20.1799L1.01439 20.2231C0.5876 20.048 0.815555 19.8396 1.03992 19.6345C1.25806 19.4351 1.4728 19.2388 1.07914 19.0792L0.582734 19.5756C0.690648 19.295 0.431655 19.1655 0 19.3382C0.113143 19.1779 0.271593 19.1123 0.414173 19.0533C0.597971 18.9773 0.755396 18.9122 0.755396 18.6691C0.877522 18.6315 0.942401 18.6675 1.00521 18.7024C1.0867 18.7477 1.1647 18.791 1.35971 18.6691L1.85367 18.1422C1.67692 18.2283 1.52231 18.1935 1.36753 18.1588C1.18353 18.1174 0.999281 18.076 0.777294 18.2374C0.949989 17.9928 1.36258 18.0072 1.68235 18.0184C1.79462 18.0224 1.89544 18.0259 1.97043 18.0177L2.00719 17.9784C2.09353 17.9569 2.09353 17.8921 1.98561 17.741C1.33761 17.8922 1.3057 17.7894 1.28142 17.7112C1.25717 17.633 1.24051 17.5794 0.625899 17.8274C0.523653 17.4835 0.613558 17.1555 0.699073 16.8437C0.812119 16.4313 0.917493 16.047 0.561151 15.6907C1.12095 15.563 1.18469 15.2789 1.24247 15.0214C1.31166 14.7131 1.37229 14.4429 2.26619 14.5252C2.30935 14.2015 1.98561 13.8993 1.35971 13.5972C1.26608 13.644 1.3417 13.7134 1.41525 13.7808C1.44342 13.8067 1.47128 13.8322 1.48921 13.8561C1.07914 13.7267 1.07914 13.2518 1.1223 13.0792C1.21756 13.1625 1.3046 13.2541 1.39385 13.348C1.62816 13.5944 1.87768 13.8569 2.33094 14.0288C2.23762 13.7955 1.93138 13.4614 1.70293 13.2121C1.61434 13.1155 1.53745 13.0316 1.48921 12.9713L2.33094 13.036C2.06371 12.8613 2.20762 12.8383 2.35011 12.8155C2.50684 12.7905 2.66185 12.7657 2.26619 12.5396H2.00719C2.09831 12.3004 1.91895 12.1273 1.72921 11.9443C1.55941 11.7804 1.38129 11.6086 1.38129 11.3741L1.70504 11.482C1.75871 11.436 1.70615 11.3465 1.65187 11.2539C1.55335 11.086 1.44915 10.9084 1.96403 10.9641C1.95625 11.003 1.94566 11.0391 1.9353 11.0744C1.91693 11.137 1.89928 11.1972 1.89928 11.2662C2.28655 11.3556 2.56075 11.3216 2.7999 11.292C2.90728 11.2787 3.0076 11.2662 3.10791 11.2662C3.08288 11.066 2.78202 10.9528 2.53367 10.8594C2.35378 10.7917 2.20144 10.7344 2.20144 10.6619C2.57118 10.7472 2.58486 10.7576 2.687 10.835C2.73988 10.8751 2.81646 10.9331 2.97842 11.0288L2.97454 11.0068C2.91008 10.6405 2.81707 10.1121 2.30935 9.60435C2.39568 9.62593 2.5036 9.69068 2.5036 9.69068C2.60973 9.56525 2.51745 9.34061 2.43116 9.13054C2.32441 8.87069 2.22682 8.63312 2.52518 8.63312L2.56835 8.74104C2.95371 8.79044 2.93193 8.56389 2.91309 8.36792C2.89077 8.13584 2.87258 7.94663 3.53957 8.30938C3.65763 8.31782 3.65048 8.3559 3.64043 8.40948C3.62476 8.49303 3.60202 8.61425 4.03597 8.71945C4.34509 8.65322 4.11773 8.42886 3.89407 8.20814C3.68684 8.00365 3.48279 7.80229 3.71148 7.73269C3.70862 7.74087 3.72854 7.75736 3.75851 7.78215C3.7821 7.80167 3.81191 7.82633 3.84173 7.85615C3.97074 7.59811 4.07834 7.23296 4.16451 6.88875C4.12345 6.8745 4.07899 6.86338 4.07899 6.86338L4.20848 6.8418V6.90055C4.68868 7.06666 4.84066 6.83265 4.99226 6.59922C5.16363 6.33535 5.33452 6.07222 5.97842 6.38852C5.69834 6.23448 5.65451 6.08952 5.61699 5.96544C5.60107 5.91279 5.58629 5.8639 5.55507 5.81967C5.58601 5.85509 5.63543 5.90806 5.67626 5.93528C5.78577 5.88835 5.65714 5.694 5.54519 5.52484C5.50311 5.46127 5.46339 5.40125 5.43955 5.35395C5.42496 5.34089 5.41036 5.33102 5.39577 5.33102C5.39577 5.2231 5.54685 5.26627 5.54685 5.26627H5.52526C5.42343 5.2459 5.41769 5.2832 5.45365 5.36001C5.64178 5.45007 5.63321 5.25172 5.62557 5.07505C5.61927 4.92936 5.61361 4.79843 5.71942 4.85615C5.55442 4.6728 5.6386 4.61406 5.73384 4.54761C5.75069 4.53585 5.76795 4.5238 5.78417 4.51082C5.77096 4.77502 5.8952 4.91794 6.04308 5.08804C6.1368 5.19586 6.24001 5.31459 6.32374 5.48205C6.50721 5.4005 6.4163 5.10236 6.32382 4.79901C6.22046 4.46002 6.11513 4.11454 6.38849 4.05758L6.92806 4.35974C6.64985 3.92256 6.75384 3.76186 6.83073 3.64305C6.8791 3.5683 6.91674 3.51012 6.84173 3.4101C6.89449 3.45231 6.94596 3.48807 6.99677 3.52337C7.15381 3.63247 7.30456 3.73721 7.46763 4.01442C7.4855 3.89825 7.57367 3.87088 7.65707 3.84499C7.77511 3.80834 7.8836 3.77466 7.76978 3.49643L7.48921 3.4101C7.78367 3.4101 7.8775 3.13304 7.96621 2.87107C8.06607 2.5762 8.15945 2.30046 8.52518 2.46046L9.08633 3.60435C9.30042 3.76746 9.35078 3.58386 9.39891 3.40838C9.45268 3.21237 9.50367 3.02649 9.77698 3.34535C9.75075 3.31039 9.72763 3.28007 9.70724 3.25334C9.62941 3.15132 9.5913 3.10136 9.57345 3.0454C9.55657 2.99247 9.55756 2.93384 9.55948 2.81975C9.56024 2.7745 9.56115 2.72052 9.56115 2.65471C9.49446 2.62136 9.45067 2.71394 9.4003 2.82044C9.35285 2.92073 9.29957 3.03337 9.21583 3.06478L9.25899 2.20147L8.84892 2.80579C8.85159 2.73642 8.85459 2.67728 8.85718 2.62612C8.8654 2.46392 8.86956 2.38185 8.84625 2.30864C8.82244 2.23386 8.76998 2.16821 8.66394 2.0355C8.6417 2.00768 8.6171 1.9769 8.58993 1.94248C8.68637 1.67458 8.84134 1.76315 8.99143 1.84893C9.14364 1.93593 9.29084 2.02006 9.36691 1.72665C9.46285 1.77995 9.52193 1.92276 9.58577 2.07707C9.65118 2.23516 9.72158 2.40533 9.84173 2.50363C9.91567 2.23953 10.1189 2.39425 10.3071 2.53755C10.4603 2.65418 10.6035 2.76324 10.6591 2.63284C10.6475 2.67513 10.6479 2.73481 10.6835 2.82737C10.7217 2.77819 10.7586 2.74285 10.7916 2.71118C10.889 2.61777 10.9531 2.55635 10.9209 2.26622L10.705 2.17989C10.7119 2.17989 10.7182 2.17908 10.7242 2.17753C10.702 2.16756 10.6834 2.15825 10.6834 2.15825L10.7285 2.17626C10.7777 2.15995 10.7965 2.09098 10.8164 2.01842C10.8521 1.88793 10.8909 1.74586 11.1151 1.87773C11.1799 1.55399 11.1367 0.906505 10.9424 0.949671C11.0072 0.86334 11.2446 1.14392 11.2878 1.5324C11.5015 1.48151 11.4945 1.17136 11.4884 0.907643C11.4817 0.612213 11.4763 0.375054 11.7842 0.62593C11.7842 0.63849 11.7805 0.654707 11.7764 0.672982C11.7664 0.717511 11.7536 0.774267 11.7842 0.820174C11.877 0.859977 11.9454 0.867156 11.9994 0.846725C11.9229 0.958425 11.9788 1.14319 12.028 1.30554C12.0908 1.51313 12.1426 1.68408 11.8921 1.61874C12.0084 2.00656 12.117 1.95302 12.2272 1.89873C12.3009 1.86238 12.3753 1.82569 12.4532 1.92089C12.5265 1.6399 12.4684 1.36583 12.416 1.11824C12.3757 0.928452 12.3388 0.754189 12.3669 0.604347C12.4024 0.764186 12.4672 0.792498 12.5612 0.833589C12.5814 0.842434 12.603 0.851871 12.6259 0.86334L12.4317 0.366937C12.5396 0.345354 12.6259 0.323771 12.7338 0.194275L12.5612 0.431685C12.634 0.451539 12.723 0.534302 12.8208 0.625215C13.0419 0.830788 13.3079 1.07803 13.5324 0.733843C13.446 0.949671 13.295 1.35974 13.554 1.61874C13.7514 1.42127 13.7583 1.51315 13.7725 1.70069C13.783 1.8411 13.7976 2.03513 13.8993 2.20147C14.0446 2.14698 14.0676 1.97785 14.0889 1.8211C14.1183 1.60534 14.1445 1.41306 14.482 1.57557C14.5468 1.57557 14.482 1.27341 14.4173 1.14392C14.4257 1.14834 14.434 1.15254 14.4423 1.15652C14.462 1.11133 14.4954 1.13858 14.5171 1.18775C14.6495 1.23438 14.7618 1.22825 14.8687 1.22241C15.0348 1.21334 15.1878 1.20499 15.3826 1.39644C15.2445 1.25199 15.1441 1.08619 15.3669 0.86334C15.299 1.12133 15.4362 1.21701 15.5795 1.31699C15.6639 1.37593 15.7505 1.43636 15.7986 1.5324L15.8633 1.27341C15.9712 1.55399 15.8417 1.6619 15.7338 1.74823C15.7554 1.6619 15.7122 1.59715 15.6475 1.59715C15.4317 1.7914 15.4532 2.7842 15.7122 2.89212C16.0144 2.67629 16.036 1.98564 16.0144 1.72665C16.1917 1.87263 16.3185 1.61559 16.4437 1.36199C16.5777 1.09069 16.7096 0.823321 16.8993 1.05758C16.9434 1.05758 16.9912 1.23837 17.05 1.46083C17.1349 1.78188 17.2427 2.18972 17.3957 2.26622C17.5397 1.98931 17.4677 1.87157 17.3984 1.75837C17.3328 1.651 17.2696 1.54772 17.3957 1.31658C17.4868 2.11414 17.8186 1.89519 18.175 1.65994C18.4937 1.44958 18.8322 1.22619 19.036 1.70507L18.7554 2.35255C18.8633 2.46046 18.9928 2.52521 19.1655 2.52521L19.0791 2.07197C19.2734 1.96406 19.5755 2.22305 19.2734 2.69787C19.6524 2.36829 19.7169 2.49167 19.8222 2.69335C19.8549 2.7558 19.8914 2.82577 19.9424 2.89212C19.8723 2.85435 19.8399 2.83007 19.8251 2.81894C19.8179 2.81354 19.8148 2.81124 19.8136 2.81199C19.8126 2.81254 19.8127 2.8148 19.8128 2.81873C19.8136 2.84219 19.8163 2.92532 19.6187 3.06478C19.7492 3.39111 19.8428 3.35972 20.0019 3.30632C20.0532 3.28908 20.1114 3.26956 20.1799 3.25902C20.0504 3.47485 19.9856 3.86334 20.0504 3.90651C20.2879 3.69694 20.4982 3.72251 20.7166 3.74905C20.8356 3.76351 20.9569 3.77826 21.0863 3.75543L20.9784 3.94967C21.2403 3.95937 21.3671 4.18265 21.4939 4.406C21.6492 4.67965 21.8046 4.9534 22.2086 4.83456H22.2302V4.76981C22.2417 4.74011 22.2534 4.71275 22.2652 4.68757C22.2539 4.66643 22.2395 4.64963 22.2261 4.63401C22.1818 4.58237 22.1484 4.54353 22.2734 4.40294V4.67051C22.4321 4.34795 22.6185 4.40629 22.8059 4.46491C22.9177 4.49991 23.0299 4.535 23.1367 4.48924C23.1193 4.51975 23.0983 4.55378 23.0765 4.5892C22.9903 4.72917 22.8908 4.8908 22.9424 4.94248C23.1806 4.65146 23.2646 4.66853 23.3487 4.68559C23.4018 4.69637 23.4549 4.70715 23.5468 4.64032C23.5468 4.76168 23.4539 4.88304 23.3677 4.99567C23.2546 5.14343 23.1531 5.27615 23.2878 5.37413C23.3957 5.4173 23.6331 5.17989 23.7842 4.98564C23.6115 5.26622 23.5899 5.58996 23.6547 5.74104C23.5627 5.7936 23.5587 5.73416 23.5551 5.67961C23.5527 5.64456 23.5505 5.61154 23.5252 5.61154C23.3987 5.72751 23.3752 5.78168 23.349 5.84198C23.3216 5.90511 23.2913 5.97497 23.1367 6.12953C23.1652 6.17709 23.2525 6.10308 23.3392 6.02943C23.4494 5.93598 23.5588 5.84311 23.5468 6.00003L23.0935 6.25902C23.0605 6.37453 23.1789 6.33865 23.2558 6.31534C23.2795 6.30817 23.2992 6.30219 23.3094 6.30219C23.2314 6.31332 23.1018 6.42207 22.9679 6.5544C23.0144 6.5982 23.0605 6.64238 23.1063 6.68692C23.3007 6.51631 23.4875 6.27971 23.6615 6.05932C23.7891 5.89783 23.9099 5.74485 24.0216 5.63312C24.0216 5.97466 24.2897 6.01354 24.5466 6.0508C24.6956 6.07241 24.8409 6.09348 24.9281 6.17269L24.4532 6.51802C24.6043 6.56118 24.7554 6.5396 24.9928 6.4101L25.1439 6.58276C24.8849 6.62593 24.7122 6.71226 24.3453 7.01442C24.4168 7.0364 24.4742 7.07516 24.5312 7.11362C24.6854 7.21767 24.8362 7.31946 25.2517 7.08045C25.2441 7.23739 25.2705 7.41988 25.2958 7.5948C25.3402 7.90093 25.3812 8.18389 25.2302 8.26622C25.3728 8.31374 25.4398 8.42523 25.5016 8.52812C25.6083 8.70557 25.6995 8.85745 26.1367 8.61154C26.1406 8.61266 26.1443 8.61391 26.1478 8.61528C26.3617 8.52157 26.5683 8.4389 26.5683 8.4389H26.5899C26.4388 8.54681 26.3309 8.61156 26.223 8.6763C26.2148 8.67424 26.2063 8.67258 26.1975 8.67135C26.2124 8.73872 26.1588 8.84789 26.1058 8.95589C25.993 9.18549 25.8829 9.40979 26.4389 9.21586C26.227 9.47755 26.195 9.47302 26.102 9.45985C26.0339 9.4502 25.9331 9.43593 25.705 9.51802C25.5392 9.71312 25.7129 9.74949 25.8614 9.78059C26.0414 9.81828 26.1844 9.84823 25.6403 10.1439C25.8708 10.19 25.9105 10.1438 25.9731 10.071C26.0276 10.0075 26.0996 9.92368 26.3309 9.86334C25.8092 10.1424 25.8877 10.2782 25.9721 10.4242C26.0379 10.5379 26.1072 10.6577 25.8993 10.8561C26.0966 10.8364 26.1541 10.7941 26.2058 10.7561C26.2672 10.7109 26.3205 10.6718 26.5899 10.6835C26.3309 10.7482 26.3309 10.9209 26.3309 10.9209L26.9784 10.7482L26.03 11.2578C26.058 11.3375 26.0852 11.4175 26.1115 11.498C26.2132 11.474 26.3018 11.4432 26.3826 11.4151C26.6202 11.3324 26.7898 11.2735 27.0216 11.482H26.9568C26.6559 11.6273 26.7791 11.6828 26.9425 11.7564C27.119 11.8359 27.3424 11.9365 27.1295 12.1943C27.1841 12.0851 27.0401 12.1226 26.8778 12.165C26.7834 12.1896 26.6829 12.2159 26.6115 12.2159L26.8962 12.3379C26.8585 12.3246 26.8186 12.3296 26.7626 12.3669C26.5479 12.5065 26.6215 12.5286 26.702 12.5527C26.7833 12.5771 26.8715 12.6036 26.6763 12.7554C26.6266 12.7128 26.5395 12.7006 26.4373 12.7072ZM26.3666 12.396L26.3489 12.3237C26.3723 12.3371 26.3951 12.3514 26.4173 12.3669C26.4008 12.3775 26.3839 12.3872 26.3666 12.396ZM22.1439 27.6691C22.1007 27.7986 21.9928 27.7123 21.9281 27.6043C21.9712 27.5612 22.0144 27.518 22.0576 27.4533V27.3885C22.0576 27.3885 22.1223 27.5828 22.1439 27.6691Z" fill="white"/>
<path d="M26.9137 12.3454C26.9079 12.3425 26.9021 12.3399 26.8962 12.3379L26.9137 12.3454Z" fill="white"/>
<path d="M25.2517 7.08045L25.2518 7.07917L25.3597 7.01442C25.3218 7.03886 25.2859 7.0608 25.2517 7.08045Z" fill="white"/>
<path d="M12.0863 0.777009C12.0472 0.794416 12.019 0.818186 11.9994 0.846725C12.0332 0.83392 12.0614 0.81027 12.0863 0.777009Z" fill="white"/>
<path d="M10.6591 2.63284C10.6622 2.62567 10.665 2.61777 10.6675 2.60912C10.6643 2.61639 10.6615 2.62426 10.6591 2.63284Z" fill="white"/>
<path d="M10.6675 2.60912C10.6778 2.57343 10.6835 2.52477 10.6835 2.46046C10.7308 2.50778 10.7158 2.5302 10.6933 2.56412C10.6848 2.57685 10.6752 2.59121 10.6675 2.60912Z" fill="white"/>
<path d="M5.52518 5.7842C5.52518 5.7842 5.53696 5.79892 5.55507 5.81967C5.54648 5.80749 5.53664 5.79566 5.52518 5.7842Z" fill="white"/>
<path d="M3.73381 7.72665C3.71983 7.72665 3.71289 7.72866 3.71148 7.73269C3.71851 7.73055 3.72595 7.72854 3.73381 7.72665Z" fill="white"/>
<path d="M18.1079 28.2302C18.1247 28.2446 18.1385 28.2526 18.1497 28.2554C18.1369 28.2489 18.123 28.2406 18.1079 28.2302Z" fill="white"/>
<path d="M20.223 27.6907C20.223 27.6955 20.2247 27.6994 20.2279 27.7023L20.223 27.6907Z" fill="white"/>
<path d="M21.9496 26.6979L21.9604 26.706C21.9577 26.7028 21.9541 26.7001 21.9496 26.6979Z" fill="white"/>
<path d="M25.7482 22.6403C25.6927 22.6354 25.641 22.6324 25.5926 22.6313C25.6373 22.6403 25.6812 22.6403 25.7482 22.6403Z" fill="white"/>
<path d="M15.7122 1.96407C15.7122 1.96407 15.7985 1.87774 15.7985 1.81299C15.7338 1.85615 15.6906 1.89932 15.7122 1.96407Z" fill="white"/>
<path d="M25.0363 6.43175L25.0794 6.47492C25.0794 6.47492 25.2305 6.38859 25.3384 6.32384L25.0363 6.43175Z" fill="white"/>
<path d="M27.0001 12.3886L27.108 12.4317C27.108 12.4317 27.0433 12.4102 27.0001 12.3886Z" fill="white"/>
<path d="M23.9786 4.8993C23.957 4.94247 23.8491 5.07196 23.8491 5.07196C23.8707 5.03961 23.8923 5.01264 23.9138 4.98567C23.9354 4.9587 23.957 4.93166 23.9786 4.8993Z" fill="white"/>
<path d="M26.892 15.2375L26.8489 15.1943L27.2158 15.2375H26.892Z" fill="white"/>
<path d="M6.88518 3.43163L6.69094 3.23739C6.76745 3.2986 6.81142 3.34896 6.84591 3.38847C6.86006 3.40468 6.87262 3.41907 6.88518 3.43163Z" fill="white"/>
<path d="M26.6982 10.1223V10.5324C26.8708 10.3813 27.1298 10.1871 27.2377 10.3382C27.4671 9.98367 27.3691 10.0372 27.1968 10.1312C27.0123 10.2318 26.7428 10.3789 26.6982 10.1223Z" fill="white"/>
<path d="M26.8051 8.79902C26.7262 8.8924 26.6345 9.00091 26.5037 8.91371C26.5901 8.69789 26.6548 8.69789 26.9138 8.69789C26.8786 8.71199 26.8433 8.75372 26.8051 8.79902Z" fill="white"/>
<path d="M20.2234 3.08634L20.239 3.05356C20.2341 3.06434 20.2289 3.07526 20.2234 3.08634Z" fill="white"/>
<path d="M20.239 3.05356C20.2906 2.94074 20.3098 2.84426 20.3249 2.76899C20.3476 2.65523 20.3607 2.58993 20.4608 2.58993L20.239 3.05356Z" fill="white"/>
<path d="M17.9568 1.20868L18.0432 1.14393L17.7194 1.27342L17.9568 1.20868Z" fill="white"/>
<path d="M3.90674 6.2158L4.46789 6.60429C4.46789 6.45321 3.88516 5.93523 3.90674 6.2158Z" fill="white"/>
<path d="M1.68331 12.367C1.33798 12.367 1.07899 12.4965 1.40273 12.6907C1.43018 12.6358 1.49643 12.5887 1.5587 12.5444C1.64332 12.4841 1.7206 12.4291 1.68331 12.367Z" fill="white"/>
<path d="M9.58269 29.0073L9.79852 28.8346L9.88485 28.9209L9.58269 29.0073Z" fill="white"/>
</svg>
