<svg width="1275" height="726" viewBox="0 0 1275 726" fill="none" xmlns="http://www.w3.org/2000/svg">
<path d="M1250.5 41.3195C1249.47 41.3818 1249.25 41.4909 1249.98 41.5844C1250.72 41.7091 1252.52 41.6935 1255.38 42.2858L1257.45 42.6287C1258.14 42.7846 1258.81 43.0028 1259.51 43.1898C1256.69 41.9429 1253.58 41.2883 1250.5 41.335V41.3195Z" fill="#552C3C"/>
<path d="M1273.53 68.0191C1273.82 74.69 1274.24 82.3741 1274.72 78.0567C1274.47 74.7524 1274.39 72.7105 1274.31 70.5908C1274.2 68.5178 1274.22 66.1955 1273.29 62.7197C1272.12 57.0618 1269.76 53.3367 1270.48 54.0849C1269.95 53.1964 1268.73 51.2949 1267.18 49.4713C1265.57 47.6789 1263.57 46.0891 1262.16 45.3877C1265.18 47.6321 1268.16 50.765 1270.26 54.7707C1272.44 58.7296 1273.69 63.4834 1273.91 68.4399C1273.78 70.5285 1273.67 68.5022 1273.55 68.0191H1273.53Z" fill="#552C3C"/>
<path d="M1272.76 622.145L1272.82 618.576C1272.79 619.542 1272.77 620.773 1272.76 622.145Z" fill="#552C3C"/>
<path d="M1020.99 722.475C1023.61 722.475 1024.7 722.413 1024.82 722.366C1022.39 722.397 1020.4 722.428 1020.99 722.475Z" fill="#552C3C"/>
<path d="M962.368 721.898C963.631 721.898 964.691 721.929 965.829 721.929C964.504 721.882 963.179 721.851 962.368 721.898Z" fill="#552C3C"/>
<path d="M1272.76 622.145L1272.6 631.31C1272.77 631.949 1272.72 626.603 1272.76 622.145Z" fill="#552C3C"/>
<path d="M1274.8 144.439C1274.77 142.522 1274.72 140.916 1274.66 139.451C1274.67 141.025 1274.69 142.553 1274.72 144.127C1274.75 144.205 1274.77 144.283 1274.8 144.423V144.439Z" fill="#552C3C"/>
<path d="M1272.33 470.786V467.996C1272.27 467.17 1272.21 466.406 1272.12 465.674L1272.33 470.77V470.786Z" fill="#552C3C"/>
<path d="M1272.26 354.636C1272.24 357.271 1272.68 358.175 1272.86 359.188C1272.68 357.707 1272.6 355.759 1272.57 353.452C1272.49 353.405 1272.38 353.748 1272.26 354.636Z" fill="#552C3C"/>
<path d="M1273.02 170.468L1272.96 167.195C1272.97 168.052 1273 169.471 1273.02 170.468Z" fill="#552C3C"/>
<path d="M1272.24 553.923C1272.18 554.126 1272.12 554.531 1272.09 554.983C1272.15 554.983 1272.19 554.562 1272.24 553.923Z" fill="#552C3C"/>
<path d="M1115.86 40.2909C1115.77 40.3221 1115.89 40.3377 1115.86 40.3688C1116.53 40.3221 1116.75 40.2909 1115.86 40.2909Z" fill="#552C3C"/>
<path d="M1250.5 42.4728L1248.63 42.504C1248.43 42.5819 1248.22 42.6755 1248.22 42.7534L1250.5 42.4884V42.4728Z" fill="#552C3C"/>
<path d="M855.088 721.337C855.29 721.337 855.368 721.337 855.571 721.337C858.392 721.29 856.802 721.29 855.088 721.337Z" fill="#552C3C"/>
<path d="M4.21266 580.841C3.823 592.001 3.71389 562.683 3.27747 579.485C3.44892 577.927 3.96327 594.745 4.21266 580.841Z" fill="#552C3C"/>
<path d="M1274.75 147.447C1274.75 149.021 1274.75 150.611 1274.75 152.201C1274.75 150.034 1274.75 148.569 1274.75 147.447Z" fill="#552C3C"/>
<path d="M3.27747 579.485L3.23086 581.215C3.24645 580.498 3.26189 580.093 3.27747 579.485Z" fill="#552C3C"/>
<path d="M607.919 721.602C608.418 721.68 609.416 721.742 610.444 721.789C610.366 721.742 609.79 721.695 607.919 721.602Z" fill="#552C3C"/>
<path d="M792.057 722.225L787.505 722.163C789.313 722.178 790.778 722.209 792.057 722.225Z" fill="#552C3C"/>
<path d="M512.312 722.225C509.834 722.194 508.993 722.131 505.61 722.194C505.922 722.209 506.234 722.225 506.639 722.241C507.87 722.178 509.491 722.147 512.312 722.225Z" fill="#552C3C"/>
<path d="M412.794 722.225C413.324 722.256 414.025 722.287 414.633 722.319C415.615 722.319 416.768 722.303 417.781 722.287L412.794 722.225Z" fill="#552C3C"/>
<path d="M813.441 40.5091C815.623 40.6338 816.979 40.7741 818.039 40.8988C816.511 40.587 831.131 40.4779 813.441 40.5091Z" fill="#552C3C"/>
<path d="M1274.55 144.486C1274.66 145.062 1274.72 145.92 1274.73 147.447C1274.73 146.309 1274.72 145.203 1274.7 144.143C1274.64 143.847 1274.58 143.784 1274.53 144.501L1274.55 144.486Z" fill="#552C3C"/>
<path d="M508.26 725.685L492.456 725.623C496.882 725.639 502.618 725.67 508.26 725.685Z" fill="#552C3C"/>
<path d="M144.506 40.5713L148.137 40.5245C146.734 40.5245 145.456 40.5245 144.506 40.5713Z" fill="#552C3C"/>
<path d="M445.525 725.685C442.704 725.53 439.711 725.436 436.625 725.389C435.971 725.421 435.222 725.452 434.786 725.498L445.525 725.685Z" fill="#552C3C"/>
<path d="M818.07 40.9142H818.039C818.039 40.9142 818.039 40.9142 818.07 40.9142Z" fill="#552C3C"/>
<path d="M922.203 39.8699C907.131 39.8699 915.126 40.431 911.931 40.7583C893.945 40.9142 903.608 40.3375 897.483 40.0414C886.26 40.1972 877.641 40.7272 869.271 40.696C868.648 40.6025 867.011 40.5713 868.928 40.4466C857.052 40.8986 833.688 40.4622 819.862 41.0389C818.834 40.9921 818.319 40.9454 818.055 40.8986C820.299 41.1947 820.642 41.4753 820.174 41.6935C813.425 41.6935 807.643 42.052 805.102 41.6935C809.248 41.6935 809.591 41.5532 811.524 41.4285L804.448 41.5844C798.073 41.0389 814.111 41.3974 814.111 40.9921C800.317 41.1636 784.232 41.6156 773.649 41.4597C771.436 40.9298 798.369 41.2883 784.263 40.8051L800.629 41.0077C788.129 40.166 810.573 41.0701 799.086 40.166C777.561 40.0102 775.005 40.431 753.527 40.2752C748.695 40.5713 755.132 40.7116 750.285 41.0077C719.751 41.5376 726.251 39.6829 703.807 40.3843C697.993 40.7427 695.748 41.413 679.757 41.0545L685.212 40.4622C676.671 40.431 673.133 40.5713 670.389 40.7272C669.018 40.7895 667.864 40.8518 666.368 40.9298C665.62 40.9454 664.794 40.9765 663.827 40.9921C663.079 40.9921 662.206 41.0077 661.162 41.0233C660.243 39.3711 658.918 37.0332 657.156 33.8847C657.671 34.6641 658.435 35.8954 659.261 37.2826C659.931 38.4048 660.663 39.6361 661.318 40.7272C662.612 40.7272 663.75 40.696 664.42 40.696C665.277 40.696 665.495 40.6804 664.685 40.6492C663.843 40.6181 663.064 40.6025 662.347 40.5713C662.175 40.5713 662.004 40.5713 661.832 40.5713H661.692C661.599 40.5557 661.521 40.5401 661.427 40.5401C661.334 40.3687 661.256 40.2128 661.178 40.0569C660.944 39.6361 660.71 39.2465 660.508 38.888C660.087 38.171 659.728 37.5787 659.417 37.0488C658.778 36.0045 658.263 35.2563 657.764 34.5082C656.736 33.0119 655.66 31.4533 653.276 27.3073L652.605 25.094C647.898 17.0671 643.02 8.74395 637.907 0C630.441 13.1705 622.555 27.0735 614.653 41.0233H614.621C614.621 41.0233 614.621 41.0233 614.653 41.0233C614.715 40.8674 614.793 40.6336 614.871 40.4154C614.995 40.1349 615.245 39.6205 615.307 39.4179C615.401 39.1841 615.385 39.1374 615.167 39.4179C615.058 39.5582 614.902 39.792 614.699 40.1193C614.621 40.2284 614.512 40.3687 614.388 40.5401C614.388 40.5401 614.356 40.5401 614.31 40.5401C606.844 40.5713 599.113 40.6025 591.289 40.6336C583.168 40.618 574.923 40.5869 566.724 40.5713C550.312 40.431 534.04 40.2907 519.093 40.166L507.668 40.6181C505.018 40.6181 502.742 40.4154 505.61 40.3219C493.952 40.1505 505.002 40.6181 499.407 40.7895C492.783 40.8207 490.647 40.5245 494.856 40.3843C474.297 40.7739 436.267 41.2259 414.602 40.7272L418.825 40.5869C401.945 40.3998 399.779 41.5221 384.13 41.1012L387.138 41.0233C350.526 40.8207 310.048 41.2415 282.118 40.5557C276.803 41.2103 245.879 40.2596 243.526 41.1792C222.609 40.7272 228.61 40.5557 199.151 40.2596C191.296 40.2128 187.43 40.8363 177.705 40.9298L177.471 40.4466L164.269 40.9454L157.24 40.3687L148.122 40.4934C151.753 40.5245 155.837 40.7116 155.291 40.8518C148.168 40.961 139.487 40.883 132.535 40.7427C129.059 40.6492 126.02 40.5713 123.838 40.5089C121.64 40.431 120.3 40.3375 120.206 40.2907L86.5087 40.696C87.2569 40.5089 92.8991 40.431 97.3568 40.3063C79.3702 40.7895 94.0837 39.8076 77.6089 40.244C79.8222 40.3531 76.4088 40.5245 76.0347 40.6336C67.8207 40.3375 49.117 40.3375 35.2764 40.4622L37.926 40.1349C34.8088 40.1349 31.6291 40.1349 28.4339 40.1193C26.8285 40.1193 25.2855 40.0881 23.4151 40.2284C21.6227 40.3687 19.8459 40.7739 18.1158 41.335C11.1798 43.6418 5.67786 49.3308 2.80996 56.0174C1.36043 59.3684 0.51877 63.0001 0.331734 66.6785C0.222629 68.58 0.284975 70.201 0.269388 71.9622C0.269388 73.6923 0.269388 75.4224 0.284975 77.1525C0.284975 84.0884 0.300561 91.0711 0.316147 98.085C0.472011 88.0162 1.04871 90.3385 1.09547 98.5681L0.581115 101.857C0.892843 107.172 0.768152 93.2688 1.15781 104.164C1.09547 114.638 0.581115 111.209 0.409665 105.192L0.581115 117.926C0.425252 118.675 0.34732 115.682 0.160284 114.903C0.472011 120.124 -0.354066 136.895 0.191456 144.439L0.0355928 145.156C0.129111 173.196 0.160284 185.93 0.238215 208.764C0.674634 209.216 0.581115 218.147 0.939602 224.958C0.799324 241.744 0.456424 260.386 0.487597 280.617C0.705806 294.832 0.86167 284.763 1.12664 291.169C0.721393 292.213 0.768152 312.413 0.472011 301.939C0.534356 326.223 0.549943 332.956 0.877256 363.661C1.03312 360.325 1.11105 356.585 1.25133 358.517C1.31367 364.082 1.07988 371.189 0.892843 370.394L0.846083 368.929C1.43837 403.391 -0.322894 448.482 0.51877 475.93L0.472011 474.386L0.908429 502.847C0.846083 515.94 0.612288 494.992 0.362906 504.686C1.03312 535.391 0.269388 553.191 0.705806 578.472C-0.478757 598.049 0.783738 647.925 0.0355928 674.344L0.316147 672.816C0.581115 679.643 0.160284 681.077 0.0979382 686.112C0.316147 685.395 0.34732 678.708 0.503184 682.948C0.51877 686.564 0.534356 690.195 0.549943 693.827C0.565529 695.666 0.51877 697.427 0.659047 699.407C0.768152 701.339 1.09547 703.272 1.57864 705.158C3.46459 712.686 8.57692 719.622 15.8557 723.129C17.6949 723.94 19.5965 724.641 21.6071 724.937C22.6046 725.155 23.6178 725.202 24.6153 725.249C25.6596 725.327 26.5012 725.28 27.4676 725.296C31.1927 725.296 34.9179 725.327 38.6586 725.342C46.1245 725.374 53.6215 725.42 61.1341 725.452C91.1535 725.639 121.375 725.826 151.021 725.997C172.701 726.075 163.334 724.563 190.672 725.218L182.91 725.732C226.677 725.109 272.407 725.748 315.254 725.233C312.698 725.358 312.62 725.514 308.443 725.498C312.963 725.685 321.333 725.685 328.58 725.607C332.212 725.561 335.563 725.498 338.01 725.436C340.457 725.374 342.016 725.28 342.063 725.202C348.734 725.233 343.606 725.483 347.72 725.639C356.792 725.857 370.508 725.155 375.324 725.529C376.15 725.592 372.768 725.654 371.116 725.685C377.038 725.498 398.672 725.732 393.014 725.296C409.1 725.498 423.782 725.109 436.61 725.358C444.979 724.875 464.135 725.592 466.8 724.906C465.647 725.607 494.996 725.467 505.158 725.14C501.761 725.358 513.996 725.358 510.006 725.654C521.602 725.654 532.247 725.514 530.221 725.155C551.606 725.997 573.193 724.47 585.225 725.561C619.687 725.187 651.592 724.922 682.594 724.766C681.471 725.467 648.319 724.828 649.644 725.576C679.055 725.28 696.029 724.688 725.191 724.859C732.75 724.953 720.905 725.171 718.349 725.28C747.729 724.984 775.161 725.342 801.315 724.968C801.284 725 800.551 725.031 799.507 725.062C798.462 725.093 797.091 725.124 795.75 725.155C800.91 725.14 807.736 725.265 807.16 724.937L802.141 725.031C793.911 724.563 822.606 724.064 823.525 723.815C814.781 724.735 849.352 724.049 835.464 725.202C838.862 725.14 843.117 724.984 842.338 724.781C847.372 724.844 848.962 724.968 843.866 725.218C862.32 725.046 855.758 724.703 872.482 724.719C872.42 724.875 869.053 724.937 867.323 725.109C875.786 724.812 884.297 724.501 898.433 724.641C897.576 724.735 899.228 724.859 895.004 724.859C919.272 724.812 936.371 724.049 963.008 724.345C955.152 725.015 972.063 724.563 973.482 725.155L987.806 724.984L982.054 724.703C994.601 724.703 1005.68 724.283 1016.47 724.485L1007.15 724.719L1030.65 724.61L1017.36 724.392C1030.04 724.096 1016 723.659 1032.69 723.815C1029.3 723.877 1045.24 723.815 1051.77 724.158H1051.73C1057.93 723.971 1064.32 723.784 1073.59 723.924C1076.01 724.111 1071.66 724.563 1073.22 724.688C1079.34 724.205 1102.58 724.547 1110.35 724.033C1107.76 724.158 1107.62 724.454 1108.48 724.516L1113.62 724.127C1119.43 724.251 1120.27 724.314 1119.34 724.563C1136.81 724.641 1113.79 723.831 1134.54 724.142C1132.91 724.173 1133.68 724.236 1130.3 724.298C1151.14 724.47 1170.54 724.049 1189.68 724.236C1195.32 724.828 1172.96 724.376 1179.42 724.875C1193.22 724.75 1207.51 724.625 1221.69 724.501C1228.79 724.438 1235.85 724.376 1242.8 724.329C1244.54 724.329 1246.27 724.314 1247.99 724.314H1250.58C1251.46 724.236 1252.35 724.236 1253.24 724.111C1256.76 723.644 1260.1 722.272 1262.94 720.324L1261.86 721.041L1260.72 721.648C1259.97 722.085 1259.18 722.397 1258.38 722.708C1259.97 721.664 1264.76 719.513 1268.67 714.416C1270.6 711.907 1272.29 708.774 1273.25 705.33C1273.46 704.457 1273.69 703.584 1273.86 702.711C1273.99 701.823 1274.13 700.934 1274.22 700.046C1274.25 699.157 1274.28 698.253 1274.31 697.381C1274.3 696.523 1274.28 695.666 1274.25 694.824C1274.35 698.097 1274.63 699.235 1274.58 698.3C1274.78 679.955 1274.39 660.893 1274.16 633.165L1274.38 636.594C1274.56 625.808 1274.49 608.211 1274.58 596.568C1274.36 593.108 1274.41 586.452 1274.1 590.505C1275.31 554.609 1273.44 522.018 1274.45 490.175C1274.45 493.979 1274.64 499.247 1274.64 496.223L1274.44 469.087C1274.08 471.238 1274.22 472.641 1273.94 478.345C1273.72 474.916 1273.57 467.248 1273.57 460.53C1273.8 472.734 1274.14 460.421 1274.35 455.153C1274.24 456.041 1274.11 454.233 1274 454.67C1274.64 440.502 1273.29 452.301 1273.71 432.942L1273.89 433.971C1273.8 426.723 1273.55 420.052 1273.6 412.244C1274.02 409.002 1273.78 419.959 1274.13 420.458C1274.1 409.485 1273.33 398.808 1273.75 388.88C1273.82 393.54 1273.92 400.242 1273.99 404.902C1274.47 394.086 1274.35 392.839 1274.42 384.812V385.607L1274.63 367.028L1274.49 371.75C1273.39 358.019 1274.28 343.804 1273.58 325.303C1274.25 343.274 1273.97 328.28 1274.44 329.651C1274.56 324.929 1274.72 317.759 1274.84 319.801C1274.47 311.057 1275.14 305.212 1274.59 292.883C1274.75 292.338 1274.59 283.531 1274.98 285.511C1274.86 274.148 1274.72 288.192 1274.53 287.241C1274.02 269.722 1275.16 246.077 1274.45 220.874C1274.16 199.147 1273.64 195.126 1273.39 174.972C1273.64 168.161 1273.96 180.537 1273.96 180.537C1274.17 169.564 1274.14 161.303 1273.96 150.954C1274.1 153.042 1274.2 150.892 1274.38 147.743C1274.33 139.436 1273.82 142.194 1274.05 131.237C1274.22 133.123 1274.49 135.523 1274.66 139.529C1274.47 129.741 1274.28 120.077 1274.1 109.962C1274.36 107.281 1274.5 116.072 1274.67 119.641C1274.55 108.263 1274.44 90.1515 1274.02 86.629L1273.86 93.9234C1273.85 89.7774 1274.22 91.7881 1274.3 94.843C1274.63 104.6 1274.16 108.917 1274 109.463L1273.91 102.247C1273.02 109.65 1274.05 131.222 1274 145.732L1273.35 139.685L1273.89 154.57C1273.72 157.734 1273.36 159.9 1273.27 152.731C1272.94 163.142 1273.5 161.942 1273.15 170.889C1273.08 171.871 1273.05 171.434 1273.04 170.515L1273.22 180.693C1273.08 178.698 1272.77 182.392 1272.86 176.141C1272.49 194.393 1273.35 205.584 1272.86 212.442L1272.82 210.915C1273.04 236.242 1273.3 213.362 1273.85 232.361L1272.68 245.142L1273.16 247.636C1273.15 250.255 1273.11 255.414 1272.91 254.463C1273.24 264.189 1273.11 252.811 1273.43 258.453C1272.99 271.031 1273.63 293.133 1272.86 295.969C1273.22 300.489 1273.15 283.937 1273.39 297.372C1272.58 301.206 1273.53 312.896 1273.16 324.383C1272.74 320.861 1272.96 309.966 1272.58 321.469C1273.3 328.405 1272.43 343.835 1272.57 353.53C1272.85 353.764 1272.91 359.032 1272.93 366.264C1272.93 373.512 1272.9 382.723 1273 390.859C1272.82 389.83 1272.69 421.455 1272.49 436.59L1272.4 436.138C1272.97 439.068 1272.86 454.67 1272.97 466.032C1272.63 465.58 1272.49 463.538 1272.35 457.382V468.058C1272.54 470.583 1272.63 473.903 1272.69 480.839L1272.27 478.158C1272.3 492.373 1272.77 506.79 1272.49 525.073C1272.9 526.102 1273.6 510.531 1273.86 529.874C1273.64 530.591 1273.27 531.308 1273.19 526.242C1273.22 527.894 1273.36 532.149 1273.29 535.501L1272.93 527.77C1272.77 536.093 1273.22 532.118 1273.19 538.789C1272.88 538.665 1272.97 543.715 1272.72 542.764C1272.69 541.065 1272.85 536.95 1272.72 534.409C1272.66 541.922 1272.49 550.993 1272.26 554.002C1272.43 553.347 1272.68 554.002 1272.71 559.504C1272.72 573.718 1272.33 564.367 1272.18 572.658C1272.4 576.103 1272.18 585.174 1272.63 585.408C1272.63 589.57 1272.41 590.333 1272.29 591.939C1272.49 599.296 1272.35 626.307 1272.83 618.015L1272.86 616.129C1272.86 616.487 1272.86 616.893 1272.88 617.329C1273.33 641.441 1272.62 667.424 1272.82 691.349L1272.66 691.317C1272.65 694.902 1272.94 698.69 1272.33 702.321C1271.77 706 1270.34 709.553 1268.39 712.593C1266.43 715.648 1263.89 718.157 1261.17 719.887C1258.46 721.617 1255.63 722.599 1253.15 722.973C1251.11 723.223 1248.61 723.098 1246.87 723.004C1245.12 722.911 1244.14 722.802 1245.04 722.708C1234.12 722.817 1232.9 723.005 1217.13 722.74C1228.1 722.475 1213.34 722.506 1228.38 722.537C1214.2 722.397 1210.99 722.163 1195.74 722.584C1200.93 722.194 1185.07 722.085 1178.32 722.21L1188.26 722.49C1180.69 722.552 1174.05 722.506 1167.31 722.49L1170.96 721.976C1141.92 721.352 1118.61 723.051 1096.5 721.991C1088.82 722.35 1112.28 722.241 1105.4 722.677C1092.05 722.615 1078.14 721.867 1073.95 721.867C1055.65 721.586 1056.88 722.63 1037.74 722.428C1040.19 722.615 1042.5 723.114 1028.21 723.285C1014.83 723.223 1011.78 722.506 1020.21 722.365C1023.42 722.35 1024.96 722.412 1024.82 722.475C1029.14 722.412 1034.81 722.334 1029.51 722.132L1027.78 722.319C1021.16 722.132 1002.77 722.147 1007.09 721.851C996.986 722.023 1002.77 722.147 1010.25 722.256C993.105 721.991 983.473 722.256 965.829 722.069C968.634 722.178 971.222 722.381 968.432 722.381C942.558 722.147 957.038 722.74 939.503 722.817C929.544 722.537 943.073 722.147 925.429 722.381C914.643 722.194 923.153 721.898 927.424 721.742C911.339 722.1 897.373 721.508 888.193 721.446L896.657 721.29C891.591 721.383 887.445 721.383 883.221 721.368L888.053 721.742C885.559 721.711 883.268 721.68 881.6 721.664C879.932 721.633 878.904 721.602 878.95 721.524C873.823 721.773 882.878 722.132 872.7 722.475C866.076 722.288 852.516 722.677 850.225 722.178C871.079 722.35 847.918 721.68 865.577 721.602C862.18 721.664 858.018 721.664 853.03 721.602C852.282 721.539 853.732 721.493 855.103 721.477C835.153 721.041 845.938 722.038 825.255 722.023C827.889 721.742 820.455 721.493 817.088 721.555C825.427 721.555 821.078 722.022 813.425 722.225C800.161 722.007 799.008 722.381 792.072 722.365L800.005 722.459C797.325 722.74 790.685 722.693 781.442 722.786C780.647 722.568 789.843 722.63 786.539 722.537C776.267 723.02 763.346 722.038 749.038 722.365C742.414 722.178 748.399 721.851 742.57 721.711C726.531 722.069 725.207 721.337 708.342 721.633C713.205 722.007 714.047 721.914 702.186 722.272L729.898 722.007L712.114 722.552C720.484 722.552 729.758 722.319 734.777 722.381C726.298 722.677 727.17 722.599 731.176 722.895C719.736 722.334 708.482 723.223 695.25 722.849L695.655 721.929C675.767 721.524 660.32 722.397 634.494 722.163L642.802 722.319C639.341 722.677 626.857 722.365 618.487 722.521C619.266 722.21 614.045 722.1 610.46 721.913C610.896 722.147 591.554 721.898 589.216 722.506L577.682 722.1C556.827 721.929 553.881 722.973 533.837 722.88C539.869 722.552 530.767 722.334 544.202 722.085C540.851 722.085 537.672 722.085 535.318 722.085C532.964 722.085 531.437 722.132 531.375 722.241C527.462 722.054 512.811 722.662 506.655 722.365C503.833 722.506 502.914 722.818 495.401 722.802C494.575 722.74 495.432 722.646 495.432 722.646C495.401 722.802 483.665 722.849 490.242 723.192C469.621 722.225 432.619 723.254 414.664 722.443C400.06 722.521 382.462 722.599 369.199 722.662C370.056 722.568 369.245 722.506 371.755 722.537C353.456 722.256 360.517 723.425 339.694 723.098C329.064 722.599 350.744 722.833 344.12 722.646C341.237 721.633 318.995 722.786 304.983 722.194L308.381 722.132C297.673 721.789 282.258 722.521 264.77 722.443C264.77 722.443 265.627 722.35 264.879 722.287C252.909 722.802 230.262 722.973 213.444 723.114C218.681 722.724 221.097 722.911 217.886 722.506C210.342 722.568 220.099 723.145 205.043 723.269C200.149 723.051 189.285 722.864 187.836 722.428H202.035C194.756 721.851 183.643 722.428 176.161 722.334L177.112 722.085C155.338 722.163 155.042 722.771 131.647 722.74L134.063 722.927C121.282 723.534 123.339 722.584 110.59 723.036L106.724 722.428C98.292 722.584 77.1725 723.02 62.0381 723.145C70.6106 722.693 88.3167 722.459 99.2739 722.178C90.9041 722.178 70.86 722.225 66.4958 722.521C69.8625 722.459 74.1176 722.319 77.4375 722.412C67.1816 722.895 53.6838 723.129 37.022 723.129C37.7546 722.833 35.4166 722.662 31.2862 722.568C30.2575 722.552 29.1197 722.521 27.8884 722.506C26.6571 722.49 25.3011 722.506 24.023 722.381C21.4045 722.178 18.5678 721.383 15.9493 719.903C13.3152 718.438 10.9305 716.318 9.0601 713.84C7.17415 711.377 5.83372 708.572 5.02323 705.828C4.22832 703.085 3.86984 700.42 3.9166 698.113C3.93218 695.744 4.05687 693.655 4.16598 692.159C3.72956 662.685 4.35301 633.679 4.29067 599.342C3.35549 611.515 4.2595 589.32 3.30873 591.424C3.24638 583.429 3.26197 580.374 3.32431 579.657L3.90101 555.42C4.18156 549.669 4.10363 563.026 4.32184 562.294C4.39977 544.774 4.72709 554.952 4.97647 543.356C4.63357 545.725 4.49329 537.262 4.61798 527.287L4.18156 541.345C3.66721 516.875 4.97647 520.195 4.47771 495.522L4.77385 503.33C4.6024 490.674 4.77385 456.634 4.01011 444.211C4.11922 441.967 4.38419 439.021 4.44653 444.585C4.55564 414.332 3.63604 377.237 4.10363 353.717L4.33743 356.008C4.27508 350.366 3.90101 346.189 4.1348 339.112C4.22832 339.471 4.3686 341.388 4.38419 338.77C4.30625 335.777 3.97894 323.775 4.11922 316.294L4.38419 322.684C4.69591 293.179 3.74515 277.39 3.58928 252.639C3.93218 252.67 4.16598 246.888 4.32184 239.64C4.47771 232.393 4.55564 223.695 4.61798 217.897L4.7115 218.303C4.78943 183.935 4.15039 159.932 3.86984 128.104C4.24391 118.223 4.32184 101.498 4.35301 83.2623C4.35301 78.7111 4.3686 74.0508 4.38419 69.3905C4.27508 64.9172 5.25702 60.6309 7.12739 56.7655C8.09374 54.864 9.27831 53.1027 10.6343 51.5285C12.0527 50.0166 13.5646 48.6294 15.2479 47.5852C16.9468 46.5565 18.7081 45.6836 20.5472 45.2628C21.4357 44.9511 22.3864 44.9043 23.2749 44.7329C24.21 44.7017 25.0205 44.6237 26.0336 44.6393C23.7424 44.6393 23.9762 44.5458 25.3323 44.3276C26.813 44.1873 29.6653 44.0782 32.4708 44.0471C39.9211 44.1873 53.0604 43.5639 51.8914 44.2029H49.2417C54.8528 44.8108 70.1742 44.6393 82.129 44.6549L84.1084 43.8288C115.375 45.029 166.046 43.3924 183.113 44.4679C190.657 44.3432 200.009 44.1873 207.49 44.0626L207.085 44.4991C228.002 44.6082 238.429 44.6705 264.271 44.5614L259.003 44.8731C273.576 44.9043 277.41 43.595 290.861 43.5795L294.914 44.2341C320.351 44.2341 346.084 44.7952 371.225 44.2029C370.819 44.2964 370.071 44.4835 365.941 44.5146C377.911 44.5302 412.248 44.9666 407.899 44.0626C408.055 44.3588 414.602 44.3744 422.847 44.2808C431.092 44.1406 441.005 43.9691 447.878 43.86L445.743 44.2964C457.339 43.7353 457.713 43.5951 473.892 43.4392C477.726 43.5015 477.259 43.7821 472.162 43.673C484.943 43.9068 482.122 43.2677 497.63 43.4859L491.848 43.7665C505.002 43.7977 503.958 43.6574 511.19 43.3301C519.467 43.1586 536.144 43.4392 538.077 43.8288C539.854 43.5951 547.055 43.2677 554.801 43.3768C555.845 43.5327 553.024 43.6106 551.606 43.6574C573.598 43.9535 584.306 43.1586 599.44 43.5795C599.752 43.7197 600.734 43.7977 601.996 43.8444C584.524 43.8444 570.45 43.8133 571.774 43.7821C571.774 44.1873 585.896 44.2497 574.658 44.8108C579.848 44.6705 586.737 44.4835 594.001 44.2808C597.632 44.2185 601.342 44.1406 604.989 44.0626C606.813 44.0471 608.621 44.0315 610.382 44.0003C612.439 44.0003 614.466 44.0003 616.398 44.0003C617.193 42.6443 617.926 41.3818 618.643 40.166C619.017 39.6049 619.375 39.0594 619.671 38.6542L619.001 39.9167C620.622 37.1891 622.009 34.7108 623.287 32.3573C625.532 28.5854 626.981 26.2007 629.085 22.5535C629.584 21.9924 631.314 19.0933 633.387 15.5396C634.884 12.9211 636.66 9.83499 638.032 7.46587C638.126 7.63732 638.219 7.77759 638.281 7.90228C638.313 7.73083 638.406 7.74642 638.546 7.87111C638.624 7.93346 638.702 8.02698 638.78 8.12049C638.967 8.41663 639.17 8.69719 639.326 8.9154C639.653 9.39858 639.84 9.64796 639.715 9.32064C639.653 9.14919 639.497 8.83747 639.232 8.32312C639.17 8.21401 639.108 8.07374 639.045 7.94904C639.014 7.87111 638.967 7.79318 638.936 7.69966C638.843 7.51263 638.733 7.27883 638.624 7.02945C638.811 7.38793 638.578 7.02945 638.032 6.10985C637.814 6.49951 637.502 7.04503 637.128 7.69966C636.676 8.52574 636.131 9.49209 635.834 10.0376C635.897 9.91292 635.959 9.75706 636.037 9.6012C633.73 13.6069 630.722 18.8283 627.309 24.7667C629.896 19.8414 632.639 14.7135 636.738 8.10491C637.206 7.01386 637.705 5.86047 638.016 5.12791C638.468 5.76695 638.858 6.31248 639.185 6.78007C639.372 7.04503 639.544 7.29442 639.7 7.52821C639.902 7.82435 640.074 8.08932 640.245 8.3387C644.532 16.9891 653.525 33.2301 654.491 35.646C656.112 38.3892 657.796 41.2571 659.541 44.2185C669.875 44.1406 681.082 44.0471 691.213 43.9691C701.032 43.86 709.823 43.673 715.683 43.3145C721.793 43.2054 722.713 43.5483 724.988 43.673C721.466 43.7509 717.273 43.7353 715.356 43.86C727.576 43.6418 751.547 43.7821 754.462 43.2054C769.861 43.4704 745.812 43.7353 766.962 43.6418L764.11 43.8133C805.726 44.7329 831.77 42.3481 877.922 43.5327C874.727 43.4548 873.121 43.4236 872.466 43.3301C925.07 43.8444 980.87 42.8469 1032.79 43.673C1047.55 43.8444 1049.14 43.4704 1058.15 43.1898L1061.34 43.6574L1076.74 43.1119C1098.58 42.7066 1114.55 44.2653 1142.19 43.5171L1138.62 43.2054C1148.55 43.2677 1170.07 43.0184 1168.4 43.3768C1169.42 43.3145 1171.66 43.0495 1175.54 43.2054L1175.84 43.4548L1200.23 43.0339C1219.14 43.2054 1197.27 44.0159 1224.86 44.0626C1235.11 43.9691 1254.07 43.3457 1250.22 43.1742C1246.07 43.1742 1239.65 43.0184 1239.34 42.769L1248.72 42.6443C1250.42 41.9117 1257.64 41.1792 1234.62 40.6648L1218.58 41.1012L1213.4 40.7427H1226.9C1219.25 40.3843 1214.38 40.6804 1208.94 40.883C1207.65 40.696 1205.41 40.5713 1202.23 40.4934L1186.47 41.1792C1184.57 40.8986 1193.53 40.6181 1182.96 40.4622C1175.59 40.7895 1190.04 41.1012 1177.82 41.3039C1170.15 40.9765 1172.38 40.7116 1163.37 40.9921C1162.11 40.8051 1164.01 40.6804 1167.58 40.6025C1159.55 40.8207 1146.37 40.696 1142.22 41.0856C1134.22 40.6804 1115.15 41.1947 1115.94 40.5089C1113.42 40.6804 1101.82 41.0545 1094.45 41.0701C1107.9 40.244 1066.88 41.0233 1070.43 40.1349C1060.47 40.8674 1034.46 40.4622 1016.81 40.8674C1017.79 40.8051 1019.74 40.696 1021.29 40.7272C1011.36 40.6648 1008.47 40.4466 1002.1 40.3063C1000.82 40.9142 985.358 41.0545 977.02 41.4285C964.847 40.8363 984.408 40.7116 980.589 40.1505C981.197 40.6492 959.438 40.6492 963.584 41.0545C954.279 40.696 955.557 40.883 950.772 40.3687C949.136 41.1324 942.106 40.4934 934.391 40.961C920.924 40.5869 930.915 40.244 916.124 40.4778C909.079 40.244 922.249 39.979 922.249 39.979L922.203 39.8699ZM614.699 41.1947H614.762L617.972 35.5837L614.762 41.2103H614.699V41.1947ZM585.755 41.1947C589.356 41.1947 593.845 41.1947 598.583 41.2103C599.627 41.3662 598.505 41.5221 595.528 41.5065C597.149 41.413 590.166 41.3194 585.755 41.1947ZM633.496 14.8382C631.205 18.9218 630.348 20.2311 629.958 20.7454C631.049 18.8283 632.327 16.5839 634.011 13.6381C634.073 13.5134 634.182 13.264 634.245 13.1393C634.089 13.5601 633.902 14.0433 633.512 14.8538L633.496 14.8382Z" fill="#552C3C"/>
<path d="M637.034 7.54386C637.19 7.24772 637.284 7.07627 637.487 6.68661C637.362 6.87365 637.221 7.06068 637.097 7.24772L636.645 7.93352C636.395 8.44787 636.146 8.9778 635.928 9.42981C636.302 8.79077 636.676 8.13614 637.019 7.52827L637.034 7.54386Z" fill="#552C3C"/>
<path d="M1272.82 617.936V618.56C1272.82 618.046 1272.85 617.562 1272.86 617.251C1272.84 617.531 1272.83 617.76 1272.82 617.936Z" fill="#552C3C"/>
<path d="M177.44 40.3529L177.486 40.462L180.074 40.3685L177.44 40.3529Z" fill="#552C3C"/>
<path d="M1274.33 455.091C1274.36 454.779 1274.41 454.171 1274.44 452.955C1274.41 453.049 1274.38 453.969 1274.33 455.091Z" fill="#552C3C"/>
<path d="M1274.42 384.734L1274.58 374.79C1274.52 379.091 1274.47 382.224 1274.42 384.734Z" fill="#552C3C"/>
<path d="M1274.64 330.649C1274.56 329.963 1274.5 329.776 1274.45 329.589C1274.45 329.636 1274.45 329.667 1274.45 329.698L1274.64 330.649Z" fill="#552C3C"/>
<path d="M795.781 725.156C795.049 725.156 794.332 725.156 793.693 725.171C788.799 725.249 792.119 725.218 795.781 725.156Z" fill="#552C3C"/>
<path d="M1051.71 724.142C1049 724.204 1046.32 724.282 1043.48 724.345C1048.03 724.376 1051.57 724.391 1051.71 724.142Z" fill="#552C3C"/>
<path d="M509.99 725.686C509.99 725.686 509.99 725.686 510.021 725.686L508.26 725.685L509.99 725.686Z" fill="#552C3C"/>
<path d="M1031.59 724.329C1036.14 724.423 1039.96 724.392 1043.48 724.329C1039.74 724.298 1035.34 724.251 1031.59 724.329Z" fill="#552C3C"/>
<path d="M1274.84 96.2148V93.6118C1274.84 93.6118 1274.81 93.5027 1274.8 93.3001L1274.84 96.2148Z" fill="#552C3C"/>
<path d="M1274.78 93.2999L1274.73 90.4009C1274.73 91.7257 1274.73 92.8791 1274.78 93.2999Z" fill="#552C3C"/>
<path d="M1274.63 84.3068L1274.73 90.4009C1274.73 88.2967 1274.73 85.6939 1274.63 84.3068Z" fill="#552C3C"/>
<path d="M1274.64 167.818L1274.8 168.644C1274.77 168.192 1274.72 167.912 1274.64 167.818Z" fill="#552C3C"/>
<path d="M1274.69 189.577C1274.72 184.387 1275.03 176.562 1274.92 169.315L1274.8 168.644C1275.03 172.042 1274.42 184.652 1274.69 189.577Z" fill="#552C3C"/>
<path d="M1272.72 280.399L1272.85 262.163C1272.68 265.358 1272.46 269.535 1272.41 261.243C1271.91 284.233 1272.79 256.505 1272.72 280.383V280.399Z" fill="#552C3C"/>
<path d="M1272.47 336.93C1272.4 327.127 1272.23 337.039 1272.13 336.525C1272.29 342.744 1272.32 344.24 1272.47 336.93Z" fill="#552C3C"/>
<path d="M1240.93 722.474L1241.91 722.069C1234.35 722.131 1241.83 722.225 1240.93 722.474Z" fill="#552C3C"/>
<path d="M1162.82 724.532L1170.18 724.781L1173.67 724.423L1162.82 724.532Z" fill="#552C3C"/>
<path d="M1116.69 721.696L1119.99 721.649L1107.4 721.789L1116.69 721.696Z" fill="#552C3C"/>
<path d="M430.5 721.836L432.775 722.319C437.872 722.225 438.948 721.68 430.5 721.836Z" fill="#552C3C"/>
<path d="M134.265 722.334C131.039 722.085 122.7 721.929 117.572 722.179C124.228 722.21 130.868 722.397 134.265 722.334Z" fill="#552C3C"/>
<path d="M98.8842 44.2963L92.9146 44.4522L104.152 44.3275L98.8842 44.2963Z" fill="#552C3C"/>
</svg>
