<svg width="54" height="49" viewBox="0 0 54 49" fill="none" xmlns="http://www.w3.org/2000/svg">
<g id="Capa_2" clip-path="url(#clip0_28_92504)">
<path id="Vector" d="M50.5209 21.7101C50.285 16.6043 48.409 10.8677 44.0266 6.08469C43.2211 5.20628 41.511 4.32504 42.8273 3.01168C44.2236 1.61744 45.3946 3.37213 46.2568 4.19377C51.325 9.02005 52.5732 15.5052 53.0181 22.0046C54.5222 43.9655 29.7268 53.6656 14.637 46.8555C-3.47349 38.6816 -3.93964 17.0996 8.63161 5.23609C12.844 1.26054 18.4484 1.12147 23.8283 0.193398C34.3919 -1.63012 45.4648 9.84666 45.6929 19.3956C45.9033 28.2351 38.5773 39.5891 27.7984 40.1496C20.0495 40.5526 13.9548 38.6681 9.72969 31.9552C6.30438 26.5137 7.23315 20.8041 9.37122 15.3874C11.6538 9.60542 16.5158 7.21286 22.6382 7.35973C25.8516 7.43707 28.9978 7.80532 31.9563 9.2464C37.2986 11.849 39.448 16.0672 37.9426 21.8421C35.1506 32.5512 25.9983 35.1843 18.8969 31.2889C15.1648 29.2419 13.0112 23.787 13.8528 19.314C14.5619 15.545 17.6288 12.9062 22.2336 12.103C25.9303 11.458 30.1887 13.422 32.1943 16.483C33.9356 19.1402 33.3781 21.6463 31.7607 23.9331C30.12 26.2526 27.6029 27.3403 24.7904 27.0757C22.6311 26.8727 21.5025 25.0719 21.035 23.176C20.5001 21.0084 22.0381 19.5915 23.5627 18.359C24.0472 17.9673 24.7266 17.7261 25.3076 18.2902C25.8764 18.8422 25.5923 19.4765 25.377 20.0761C24.869 21.4866 22.5801 22.8639 25.0433 24.3574C26.6012 25.3018 28.1987 24.566 29.4604 23.4797C31.1692 22.0081 31.1763 20.1499 30.2022 18.2618C28.2646 14.5048 24.7252 13.4518 20.3662 15.286C16.8963 16.7462 15.1308 20.3223 16.5973 24.0027C17.7797 26.9692 19.5338 29.8237 23.1489 30.4289C27.5597 31.1669 31.2875 29.7882 33.7082 25.995C35.672 22.9178 37.1434 19.5688 35.0288 15.833C34.2643 14.4828 33.2739 13.3489 31.9237 12.677C27.6199 10.5342 23.0639 9.89775 18.3004 10.5938C14.2857 11.1806 12.5897 14.2941 11.4257 17.4636C7.31674 28.6544 16.6008 39.108 25.8091 37.8245C36.0454 36.3976 42.4001 30.9838 43.1128 20.6948C43.5201 14.8078 40.014 10.63 36.333 6.47494C31.7196 1.26764 25.8793 2.66472 20.2805 2.98188C3.13341 3.95395 -0.731124 25.3153 5.72842 35.9534C12.1391 46.5106 28.6082 49.6305 39.2893 43.1623C47.1374 38.4091 50.3339 31.7061 50.5202 21.7109L50.5209 21.7101Z" fill="#FF0200"/>
</g>
<defs>
<clipPath id="clip0_28_92504">
<rect width="53.0833" height="49" fill="white"/>
</clipPath>
</defs>
</svg>
