<svg width="109" height="33" viewBox="0 0 109 33" fill="none" xmlns="http://www.w3.org/2000/svg">
<path d="M78.5729 8.76581C78.6441 8.79003 78.6919 8.76084 78.7159 8.72357C78.6411 8.72086 78.5765 8.72161 78.5729 8.76581Z" />
<path d="M77.2841 7.57813C77.3122 7.60664 77.3359 7.62605 77.363 7.64661C77.3475 7.5921 77.3228 7.55342 77.2841 7.57813Z" />
<path d="M86.895 13.7901L86.7639 13.5184C86.6635 13.6357 86.8117 13.6899 86.895 13.7901Z" />
<path d="M90.6108 15.9692L90.674 16.0172C90.7251 15.9892 90.7809 15.9476 90.8413 15.9037L90.6108 15.9692Z" />
<path d="M92.7849 18.3173C92.9216 18.2161 93.0169 18.1917 93.086 18.2114C93.1362 18.1527 93.1888 18.0759 93.2438 17.9697C93.1966 17.9082 92.9194 18.2002 92.7849 18.3173Z" />
<path d="M88.7545 14.5016C88.7832 14.4508 88.8038 14.401 88.812 14.3659C88.7823 14.4088 88.7639 14.4518 88.7545 14.5016Z" />
<path d="M5.01515 20.9624C4.99716 20.9373 4.98474 20.9293 4.96899 20.9088C4.98121 20.9508 4.99581 20.9747 5.01515 20.9624Z" />
<path d="M0.921141 22.0017L0.946386 21.9497C0.89798 21.8916 0.849573 21.8335 0.795466 21.7811L0.921141 22.0017Z" />
<path d="M74.6594 5.88722C74.6594 5.88722 74.665 5.89292 74.6707 5.89862C74.7626 5.88443 74.7161 5.87622 74.6594 5.88722Z" />
<path d="M46.9312 1.11305C47.2568 1.45845 46.425 1.59982 46.9137 1.97792C46.8647 1.82119 47.3347 1.32967 46.9312 1.11305Z" />
<path d="M67.8857 3.98268C67.895 3.94419 67.8942 3.8909 67.8664 3.79438C67.8603 3.86803 67.8713 3.92478 67.8857 3.98268Z" />
<path d="M72.6748 6.01163L72.571 5.91579C72.6059 5.96928 72.642 5.9967 72.6748 6.01163Z" />
<path d="M65.0266 3.59408C64.9985 3.56558 64.9691 3.54047 64.8976 3.56159C64.9009 3.58541 64.9076 3.59906 64.9132 3.61609C64.9474 3.58228 64.9826 3.56775 65.0266 3.59408Z" />
<path d="M62.3092 3.02267C62.317 3.05559 62.3338 3.08404 62.3427 3.11356C62.3733 3.11261 62.4039 3.11165 62.4346 3.1107L62.3092 3.02267Z" />
<path d="M11.4628 15.8273C11.3509 15.7666 11.2505 15.6833 11.1592 15.5954C11.3552 15.8097 11.0802 16.1176 11.4628 15.8273Z" />
<path d="M64.199 6.69769L63.7987 6.52756C63.9037 6.59733 64.0508 6.65488 64.199 6.69769Z" />
<path d="M29.0053 7.42442L28.9233 7.49876C28.9618 7.49672 28.9926 7.47309 29.0053 7.42442Z" />
<path d="M62.5359 6.32177C62.4903 6.1662 62.4286 6.06948 62.3575 5.99991C62.3336 6.02584 62.3074 6.04723 62.2856 6.08904L62.5325 6.32062L62.5359 6.32177Z" />
<path d="M72.469 6.11585C72.4291 6.14396 72.3939 6.15849 72.3598 6.16963C72.4325 6.15645 72.5048 6.18861 72.469 6.11585Z" />
<path d="M14.7605 10.4244C14.7468 10.4425 14.7478 10.4618 14.7273 10.4775C14.7669 10.4948 14.8076 10.5086 14.8427 10.5168C14.835 10.4725 14.8285 10.4248 14.8231 10.3851C14.8037 10.3975 14.7832 10.4132 14.7639 10.4256L14.7605 10.4244Z" />
<path d="M86.9465 13.8947C86.9509 13.9152 86.9508 13.9378 86.9461 13.9628C86.9462 13.9401 86.9576 13.9288 86.9555 13.9129L86.9465 13.8947Z" />
<path d="M28.2034 7.87884L28.1723 7.78117L28.132 7.88863L28.2034 7.87884Z" />
<path d="M89.849 17.6981C89.8375 17.7321 89.8248 17.7694 89.8325 17.8137C89.8473 17.7922 89.8476 17.7469 89.849 17.6981Z" />
<path d="M91.3278 18.9617L91.4451 19.2515C91.4052 19.113 91.3637 19.0232 91.3278 18.9617Z" />
<path d="M92.3392 20.0854C92.3984 20.045 92.4383 20.0055 92.4725 19.9717C92.4725 19.9717 92.4725 19.9717 92.4737 19.9683L92.3392 20.0854Z" />
<path d="M71.8299 8.57551C71.8096 8.56859 71.7903 8.56961 71.7698 8.57403C71.6166 8.60147 71.7141 8.60431 71.8299 8.57551Z" />
<path d="M78.6725 10.5224C78.5703 10.5558 78.4726 10.587 78.3842 10.591C78.4846 10.6743 78.5693 10.7259 78.6725 10.5224Z" />
<path d="M64.2454 6.71723C64.2454 6.71723 64.2454 6.71723 64.2477 6.71044C64.2307 6.70468 64.2172 6.70006 64.2036 6.69545L64.2477 6.71044L64.2454 6.71723Z" />
<path d="M78.0915 10.4385C78.1689 10.5671 78.2719 10.5983 78.3842 10.591C78.3018 10.5214 78.2117 10.4301 78.0915 10.4385Z" />
<path d="M93.7083 18.2184C93.4793 18.2125 93.426 18.2134 93.4972 18.4496C93.7572 18.5758 93.6399 18.2747 93.7083 18.2184Z" />
<path d="M84.0719 11.7138L84.2834 11.4146C84.0729 11.3431 84.2078 11.5366 84.0719 11.7138Z" />
<path d="M81.2951 12.5761L81.5414 12.3304L81.2266 12.2764L81.2951 12.5761Z" />
<path d="M81.4409 9.35057L81.0626 9.29394L81.3344 9.35221L81.4409 9.35057Z" />
<path d="M62.8764 2.78L62.8465 3.23555C63.0066 3.18774 63.1433 2.69654 62.8764 2.78Z" />
<path d="M54.4536 1.96202C54.3825 1.72581 54.1567 1.55444 53.9922 1.77113C54.1802 1.80851 54.3513 2.00677 54.4536 1.96202Z" />
<path d="M29.3668 3.57555L29.0924 3.79273L29.2433 3.77208L29.3668 3.57555Z" />
<path d="M108.611 18.2173L108.643 18.3456L108.714 18.2485C108.717 18.2077 108.66 18.1621 108.61 18.2207L108.611 18.2173Z" />
<path d="M108.226 18.4497C108.188 18.4484 108.192 18.4042 108.179 18.3848C108.146 18.4833 108.127 18.6283 108.239 18.6777C108.239 18.5337 108.284 18.5566 108.275 18.3945C108.325 18.3358 108.402 18.3431 108.417 18.3862C108.42 18.3454 108.525 18.3359 108.512 18.2519C108.38 18.2409 108.28 18.3129 108.224 18.4531L108.226 18.4497Z" />
<path d="M102.271 22.7794L102.153 22.8263C102.171 22.8627 102.219 22.8108 102.271 22.7794Z" />
<path d="M103.824 21.4406C103.824 21.4406 103.821 21.4054 103.818 21.3816L103.791 21.4596L103.825 21.4372L103.824 21.4406Z" />
<path d="M105.056 20.5454C105.056 20.5454 105.028 20.5169 105 20.4997C104.971 20.5166 105.021 20.6053 105.04 20.6496C105.028 20.6042 105.039 20.5736 105.055 20.5488L105.056 20.5454Z" />
<path d="M96.4414 32.1681C96.4615 32.209 96.2297 32.3119 96.4107 32.381C96.2661 32.2827 96.6606 32.2804 96.4414 32.1681Z" />
<path d="M92.2772 30.484C92.2772 30.484 92.2954 30.4637 92.3068 30.4524L92.2443 30.4804C92.2443 30.4804 92.267 30.4805 92.2749 30.4794L92.2772 30.484Z" />
<path d="M101.918 22.9507C101.936 22.9304 101.959 22.9079 101.986 22.8831L101.918 22.9507Z" />
<path d="M101.918 22.8601L101.91 22.8611L101.908 22.8679C101.916 22.8555 101.927 22.8442 101.94 22.8296C101.938 22.8364 101.928 22.8408 101.922 22.8499L101.918 22.8601Z" />
<path d="M102.046 22.9526C101.987 22.9931 101.975 23.0044 101.922 23.0505C101.955 23.0314 102.009 22.9819 102.046 22.9526Z" />
<path d="M99.2163 30.0859C99.2163 30.0859 99.2482 30.0589 99.2687 30.0318C99.2551 30.0386 99.2414 30.0453 99.2256 30.0474C99.2221 30.0576 99.2175 30.0712 99.214 30.0814L99.2163 30.0859Z" />
<path d="M99.1893 30.054C99.1893 30.054 99.1552 30.0538 99.1326 30.0537C99.1597 30.0629 99.1756 30.0608 99.1893 30.054Z" />
<path d="M99.1893 30.054C99.1893 30.054 99.2131 30.0508 99.2222 30.0463C99.2314 30.0191 99.2338 29.9897 99.2328 29.9704C99.2167 30.0179 99.2074 30.0451 99.1904 30.0506L99.1893 30.054Z" />
<path d="M92.3759 20.9914C92.3759 20.9914 92.3588 21.0083 92.3667 21.0072L92.369 21.0005C92.369 21.0005 92.3861 20.9836 92.3725 20.9903L92.3759 20.9914Z" />
<path d="M100.029 29.1883C100.029 29.1883 100.032 29.2235 100.03 29.2416L100.116 29.2104C100.093 29.1876 100.067 29.1749 100.029 29.1883Z" />
<path d="M100.106 29.1389C100.061 29.1613 100.016 29.169 99.9903 29.1677L99.9917 29.119L99.7667 29.2015C99.7598 29.2219 99.7597 29.2446 99.7562 29.2661L100.106 29.1389Z" />
<path d="M87.0026 29.6607C87.0026 29.6607 87.0184 29.6698 87.0241 29.6755L87.0078 29.5451C87.0078 29.5451 86.9942 29.5404 86.9875 29.5381L87.0015 29.6641L87.0026 29.6607Z" />
<path d="M99.6092 29.7765C99.6092 29.7765 99.6036 29.7595 99.6014 29.7549C99.6025 29.7628 99.6047 29.7674 99.6092 29.7765Z" />
<path d="M87.0473 29.7743C87.0578 29.7211 87.0444 29.6938 87.0207 29.6744L87.0293 29.7492L87.0473 29.7743Z" />
<path d="M88.0581 29.6521C88.0229 29.6553 87.9493 29.6492 87.9837 29.7707C87.9984 29.7719 88.0177 29.7709 88.0223 29.7687C88.0223 29.7687 88.0347 29.7653 88.0314 29.7642L88.0729 29.642C88.0867 29.6013 88.1005 29.5719 88.1154 29.5391C88.1073 29.5628 88.097 29.5934 88.0774 29.6398C88.0717 29.6454 88.0751 29.6465 88.0626 29.6499L88.0581 29.6521Z" />
<path d="M88.1258 29.5085C88.1258 29.5085 88.1189 29.5289 88.1109 29.5413C88.1143 29.5311 88.119 29.5176 88.1258 29.5085Z" />
<path d="M85.7092 27.1387C85.7092 27.1387 85.7058 27.1262 85.7014 27.1171C85.7024 27.125 85.7047 27.1296 85.7092 27.1387Z" />
<path d="M85.6443 26.9841C85.6443 26.9841 85.6488 26.9932 85.651 26.9977C85.651 26.9977 85.6466 26.9887 85.6443 26.9841Z" />
<path d="M99.7007 29.6297L99.7326 29.6026L99.6026 29.5395L99.6814 29.642C99.6814 29.642 99.6916 29.6341 99.7007 29.6297Z" />
<path d="M94.2131 29.5782L94.1387 29.5075C94.1387 29.5075 94.1091 29.5277 94.0965 29.5424L94.1597 29.6017C94.18 29.6086 94.1994 29.5963 94.2131 29.5782Z" />
<path d="M85.7103 27.1466C85.7103 27.1466 85.7114 27.1432 85.7092 27.1387C85.7137 27.1478 85.7147 27.1557 85.7158 27.1636C85.717 27.1602 85.7113 27.1545 85.7136 27.1478L85.7103 27.1466Z" />
<path d="M85.6958 27.1C85.6958 27.1 85.7025 27.1137 85.7036 27.1216C85.7048 27.1182 85.7003 27.1091 85.698 27.1046L85.6958 27.1Z" />
<path d="M101.715 25.9412C101.727 25.9186 101.739 25.8926 101.753 25.8632C101.776 25.7954 101.805 25.7105 101.81 25.5949C101.823 25.5916 101.835 25.5883 101.84 25.586L101.848 25.5623C101.858 25.5317 101.869 25.5012 101.878 25.474C101.879 25.516 101.88 25.5579 101.883 25.5931C101.884 25.601 101.886 25.6169 101.886 25.6169L101.902 25.592C101.911 25.5762 101.924 25.5616 101.936 25.5469C101.981 25.4939 102.034 25.4704 102.101 25.5082C102.038 25.3922 101.992 25.282 101.939 25.1501L101.913 25.1375L101.889 25.1294L101.581 25.1231C101.669 25.0851 101.727 25.048 101.76 25.0176L101.805 24.9759L101.821 24.9511C101.821 24.9511 101.823 24.9443 101.821 24.9397L101.917 24.946C101.958 24.8272 101.975 24.6969 101.966 24.5801C101.987 24.6289 102.018 24.738 101.976 24.8069C102.066 24.5761 102.094 24.404 102.13 24.3101C102.142 24.2728 102.156 24.2434 102.171 24.2219L102.265 24.1896C102.279 24.1489 102.292 24.1115 102.344 24.0801L102.398 24.1326C102.398 24.1326 102.385 24.1053 102.353 24.0756C102.371 24.0666 102.397 24.0566 102.426 24.0511C102.39 24.0577 102.366 24.0609 102.342 24.0642C102.308 24.03 102.258 23.9866 102.211 23.9478C102.263 23.939 102.306 23.9461 102.339 23.9497L102.336 23.9825C102.336 23.9825 102.342 23.9622 102.344 23.9474C102.347 23.9486 102.354 23.9509 102.354 23.9509C102.367 23.9555 102.379 23.9556 102.405 23.9569C102.407 23.9501 102.414 23.9297 102.417 23.9003C102.424 23.8992 102.427 23.8924 102.421 23.8867C102.423 23.8799 102.426 23.8731 102.425 23.8652C102.475 23.8519 102.488 23.9358 102.481 24.0435L102.499 23.8146C102.481 23.8009 102.457 23.7928 102.432 23.7881C102.433 23.7507 102.433 23.7167 102.431 23.6782C102.455 23.6862 102.479 23.6943 102.506 23.7035L102.499 23.8146C102.522 23.834 102.538 23.8658 102.54 23.9157L102.557 23.7208C102.557 23.7208 102.577 23.7278 102.588 23.7312C102.577 23.7278 102.567 23.7243 102.557 23.7208L102.577 23.4851C102.577 23.4851 102.577 23.4851 102.58 23.4863C102.605 23.5783 102.623 23.6827 102.621 23.7881C102.622 23.8641 102.61 23.9433 102.604 23.983C102.599 24.0192 102.602 24.0124 102.602 24.0124C102.61 23.9887 102.616 23.9604 102.619 23.9389C102.626 23.8958 102.632 23.8562 102.638 23.8165C102.646 23.7361 102.643 23.6669 102.638 23.6045C102.634 23.5501 102.625 23.5092 102.62 23.4695C102.654 23.4697 102.684 23.4688 102.707 23.4689C102.714 23.4712 102.678 23.4665 102.619 23.4616C102.615 23.4378 102.61 23.4207 102.604 23.4037C102.633 23.3982 102.659 23.3881 102.685 23.3668C102.682 23.3543 102.677 23.3452 102.674 23.344C102.71 23.3488 102.579 23.3344 102.499 23.3226L102.243 23.2848C102.182 23.2754 102.131 23.2694 102.081 23.2601C102.086 23.2465 102.086 23.2351 102.085 23.2272C102.178 23.1983 102.263 23.1704 102.268 23.1455C102.251 23.1397 102.188 23.1564 102.121 23.1753L102.17 23.154L102.179 23.1495L102.039 23.1736L102.062 23.1931C102.03 23.2008 101.999 23.2131 101.969 23.222C101.963 23.2083 101.958 23.1992 101.951 23.1856L102.04 23.1703L101.955 23.0961C101.955 23.0961 101.979 23.0815 101.983 23.0826C102.09 23.0016 102.025 23.0477 101.955 23.0961L101.945 23.0926C101.945 23.0926 101.935 23.0778 101.929 23.0721C101.929 23.0721 101.926 23.071 101.923 23.0698C101.949 23.0484 101.97 23.0293 102.007 23C102.006 23.0034 101.966 23.0315 101.923 23.0698C101.914 23.0629 101.906 23.0527 101.893 23.0447C101.893 23.0447 101.893 23.0447 101.89 23.0435C101.891 23.0401 101.892 23.0368 101.897 23.0345L101.93 23.0041C101.914 23.0176 101.901 23.0323 101.89 23.0435C101.886 23.0424 101.883 23.0412 101.881 23.0367C101.902 23.0175 101.92 23.0006 101.938 22.9803L101.931 22.978C101.908 23.0006 101.892 23.0141 101.875 23.031L101.953 22.9475C101.953 22.9475 101.9 22.9903 101.872 23.0185C101.872 23.0185 101.872 23.0185 101.871 23.0106C101.871 23.0106 101.869 23.006 101.866 23.0015L101.881 22.9573L101.916 22.9235L101.886 22.9551C101.895 22.9393 101.908 22.9246 101.92 22.9099C101.912 22.9224 101.901 22.9336 101.893 22.9461C101.893 22.9461 101.905 22.9314 101.906 22.928C101.904 22.9348 101.9 22.937 101.894 22.9427L101.897 22.9325C101.897 22.9325 101.912 22.911 101.919 22.902C101.919 22.902 101.92 22.8986 101.921 22.8952C101.914 22.9042 101.909 22.9099 101.903 22.9155L101.907 22.9053C101.907 22.9053 101.926 22.8816 101.933 22.8726C101.925 22.885 101.919 22.8907 101.913 22.8963L101.941 22.8375L102.083 22.7193L102.512 22.6493C102.512 22.6493 102.511 22.6187 102.507 22.5982C102.478 22.6151 102.451 22.6285 102.422 22.6374L102.375 22.6519L102.354 22.6597L102.341 22.663L102.338 22.6619L102.098 22.7092L102.22 22.6068C102.22 22.6068 102.254 22.6183 102.281 22.6162C102.274 22.6025 102.269 22.5855 102.262 22.5719L102.331 22.5156L102.254 22.4403C102.254 22.4403 102.236 22.4266 102.228 22.4163C102.229 22.413 102.233 22.4141 102.238 22.4085L102.185 22.3639C102.162 22.2992 102.135 22.2333 102.11 22.1606C102.08 22.0822 102.049 21.9959 102.011 21.9072C102.036 21.8892 102.057 21.8735 102.058 21.8587L102.118 21.7582C102.147 21.8094 102.167 21.8616 102.181 21.8969C102.206 21.9582 102.219 21.9968 102.238 21.9958C102.255 21.9903 102.283 21.9541 102.298 21.8193C102.332 22.0542 102.297 22.2127 102.271 22.3441C102.461 22.1774 102.455 22.2397 102.453 22.3111C102.45 22.3746 102.452 22.4471 102.655 22.2964C102.667 22.1151 102.652 21.9053 102.567 21.6871C102.575 21.686 102.57 21.6883 102.571 21.6849C102.571 21.6849 102.576 21.6713 102.578 21.6645C102.568 21.6611 102.565 21.6599 102.554 21.6565C102.524 21.5894 102.491 21.5212 102.449 21.454C102.479 21.4338 102.506 21.409 102.53 21.3831C102.557 21.4037 102.545 21.4376 102.595 21.447C102.618 21.4131 102.639 21.3747 102.655 21.3272C102.686 21.2355 102.686 21.1142 102.634 20.9643C102.555 20.8538 102.434 20.7862 102.345 20.6916C102.301 20.6426 102.259 20.5868 102.235 20.5141C102.22 20.4789 102.209 20.4335 102.202 20.3858C102.195 20.3416 102.196 20.3042 102.204 20.2577C102.303 20.2685 102.402 20.268 102.505 20.2992C102.471 20.163 102.434 20.1276 102.396 20.107C102.355 20.0818 102.311 20.0781 102.268 20.0711C102.184 20.0615 102.114 20.0112 102.217 19.9631C102.319 19.9977 102.309 20.0396 102.339 20.0273C102.445 19.9837 102.41 20.0096 102.341 19.9899C102.281 19.9771 102.183 19.9515 102.198 19.9074C102.261 19.9248 102.318 19.9444 102.379 19.9652L102.182 19.8903C102.182 19.8903 102.197 19.8768 102.207 19.8723L101.932 19.7676L102.432 19.8657C102.473 19.2096 102.183 18.6943 102.097 18.2676C102.171 18.285 102.257 18.3524 102.318 18.2405C102.267 18.0906 102.245 17.9431 102.253 17.8207C102.255 17.7912 102.26 17.755 102.266 17.7153C102.266 17.7153 102.293 17.5466 102.274 17.3889C102.262 17.3015 102.243 17.1926 102.187 17.0789C102.109 16.9277 102.128 16.972 102.123 16.955C102.116 16.9413 102.113 16.9288 102.109 16.9163L102.152 16.8928C102.148 16.8576 102.143 16.8292 102.172 16.7977C102.185 16.783 102.204 16.7707 102.219 16.7605C102.229 16.7527 102.235 16.7584 102.244 16.7426C102.249 16.729 102.254 16.7347 102.259 16.7098L102.285 16.6124C102.259 16.5091 102.223 16.3831 102.165 16.2614L102.847 16.4173L102.519 15.8554L102.716 15.7443L102.662 15.7145L102.792 15.611L102.553 15.4883L103.2 14.9774L103.586 14.889L103.382 14.8311L103.476 14.7568L102.24 14.5036L102.054 14.4515L102.042 14.4627C101.95 14.4429 101.86 14.4197 101.771 14.3931L101.777 14.3728L101.629 14.33L101.625 14.3209L101.786 14.349L102.809 11.1717L101.138 13.368L101.075 11.2602L99.9202 13.8438L99.42 13.7003L99.6882 14.3594L99.4619 14.8693C99.4171 14.9677 99.3505 15.1192 99.3637 15.3812C99.37 15.4628 99.3899 15.5491 99.4155 15.6297L99.3881 15.6659L98.0248 15.1874L98.5707 16.4444C98.5263 16.4748 98.4853 16.5063 98.467 16.5266C98.4397 16.5513 98.4055 16.5852 98.3827 16.6077L98.337 16.6641C98.2776 16.7386 98.2638 16.768 98.2535 16.7872C98.2444 16.803 98.2501 16.7974 98.2489 16.8008L98.3991 16.9048C98.3957 16.9036 98.3889 16.9013 98.3855 16.9002L98.3243 16.8908C98.2915 16.8872 98.2586 16.8836 98.2212 16.8822C98.1657 16.8785 98.1135 16.8873 98.0591 16.8915C98.0659 16.8824 98.0728 16.8734 98.083 16.8655C98.1594 16.7855 98.2221 16.7349 98.2801 16.6978C98.2221 16.7349 98.1176 16.7751 97.983 16.9035L97.9342 16.9134L97.9093 16.9201C97.8434 16.9356 97.7559 16.9702 97.7423 16.9769C97.6764 17.0037 97.6502 17.0251 97.624 17.0465C97.5978 17.0679 97.5795 17.0882 97.568 17.1108C97.5532 17.1209 97.5351 17.1299 97.5191 17.1434L97.4966 17.1206C97.4021 17.1756 97.3362 17.2137 97.2861 17.2497C97.2656 17.2655 97.2428 17.2767 97.2269 17.2902L97.2109 17.3037L97.2098 17.3071L97.259 17.4185L97.5034 17.5015L97.3115 17.743L97.0669 17.5046L96.8956 17.719L96.7975 17.6289C96.7645 17.6593 96.7314 17.6897 96.6904 17.7212L95.8164 18.4994L96.0057 18.4994C96.0057 18.4994 95.9783 18.5242 95.9612 18.5411C95.9442 18.5467 95.9271 18.5522 95.9056 18.56L95.9133 18.593C95.8939 18.6167 95.8722 18.6358 95.8505 18.6663L95.6608 18.9236L95.5627 18.8335C95.5627 18.8335 95.5536 18.8493 95.5342 18.873C95.5101 18.9103 95.4372 18.9802 95.3762 19.1374C95.3625 19.1554 95.3487 19.1735 95.3316 19.2017C95.3429 19.2018 95.3475 19.1996 95.3599 19.1962C95.3484 19.2302 95.338 19.2607 95.3287 19.2992C95.3206 19.3343 95.3272 19.3706 95.3224 19.4069C95.3156 19.4159 95.3053 19.4238 95.2985 19.4328L95.2805 19.4077L95.2724 19.4315C95.2949 19.4543 95.2713 19.4349 95.2701 19.4383C95.2633 19.436 95.2689 19.4417 95.2678 19.4451L95.2643 19.4553C95.2643 19.4553 95.262 19.4734 95.2551 19.4824C95.2335 19.5016 95.1846 19.5228 95.1153 19.5485C95.1062 19.553 95.0937 19.5563 95.0812 19.5596C95.0812 19.5596 95.0744 19.5573 95.0721 19.5641C94.9903 19.5931 94.8802 19.6276 94.7506 19.6858L94.9371 18.814L94.0777 19.7941C94.0702 19.7158 94.098 19.623 94.1803 19.5033C93.8653 19.6727 94.2674 19.9154 93.8291 19.8459C94.2421 19.2101 93.4119 19.6587 93.3931 19.1904C93.7209 18.961 93.8232 19.3176 93.7987 18.8436C93.2229 19.212 93.4107 18.3255 93.1175 18.241C92.7729 18.6312 92.5259 18.021 92.0655 17.8608C92.2068 17.7346 91.5643 17.1073 91.3366 16.6968L91.3993 16.6348C91.0106 16.9987 90.719 16.6535 90.3999 16.545C90.5997 16.3025 90.7203 16.2374 90.9459 16.2308L90.7055 16.0469C90.5463 16.1366 90.417 16.1495 90.2247 16.0803L90.5198 15.8134C90.1799 15.5881 89.6024 15.6833 89.3367 15.1728C89.1003 15.4559 89.072 16.23 88.4831 16.1246C88.5828 15.954 88.7647 15.6637 88.929 15.6816C88.8746 15.6745 88.6964 15.72 88.6687 15.6008L89.0448 15.4522C88.9375 15.1999 88.7798 15.6082 88.6456 15.4793C88.8136 15.2525 88.6493 15.2345 88.8011 15.0665C88.8566 15.0702 88.8691 15.2562 88.9918 15.207C88.8466 15.0441 88.7303 14.7622 88.7838 14.5381C88.7047 14.6816 88.5643 14.8497 88.4139 14.791C88.0693 14.5792 88.4976 14.4332 88.3834 14.1786C88.1924 14.2841 88.0944 13.9706 87.8487 14.3149C87.755 14.2452 87.8444 14.0712 87.8746 13.9489C87.5978 13.9836 87.041 13.4384 86.9859 13.946L87.0128 14.0006C87.0128 14.0006 86.9924 13.9936 86.9765 13.9958C86.1934 13.9493 85.92 13.0272 85.2489 12.818L85.3233 12.6994C84.8941 12.6255 84.506 12.3081 84.1063 12.4146C84.0069 12.3505 84.0008 12.0455 84.1285 11.9261C83.8069 11.8585 83.7065 11.9644 83.4358 11.5468C83.8306 11.4879 83.4554 11.2998 83.8019 11.5501C83.5181 11.2378 83.5444 11.0044 82.9757 11.1292C83.2855 10.8861 82.9335 10.5848 82.7136 10.5858L82.8328 10.9481C82.6177 10.8902 82.4688 10.7714 82.3164 10.6515L82.6383 10.2838C82.1834 9.37193 80.8678 10.4242 80.7623 9.27517C80.4154 9.47153 81.0535 9.6884 80.6972 9.94591C80.3936 9.714 80.3471 8.93718 80.2387 8.8776C79.8866 8.4096 79.4869 9.28471 79.0812 8.88555C79.0688 9.06686 78.9279 9.50362 78.4962 9.47048C78.1857 9.2476 78.3866 8.62301 78.6622 8.60308C78.7505 8.63308 78.766 8.69892 78.7373 8.74977C78.8745 8.74717 79.0502 8.75387 78.9971 8.52003L78.8774 8.64969C78.7847 8.40995 78.3053 8.19402 78.5354 7.99584C78.2065 8.01659 78.3053 8.19402 78.4584 8.36723C78.1209 7.93446 77.7803 8.01182 77.3856 7.66942C77.4211 7.78752 77.4063 7.99829 77.3339 7.96613C76.745 7.48201 76.9033 8.13025 76.4166 8.0027C76.2622 7.6549 76.7587 7.47529 76.21 7.47434C75.9996 7.19083 76.3293 7.03405 76.4998 6.9557C75.9482 7.0749 75.7933 6.41648 75.5721 6.2542L75.8511 6.2241C75.6867 6.24014 75.5781 6.19189 75.4662 6.14248L75.4617 6.51203C75.3524 6.39916 75.2439 6.35091 75.2991 6.22199C75.0783 6.37034 75.1858 6.78929 74.8027 6.95822C74.6942 6.72065 74.2079 6.90372 74.3102 6.469C74.7629 6.79701 74.4821 6.15259 74.8064 6.13408C74.734 6.11325 74.6617 6.06975 74.5862 6.00242C74.5853 5.94914 74.6399 5.92225 74.6853 5.91118C74.2953 5.33187 74.2489 6.29293 73.6981 6.07544C73.8603 5.86553 73.743 5.57576 73.634 5.59553C73.8568 5.6864 73.5884 6.03058 73.3134 6.1378C73.0285 5.81758 72.8759 6.13297 72.6996 6.03898L72.8777 6.20553C72.7155 6.41544 72.5517 6.31812 72.2808 6.3018C72.2971 6.23161 72.3392 6.20805 72.3812 6.19582C72.0588 6.27556 71.9897 5.48727 71.5491 5.61392C71.4303 5.38423 71.6901 5.15449 71.5732 4.98602C71.0327 5.1393 71.2122 4.49984 70.6651 4.60547C70.6879 4.9729 70.7394 4.89952 70.3107 5.11353L71.1427 5.12747L70.4981 5.44225C70.7221 5.51838 71.046 5.38991 71.1633 5.49036C70.8413 5.68006 70.8962 5.60783 70.9103 5.91173C70.7686 5.32594 70.2024 6.00054 69.959 5.55812L70.2312 4.7571C69.8058 4.22633 69.1389 4.86293 68.5031 4.43862L68.6844 4.65167C68.4911 4.94189 68.2394 4.55724 67.9727 4.61803C68.074 4.35335 67.9615 4.20531 67.9127 4.01458C67.8662 4.21836 67.3944 3.85736 67.1771 4.3855L66.9609 3.94098C66.423 3.64081 66.0935 4.54353 65.5723 4.30581C65.8141 4.05103 65.615 3.79025 66.0396 3.67711C65.8563 3.62615 65.7027 3.5323 65.6506 3.71904C65.586 3.51914 65.0449 3.95242 64.9436 3.64915C64.8375 3.74942 64.7418 4.03114 64.5416 3.95174C64.5318 3.8916 64.5764 3.81591 64.5764 3.81591C64.5428 3.94835 64.2062 3.92484 64.3164 4.26898C63.9458 3.28734 62.7139 3.99318 62.3743 3.14322C61.948 3.14979 61.4425 3.13323 61.0721 3.07551C61.11 2.99751 61.1001 2.93737 61.1645 2.98196C60.6995 2.6346 60.7021 3.72972 60.1784 3.34348C59.9614 2.84567 60.5287 3.14828 60.3734 2.94785C60.4514 2.01645 59.6467 2.95832 59.343 2.35911L59.4475 2.31891C59.1957 1.95694 58.6571 2.55008 58.1762 2.40556C58.1762 2.40556 58.2107 2.3264 58.2008 2.26626C57.7983 2.67088 57.1436 2.75887 56.6546 2.83876C56.8436 2.49411 56.8936 2.67012 56.8471 2.29461C56.6293 2.3228 56.8368 2.89311 56.4011 2.9495C56.2879 2.73685 56.0023 2.52999 56.0046 2.13323L56.4092 2.15714C56.2604 1.62572 55.8857 2.11552 55.6845 2.00551L55.7357 1.78816C55.1099 1.79129 55.0476 2.35321 54.3931 2.24055L54.4464 2.41771C54.041 2.93114 54.1718 2.07827 53.7784 2.46707L53.7115 1.89532C53.4614 2.01856 52.8345 2.39239 52.4055 2.47376C52.6721 2.06835 53.1856 1.88317 53.5179 1.65159C53.2777 1.63431 52.7051 1.64796 52.5641 1.91807C52.6642 1.86878 52.7919 1.73803 52.8821 1.82925C52.5621 2.25816 52.1699 2.45425 51.7019 2.41636C51.8341 1.32544 50.4853 2.06347 50.1625 1.23062C49.3145 1.63149 48.487 1.04735 47.4969 1.10843C47.8615 1.96307 47.2088 1.13168 47.2899 2.00733C47.0673 2.07178 46.9835 2.06222 46.96 2.0088L47.0085 2.04423C46.9871 2.02936 46.9758 2.01796 46.9577 2.00425L46.2532 1.51492C46.0801 1.26677 46.463 1.30983 46.4381 1.11583C45.9338 1.0732 46.2123 0.755139 45.8701 0.536609C45.9499 0.847694 45.7144 0.994821 45.4214 0.887675L45.8431 1.27332C45.1657 1.77382 45.1977 0.565542 44.5134 1.06374L44.7203 0.778137C44.5418 0.868916 44.2039 0.882807 43.8735 0.963627C43.5408 1.05124 43.2201 1.2262 43.0729 1.59264C42.9998 1.49585 42.8957 1.26738 43.0514 1.18781C42.1685 1.16789 41.2038 2.12357 40.4872 1.75887L40.527 1.54144C40.3724 1.61763 40.2955 1.96634 40.0687 1.78703C40.0693 1.69634 40.1063 1.56505 40.0315 1.56235C39.9562 1.65033 39.656 1.99887 39.4264 1.9057L39.5742 1.63789C38.6942 1.48649 38.3725 2.41079 37.7011 2.65966C37.605 2.04013 36.9062 1.9238 36.5606 1.89344L36.5566 1.80499C35.5696 1.9239 35.0042 2.65179 34.1685 3.07201C33.4611 2.49084 32.2438 3.23191 31.2618 3.07992C31.4257 3.15456 31.3633 3.56118 31.2232 3.66125C30.9822 3.59068 30.7653 4.22879 30.6473 3.66241L30.7256 3.65493C30.4236 3.15096 30.0277 3.39124 29.6984 3.48L29.8505 4.22456C28.6818 3.42983 27.7334 5.29592 26.9717 4.49563C26.8218 4.73622 26.5674 4.81635 26.4276 5.07174L26.3097 4.68334C25.7094 4.78979 25.4109 4.84358 24.7423 5.18429L24.7885 4.85921C24.3808 4.97812 24.6914 6.13626 24.3436 6.29066L24.0236 5.76164C23.3398 6.0025 22.4646 5.81486 22.002 6.59662C21.9787 6.5092 21.9309 6.33774 22.0334 6.27032C21.7096 6.38745 20.6427 6.40728 21.0852 7.1218C20.8659 6.63078 20.3662 7.35452 20.11 7.74072L20.0001 7.35123C19.9104 7.96061 19.9572 8.09012 19.6039 8.41681C19.4826 8.41723 19.382 8.16724 19.5575 8.19661C19.1405 8.16469 19.4607 8.6597 18.9733 8.65685L19.0113 8.35552C18.6591 8.48949 18.7469 8.59883 18.6892 8.95786C18.5495 9.20191 18.0078 9.16926 17.7987 8.87102C17.8496 9.08898 17.7976 9.44237 17.5516 9.44206C17.4638 9.33272 17.4974 9.22295 17.5158 9.16864C16.8253 9.19521 16.9066 10.0142 16.3452 9.86124C16.2779 9.74748 16.2215 9.70181 16.1706 9.6845C16.6151 9.45698 16.9755 9.28791 16.9571 9.33088C16.7924 9.0023 16.4028 9.13491 16.4562 8.53213C16.2929 8.93475 16.0864 9.73162 15.6588 9.76426C15.6249 9.74139 15.5911 9.71852 15.5528 9.67522L15.5712 9.62091C15.4725 9.6328 15.4155 9.70048 15.3775 9.78982C15.2392 9.79581 15.1451 9.79413 15.036 9.8479C14.8503 9.60308 14.548 9.9244 14.3617 10.0049C14.5739 10.3497 14.3082 10.4184 14.6892 10.5895C14.6474 10.5791 14.6987 10.5284 14.808 10.4519C14.8274 10.4282 14.8581 10.4046 14.8639 10.3763C14.8639 10.3876 14.8672 10.4001 14.8705 10.4126C14.9821 10.3407 15.1266 10.2497 15.296 10.1521C15.2549 10.4069 15.1923 10.6356 14.8902 10.5442C14.9248 10.8211 14.9572 11.1047 14.962 11.2464C14.7057 11.0646 14.4229 10.9723 14.1751 10.8881C13.9284 10.8118 13.7191 10.7482 13.6008 10.6172C13.1874 11.1317 12.4314 11.4957 12.4967 12.3395C12.4005 12.5113 12.2138 12.2585 12.094 12.1875C12.1412 12.071 12.2492 12.0206 12.2374 11.8993C12.0404 12.245 11.395 12.4952 11.6064 12.9873C11.1052 13.0138 11.5529 12.4428 11.0926 12.8392L11.0744 12.6588C10.3524 12.633 10.1326 13.1906 9.89145 13.722C9.64911 14.2568 9.38879 14.7666 8.5345 14.6845C8.64671 14.6885 8.70339 14.6889 8.76992 14.7493C8.01586 14.9739 7.47629 15.5478 6.90419 16.0614C6.33996 16.5852 5.7477 17.0579 4.95304 17.2459C4.53499 17.3954 4.7124 17.6866 4.68081 18.0469L4.33553 17.7706L4.31804 18.4348C4.19929 18.7731 3.82425 18.7403 3.45233 18.7539C3.08381 18.7688 2.71618 18.8256 2.66092 19.3558L2.92757 19.507C2.68411 19.6552 2.38822 20.2362 2.19941 19.9562C2.21381 20.0141 2.33602 20.2449 2.1526 20.2053L1.99483 20.0457L1.75008 20.7993C1.24304 21.0434 1.19765 20.0852 0.58821 20.5861C0.430218 20.8505 0.434729 21.6282 0.620454 21.661C0.712695 21.5901 0.938463 21.5608 1.10079 21.7182L0.988137 21.9829C1.41592 22.4955 1.7501 23.1164 2.53852 23.0247L2.58053 22.4332L2.90733 22.5745L2.65071 22.8394C3.01415 22.9175 2.92512 22.6336 2.90724 22.3966C3.05062 22.4983 3.17844 22.5455 3.28508 22.5325L3.16823 21.7734C3.38384 21.93 3.37723 22.2837 3.68723 22.1959C3.63376 21.8408 3.14937 21.8958 3.26377 21.5257C3.62267 21.6061 3.74264 21.8324 3.75156 21.4719C3.89378 21.577 3.92597 21.694 3.90711 21.8163C3.93042 21.5138 4.27483 21.3582 4.12267 21.015C4.52664 21.1409 4.61459 20.4476 5.01413 20.9431C4.96856 20.7875 4.98717 20.3206 5.12522 20.1706C5.33019 20.9824 5.73548 19.723 6.18039 20.408C5.95548 19.7107 6.7409 19.5498 6.87367 18.9474C6.88691 19.0087 6.91456 19.1279 6.85788 19.1276C7.10237 18.9987 7.28654 19.1029 7.50647 19.1019C7.18608 18.6409 7.44778 18.2831 7.42072 17.8726C8.0168 18.1016 7.65953 18.5179 8.06333 18.8671C7.7695 18.5174 8.24659 18.1608 7.92827 17.9277C8.3357 18.0434 8.20149 17.9259 8.58634 18.2195C8.19982 17.63 8.70449 17.9832 8.61544 17.51C9.11844 17.5673 9.08312 17.9832 9.27714 17.5683C9.55566 17.6289 9.41833 18.0441 9.41833 18.0441C9.75186 17.8091 9.26614 17.5115 9.15566 17.2127C9.46419 16.7951 9.56724 17.3943 9.85677 17.5116C10.0161 17.2098 9.92963 16.6845 10.1343 16.5723C10.1997 16.6362 10.253 16.6353 10.2727 16.7556C10.3007 16.2275 11.0593 16.2013 11.079 15.553C11.1276 15.5771 11.1637 15.6045 11.1919 15.633C10.9934 15.4482 10.8338 15.2274 10.7384 15.0624C10.8898 14.9511 10.842 14.5903 11.0911 14.8378C10.9887 14.8938 11.0606 15.0167 11.0735 15.1347L11.1531 14.9005C11.5718 15.2169 11.0267 15.1945 11.2301 15.4984C11.4532 15.1539 11.5983 14.5596 11.9206 14.5139C12.2358 14.8898 11.4448 15.0337 12.0017 15.1775L11.5261 15.2734C12.232 15.7253 11.2704 15.3796 11.9828 15.8905C12.5485 15.6852 12.3852 15.3079 12.9611 15.1174C12.93 14.8191 12.709 14.8008 12.6779 14.5024C13.1443 13.6538 13.8857 15.2044 14.071 14.336C14.038 13.9765 13.7782 13.4149 14.321 13.4668L14.4742 14.0187C14.9891 13.7734 14.3545 13.1678 15.0516 13.1775C15.0672 13.4213 14.7568 13.5658 14.8656 13.58C15.4155 13.7555 14.9451 13.1678 15.2022 13.0129L15.4969 13.4046C15.9887 13.0492 16.413 12.4248 16.9685 12.0268C17.0028 12.1709 16.9722 12.3612 17.1839 12.418C17.5008 12.1092 17.9067 11.9064 18.3395 11.7695C18.7767 11.6417 19.2486 11.5901 19.6774 11.5427L19.7756 11.0309C19.8415 11.004 19.979 11.1454 19.9432 11.2506C20.3003 11.2584 19.8427 11.0006 19.9108 10.7891C20.0633 10.6857 20.2309 10.9054 20.1789 11.0695C20.5325 10.5082 21.3072 9.66586 22.0452 9.86744L21.9909 10.027C22.4785 10.0072 22.1317 9.03359 22.6826 9.2284L22.6333 9.32901C23.1327 9.21857 23.6035 8.96966 24.0683 8.78306C24.5285 8.58737 25.0051 8.51081 25.4701 8.66885C25.4001 8.0506 26.4943 8.58529 26.2724 7.76777C26.9536 7.96901 26.8482 8.16792 27.695 8.16041C27.9106 8.12766 27.8334 7.56379 28.0634 7.39963L28.2049 7.81877L28.4099 7.27129L28.7542 7.7177L28.9593 7.53752C28.8561 7.54031 28.6993 7.41129 28.674 7.28531C28.9898 6.97994 29.676 7.30025 29.7473 7.51379L30.5219 6.88349C30.5449 7.01626 30.4752 7.10995 30.4032 7.21042C30.6626 6.87071 30.5727 7.69207 30.8647 7.20065C30.7812 7.12307 30.8254 6.93742 30.8101 6.8489C31.0991 7.04558 31.5941 6.92605 31.9308 6.72623L31.938 7.03916C32.6165 6.94791 33.2911 6.54489 34.0347 6.3622C33.737 6.2913 33.6789 5.76041 33.8847 5.65619L34.0749 6.08809C34.1527 5.76999 33.8069 5.97429 34.0202 5.55836C34.3172 5.5533 34.3268 6.03742 34.1977 6.21691L34.5017 5.99083C34.5519 6.12149 34.4879 6.20954 34.5062 6.3899C34.5851 6.07974 35.1889 6.73173 35.2872 6.19722L35.3329 6.33013C36.0797 6.1826 36.3871 5.95767 36.9934 5.81158C36.9322 5.41218 37.187 5.45335 37.3161 5.09587C37.7964 5.1531 38.3517 5.39102 38.8908 5.27515C39.246 5.02103 38.9507 4.92067 39.0894 4.65734C39.1724 5.01493 39.7149 4.90021 39.4683 5.20258C39.7907 5.12285 39.9996 5.07646 40.2245 4.99389C40.4495 4.91132 40.6905 4.79256 41.094 4.60788C40.986 4.46894 40.8764 4.41275 40.9134 4.28146C41.0601 4.20637 41.2777 4.40149 41.2778 4.57948L41.2413 4.62007C41.683 4.30071 42.2588 4.51154 42.7962 4.70174C43.3369 4.89309 43.8383 5.04454 44.1852 4.64753L44.1453 4.68698L44.8983 4.2538C45.2608 4.30127 44.6994 4.53831 44.9781 4.75421C45.7823 4.10367 46.3021 4.7801 46.9781 4.33968C47.2596 4.8594 47.729 4.84855 48.2213 4.78115C48.7171 4.7149 49.237 4.60005 49.5921 4.94789L49.5539 4.6926C49.7447 4.44318 49.7764 4.84014 49.9121 4.89762C49.8962 4.69914 49.7139 4.66746 49.8326 4.52985C50.6249 4.35991 51.4413 4.52001 52.2461 4.72538C53.0543 4.94324 53.8555 5.18147 54.6398 5.40259C55.2161 5.53407 55.1041 4.12543 55.7826 4.81413L55.5203 5.26265C56.1428 5.04637 56.7489 5.11227 57.3515 5.19969C57.9494 5.31202 58.5393 5.43678 59.1535 5.28961C59.0679 5.38547 59.0433 5.52476 58.9289 5.50482C59.1183 5.88343 59.8247 5.66538 59.8807 5.38909C60.0572 5.44908 59.8769 5.64528 59.9633 5.80336C60.1694 6.04376 60.658 5.46393 60.7204 5.83727C60.7302 5.89741 60.6314 5.93198 60.5837 5.94983C60.7715 5.82057 61.3081 6.1468 61.2346 5.72805C61.6252 6.00469 62.0927 5.73195 62.388 6.03296C62.7088 5.646 63.0739 6.39862 63.2849 5.80015C63.1089 6.42943 63.9193 6.46252 64.2595 6.25252C64.1236 6.41837 64.4439 6.51207 64.2736 6.74574C64.5815 6.8201 64.8878 6.77655 64.9193 6.4389C65.2836 7.33889 66.2213 6.13932 66.2753 7.18372C66.526 7.15912 66.7698 7.14354 67.0125 7.13136C67.2506 7.12142 67.4818 7.13184 67.7096 7.14111C68.1652 7.15965 68.606 7.19965 69.0376 7.25546C68.8084 7.86288 68.1218 7.0313 67.9546 7.6901C68.7947 7.68028 69.4137 7.29621 70.129 7.68697C70.2982 7.83534 69.9259 7.91704 69.8256 8.00035C70.2531 7.99038 70.6138 8.14327 70.9644 8.28136C71.3162 8.41606 71.6635 8.54166 72.0594 8.50204C72.0363 8.55859 71.9421 8.59091 71.8546 8.6142C71.9962 8.64337 72.1301 8.8176 72.2179 8.53698L72.0613 8.56327C71.9972 8.08336 72.9062 7.92657 73.015 7.72882C72.4849 8.43084 73.6087 8.17669 72.8588 9.035C72.9678 9.01523 73.1259 8.92887 73.1791 8.73873C73.2885 8.84027 73.2844 8.96381 73.0715 9.12241C73.603 9.15159 73.5529 8.7976 73.9735 8.98598C73.9172 9.11829 73.8105 9.13127 73.7043 9.26555C74.0216 9.10077 74.3456 8.93829 74.657 9.20312C74.6033 9.27195 74.6003 9.3921 74.4951 9.34501C75.123 9.56975 75.8364 9.11934 76.4069 9.65776C75.9529 10.1358 76.5526 9.94203 76.366 10.4465C76.51 10.4462 76.6505 10.4561 76.7899 10.4694L76.7576 10.1632C77.0628 10.3237 77.5039 10.1063 77.6972 10.3954L77.3725 10.4819L77.9994 10.676L77.7565 10.3323C78.1935 10.2385 78.0153 9.7046 78.3692 10.0445C78.2604 10.0529 78.6823 10.2039 78.7029 10.5668C78.9335 10.4899 79.1731 10.4086 79.3475 10.642C79.3305 10.8255 79.0316 11.148 79.0173 11.2681C79.3684 10.9482 79.8072 11.5063 80.2115 11.1969C80.0955 11.2597 79.9625 11.506 79.9565 11.5683L80.2504 11.3161C80.3367 11.4969 80.3306 11.5592 80.2037 11.7432C80.5965 12.0358 80.3879 11.0675 80.7544 11.6048C80.6999 11.609 80.695 11.6679 80.5851 11.6684C81.0168 12.0802 81.6736 12.0081 82.0521 12.4207C81.9242 12.9641 81.5823 12.3102 81.516 12.795C81.8734 12.9354 82.296 12.9844 82.7059 13.0593C83.109 13.1433 83.4926 13.2623 83.7745 13.5134L83.688 13.3893C84.171 12.7924 83.961 14.0008 84.4672 13.8927C84.3573 13.8932 84.1436 14.1878 84.2085 14.1304C84.5702 14.5032 85.1903 14.5057 85.9667 14.7279L85.7813 14.839C85.9313 15.1551 86.3733 15.3697 86.5861 15.6237C86.7738 15.5171 86.9079 15.646 86.9743 15.3505C87.0708 16.0913 87.5404 16.2358 88.0215 16.3576C88.5049 16.4727 88.9769 16.5877 89.0503 17.2298C88.9656 17.1669 88.7488 17.2144 88.8143 17.2669L89.5187 17.5783C89.6701 17.2776 89.5631 17.3586 89.5898 17.0572C89.7831 16.9563 90.0449 16.9658 90.195 17.0812C89.7893 17.0493 89.8762 17.5067 89.8794 17.7425C89.923 17.6475 90.0299 17.5892 90.0826 17.5011C90.0353 18.2082 90.5434 17.0141 90.7301 17.6568L90.599 17.7751C90.8118 17.8285 91.1036 17.761 91.2466 17.9308C91.0801 18.2869 90.9631 17.9405 90.7577 18.1773C91.0106 18.3466 91.6953 17.9697 91.6641 18.4513C91.4986 18.4481 91.3519 18.3338 91.1795 18.3396C91.139 18.8711 91.2324 18.8081 91.357 19.0095L91.3458 18.9868L91.6071 19.4769L91.5843 19.2988C92.5113 18.7771 92.2907 19.66 93.1079 19.4948C92.3237 19.641 92.8142 19.713 92.5017 20.0195C92.5211 20.1965 92.5866 20.427 92.4616 20.4829C92.7523 20.4075 92.6975 20.6691 92.8442 20.772C92.785 20.8238 92.7291 20.8767 92.6937 20.9253C92.584 21.0697 92.538 21.1828 92.5479 21.2316C92.5479 21.2316 92.5479 21.2316 92.5445 21.2305L92.4825 21.1678L92.486 21.1576L92.4827 21.1338C92.4897 21.1134 92.484 21.1077 92.4738 21.1042C92.4524 21.0894 92.4275 21.0734 92.3993 21.0562L92.3834 21.0697L92.3719 21.081L92.3696 21.0878L92.3163 21.0999C92.2788 21.1099 92.2436 21.1244 92.2084 21.139C92.1243 21.1747 92.0435 21.223 91.9718 21.2781L92.189 21.1513C92.0549 21.2117 91.849 21.3273 91.6833 21.5587C91.6616 21.5892 91.6467 21.622 91.6295 21.6502L91.1044 21.68L91.1807 22.0126L90.3268 22.4418C90.278 22.4517 90.1974 22.466 90.0041 22.5669L90.0255 22.5931L89.8652 22.6749C89.8067 22.602 89.8359 22.6385 89.8269 22.6316L89.8133 22.6383L88.5646 23.3044L88.5165 23.201L88.5282 23.3223L87.8994 23.6576L88.3653 23.8463L87.2916 24.0644L88.0707 24.2118C87.9943 24.2919 87.9371 24.3709 87.9005 24.4342L87.865 24.494C87.8411 24.5086 87.8184 24.5198 87.7899 24.5367C87.7285 24.5726 87.6738 24.6108 87.6135 24.6547C87.685 24.6335 87.7498 24.6101 87.8123 24.5821L87.5329 25.0702L87.5104 25.0361C87.4989 25.0587 87.3718 25.0874 87.1581 25.3821L87.3519 25.3911L87.2786 25.5177L86.9391 25.2243L86.9344 25.2379L86.923 25.2492C86.923 25.2492 86.9139 25.2537 86.9116 25.2605L86.9275 25.2583C86.9275 25.2583 86.9252 25.2651 86.9423 25.2482L86.9469 25.2346L87.2842 25.5234L87.0879 25.3544L87.0822 25.3714C87.0822 25.3714 87.0788 25.3703 87.0776 25.3737L87.0753 25.3804C87.0753 25.3804 87.0888 25.4077 87.0932 25.4168C87.0291 25.3382 86.9914 25.3822 86.9139 25.265C86.9116 25.2718 86.9217 25.2866 86.9126 25.2911C86.9114 25.2945 86.9091 25.3013 86.908 25.3046L86.9045 25.3148C86.8863 25.3351 86.8646 25.3543 86.8429 25.3734C86.7518 25.4522 86.6729 25.5617 86.6521 25.6342C86.6279 25.7054 86.6458 25.7418 86.6991 25.741C86.6786 25.7568 86.6649 25.7748 86.6478 25.7917L85.3293 24.0677L85.8359 26.5987C85.8359 26.5987 85.8359 26.5987 85.8347 26.602L85.8246 26.5986C85.8246 26.5986 85.8223 26.6054 85.8199 26.6122C85.7686 26.6629 85.731 26.7069 85.6956 26.7441C85.6374 26.8151 85.5974 26.8659 85.5916 26.8829C85.5905 26.8863 85.5905 26.8863 85.5905 26.8863C85.5658 26.8476 85.5534 26.8283 85.5601 26.8419C85.6062 26.9181 85.6421 26.9796 85.669 27.0341C85.669 27.0341 85.6488 26.9932 85.6364 26.9739C85.6364 26.9739 85.6387 26.9784 85.6409 26.983C85.6633 27.0284 85.6802 27.0569 85.6902 27.083C85.6835 27.0694 85.679 27.0603 85.6723 27.0466C85.6813 27.0648 85.6868 27.0818 85.6935 27.0955C85.698 27.1046 85.7025 27.1137 85.7036 27.1216C85.7081 27.1307 85.7092 27.1387 85.7136 27.1478C85.7159 27.1523 85.717 27.1602 85.7192 27.1648C85.7237 27.1739 85.727 27.1864 85.7281 27.1943C85.727 27.1977 85.7326 27.2034 85.7303 27.2102C85.7303 27.2102 85.7314 27.2181 85.7336 27.2227C85.7336 27.2227 85.7348 27.2193 85.7325 27.2147C85.7314 27.2181 85.7336 27.2227 85.7359 27.2272C85.7392 27.2397 85.7403 27.2477 85.7391 27.2624L85.2708 27.0805C85.224 27.1403 85.1783 27.1968 85.1338 27.2498L85.0687 27.3299L85.0641 27.3435C85.0278 27.3387 84.9949 27.3351 84.9655 27.3327C84.9701 27.3191 84.9679 27.3032 84.9668 27.2953C84.9682 27.2579 84.9843 27.2217 85.0038 27.1867C85.0495 27.1189 85.1213 27.0525 85.1784 26.9848L85.7368 27.2579L85.0905 26.8981C85.0515 26.9682 85.0171 27.036 84.9861 27.1049C84.97 27.1411 84.9517 27.1728 84.9368 27.2056L84.9127 27.2542L84.8567 27.3298C84.5912 27.3645 84.4477 27.4748 84.3668 27.5457C84.352 27.5558 84.3361 27.5693 84.3064 27.6009C84.295 27.6122 84.2824 27.6268 84.2687 27.6449L83.3318 27.7392L83.5754 28.3482C83.5239 28.4329 83.478 28.5234 83.4411 28.6206C83.4174 28.6012 83.4292 28.5333 83.4454 28.4744C83.3882 28.5648 83.2517 28.6433 83.3759 28.7234L83.4117 28.6182C83.4695 28.6151 83.5067 28.6505 83.5291 28.696C83.5018 28.7208 83.4642 28.7421 83.4165 28.7599L83.5638 28.9615C83.5573 29.1145 83.5371 29.2742 83.5731 29.3129C83.5013 29.1787 83.4311 29.1738 83.3595 29.2063L82.4898 29.6149L83.7981 29.8097C83.9498 29.831 84.1886 29.719 84.1273 30.1222C84.1854 30.0738 84.2449 29.9767 84.1955 29.8879C84.2114 29.8858 84.225 29.8904 84.2397 29.8916L84.2431 29.8928C84.2431 29.8928 84.2499 29.8951 84.2533 29.8962C84.2679 29.9201 84.2882 29.9384 84.3085 29.9453C84.3174 29.9748 84.3127 30.0111 84.2897 30.0676C84.3625 30.0204 84.4092 29.9833 84.4446 29.9461C84.4832 29.9327 84.5128 29.9125 84.522 29.8853C84.5026 29.909 84.4833 29.9214 84.4628 29.9258C84.4948 29.8874 84.5143 29.8524 84.5326 29.8208C84.5337 29.8174 84.5361 29.8106 84.5406 29.8083L84.7868 30.1646L85.0949 29.6257C85.0949 29.6257 85.1086 29.6076 85.1155 29.5986L85.2084 29.5923C85.24 29.622 85.2727 29.6483 85.31 29.6723C85.4015 29.7374 85.4761 29.7741 85.5019 29.8208C85.8248 29.8397 85.9592 29.7339 86.0081 29.7126C86.0229 29.7025 86.0274 29.7003 86.0298 29.6935L85.9829 29.564L86.3141 29.5365L86.5035 29.5251L87.0393 29.976L86.9413 29.4846C86.9413 29.4846 86.9538 29.4813 86.9617 29.4802L86.9703 29.5664C86.9703 29.5664 86.9907 29.5733 87.0008 29.5768L86.989 29.4667C86.989 29.4667 87.0027 29.46 87.0072 29.4578L87.0212 29.5837C87.0212 29.5837 87.0484 29.5929 87.0619 29.5975C87.0619 29.5975 87.0608 29.6009 87.063 29.6055C87.063 29.6055 87.0642 29.6021 87.0653 29.5987C87.1366 29.6229 87.2237 29.6563 87.3109 29.6783C87.4365 29.7097 87.5896 29.7049 87.6851 29.6579C87.6953 29.6613 87.6997 29.6704 87.7088 29.6773L87.8115 29.7538C87.8515 29.703 87.888 29.6511 87.9167 29.6003C87.8815 29.6035 87.8384 29.6077 87.7897 29.6063C87.8033 29.5996 87.8181 29.5895 87.8272 29.585L87.9763 29.4918C88.0658 29.4957 88.1404 29.5324 88.1415 29.5404C88.1438 29.5336 88.1438 29.5336 88.145 29.5302C88.1427 29.537 88.1415 29.5404 88.1358 29.546C88.1358 29.546 88.1358 29.546 88.1346 29.5494C88.1381 29.5392 88.145 29.5302 88.1507 29.5246C88.1598 29.5087 88.1633 29.4986 88.1633 29.4986C88.1965 29.4455 88.225 29.4173 88.2341 29.4128L88.4875 29.8927C88.6322 29.7564 89.1366 29.7763 89.6047 29.7915L89.8665 29.801C89.8891 29.8125 89.9106 29.8273 89.9434 29.8423C89.9601 29.8821 89.9907 29.8924 90.0028 29.9571C90.0152 29.9651 90.031 29.9743 90.0287 29.9811C90.0264 29.9879 90.0128 29.9833 89.9981 29.982L89.9234 29.9567C89.9234 29.9567 89.8973 29.9554 89.8996 29.9599C89.9018 29.9645 89.9267 29.9691 89.9403 29.9738C89.998 29.9934 90.0728 30.0074 90.1168 30.0337C90.1461 30.0589 90.2027 30.0819 90.2662 30.0845C90.2493 30.0674 90.2596 30.0482 90.2879 30.0427C90.3127 30.07 90.368 29.9298 90.3972 29.9662L90.5049 29.9612C90.5049 29.9612 90.5401 29.958 90.5594 29.957L90.5119 29.9408C90.4474 29.9189 90.3738 29.9015 90.3116 29.8728C90.3549 29.8345 90.3983 29.7849 90.4345 29.8009C90.4093 29.8416 90.3898 29.8766 90.4058 29.8518C90.4137 29.862 90.4306 29.8791 90.4679 29.9032C90.5006 29.9294 90.5571 29.9638 90.6204 29.9891L90.6713 30.0064C90.6713 30.0064 90.6919 29.9793 90.7034 29.9454L90.738 29.8435C90.784 29.7304 90.8603 29.4837 90.8391 29.6242C90.8407 29.7308 90.8479 29.8544 90.8585 29.9791C90.858 30.0698 90.8809 30.0246 90.8968 30.0338L90.9433 30.0307C90.9244 29.9637 90.9055 29.8967 90.89 29.8308L90.8823 29.7979L90.8925 29.8014C90.9409 29.8595 90.9982 29.9357 91.0544 30.0268C91.0668 30.0348 91.0815 30.0473 91.0995 30.061C91.1871 30.0037 91.2825 29.9907 91.2015 29.8723C91.2975 29.9352 91.4016 29.9744 91.5274 29.9831C91.5568 29.9855 91.5874 29.9845 91.6226 29.9814L91.6211 30.0414C91.9305 30.0557 92.142 29.9459 92.3329 29.8744C92.4283 29.8387 92.5181 29.8086 92.5975 29.7977C92.6054 29.7967 92.6122 29.799 92.6235 29.799C92.6347 29.8218 92.6482 29.8491 92.6639 29.8696C92.6988 29.923 92.754 29.9721 92.7879 29.995C92.8308 30.0247 92.8738 30.0431 92.893 30.0534C92.8326 30.0973 92.795 30.1413 92.8449 30.128C92.8847 30.1112 92.9211 30.0933 92.9654 30.0742C92.9858 30.0812 93.0051 30.0801 93.0232 30.0825L93.1852 30.1073L93.2694 30.0488C93.3001 30.0252 93.3195 30.0128 93.3309 30.0016C93.332 29.9982 93.3332 29.9948 93.3332 29.9948L93.3289 29.9517L93.3324 29.9415C93.3617 29.9666 93.3978 29.994 93.4249 30.0146C93.4082 29.9635 93.4607 29.9094 93.4519 29.8572C93.6222 30.0021 93.6523 29.9026 93.671 29.8029C93.6988 29.6988 93.7165 29.5912 93.943 29.6152L93.9459 29.707C93.9789 29.6879 94.0063 29.6632 94.0291 29.6406C94.0291 29.6406 94.0347 29.6463 94.0335 29.6497C94.0797 29.7033 94.1295 29.724 94.1702 29.7378C94.1872 29.7436 94.1997 29.7403 94.2132 29.7449L94.0992 30.0469L94.6554 30.1261C94.6916 30.1308 94.7313 30.1367 94.7856 30.1439L94.7653 30.1369C94.9226 30.1753 95.0915 30.191 95.249 30.1953L95.1234 30.1526C95.3335 29.7016 95.598 29.8369 95.8631 29.6808L95.9072 29.6958C95.8329 29.8031 95.885 29.8057 95.929 29.8433L95.7037 29.7933C95.7306 29.8365 95.7519 29.8854 95.7085 29.935C95.872 30.089 96.071 30.1718 95.9993 30.2269C96.1493 30.1643 96.2341 30.2045 96.3337 30.2346C96.4287 30.2669 96.5341 30.2799 96.664 30.1537C96.675 30.2218 96.8453 30.1661 96.8012 30.3405C97.0056 30.2963 96.76 30.2167 96.7775 30.1317C96.8026 30.1137 96.8287 30.1037 96.8537 30.097C96.8605 30.0993 96.8616 30.1073 96.8684 30.1096C96.9079 30.1382 96.9485 30.1633 96.9869 30.184L97.0192 30.0889C97.0509 30.0959 97.0815 30.1063 97.1109 30.1201L97.2237 29.6435C97.2237 29.6435 97.2236 29.6435 97.227 29.6446C97.2486 29.6482 97.278 29.6619 97.2994 29.6768L97.1376 30.0193C97.3039 30.0759 97.3981 30.0549 97.4639 30.0507C97.5308 30.0432 97.5705 30.0377 97.5773 30.0401C97.6045 30.038 97.6498 30.0496 97.6393 30.0914C97.6076 30.0844 97.6358 30.113 97.6482 30.121C97.664 30.1301 97.6822 30.1325 97.7014 30.1315C97.7412 30.126 97.7822 30.0945 97.8379 30.0529C97.9151 30.0375 97.8596 29.8331 97.9311 29.8347C97.964 29.8269 97.9845 29.8112 98.0321 29.8047C98.0843 29.7959 98.1331 29.786 98.1763 29.7704C98.324 29.7145 98.4367 29.6392 98.5833 29.5642C98.6231 29.5587 98.6616 29.5567 98.7013 29.5512C98.7824 29.6469 98.5888 29.7932 98.5854 29.792C98.7179 29.8257 98.8142 29.8319 98.9095 29.8189C98.9945 29.8137 99.0719 29.7756 99.1661 29.7433C99.1272 29.802 99.1666 29.8532 99.2024 29.9374C99.2942 29.9345 99.3248 29.7442 99.4185 29.8139L99.4856 29.7837L99.3599 29.953C99.3325 29.9891 99.3027 30.032 99.2673 30.0806L99.3173 30.0559L99.5811 29.7366L99.561 29.6844L99.5118 29.751L99.446 29.7665C99.3723 29.7717 99.3155 29.7827 99.2601 29.7676C99.2968 29.693 99.3437 29.6219 99.394 29.5519C99.4393 29.5635 99.4823 29.5706 99.5253 29.5889C99.5423 29.5834 99.5593 29.5778 99.5798 29.5734L99.6137 29.5849L99.5968 29.5678C99.6138 29.5623 99.6297 29.5601 99.6445 29.55L99.6907 29.4142L99.7611 29.3851C99.7623 29.3817 99.7612 29.3738 99.7589 29.3693L99.7114 29.3531L99.7069 29.344C99.7093 29.3372 99.7104 29.3338 99.7127 29.327L99.7252 29.3237C99.7333 29.3 99.7402 29.2796 99.7403 29.2569L99.7335 29.2546C99.7335 29.2546 99.7382 29.241 99.7405 29.2342C99.7382 29.241 99.7426 29.2501 99.7403 29.2569L99.7744 29.2458C99.7848 29.2152 99.794 29.1881 99.81 29.1632L99.8484 29.1952C99.9321 29.0381 99.994 28.9228 100.059 28.7974C100.089 28.7318 100.127 28.6538 100.159 28.5701C100.185 28.6281 100.22 28.6816 100.277 28.7352C100.345 28.8603 100.444 28.981 100.61 28.9582C100.543 28.8218 100.533 28.7616 100.518 28.6958C100.509 28.6663 100.501 28.6333 100.482 28.6003L100.981 28.2813C101.028 28.2748 101.074 28.2637 101.132 28.2266C101.111 28.1211 101.11 27.9771 101.11 27.8218C101.177 27.8029 101.249 27.7818 101.319 27.7528C101.266 27.8862 101.215 27.9936 101.169 28.084C101.385 28.0059 101.339 27.7937 101.309 27.594C101.385 27.582 101.452 27.5291 101.506 27.4489C101.513 27.4512 101.516 27.4524 101.523 27.4547C101.526 27.4558 101.533 27.4581 101.54 27.4604C101.543 27.4616 101.549 27.456 101.553 27.4537L102.439 28.1561L101.722 25.9889L101.715 25.9412ZM14.7607 10.0005C14.7607 10.0005 14.7673 10.0368 14.7695 10.0527C14.745 9.97997 14.7205 9.90727 14.7174 9.84944C14.8087 9.73661 14.8867 9.78581 14.9419 9.84622C14.8884 9.88104 14.8303 9.92945 14.7573 9.99931L14.7607 10.0005ZM16.7068 11.9946C16.7421 11.9687 16.7877 11.935 16.8697 11.872L16.8741 11.8811C16.8047 11.9294 16.7455 11.9699 16.7102 11.9958L16.7068 11.9946ZM17.2644 11.6351C17.1733 11.5246 17.1344 11.3827 17.2128 11.3525C17.2156 11.4557 17.4232 11.4354 17.585 11.4828C17.4907 11.5151 17.3804 11.5723 17.2678 11.6363L17.2644 11.6351ZM85.5647 26.8397C85.5647 26.8397 85.5793 26.8636 85.5939 26.8874C85.5849 26.8693 85.5748 26.8545 85.5647 26.8397ZM94.6754 29.7997L94.6039 29.8208L94.595 29.7913C94.5485 29.7944 94.4986 29.7964 94.4453 29.7972L94.388 29.7096C94.4561 29.6987 94.5151 29.6922 94.5695 29.6993L94.5661 29.6869L94.5864 29.7051C94.5864 29.7051 94.6012 29.7063 94.6113 29.7098L94.6338 29.7439L94.6778 29.7816L94.6981 29.7999C94.6981 29.7999 94.6845 29.8066 94.6765 29.8077L94.6754 29.7997ZM93.3154 29.7351C93.3154 29.7351 93.312 29.7453 93.3097 29.752L93.3154 29.7351ZM84.5959 27.7182L84.5396 27.6612L84.5655 27.6852L84.5689 27.6863L84.5971 27.7148L84.5959 27.7182ZM102.392 23.4603C102.392 23.4603 102.393 23.4569 102.391 23.4523C102.421 23.4514 102.467 23.4516 102.515 23.453L102.511 23.4666C102.466 23.4664 102.444 23.4628 102.392 23.4603ZM102.514 23.4678L102.473 23.4653C102.388 23.4591 102.455 23.4629 102.514 23.4678ZM89.6689 29.2795C89.6689 29.2795 89.6644 29.2818 89.6598 29.284C89.6473 29.2873 89.6337 29.294 89.6178 29.2962C89.6371 29.2952 89.6541 29.2896 89.6723 29.2807L89.6689 29.2795ZM90.2655 23.0344L90.3334 23.0574C90.3253 23.0812 90.3207 23.1061 90.3182 23.1356C90.3454 23.1335 90.3828 23.1348 90.4282 23.1351L90.4292 23.1544L90.4315 23.1476L90.427 23.1385L90.4282 23.1351C90.3794 23.1337 90.3454 23.1335 90.3182 23.1356L90.3261 23.1458L90.3057 23.1389L90.3069 23.1355L90.3171 23.139L90.2678 23.0389L90.2662 23.1103L90.2391 23.0898C90.2323 23.0874 90.2188 23.0715 90.1884 23.0384C90.1749 23.0225 90.158 23.0054 90.1423 22.9849L90.2689 23.0355L90.2655 23.0344ZM101.821 16.5836C101.824 16.5428 101.831 16.4998 101.839 16.4534C101.839 16.4534 101.841 16.4466 101.846 16.4443L101.822 16.5802L101.821 16.5836ZM102.367 23.4329C102.367 23.4329 102.364 23.4318 102.36 23.4306L102.367 23.4329ZM102.383 23.4081C102.421 23.4094 102.473 23.412 102.521 23.4134C102.491 23.4144 102.439 23.4118 102.383 23.4081ZM89.5837 29.3074C89.5837 29.3074 89.5815 29.3028 89.5792 29.2983C89.5792 29.2983 89.5792 29.2983 89.5849 29.304C89.5849 29.304 89.5837 29.3074 89.586 29.3119L89.5837 29.3074ZM90.3046 23.131L90.3182 23.1356C90.3182 23.1356 90.3146 23.1684 90.3122 23.1865C90.2953 23.1808 90.2806 23.1682 90.267 23.1636L90.2674 23.1069L90.3069 23.1355C90.2581 23.1341 90.2649 23.1364 90.3069 23.1355L90.3046 23.131ZM91.6657 22.045L91.6884 22.0451L91.7501 22.1532L91.7543 22.2076L91.69 22.163C91.6685 22.1481 91.6448 22.1287 91.6166 22.1116L91.6623 22.0438L91.6657 22.045ZM85.0202 28.0631C85.0202 28.0631 85.0202 28.0631 85.0236 28.0642L85.0202 28.0631ZM85.5109 29.059C85.5109 29.059 85.5187 29.0806 85.5242 29.0976L85.5109 29.059ZM85.6442 28.934L85.6429 28.96L85.6032 28.9655C85.6032 28.9655 85.6294 28.9441 85.6442 28.934ZM85.6442 28.934L85.6418 28.9634L85.6431 28.9374L85.6442 28.934ZM97.56 18.2818L97.5623 18.275L97.5657 18.2762L97.5634 18.283L97.56 18.2818ZM90.5178 23.1277L90.5789 23.1484L90.5912 23.1678C90.5889 23.1746 90.5934 23.1837 90.5911 23.1904C90.5684 23.2016 90.5445 23.2162 90.5274 23.2218L90.5418 23.2911L90.4323 23.2122C90.4302 23.1736 90.4315 23.1476 90.435 23.126C90.4611 23.1273 90.4883 23.1252 90.5178 23.1277ZM85.6347 29.0178L85.6301 29.0314L85.6029 29.0222C85.6131 29.0256 85.6222 29.0211 85.6335 29.0212L85.6347 29.0178ZM85.6347 29.0178L85.6289 29.0348L85.6335 29.0212L85.6347 29.0178ZM84.9597 27.361L84.9721 27.3577L84.9607 27.3689C84.9607 27.3689 84.963 27.3621 84.9563 27.3598L84.9597 27.361ZM85.2448 27.4579C85.2448 27.4579 85.3161 27.4708 85.3523 27.4869C85.393 27.5007 85.4473 27.5305 85.5037 27.5648L85.2887 27.5069C85.2424 27.476 85.2289 27.4601 85.2448 27.4579ZM89.5903 29.3437C89.5903 29.3437 89.587 29.3312 89.5893 29.3244C89.5893 29.3244 89.5893 29.3244 89.5881 29.3278C89.5858 29.3346 89.5881 29.3391 89.5936 29.3562C89.5936 29.3562 89.5913 29.3629 89.5936 29.3675C89.5959 29.3607 89.5948 29.3528 89.5925 29.3482L89.5903 29.3437ZM89.5997 29.2938C89.5997 29.2938 89.5997 29.2938 89.6031 29.295L89.5997 29.2938ZM100.555 27.4173C100.574 27.3709 100.592 27.32 100.604 27.2713C100.661 27.283 100.717 27.2867 100.773 27.287L100.551 27.4161L100.555 27.4173ZM102.283 23.59C102.283 23.59 102.297 23.5946 102.311 23.5992L102.331 23.6061C102.349 23.6085 102.332 23.6028 102.305 23.5935C102.333 23.5994 102.351 23.6017 102.356 23.5995L102.355 23.6369C102.327 23.6277 102.3 23.6184 102.28 23.6115C102.282 23.6047 102.282 23.6047 102.285 23.5979L102.283 23.59ZM102.355 23.5915C102.355 23.5915 102.345 23.5881 102.334 23.5846C102.328 23.5823 102.321 23.58 102.311 23.5765C102.328 23.5823 102.338 23.5858 102.355 23.5915ZM102.293 23.5628C102.293 23.5628 102.297 23.5493 102.298 23.5459C102.315 23.5516 102.338 23.5518 102.358 23.5587L102.358 23.5814C102.335 23.5733 102.313 23.5698 102.295 23.5674L102.293 23.5628ZM102.356 23.5541C102.336 23.5472 102.315 23.5403 102.302 23.5357C102.304 23.5289 102.308 23.5187 102.31 23.5119C102.324 23.5165 102.339 23.5144 102.358 23.5167L102.355 23.5575L102.356 23.5541ZM102.312 23.5051C102.312 23.5051 102.312 23.5051 102.313 23.5017C102.32 23.5041 102.332 23.5041 102.339 23.503L102.316 23.495L102.315 23.4984C102.325 23.5018 102.344 23.5008 102.359 23.502C102.359 23.502 102.344 23.5008 102.339 23.503L102.356 23.5088C102.342 23.5076 102.327 23.5064 102.309 23.504L102.312 23.5051ZM102.316 23.495C102.316 23.495 102.318 23.4882 102.319 23.4848C102.334 23.486 102.345 23.4861 102.36 23.4873L102.357 23.4975C102.357 23.4975 102.335 23.4939 102.317 23.4916L102.316 23.495ZM102.322 23.478C102.332 23.4814 102.344 23.4781 102.359 23.4793L102.322 23.478ZM102.323 23.4746C102.342 23.4736 102.375 23.4772 102.324 23.4712C102.334 23.4747 102.346 23.4713 102.357 23.4748L102.354 23.4816C102.354 23.4816 102.328 23.4803 102.322 23.478L102.323 23.4746ZM102.378 23.433L102.512 23.4406C102.467 23.4403 102.423 23.4366 102.382 23.4341L102.378 23.433ZM102.373 23.4159C102.417 23.4196 102.462 23.4199 102.462 23.4199C102.485 23.42 102.5 23.4212 102.511 23.4213L102.507 23.4349C102.351 23.4237 102.521 23.4247 102.373 23.4159ZM102.481 23.4109C102.481 23.4109 102.503 23.411 102.51 23.4133C102.453 23.413 102.372 23.408 102.481 23.4109ZM102.392 23.4036C102.399 23.4059 102.399 23.4059 102.392 23.4036C102.392 23.4036 102.4 23.4025 102.405 23.4003C102.416 23.4003 102.431 23.4015 102.45 23.4005L102.507 23.4009L102.504 23.4076C102.504 23.4076 102.498 23.4053 102.389 23.4024L102.392 23.4036ZM90.1164 22.7603C90.1164 22.7603 90.1073 22.7648 90.1027 22.767L90.0996 22.7205L90.1198 22.7614L90.1164 22.7603ZM84.8722 27.3843L84.8857 27.4002L84.845 27.3864C84.845 27.3864 84.8609 27.3842 84.8722 27.3843ZM89.5844 29.3833C89.5877 29.4071 89.5875 29.4298 89.5862 29.4559C89.5875 29.4298 89.5843 29.406 89.581 29.3822L89.5844 29.3833ZM93.2776 29.6238L93.2651 29.6271L93.2674 29.6203L93.2776 29.6238ZM94.5404 29.6289C94.5404 29.6289 94.5405 29.6176 94.5382 29.613C94.5382 29.613 94.5382 29.613 94.5416 29.6142L94.5596 29.6392L94.5482 29.6505L94.5416 29.6255L94.5404 29.6289ZM97.5372 29.5229C97.5372 29.5229 97.5205 29.4831 97.5081 29.4638C97.5251 29.4695 97.5386 29.4855 97.5372 29.5229ZM100.155 27.9477C100.148 27.9908 100.14 28.0372 100.129 28.0791C100.114 28.0359 100.106 27.9916 100.126 27.9453L100.155 27.9477ZM101.755 25.2352C101.781 25.2252 101.78 25.2286 101.755 25.2352V25.2352ZM102.311 24.0538C102.311 24.0538 102.287 24.0571 102.276 24.057C102.278 24.0502 102.283 24.0366 102.278 24.0196L102.311 24.0538ZM102.336 23.7592C102.296 23.7533 102.257 23.7361 102.233 23.7053C102.235 23.6985 102.237 23.6918 102.239 23.6884C102.247 23.6646 102.255 23.6408 102.262 23.6205C102.289 23.6297 102.313 23.6378 102.341 23.6436L102.332 23.7581L102.336 23.7592ZM102.416 23.6577C102.416 23.6577 102.416 23.6236 102.414 23.6078C102.474 23.6206 102.435 23.6 102.443 23.5989C102.433 23.5954 102.423 23.5919 102.413 23.5885C102.411 23.5613 102.404 23.5363 102.401 23.5125C102.422 23.516 102.452 23.5184 102.484 23.522L102.398 23.5079C102.398 23.5079 102.396 23.492 102.395 23.4841C102.48 23.4903 102.525 23.4905 102.396 23.4807C102.414 23.4831 102.429 23.4843 102.448 23.4833C102.426 23.4831 102.412 23.4785 102.397 23.4773C102.397 23.4773 102.395 23.4728 102.393 23.4682C102.452 23.4731 102.489 23.4744 102.512 23.4746L102.509 23.5267L102.503 23.5244C102.499 23.5232 102.496 23.5221 102.492 23.5209L102.509 23.5267L102.498 23.6819C102.475 23.6739 102.447 23.6646 102.424 23.6566L102.416 23.6577ZM102.509 23.4734C102.484 23.4687 102.454 23.4663 102.51 23.47L102.509 23.4734ZM102.558 23.4714L102.562 23.4613C102.562 23.4613 102.556 23.4556 102.557 23.4522L102.555 23.459L102.56 23.468L102.558 23.4714ZM102.552 23.4465L102.559 23.4488C102.559 23.4488 102.555 23.4476 102.552 23.4465ZM102.556 23.4442C102.556 23.4442 102.553 23.4431 102.55 23.4419C102.548 23.434 102.544 23.4249 102.542 23.4203C102.542 23.4203 102.545 23.4215 102.549 23.4226C102.549 23.4226 102.545 23.4215 102.542 23.4203C102.542 23.4203 102.54 23.4158 102.537 23.4112C102.537 23.4112 102.535 23.4067 102.533 23.4021C102.526 23.3998 102.517 23.4043 102.51 23.402L102.508 23.4088C102.462 23.4085 102.428 23.4083 102.407 23.4048C102.41 23.406 102.416 23.4003 102.419 23.4015C102.447 23.3994 102.476 23.4018 102.507 23.4009C102.507 23.4009 102.523 23.3987 102.529 23.401C102.529 23.401 102.533 23.4021 102.536 23.4033C102.543 23.4056 102.549 23.4 102.553 23.3977L102.548 23.4453L102.556 23.4442ZM102.513 23.3499C102.513 23.3499 102.525 23.3806 102.534 23.3987C102.531 23.3976 102.524 23.3953 102.511 23.3986L102.516 23.351L102.513 23.3499ZM102.305 22.6469L102.315 22.6504L102.328 22.6471L102.057 22.6954C102.139 22.6777 102.223 22.6646 102.3 22.6492L102.305 22.6469ZM101.972 20.8413L101.98 20.8516C101.991 20.863 101.98 20.8516 101.971 20.8447L101.964 20.8424L101.965 20.839L101.972 20.8413ZM101.98 18.2544C101.991 18.3112 102.003 18.3645 102.009 18.3929C102.003 18.3645 101.991 18.3225 101.977 18.2533L101.98 18.2544ZM101.952 17.7373C101.94 17.7939 101.937 17.8687 101.94 17.9492C101.869 17.9704 101.798 17.9541 101.802 17.8985C101.846 17.9249 101.888 17.8027 101.952 17.7373ZM101.385 14.2469C101.29 14.2033 101.197 14.1528 101.115 14.0945L101.388 14.2481L101.385 14.2469ZM100.367 13.7535C100.399 13.7491 100.433 13.7493 100.463 13.7518L100.457 13.9807L100.409 13.9646L100.402 13.875C100.402 13.875 100.418 13.8728 100.427 13.8683L100.396 13.8579L100.401 13.9657L100.378 13.9576L100.367 13.7535ZM98.3572 16.6937L98.6182 16.6499L98.6284 16.6533L98.6586 16.7204L98.6508 16.8881L98.5142 16.8L98.4092 16.7303L98.3877 16.7154C98.3877 16.7154 98.3832 16.7063 98.3788 16.6972C98.3776 16.7006 98.3776 16.7006 98.3764 16.704L98.3584 16.6903L98.3572 16.6937ZM98.4572 16.8564C98.4572 16.8564 98.4505 16.8428 98.446 16.8337C98.4482 16.8382 98.4538 16.8439 98.4549 16.8518C98.4549 16.8518 98.4549 16.8518 98.4538 16.8552L98.4572 16.8564ZM97.7457 17.5574L98.0138 17.6485L98.0636 17.8585L98.2549 17.719L98.265 17.7225L98.068 17.8789L98.0868 17.9573C98.0243 17.9852 97.9208 18.0447 97.8173 18.1042L97.7423 18.1355L97.7172 18.1535L97.7104 18.1512L97.5923 18.1981L97.6913 18.1295L97.6113 18.0531L97.7491 17.5585L97.7457 17.5574ZM92.62 21.3091L92.6403 21.3274L92.6471 21.3297L92.646 21.3331L92.6065 21.2932C92.6065 21.2932 92.6155 21.3001 92.6212 21.3058L92.62 21.3091ZM89.9409 22.7196C89.9409 22.7196 89.9227 22.7285 89.9136 22.733C89.9102 22.7319 89.9034 22.7296 89.9 22.7284C89.9 22.7284 89.8966 22.7273 89.8944 22.7227C89.9171 22.7228 89.9522 22.7196 89.9431 22.7241L89.9409 22.7196ZM87.3515 25.2585L87.3108 25.2333L87.3007 25.2299L87.295 25.2242C87.3199 25.2402 87.3391 25.2505 87.3651 25.2631L87.3515 25.2585ZM85.8946 26.4482C85.8809 26.4663 85.8638 26.4832 85.8501 26.4899L85.8471 26.4321L85.8494 26.4253L85.8968 26.4528L85.8946 26.4482ZM84.6791 27.4512C84.6905 27.4399 84.6849 27.4342 84.7088 27.4196C84.7395 27.396 84.7099 27.4276 84.7019 27.44C84.6996 27.4468 84.6939 27.4524 84.687 27.4614C84.6836 27.4603 84.6802 27.4591 84.6746 27.4534L84.6791 27.4512ZM84.6915 27.4592C84.5821 27.369 84.6408 27.4192 84.6915 27.4592V27.4592ZM84.6875 29.6992C84.6875 29.6992 84.6887 29.6845 84.6865 29.68C84.6886 29.6958 84.6942 29.7129 84.6975 29.7254L84.7121 29.7606L84.7098 29.7674C84.7053 29.7583 84.7008 29.7492 84.6963 29.7401C84.6896 29.7265 84.6885 29.7185 84.6841 29.6981L84.6875 29.6992ZM85.5806 29.5446C85.5806 29.5446 85.5874 29.5469 85.5907 29.5481L85.588 29.6229C85.588 29.6229 85.579 29.616 85.5768 29.6115L85.5828 29.5492L85.5806 29.5446ZM85.8588 29.6619L85.8461 29.6992L85.8404 29.7049L85.8474 29.6618L85.8567 29.6233L85.8636 29.603L85.8689 29.6654L85.8588 29.6619ZM87.2036 29.4147C87.2036 29.4147 87.2037 29.392 87.2026 29.3841C87.2196 29.3899 87.2343 29.3911 87.2445 29.3945C87.2434 29.3979 87.2434 29.3979 87.2422 29.4013C87.2456 29.4025 87.2535 29.4014 87.2581 29.3992C87.2649 29.4015 87.2717 29.4038 87.2784 29.4061C87.2943 29.4152 87.301 29.4289 87.3088 29.4505C87.3098 29.4697 87.3131 29.4936 87.3197 29.5185L87.3207 29.5378C87.2264 29.5815 87.2157 29.4681 87.2081 29.4125L87.2036 29.4147ZM88.1225 29.4847C88.1225 29.4847 88.1272 29.4711 88.1283 29.4677C88.1283 29.4677 88.126 29.4745 88.1225 29.4847ZM91.5811 29.5243C91.5811 29.5243 91.605 29.5097 91.6174 29.5063L91.6149 29.5471L91.5811 29.5243ZM92.2831 29.6644C92.2686 29.6178 92.252 29.5554 92.2535 29.4953C92.3216 29.4844 92.3885 29.4768 92.4543 29.4727C92.4448 29.5452 92.407 29.6118 92.2831 29.6644ZM93.2284 29.6903C93.2284 29.6903 93.2478 29.678 93.2614 29.6713C93.2478 29.678 93.2398 29.6791 93.2307 29.6836C93.2365 29.6666 93.2456 29.6508 93.2582 29.6361C93.2605 29.6293 93.265 29.6384 93.265 29.6384C93.2786 29.643 93.2819 29.6555 93.2852 29.668C93.2885 29.6918 93.2736 29.7246 93.2473 29.7573C93.2383 29.7505 93.2326 29.7448 93.218 29.7322C93.2226 29.7187 93.2272 29.7051 93.2318 29.6915L93.2284 29.6903ZM93.2722 29.9513L93.2699 29.9581C93.2699 29.9581 93.2574 29.9615 93.2529 29.9637C93.2485 29.9433 93.2679 29.9196 93.2736 29.9026C93.2759 29.8958 93.2771 29.8924 93.2794 29.8856C93.2794 29.8856 93.2828 29.8868 93.2862 29.8879L93.2813 29.9469L93.2722 29.9513ZM94.1381 29.6095C94.1381 29.6095 94.1256 29.6128 94.1188 29.6105C94.1018 29.6048 94.0827 29.5831 94.0635 29.5615C94.0647 29.5581 94.0692 29.5558 94.0738 29.5536L94.0332 29.5171C94.0332 29.5171 94.0164 29.4773 94.0086 29.4557C94.0177 29.4512 94.029 29.4513 94.0381 29.4468L94.1159 29.5187C94.1353 29.5063 94.1546 29.494 94.1762 29.4862C94.1874 29.5089 94.2032 29.5294 94.2155 29.5488C94.2086 29.5691 94.1983 29.577 94.1903 29.5894L94.2253 29.6202C94.2253 29.6202 94.2013 29.6462 94.1944 29.6665L94.1369 29.6129L94.1381 29.6095ZM95.86 29.623L95.7898 29.6067C95.8498 29.6196 95.9122 29.6143 95.9678 29.5953C95.9292 29.6087 95.8918 29.6187 95.86 29.623ZM97.6514 29.7775C97.6233 29.7263 97.5908 29.666 97.5617 29.6069C97.6284 29.6447 97.7145 29.6475 97.8029 29.6435C97.7812 29.6853 97.7332 29.7372 97.6514 29.7775ZM99.0781 29.6679C99.0444 29.6224 99.0075 29.5417 99.0214 29.4783C99.0328 29.4784 99.0407 29.4773 99.0555 29.4785C99.1541 29.4779 99.2413 29.4887 99.3228 29.505C99.2307 29.5532 99.151 29.6094 99.077 29.6713L99.0781 29.6679ZM99.7241 29.1265C99.7241 29.1265 99.7322 29.1027 99.7356 29.0925L99.7593 29.1119L99.7252 29.1231L99.7241 29.1265Z" />
<path d="M94.6327 29.736L94.5853 29.6972C94.5853 29.6972 94.5752 29.6937 94.5684 29.6914L94.5962 29.7879C94.6188 29.7881 94.6449 29.7893 94.6653 29.7849L94.6327 29.736Z" />
<path d="M97.7309 18.1468L97.7616 18.1345L98.0884 17.8745L98.084 17.8541L97.7106 18.1285L97.7309 18.1468Z" />
<path d="M99.7106 29.2998L99.7515 29.291C99.7515 29.291 99.7572 29.274 99.7562 29.2661L99.7175 29.2795C99.7175 29.2795 99.7141 29.2896 99.7118 29.2964L99.7106 29.2998Z" />
<path d="M102.175 23.1291C102.175 23.1291 102.175 23.1291 102.167 23.1302L102.183 23.128L102.176 23.1257L102.175 23.1291Z" />
<path d="M102.404 23.9489C102.403 23.9523 102.403 23.9523 102.404 23.9489V23.9489Z" />
<path d="M99.7739 29.3365L99.7523 29.3443C99.7564 29.4101 99.7628 29.4804 99.7692 29.5507L99.7725 29.5745L99.7349 29.6072L99.9361 29.7059L99.8276 29.8356L99.6802 29.6454C99.6552 29.6634 99.6313 29.678 99.6154 29.6915C99.6051 29.6994 99.596 29.7039 99.5937 29.7106L99.5914 29.7174L99.5802 29.6947C99.5847 29.7038 99.588 29.7163 99.5925 29.7254C99.5892 29.7129 99.5847 29.7038 99.5802 29.6947C99.5892 29.7129 99.5936 29.7333 99.6014 29.7549C99.6014 29.7549 99.6014 29.7549 99.6036 29.7595C99.6125 29.789 99.6069 29.7719 99.6126 29.7776C99.616 29.7788 99.6262 29.7823 99.6431 29.788C99.6362 29.8084 99.6293 29.8288 99.6325 29.8526C99.6314 29.856 99.6325 29.8639 99.6347 29.8685L99.6136 29.7969C99.6136 29.7969 99.6103 29.7844 99.608 29.7799C99.6192 29.814 99.6325 29.8639 99.6569 29.9479C99.6847 30.0445 99.6713 30.0058 99.6736 30.0104C99.6736 30.0104 99.6816 29.998 99.6895 29.9969C99.7134 29.9823 99.7657 29.9622 99.8442 29.9094L100.067 29.7656L100.159 29.8081L100.251 29.3699C100.282 29.2102 100.292 29.0584 100.216 28.9718L100.081 29.0775C100.11 29.004 100.217 29.0897 100.242 29.1624L100.117 29.207C100.153 29.2457 100.171 29.3161 100.192 29.3877L100.057 29.5501C100.045 29.4514 100.036 29.3459 100.031 29.2382L100.014 29.2438L100.007 29.2415L99.7481 29.2898C99.7481 29.2898 99.748 29.3125 99.7479 29.3238L99.7716 29.3319L99.7739 29.3365ZM100.251 29.1919C100.258 29.2475 100.249 29.286 100.238 29.3199C100.241 29.2757 100.246 29.2281 100.246 29.1828L100.251 29.1919Z" />
<path d="M102.537 23.9032L102.523 24.0539C102.538 23.9871 102.539 23.9418 102.537 23.9032Z" />
<path d="M102.029 14.4241L102.079 14.3768L101.757 14.3205L101.749 14.3443L102.029 14.4241Z" />
<path d="M93.424 29.9726C93.424 29.9726 93.4453 30.0102 93.4781 30.0251C93.4748 30.0126 93.4511 29.9932 93.424 29.9726Z" />
<path d="M94.7915 30.1042C94.8776 30.1297 94.9659 30.1483 95.0553 30.1636C94.9399 30.1357 94.8583 30.1193 94.7915 30.1042Z" />
<path d="M95.6313 29.9504C95.6779 29.936 95.6996 29.9168 95.7167 29.8999L95.7133 29.8988C95.6882 29.9168 95.6586 29.937 95.6302 29.9538L95.6313 29.9504Z" />
<path d="M83.4286 28.4347C83.4286 28.4347 83.4446 28.4098 83.4492 28.3962C83.485 28.291 83.4517 28.3554 83.4286 28.4347Z" />
<path d="M86.879 25.2115L86.8802 25.2081L86.8768 25.207L86.879 25.2115Z" />
<path d="M100.456 29.3337L100.491 29.2885C100.491 29.2885 100.469 29.2737 100.464 29.268L100.456 29.3337Z" />
<path d="M100.465 29.2646L100.472 29.1988C100.459 29.2248 100.448 29.2475 100.465 29.2646Z" />
<path d="M100.489 29.0606L100.472 29.1988C100.492 29.1604 100.525 29.1107 100.489 29.0606Z" />
<path d="M98.3728 30.0946C98.5246 30.1159 98.7654 30.2205 98.8826 30.1543L98.8875 30.0953C98.8528 30.2085 98.5197 29.9742 98.3728 30.0946Z" />
<path d="M108.025 26.2038C108.025 26.2038 108.023 26.1879 108.023 26.1766C108.011 26.1879 108.003 26.2003 107.996 26.2093L108.025 26.2378C108.025 26.2378 108.028 26.2163 108.028 26.205L108.025 26.2038Z" />
<path d="M102.342 22.7616C102.342 22.7616 102.331 22.7582 102.328 22.757L102.319 22.7615C102.319 22.7615 102.335 22.7593 102.342 22.7616Z" />
<path d="M108.1 18.831C108.1 18.831 108.092 18.8208 108.093 18.8174L108.07 18.8513L108.099 18.8344L108.1 18.831Z" />
<path d="M108.093 18.8174L108.116 18.7835C108.116 18.7835 108.09 18.8049 108.093 18.8174Z" />
<path d="M108.116 18.7835C108.138 18.7644 108.166 18.7475 108.163 18.7124L108.116 18.7835Z" />
<path d="M105.997 19.7596C105.684 19.8576 106.1 19.7908 105.842 19.9719L106.051 19.8461C105.992 19.8412 105.918 19.8351 105.997 19.7596Z" />
<path d="M105.172 20.3273C105.129 20.4075 105.119 20.4267 105.218 20.3922C105.31 20.2986 105.183 20.35 105.172 20.3273Z" />
<path d="M92.3737 30.2669L92.4673 30.3366C92.5096 30.279 92.4411 30.1687 92.3737 30.2669Z" />
<path d="M92.9101 31.9637C92.9461 32.0251 93.0558 32.07 93.1286 32.0228C93.0391 32.0075 92.9589 31.9538 92.9101 31.9637Z" />
<path d="M104.658 32.6016L104.805 32.5685L104.735 32.5636L104.658 32.6016Z" />
</svg>
