<svg width="115" height="30" viewBox="0 0 115 30" fill="none" xmlns="http://www.w3.org/2000/svg">
<path d="M32.9593 23.6482C32.8815 23.6294 32.8338 23.6649 32.812 23.7066C32.8914 23.7023 32.9596 23.6952 32.9593 23.6482Z" />
<path d="M34.4365 24.7796C34.404 24.7522 34.3771 24.734 34.3465 24.7148C34.3682 24.771 34.398 24.8095 34.4365 24.7796Z" />
<path d="M23.6751 19.1385L23.8399 19.4132C23.9347 19.2794 23.7728 19.2365 23.6751 19.1385Z" />
<path d="M19.5359 17.1929L19.4645 17.1483C19.4131 17.1829 19.3581 17.2323 19.2985 17.2844L19.5359 17.1929Z" />
<path d="M17.0105 14.9199C16.8758 15.0402 16.7773 15.0751 16.7025 15.061C16.655 15.1279 16.6068 15.2141 16.5589 15.3318C16.6147 15.3922 16.8797 15.0567 17.0105 14.9199Z" />
<path d="M21.6402 18.5656C21.6149 18.6221 21.5978 18.6768 21.5926 18.7147C21.6198 18.6664 21.6352 18.6192 21.6402 18.5656Z" />
<path d="M109.559 3.65548C109.581 3.68023 109.595 3.6875 109.613 3.70765C109.596 3.66441 109.579 3.64055 109.559 3.65548Z" />
<path d="M113.788 2.16153L113.766 2.21895C113.823 2.27571 113.88 2.33247 113.942 2.38272L113.788 2.16153Z" />
<path d="M37.3749 26.3143C37.3749 26.3143 37.3684 26.3088 37.3619 26.3033C37.2661 26.3272 37.316 26.3314 37.3749 26.3143Z" />
<path d="M67.1541 28.6872C66.7765 28.3534 67.6423 28.1237 67.0892 27.771C67.1561 27.932 66.7066 28.4971 67.1541 28.6872Z" />
<path d="M44.7209 27.6746C44.7147 27.7162 44.7208 27.7724 44.7594 27.8718C44.7588 27.7933 44.7417 27.7344 44.7209 27.6746Z" />
<path d="M39.4613 25.9913L39.5803 26.0826C39.5383 26.0294 39.4974 26.0039 39.4613 25.9913Z" />
<path d="M47.7814 27.8096C47.8139 27.837 47.8474 27.8608 47.921 27.8315C47.9152 27.8067 47.9068 27.7929 47.8993 27.7754C47.8664 27.8145 47.8305 27.8332 47.7814 27.8096Z" />
<path d="M50.7098 28.1516C50.6984 28.1176 50.6779 28.0891 50.6656 28.0588C50.6333 28.0627 50.601 28.0667 50.5688 28.0707L50.7098 28.1516Z" />
<path d="M103.237 9.70709C103.361 9.76052 103.476 9.83895 103.581 9.92301C103.353 9.71535 103.614 9.36329 103.237 9.70709Z" />
<path d="M48.357 24.4482L48.7967 24.5894C48.679 24.5258 48.5179 24.4791 48.357 24.4482Z" />
<path d="M85.4992 20.2844L85.5788 20.1979C85.5383 20.2038 85.508 20.2317 85.4992 20.2844Z" />
<path d="M50.1518 24.6852C50.215 24.8453 50.2897 24.9416 50.3715 25.0083C50.3943 24.9786 50.4199 24.9534 50.4389 24.9071L50.1555 24.6861L50.1518 24.6852Z" />
<path d="M39.6689 25.8612C39.7083 25.8277 39.7441 25.8089 39.7791 25.7938C39.7036 25.8148 39.624 25.7877 39.6689 25.8612Z" />
<path d="M100.272 15.738C100.284 15.7176 100.281 15.6973 100.302 15.6787C100.258 15.6643 100.214 15.6536 100.176 15.6484C100.188 15.6944 100.2 15.7442 100.209 15.7856C100.229 15.7707 100.249 15.7521 100.268 15.7371L100.272 15.738Z" />
<path d="M23.6105 19.0329C23.6039 19.0117 23.6018 18.9877 23.6044 18.9609C23.6064 18.9849 23.5954 18.9979 23.5993 19.0145L23.6105 19.0329Z" />
<path d="M86.3033 19.7266L86.3456 19.8268L86.3779 19.7093L86.3033 19.7266Z" />
<path d="M20.1746 15.2914C20.1835 15.2544 20.1933 15.2137 20.1809 15.1676C20.1673 15.1917 20.1714 15.2397 20.1746 15.2914Z" />
<path d="M18.489 14.098L18.337 13.8029C18.3927 13.9455 18.4451 14.0365 18.489 14.098Z" />
<path d="M17.3112 13.0074C17.2525 13.0559 17.2141 13.1014 17.1812 13.1405C17.1812 13.1405 17.1812 13.1405 17.1803 13.1442L17.3112 13.0074Z" />
<path d="M40.1073 23.1988C40.1295 23.2042 40.1498 23.2012 40.171 23.1946C40.3303 23.1508 40.227 23.1572 40.1073 23.1988Z" />
<path d="M32.6844 21.8004C32.7893 21.7552 32.8895 21.7129 32.9827 21.7001C32.8685 21.6216 32.7739 21.5753 32.6844 21.8004Z" />
<path d="M48.3061 24.432C48.3061 24.432 48.3061 24.432 48.3043 24.4394C48.3228 24.4438 48.3376 24.4474 48.3524 24.451L48.3043 24.4394L48.3061 24.432Z" />
<path d="M33.3069 21.8331C33.2126 21.7046 33.1007 21.6815 32.9827 21.7001C33.0765 21.7658 33.1806 21.8535 33.3069 21.8331Z" />
<path d="M16.0437 15.1136C16.2864 15.0977 16.3427 15.0917 16.2446 14.8488C15.9575 14.7404 16.1106 15.0475 16.0437 15.1136Z" />
<path d="M26.8604 21.0616L26.6657 21.3984C26.8951 21.4537 26.7338 21.2621 26.8604 21.0616Z" />
<path d="M29.7133 19.882L29.4766 20.1655L29.8147 20.1922L29.7133 19.882Z" />
<path d="M29.8702 23.3066L30.2757 23.3299L29.9828 23.2945L29.8702 23.3066Z" />
<path d="M50.1335 28.463L50.1212 27.9784C49.9565 28.0444 49.8594 28.577 50.1335 28.463Z" />
<path d="M59.1183 28.5153C59.2163 28.7582 59.4715 28.9176 59.6246 28.6726C59.4222 28.6512 59.2221 28.4581 59.1183 28.5153Z" />
<path d="M85.4883 24.3889L85.7576 24.1328L85.6 24.1692L85.4883 24.3889Z" />
<path d="M0.286181 16.5525L0.239835 16.42L0.174281 16.5294C0.175562 16.5728 0.239628 16.6157 0.287073 16.5488L0.286181 16.5525Z" />
<path d="M0.671549 16.2696C0.711228 16.2674 0.711617 16.3145 0.726546 16.3337C0.752421 16.2264 0.75851 16.0713 0.635383 16.0298C0.649576 16.182 0.599561 16.1622 0.624989 16.3327C0.577543 16.3996 0.495384 16.3994 0.474698 16.3552C0.475986 16.3986 0.365375 16.4189 0.387342 16.5064C0.528578 16.5052 0.627565 16.4195 0.672442 16.2659L0.671549 16.2696Z" />
<path d="M6.5497 11.1171L6.67012 11.0561C6.64766 11.0194 6.602 11.0789 6.5497 11.1171Z" />
<path d="M5.03678 12.6826C5.03678 12.6826 5.04354 12.7194 5.04929 12.7443L5.06981 12.6592L5.03589 12.6863L5.03678 12.6826Z" />
<path d="M3.82063 13.7479C3.82063 13.7479 3.85317 13.7753 3.88469 13.7908C3.91314 13.7702 3.85239 13.6812 3.82801 13.6361C3.8441 13.6831 3.83607 13.7164 3.82153 13.7442L3.82063 13.7479Z" />
<path d="M11.8081 0.627515C11.7828 0.586184 12.0181 0.454972 11.82 0.39939C11.9823 0.489428 11.5654 0.529843 11.8081 0.627515Z" />
<path d="M16.3736 2.00642C16.3736 2.00642 16.3563 2.02965 16.3453 2.04266L16.4087 2.00705C16.4087 2.00705 16.3847 2.0091 16.3764 2.01101L16.3736 2.00642Z" />
<path d="M6.90701 10.9018C6.88967 10.9251 6.86773 10.9511 6.8412 10.9799L6.90701 10.9018Z" />
<path d="M6.91519 10.9978L6.92349 10.9959L6.92528 10.9885C6.91801 11.0024 6.90703 11.0154 6.89517 11.0321C6.89695 11.0247 6.90614 11.0191 6.91252 11.0089L6.91519 10.9978Z" />
<path d="M6.7714 10.9122C6.83007 10.8637 6.84104 10.8507 6.8932 10.7967C6.86017 10.8201 6.80711 10.8777 6.7714 10.9122Z" />
<path d="M9.07491 3.09676C9.07491 3.09676 9.04379 3.12841 9.02466 3.15903C9.03844 3.15061 9.05222 3.14219 9.06881 3.13836C9.07148 3.12726 9.07505 3.11246 9.07773 3.10135L9.07491 3.09676Z" />
<path d="M9.10656 3.12788C9.10656 3.12788 9.14254 3.12481 9.16652 3.12277C9.13692 3.11563 9.12034 3.11946 9.10656 3.12788Z" />
<path d="M9.10656 3.12788C9.10656 3.12788 9.08169 3.13363 9.07251 3.13925C9.06537 3.16885 9.06563 3.20023 9.06856 3.22052C9.08105 3.16872 9.0882 3.13912 9.10567 3.13159L9.10656 3.12788Z" />
<path d="M17.1851 12.053C17.1851 12.053 17.2015 12.0334 17.1932 12.0354L17.1914 12.0428C17.1914 12.0428 17.175 12.0623 17.1888 12.0539L17.1851 12.053Z" />
<path d="M8.3025 4.12424C8.3025 4.12424 8.29574 4.08738 8.2965 4.06798L8.20822 4.10934C8.23425 4.13128 8.26296 4.14212 8.3025 4.12424Z" />
<path d="M8.22545 4.18397C8.27138 4.15589 8.31743 4.14351 8.34512 4.14235L8.34832 4.19402L8.57821 4.08501C8.58356 4.06281 8.58151 4.03883 8.58316 4.01573L8.22545 4.18397Z" />
<path d="M22.0301 2.36811C22.0301 2.36811 22.0125 2.35995 22.006 2.35446L22.0358 2.49084C22.0358 2.49084 22.0506 2.49441 22.058 2.49619L22.031 2.36441L22.0301 2.36811Z" />
<path d="M8.68932 3.46187C8.68932 3.46187 8.69684 3.47934 8.69965 3.48394C8.69773 3.47564 8.69494 3.47105 8.68932 3.46187Z" />
<path d="M21.9719 2.25228C21.966 2.30956 21.9828 2.33712 22.0097 2.35535L21.9934 2.27702L21.9719 2.25228Z" />
<path d="M20.915 2.47898C20.9518 2.47221 21.0303 2.47155 20.9822 2.3464C20.9665 2.34653 20.9462 2.34947 20.9416 2.35228C20.9416 2.35228 20.9287 2.357 20.9324 2.3579L20.9003 2.4911C20.8896 2.5355 20.8778 2.56791 20.8652 2.60402C20.8715 2.57812 20.8795 2.54482 20.8957 2.49391C20.9012 2.4874 20.8975 2.48651 20.9104 2.48178L20.915 2.47898Z" />
<path d="M20.8572 2.63732C20.8572 2.63732 20.8625 2.61512 20.8698 2.60121C20.8671 2.61231 20.8636 2.62711 20.8572 2.63732Z" />
<path d="M23.6411 4.90998C23.6411 4.90998 23.6458 4.92286 23.6514 4.93205C23.6495 4.92375 23.6467 4.91916 23.6411 4.90998Z" />
<path d="M23.7246 5.06714C23.7246 5.06714 23.7189 5.05796 23.7161 5.05337C23.7161 5.05337 23.7218 5.06255 23.7246 5.06714Z" />
<path d="M8.60667 3.62596L8.57555 3.65761L8.71909 3.7118L8.62594 3.61103C8.62594 3.61103 8.61586 3.62034 8.60667 3.62596Z" />
<path d="M14.4141 3.15091L14.4996 3.21852C14.4996 3.21852 14.5289 3.19427 14.5408 3.17755L14.4683 3.12092C14.4461 3.11557 14.4268 3.1305 14.4141 3.15091Z" />
<path d="M23.6392 4.90169C23.6392 4.90169 23.6383 4.90538 23.6411 4.90998C23.6355 4.90079 23.6336 4.8925 23.6316 4.88421C23.6308 4.88791 23.6373 4.89339 23.6355 4.9008L23.6392 4.90169Z" />
<path d="M23.659 4.94953C23.659 4.94953 23.6505 4.93575 23.6486 4.92745C23.6477 4.93116 23.6533 4.94034 23.6561 4.94493L23.659 4.94953Z" />
<path d="M6.83241 7.72028C6.82247 7.74529 6.81163 7.774 6.7999 7.80641C6.78206 7.88041 6.75975 7.97291 6.76539 8.09565C6.75251 8.10037 6.73962 8.1051 6.73503 8.1079L6.72878 8.13381C6.72075 8.16711 6.71272 8.20041 6.70558 8.23001C6.70059 8.18574 6.69561 8.14147 6.68884 8.1046C6.68693 8.0963 6.68309 8.07972 6.68309 8.07972L6.66855 8.10753C6.66039 8.12514 6.64853 8.14186 6.63667 8.15858C6.59471 8.21893 6.54049 8.24893 6.46636 8.21539C6.54396 8.33198 6.60306 8.44412 6.67249 8.57832L6.70119 8.58916L6.7271 8.5954L7.05371 8.57236C6.96365 8.62112 6.90586 8.66592 6.87385 8.70126L6.83086 8.74963L6.81632 8.77744C6.81632 8.77744 6.81454 8.78485 6.81735 8.78944L6.7149 8.79214C6.68367 8.92165 6.67745 9.0611 6.69879 9.1837C6.6716 9.13408 6.62819 9.02181 6.66632 8.94487C6.59365 9.1975 6.58043 9.38225 6.55175 9.48496C6.54193 9.52566 6.5302 9.55807 6.51656 9.58219L6.41999 9.62546C6.40928 9.66986 6.39946 9.71056 6.34716 9.74885L6.28488 9.69859C6.28488 9.69859 6.30174 9.72615 6.33798 9.75447C6.3196 9.7657 6.29294 9.77884 6.26347 9.7874C6.30123 9.77693 6.32612 9.77118 6.351 9.76544C6.39005 9.79834 6.4467 9.83941 6.50054 9.87589C6.44619 9.89019 6.40001 9.88688 6.36493 9.88625L6.36556 9.85117C6.36556 9.85117 6.3602 9.87337 6.36033 9.88906C6.35663 9.88817 6.34923 9.88638 6.34923 9.88638C6.33443 9.88281 6.32245 9.88384 6.29475 9.88499C6.29297 9.89239 6.28762 9.91459 6.28788 9.94598C6.27959 9.9479 6.2778 9.9553 6.28431 9.96078C6.28253 9.96818 6.28074 9.97558 6.28266 9.98387C6.23112 10.0028 6.20916 9.91525 6.20543 9.80081L6.20931 10.0445C6.22973 10.0572 6.25563 10.0635 6.28242 10.066C6.28459 10.1057 6.28766 10.1417 6.29355 10.1823C6.26765 10.176 6.24175 10.1698 6.21214 10.1626L6.20931 10.0445C6.18239 10.0263 6.16273 9.99411 6.15583 9.94155L6.15664 10.1493C6.15664 10.1493 6.13444 10.1439 6.12335 10.1412C6.13444 10.1439 6.14554 10.1466 6.15664 10.1493L6.15874 10.4003C6.15874 10.4003 6.15874 10.4003 6.15504 10.3994C6.11917 10.3047 6.09056 10.196 6.08225 10.0843C6.07418 10.0041 6.07902 9.91911 6.08143 9.87662C6.08295 9.83783 6.08117 9.84524 6.08117 9.84524C6.07493 9.87114 6.07148 9.90163 6.06983 9.92472C6.06653 9.97091 6.06412 10.0134 6.06171 10.0559C6.06058 10.1417 6.07041 10.2146 6.08203 10.28C6.09174 10.3372 6.10502 10.3796 6.1146 10.421C6.07863 10.4241 6.04634 10.428 6.02236 10.4301C6.01496 10.4283 6.05375 10.4298 6.11652 10.4293C6.12227 10.4542 6.1298 10.4717 6.13733 10.4891C6.10786 10.4977 6.0812 10.5108 6.05556 10.536C6.06028 10.5489 6.06589 10.5581 6.0696 10.5589C6.03081 10.5574 6.17116 10.5599 6.25613 10.5648L6.53044 10.58C6.59602 10.5841 6.65049 10.5855 6.70408 10.5906C6.70051 10.6054 6.70153 10.6174 6.70345 10.6257C6.60777 10.6652 6.52038 10.7029 6.51784 10.7297C6.53634 10.7341 6.60076 10.7105 6.66977 10.6841L6.62016 10.7113L6.61098 10.7169L6.75742 10.6778L6.7305 10.6596C6.76457 10.6482 6.79582 10.6323 6.82619 10.62C6.83461 10.6338 6.84022 10.643 6.84864 10.6567L6.75653 10.6815L6.85313 10.7518C6.85313 10.7518 6.82928 10.7695 6.82558 10.7686C6.72022 10.8646 6.78438 10.8096 6.85313 10.7518L6.86423 10.7545C6.86423 10.7545 6.87636 10.7691 6.88286 10.7746C6.88286 10.7746 6.88657 10.7755 6.89027 10.7764C6.86463 10.8016 6.84358 10.8239 6.80787 10.8583C6.80876 10.8546 6.84818 10.8211 6.89027 10.7764C6.90048 10.7828 6.90978 10.7929 6.9237 10.8001C6.9237 10.8001 6.9237 10.8001 6.9274 10.801C6.9265 10.8047 6.92561 10.8084 6.92102 10.8112L6.88901 10.8466C6.90456 10.8308 6.91642 10.814 6.9274 10.801C6.9311 10.8019 6.9348 10.8028 6.93761 10.8074C6.91656 10.8297 6.9001 10.8493 6.88276 10.8725L6.89016 10.8743C6.9121 10.8482 6.92765 10.8324 6.94411 10.8129L6.87014 10.9086C6.87014 10.9086 6.92141 10.8583 6.94884 10.8258C6.94884 10.8258 6.94884 10.8258 6.95076 10.8341C6.95076 10.8341 6.95356 10.8387 6.95637 10.8433L6.94477 10.8914L6.91186 10.9304L6.94018 10.8942C6.93201 10.9118 6.92016 10.9285 6.90829 10.9452C6.91556 10.9313 6.92654 10.9183 6.93381 10.9044C6.93381 10.9044 6.92193 10.9211 6.92104 10.9248C6.92283 10.9174 6.92743 10.9146 6.93291 10.9081L6.93024 10.9192C6.93024 10.9192 6.91658 10.9433 6.9102 10.9535C6.9102 10.9535 6.90931 10.9572 6.90842 10.9609C6.9148 10.9507 6.92029 10.9442 6.92578 10.9377L6.9231 10.9488C6.9231 10.9488 6.90486 10.9757 6.89848 10.9859C6.90575 10.972 6.91124 10.9655 6.91672 10.959L6.89325 11.0238L6.7541 11.1625L6.30731 11.278C6.30731 11.278 6.31128 11.3102 6.31792 11.3314C6.34636 11.3109 6.37392 11.294 6.40428 11.2818L6.45213 11.262L6.47419 11.2516L6.48708 11.2469L6.49078 11.2478L6.73942 11.1746L6.62041 11.2947C6.62041 11.2947 6.58342 11.2858 6.55484 11.2907C6.56327 11.3044 6.57079 11.3219 6.57922 11.3357L6.51238 11.4018L6.60069 11.474C6.60069 11.474 6.6211 11.4867 6.63042 11.4968C6.62953 11.5005 6.62582 11.4996 6.62033 11.5061L6.6807 11.5481C6.71172 11.6143 6.74643 11.6814 6.77936 11.7559C6.8188 11.8359 6.86017 11.9242 6.90893 12.0142C6.88417 12.0357 6.86402 12.0543 6.86415 12.07L6.80969 12.1822C6.77511 12.1307 6.74882 12.0774 6.73006 12.0416C6.69815 11.9791 6.68027 11.9395 6.65998 11.9425C6.64251 11.95 6.617 11.9908 6.61358 12.1349C6.55523 11.8898 6.57688 11.7188 6.59139 11.5775C6.40746 11.7719 6.40783 11.7055 6.40258 11.6298C6.39925 11.5624 6.3903 11.4859 6.19054 11.6648C6.19492 11.8577 6.23184 12.078 6.34263 12.3005C6.33435 12.3024 6.33894 12.2996 6.33805 12.3033C6.33805 12.3033 6.33448 12.3181 6.3327 12.3255C6.3438 12.3282 6.34749 12.3291 6.35859 12.3318C6.39701 12.3998 6.43913 12.4687 6.48954 12.5356C6.46021 12.5599 6.43367 12.5887 6.41084 12.6185C6.38021 12.5993 6.38914 12.5623 6.33555 12.5572C6.31464 12.5953 6.29653 12.6379 6.28403 12.6897C6.25994 12.7896 6.2721 12.9178 6.34077 13.0714C6.43584 13.1805 6.57021 13.2403 6.67345 13.3317C6.72462 13.3793 6.77401 13.4343 6.80694 13.5088C6.82571 13.5446 6.84179 13.5916 6.85328 13.6413C6.86567 13.6874 6.86785 13.7271 6.86365 13.7769C6.7584 13.7751 6.65415 13.7852 6.54225 13.7621C6.59052 13.9029 6.63326 13.9367 6.67588 13.9548C6.7213 13.9775 6.76839 13.9771 6.81458 13.9805C6.90414 13.9825 6.983 14.0289 6.87826 14.0898C6.76726 14.063 6.77426 14.0177 6.743 14.0337C6.63547 14.09 6.67029 14.0592 6.74519 14.0733C6.80987 14.0811 6.91526 14.0987 6.90366 14.1468C6.83617 14.1344 6.77327 14.1193 6.70666 14.1032L6.92319 14.1633C6.92319 14.1633 6.90763 14.1791 6.89845 14.1847L7.19919 14.269L6.66051 14.2135C6.68019 14.9112 7.03715 15.428 7.16917 15.8709C7.08968 15.8596 6.99131 15.7967 6.93787 15.9208C7.00655 16.0744 7.04385 16.2283 7.0477 16.3584C7.04797 16.3898 7.04645 16.4286 7.04403 16.4711C7.04403 16.4711 7.03169 16.6521 7.06631 16.8171C7.08737 16.9083 7.11879 17.0216 7.18899 17.1364C7.28535 17.2889 7.26097 17.2438 7.2685 17.2613C7.27693 17.2751 7.28165 17.288 7.28638 17.3008L7.24415 17.3298C7.25092 17.3667 7.25948 17.3962 7.23116 17.4324C7.2193 17.4491 7.20003 17.464 7.18536 17.4762C7.17528 17.4855 7.16878 17.48 7.16062 17.4976C7.15705 17.5124 7.15054 17.5069 7.14799 17.5337L7.13042 17.6391C7.16731 17.7459 7.21825 17.8756 7.29037 17.9987L6.55469 17.8996L6.95543 18.4622L6.75808 18.5986L6.81832 18.6249L6.69102 18.7469L6.95501 18.8536L6.32029 19.4562L5.92073 19.587L6.14171 19.6285L6.05012 19.716L7.38073 19.8646L7.58321 19.9017L7.59418 19.8887C7.69306 19.9008 7.79106 19.9166 7.88816 19.9361L7.8828 19.9583L8.04369 19.9892L8.0493 19.9984L7.87656 19.9842L7.10138 23.4424L8.65555 20.959L8.92615 23.1816L9.89756 20.3384L10.4403 20.4419L10.0932 19.7709L10.2832 19.2098C10.3211 19.1015 10.377 18.9349 10.3377 18.6592C10.3232 18.5734 10.2938 18.4841 10.259 18.4013L10.2845 18.3605L11.772 18.7349L11.0736 17.4584C11.1176 17.4221 11.1579 17.3848 11.1753 17.3616C11.2018 17.3327 11.2347 17.2937 11.2567 17.2677L11.2995 17.2036C11.3551 17.1191 11.3668 17.0867 11.3759 17.0654C11.3841 17.0478 11.3786 17.0543 11.3795 17.0506L11.2106 16.9551C11.2143 16.956 11.2218 16.9578 11.2255 16.9587L11.291 16.9627C11.3261 16.9634 11.3612 16.964 11.4009 16.9618C11.46 16.9604 11.5143 16.9461 11.5714 16.9364C11.5651 16.9466 11.5587 16.9568 11.5486 16.9661C11.4755 17.0581 11.4142 17.1177 11.3564 17.1625C11.4142 17.1177 11.5208 17.0651 11.6507 16.9163L11.7013 16.9011L11.7271 16.8917C11.7952 16.869 11.8844 16.8239 11.8982 16.8155C11.9653 16.7808 11.9909 16.7556 12.0165 16.7305C12.0422 16.7053 12.0595 16.6821 12.0695 16.6571C12.0841 16.645 12.1025 16.6338 12.1181 16.6179L12.1441 16.6399C12.2386 16.5726 12.3047 16.5259 12.3542 16.483C12.3744 16.4644 12.3973 16.4503 12.4129 16.4345L12.4284 16.4187L12.4293 16.415L12.3665 16.302L12.1001 16.2377L12.2797 15.9639L12.5613 16.1923L12.7218 15.9491L12.8342 16.035C12.8662 15.9996 12.8982 15.9643 12.9385 15.927L13.7877 15.0198L13.5875 15.0381C13.5875 15.0381 13.614 15.0093 13.6305 14.9897C13.6479 14.9822 13.6654 14.9747 13.6875 14.9643L13.6761 14.9303C13.6944 14.9034 13.7154 14.881 13.7354 14.8467L13.9112 14.5563L14.0236 14.6421C14.0236 14.6421 14.0318 14.6245 14.05 14.5976C14.0718 14.5559 14.1422 14.475 14.1916 14.3028C14.2043 14.2824 14.2171 14.262 14.2325 14.2305C14.2205 14.2315 14.2159 14.2343 14.203 14.239C14.2119 14.202 14.22 14.1687 14.2261 14.1271C14.2313 14.0892 14.2208 14.0515 14.2224 14.0127C14.2287 14.0025 14.2388 13.9932 14.2452 13.983L14.2666 14.0077L14.2729 13.9818C14.2468 13.9599 14.2738 13.9781 14.2747 13.9744C14.2821 13.9762 14.2756 13.9707 14.2765 13.967L14.2791 13.9559C14.2791 13.9559 14.2799 13.9365 14.2863 13.9263C14.3073 13.904 14.3569 13.8768 14.4277 13.843C14.4369 13.8373 14.4498 13.8326 14.4627 13.8279C14.4627 13.8279 14.4701 13.8297 14.4719 13.8223C14.5556 13.7837 14.6687 13.7366 14.8001 13.6626L14.687 14.6024L15.5011 13.4832C15.5166 13.5652 15.4962 13.666 15.4207 13.8005C15.7375 13.5911 15.2888 13.3733 15.759 13.4044C15.3837 14.1165 16.2182 13.5621 16.2832 14.0555C15.9587 14.3296 15.8163 13.9624 15.8878 14.4613C16.4611 14.0161 16.3481 14.9716 16.6662 15.0327C16.993 14.5868 17.313 15.2082 17.8153 15.3333C17.6781 15.4803 18.4179 16.0815 18.6983 16.4937L18.638 16.5653C19.0139 16.143 19.3555 16.4799 19.7033 16.5638C19.5155 16.8395 19.3943 16.9199 19.1563 16.9487L19.4282 17.12C19.588 17.0097 19.7234 16.9836 19.9335 17.0382L19.6471 17.3489C20.0282 17.5544 20.6298 17.398 20.9599 17.9122C21.1825 17.59 21.1378 16.7687 21.7706 16.8234C21.6817 17.0134 21.5173 17.3379 21.3419 17.3348C21.4001 17.337 21.5842 17.2718 21.6249 17.3952L21.2416 17.5885C21.3794 17.845 21.5068 17.398 21.6611 17.5213C21.5053 17.7774 21.6808 17.7806 21.5365 17.9729C21.4774 17.9743 21.4463 17.7789 21.3212 17.8427C21.4906 18.001 21.6407 18.2877 21.6058 18.5299C21.6755 18.3705 21.8078 18.1793 21.9725 18.2268C22.3572 18.4175 21.9185 18.6131 22.0638 18.8713C22.2556 18.7414 22.3894 19.0634 22.616 18.6756C22.7218 18.7403 22.644 18.933 22.6239 19.0651C22.9133 19.0018 23.5546 19.5245 23.5639 18.9825L23.5302 18.9274C23.5302 18.9274 23.5524 18.9328 23.569 18.9289C24.4015 18.9026 24.7796 19.8512 25.5093 20.0076L25.4421 20.1402C25.9031 20.1769 26.3441 20.4751 26.7564 20.324C26.8677 20.3821 26.9036 20.704 26.7801 20.8426C27.1266 20.8831 27.2225 20.7613 27.5491 21.1768C27.1373 21.2772 27.5522 21.4399 27.1617 21.2087C27.4919 21.5115 27.4866 21.7608 28.0759 21.574C27.7718 21.8609 28.173 22.1455 28.4054 22.1233L28.2445 21.7517C28.4774 21.7922 28.6464 21.9034 28.819 22.0155L28.5142 22.4353C29.0832 23.3556 30.3726 22.1161 30.595 23.3208C30.9429 23.0797 30.2473 22.912 30.5992 22.6053C30.9426 22.8212 31.0667 23.6381 31.1871 23.6907C31.6046 24.1515 31.9427 23.1877 32.4102 23.5706C32.4059 23.3777 32.5127 22.9023 32.9723 22.8957C33.3221 23.1014 33.1699 23.7812 32.8804 23.8288C32.7842 23.8056 32.7615 23.7375 32.7869 23.681C32.6421 23.697 32.4557 23.7068 32.5343 23.949L32.6485 23.8003C32.7696 24.0449 33.2974 24.2269 33.0731 24.4587C33.4189 24.405 33.2973 24.2269 33.1187 24.0586C33.5174 24.4836 33.87 24.3689 34.3204 24.6929C34.2714 24.5714 34.2668 24.3471 34.3464 24.3742C35.0158 24.8292 34.7859 24.1591 35.3128 24.247C35.5096 24.5999 35.002 24.8377 35.5823 24.7857C35.832 25.0652 35.4985 25.2628 35.3258 25.3621C35.8976 25.1828 36.1249 25.8641 36.3744 26.0143L36.0823 26.0731C36.2547 26.0402 36.3741 26.0808 36.4972 26.1222L36.4662 25.7311C36.5927 25.8399 36.7121 25.8804 36.6662 26.022C36.8854 25.8439 36.7313 25.4113 37.12 25.1957C37.2577 25.4364 37.7542 25.1959 37.688 25.6655C37.1777 25.3623 37.5367 26.0166 37.1956 26.0675C37.2742 26.0825 37.3548 26.1215 37.4412 26.1854C37.4472 26.2417 37.3921 26.2754 37.3452 26.2915C37.8134 26.8664 37.7698 25.8457 38.3732 26.0225C38.2219 26.2601 38.3739 26.5552 38.4872 26.5238C38.2429 26.4492 38.4935 26.0594 38.7739 25.9195C39.1061 26.2306 39.237 25.8824 39.4325 25.9648L39.2281 25.8058C39.3793 25.5682 39.5619 25.6553 39.8499 25.6465C39.8394 25.7222 39.7972 25.7512 39.754 25.7682C40.0872 25.6528 40.2363 26.4796 40.6899 26.3032C40.8377 26.5346 40.5852 26.8026 40.725 26.9694C41.2818 26.7552 41.1537 27.4487 41.7219 27.2842C41.6624 26.8979 41.6151 26.9805 42.0476 26.7128L41.1666 26.7783L41.8178 26.3833C41.5736 26.3244 41.2435 26.4915 41.1098 26.3966C41.4319 26.165 41.3809 26.2466 41.3367 25.9267C41.543 26.5324 42.0766 25.7645 42.3767 26.2088L42.1661 27.082C42.6671 27.6022 43.3109 26.8647 44.024 27.252L43.8118 27.0443C43.9882 26.7188 44.2914 27.1012 44.5676 27.0112C44.486 27.3008 44.6193 27.4465 44.6892 27.6435C44.7188 27.4235 45.2524 27.7597 45.4313 27.1803L45.7027 27.6294C46.3004 27.8949 46.5617 26.9087 47.1358 27.1097C46.9047 27.4024 47.1404 27.659 46.7023 27.8196C46.9011 27.8558 47.0726 27.9402 47.1096 27.7377C47.1972 27.9428 47.7275 27.4325 47.8639 27.7434C47.9663 27.6271 48.0404 27.32 48.2597 27.3847C48.2759 27.4473 48.236 27.5316 48.236 27.5316C48.2588 27.3884 48.617 27.3808 48.4672 27.0275C48.9538 28.0297 50.1882 27.1645 50.6294 28.0305C51.0795 27.9824 51.6156 27.9511 52.0127 27.9764C51.9802 28.0626 51.9964 28.1252 51.9241 28.0843C52.4493 28.4067 52.3408 27.249 52.9319 27.6069C53.2094 28.1123 52.5803 27.8471 52.7638 28.044C52.7712 29.0364 53.5312 27.9628 53.9102 28.5671L53.8035 28.6197C54.1047 28.9781 54.6169 28.299 55.1394 28.4054C55.1394 28.4054 55.1106 28.4924 55.1268 28.5551C55.5134 28.0884 56.1971 27.9322 56.7065 27.8006C56.5398 28.1832 56.47 28.002 56.5555 28.3945C56.7831 28.3437 56.5086 27.7607 56.9638 27.659C57.1041 27.8729 57.426 28.0641 57.4618 28.4839L57.0318 28.4976C57.2404 29.0452 57.5893 28.4911 57.8126 28.588L57.7795 28.8228C58.4409 28.7591 58.4525 28.1589 59.1555 28.2149L59.0819 28.0327C59.4611 27.4507 59.405 28.3652 59.7835 27.9161L59.9094 28.5142C60.162 28.3597 60.7887 27.904 61.2345 27.7766C60.9918 28.231 60.4667 28.4763 60.1376 28.7532C60.3933 28.7483 60.9974 28.6786 61.1204 28.3794C61.0194 28.4412 60.8969 28.5918 60.7928 28.504C61.0897 28.0197 61.4855 27.7745 61.984 27.7694C61.9495 28.9356 63.3044 28.0251 63.7261 28.8746C64.5841 28.3689 65.5154 28.9068 66.5563 28.7467C66.0884 27.8782 66.8587 28.6943 66.6886 27.7762C66.9177 27.6866 67.0072 27.6886 67.0372 27.7428L66.9825 27.7101C67.0066 27.7237 67.0196 27.7347 67.04 27.7474L67.8322 28.1969C68.0392 28.4425 67.6301 28.434 67.6752 28.6367C68.2125 28.6331 67.9487 28.9963 68.3316 29.1943C68.2173 28.8731 68.4521 28.6948 68.7722 28.7798L68.2891 28.4128C68.9571 27.8182 69.0398 29.0989 69.7153 28.5061L69.5241 28.828C69.7041 28.7148 70.06 28.6675 70.4016 28.5502C70.7449 28.4255 71.0671 28.2095 71.1874 27.8079C71.2741 27.9031 71.4062 28.1347 71.2492 28.2338C72.1847 28.1697 73.1125 27.0662 73.9054 27.3826L73.8843 27.6164C74.0404 27.5209 74.088 27.1448 74.3451 27.3125C74.3533 27.4084 74.3268 27.5508 74.4062 27.5465C74.4774 27.4462 74.7611 27.0487 75.0129 27.125L74.8824 27.4225C75.8275 27.4977 76.0784 26.4893 76.7644 26.1614C76.9258 26.8072 77.6759 26.8628 78.0442 26.8615L78.057 26.9547C79.0891 26.7337 79.6167 25.9095 80.4598 25.3846C81.2638 25.9308 82.4795 25.0298 83.5325 25.0958C83.3519 25.0327 83.3788 24.5967 83.5172 24.4774C83.7788 24.5288 83.9466 23.8331 84.126 24.4206L84.0439 24.4361C84.4119 24.9398 84.8073 24.6476 85.1469 24.5219L84.9143 23.7493C86.2267 24.4769 87.0495 22.4123 87.932 23.185C88.0673 22.9161 88.3286 22.8069 88.4518 22.5233L88.6139 22.9226C89.2384 22.7522 89.5488 22.6665 90.2228 22.2417L90.2054 22.5899C90.625 22.4249 90.1848 21.2303 90.5377 21.0334L90.9271 21.5619C91.6269 21.2413 92.5704 21.3553 92.9841 20.484C93.0172 20.5742 93.0842 20.7509 92.9824 20.8321C93.3135 20.677 94.4396 20.5531 93.9028 19.8403C94.1821 20.3383 94.6406 19.5249 94.8742 19.0918L95.028 19.493C95.0641 18.84 95.0021 18.7076 95.3442 18.3281C95.4724 18.3159 95.6029 18.5706 95.4144 18.5564C95.8584 18.55 95.4721 18.0574 95.9878 18.0134L95.9766 18.3357C96.3361 18.1601 96.2327 18.0529 96.2591 17.6678C96.3833 17.3962 96.9592 17.3785 97.2091 17.6737C97.1342 17.4481 97.1551 17.0694 97.4152 17.046C97.5186 17.1532 97.4937 17.2725 97.4795 17.3317C98.2071 17.237 98.042 16.3789 98.6504 16.4864C98.7326 16.6002 98.7966 16.6431 98.8521 16.6564C98.404 16.9399 98.0393 17.1534 98.0546 17.1062C98.2604 17.4378 98.6596 17.26 98.6613 17.9025C98.7951 17.461 98.9366 16.5985 99.3855 16.5227C99.4235 16.5437 99.4616 16.5646 99.5062 16.6067L99.4919 16.6659C99.5952 16.6438 99.649 16.5667 99.6805 16.4686C99.8262 16.4489 99.9258 16.4416 100.036 16.3742C100.256 16.6152 100.545 16.2463 100.734 16.1431C100.476 15.7991 100.75 15.7008 100.331 15.5566C100.376 15.5636 100.327 15.6222 100.219 15.7135C100.201 15.7405 100.17 15.7684 100.167 15.7989C100.166 15.7869 100.161 15.774 100.156 15.7611C100.045 15.8479 99.9015 15.9581 99.7317 16.0776C99.7506 15.8042 99.7947 15.5565 100.123 15.6239C100.06 15.3345 99.9981 15.0378 99.9793 14.8884C100.268 15.0558 100.576 15.1262 100.846 15.1913C101.114 15.2482 101.342 15.2952 101.479 15.4224C101.867 14.8384 102.631 14.3806 102.481 13.4947C102.566 13.3038 102.787 13.5531 102.921 13.6166C102.882 13.7443 102.773 13.808 102.797 13.9352C102.972 13.5506 103.63 13.2239 103.359 12.7239C103.887 12.6475 103.468 13.2944 103.917 12.831L103.954 13.0199C104.719 12.9775 104.898 12.3667 105.102 11.7816C105.306 11.1927 105.533 10.6286 106.444 10.633C106.325 10.6395 106.265 10.6446 106.189 10.5871C106.964 10.2769 107.479 9.61808 108.035 9.01984C108.581 8.41153 109.161 7.85462 109.984 7.5791C110.411 7.38074 110.195 7.0899 110.194 6.70587L110.586 6.96478L110.54 6.26078C110.633 5.89166 111.033 5.89016 111.425 5.8398C111.813 5.78855 112.196 5.69304 112.204 5.12707L111.907 4.99292C112.15 4.81271 112.407 4.16989 112.634 4.44772C112.613 4.38788 112.461 4.15559 112.659 4.17978L112.841 4.33335L113.027 3.51294C113.54 3.20586 113.68 4.21464 114.276 3.62621C114.418 3.33146 114.338 2.50958 114.139 2.49278C114.048 2.57663 113.812 2.62937 113.625 2.47862L113.719 2.18795C113.217 1.68718 112.804 1.06287 111.979 1.23594L111.992 1.86543L111.632 1.7475L111.878 1.44265C111.486 1.39515 111.608 1.68678 111.65 1.93568C111.488 1.84194 111.349 1.80434 111.237 1.82835L111.434 2.61971C111.191 2.47496 111.164 2.10038 110.844 2.22306C110.935 2.59342 111.442 2.48855 111.357 2.89084C110.97 2.84054 110.821 2.61283 110.846 2.99481C110.686 2.89738 110.64 2.77682 110.649 2.64566C110.653 2.96781 110.304 3.16552 110.498 3.51378C110.059 3.41959 110.033 4.16112 109.562 3.67577C109.625 3.83587 109.651 4.3314 109.519 4.50329C109.224 3.66474 108.917 5.03545 108.381 4.35402C108.686 5.0697 107.871 5.31561 107.789 5.96529C107.769 5.90175 107.728 5.77839 107.788 5.77327C107.542 5.93319 107.337 5.84074 107.105 5.86299C107.488 6.31953 107.246 6.72313 107.314 7.1546C106.661 6.96988 106.999 6.49532 106.538 6.16499C106.883 6.50645 106.413 6.9295 106.772 7.14529C106.33 7.0622 106.483 7.17355 106.048 6.90024C106.513 7.48625 105.946 7.16142 106.086 7.65323C105.548 7.6411 105.545 7.198 105.38 7.65543C105.08 7.61824 105.185 7.16593 105.185 7.16593C104.855 7.44657 105.397 7.71437 105.543 8.01964C105.257 8.49101 105.09 7.86741 104.773 7.77129C104.634 8.10571 104.776 8.65289 104.57 8.79124C104.495 8.73002 104.438 8.73603 104.406 8.61075C104.427 9.17185 103.628 9.2727 103.67 9.96011C103.616 9.93933 103.575 9.91382 103.542 9.8864C103.77 10.0627 103.96 10.2808 104.077 10.446C103.928 10.5783 104.013 10.9552 103.726 10.7176C103.829 10.6484 103.741 10.5254 103.716 10.4019L103.654 10.6572C103.181 10.363 103.759 10.3342 103.515 10.0325C103.312 10.4182 103.216 11.0606 102.88 11.1401C102.51 10.773 103.333 10.5445 102.73 10.4462L103.224 10.299C102.434 9.88921 103.484 10.162 102.681 9.6905C102.103 9.96213 102.312 10.3453 101.721 10.6023C101.783 10.9147 102.019 10.9128 102.08 11.2252C101.669 12.1675 100.736 10.5995 100.623 11.5356C100.693 11.9126 101.022 12.4813 100.443 12.4787L100.228 11.91C99.7068 12.219 100.436 12.7982 99.6983 12.8551C99.6583 12.5988 99.9725 12.4162 99.8561 12.4116C99.2577 12.2791 99.8118 12.8551 99.5549 13.0437L99.2055 12.658C98.7198 13.0812 98.3314 13.7823 97.7824 14.2568C97.7322 14.1077 97.7462 13.9036 97.5169 13.8639C97.2116 14.221 96.802 14.4746 96.3576 14.6611C95.9077 14.8384 95.4137 14.9385 94.9649 15.03L94.9104 15.5807C94.8433 15.6154 94.6843 15.4792 94.712 15.3644C94.3337 15.3907 94.8424 15.6191 94.7908 15.8494C94.6395 15.9734 94.4411 15.7572 94.4802 15.5787C94.1605 16.2064 93.4226 17.1717 92.6229 17.0298L92.6648 16.8559C92.1512 16.9239 92.6119 17.9198 92.0105 17.767L92.053 17.6558C91.5356 17.8208 91.0618 18.1294 90.5884 18.3715C90.1206 18.6228 89.6241 18.7498 89.1171 18.6275C89.2509 19.2745 88.0423 18.8147 88.3558 19.6577C87.6161 19.5106 87.7084 19.2901 86.8137 19.3798C86.5889 19.4352 86.7249 20.024 86.4976 20.2197L86.3075 19.7902L86.1436 20.3889L85.7365 19.9501L85.537 20.1604C85.6458 20.1475 85.8241 20.2688 85.863 20.3995C85.5585 20.7529 84.802 20.4804 84.706 20.2615L83.9478 21.0027C83.9107 20.8645 83.9754 20.7587 84.0418 20.6455C83.8004 21.0298 83.8161 20.1526 83.5548 20.7004C83.6505 20.7744 83.6217 20.9749 83.6465 21.067C83.3219 20.887 82.8101 21.0611 82.4733 21.3049L82.4355 20.9747C81.7269 21.1366 81.0525 21.6279 80.2838 21.8928C80.6055 21.939 80.7181 22.4947 80.5106 22.6248L80.2678 22.1865C80.2162 22.5303 80.5622 22.2809 80.3768 22.7413C80.0632 22.7753 80.0063 22.2644 80.1255 22.0621L79.8259 22.3305C79.7602 22.1972 79.8194 22.0979 79.7827 21.909C79.7292 22.2445 79.0278 21.6134 78.9754 22.188L78.9143 22.0519C78.1389 22.28 77.8355 22.5475 77.2086 22.7604C77.3118 23.1768 77.0384 23.1579 76.9364 23.5483C76.423 23.5341 75.813 23.3361 75.2541 23.5107C74.903 23.8136 75.225 23.8913 75.1037 24.1831C74.9815 23.813 74.4189 23.9866 74.6505 23.6431C74.3173 23.7585 74.1009 23.8277 73.871 23.9367C73.6412 24.0457 73.3978 24.1946 72.9889 24.4288C73.1165 24.5652 73.2379 24.6141 73.2114 24.7565C73.0635 24.85 72.8146 24.6647 72.7973 24.4765L72.832 24.4301C72.3957 24.8104 71.7666 24.643 71.18 24.4937C70.5898 24.3436 70.0451 24.2318 69.7166 24.6851L69.755 24.6395L69.0005 25.1702C68.6127 25.1549 69.1834 24.8502 68.8679 24.6488C68.0803 25.4142 67.4655 24.7491 66.7932 25.28C66.4455 24.7576 65.9502 24.8144 65.4361 24.9332C64.9182 25.051 64.3796 25.2226 63.9706 24.8891L64.0356 25.1554C63.858 25.4375 63.7862 25.0208 63.6371 24.9731C63.673 25.1815 63.8689 25.1974 63.7566 25.3543C62.9353 25.6104 62.0566 25.5199 61.1858 25.3804C60.3103 25.228 59.4401 25.0534 58.5895 24.8953C57.9675 24.8119 58.2217 26.2905 57.438 25.6278L57.672 25.1282C57.0346 25.417 56.3874 25.4058 55.7418 25.3715C55.0988 25.3104 54.463 25.2354 53.8278 25.4502C53.9091 25.3406 53.9217 25.191 54.0445 25.201C53.8078 24.819 53.0819 25.1177 53.0493 25.4152C52.8569 25.3688 53.0286 25.144 52.922 24.9851C52.6809 24.7508 52.2202 25.4111 52.1182 25.0223C52.102 24.9597 52.2032 24.9136 52.2519 24.8901C52.0658 25.0449 51.467 24.7517 51.5851 25.1874C51.1454 24.9326 50.6773 25.2661 50.3361 24.9763C50.0342 25.4164 49.5755 24.6558 49.4102 25.309C49.5356 24.6266 48.6755 24.6698 48.3361 24.9247C48.4638 24.7362 48.1161 24.668 48.2736 24.4045C47.9408 24.3556 47.6211 24.4312 47.6204 24.7913C47.1484 23.8748 46.2726 25.2337 46.1148 24.1346C45.8521 24.1848 45.5958 24.2248 45.3404 24.2611C45.0896 24.2945 44.8441 24.3058 44.6023 24.318C44.1188 24.3423 43.6489 24.3426 43.1872 24.3252C43.3709 23.6608 44.1771 24.4739 44.2903 23.7612C43.4029 23.8526 42.7855 24.3184 41.9915 23.9742C41.7983 23.8337 42.1841 23.7114 42.2821 23.6136C41.8311 23.6654 41.4349 23.5385 41.0508 23.4264C40.6659 23.3179 40.2866 23.2186 39.8718 23.2987C39.8907 23.2366 39.9872 23.1934 40.0774 23.1603C39.925 23.1431 39.7666 22.9718 39.7008 23.277L39.8639 23.2341C39.9779 23.7354 39.0319 23.9888 38.9359 24.2084C39.4287 23.415 38.265 23.7921 38.975 22.8123C38.8617 22.8437 38.7029 22.9502 38.6649 23.1564C38.5395 23.0596 38.532 22.9286 38.7418 22.7404C38.177 22.7608 38.2641 23.1302 37.8012 22.9716C37.848 22.8263 37.9595 22.8023 38.0588 22.6501C37.7393 22.8549 37.4123 23.058 37.0576 22.808C37.1077 22.73 37.0992 22.6027 37.215 22.6423C36.5294 22.4653 35.8185 23.0103 35.1634 22.4961C35.5973 21.9469 34.9819 22.2096 35.1305 21.6581C34.9783 21.6723 34.8288 21.6754 34.6802 21.6748L34.7438 21.9955C34.4056 21.8553 33.9602 22.1276 33.7279 21.8406L34.0629 21.7178L33.3813 21.573L33.6713 21.9131C33.2183 22.0544 33.4583 22.6017 33.0512 22.2765C33.1655 22.2571 32.7048 22.1381 32.648 21.7564C32.4116 21.8599 32.1661 21.9691 31.9592 21.7391C31.9594 21.5434 32.2443 21.1736 32.2479 21.0452C31.9076 21.4173 31.3897 20.8696 30.9921 21.2357C31.1087 21.1581 31.2255 20.8848 31.2259 20.8184L30.9394 21.1134C30.8308 20.9306 30.8312 20.8641 30.9476 20.6573C30.504 20.3859 30.818 21.3895 30.3787 20.8568C30.4359 20.8471 30.4354 20.7843 30.5516 20.7732C30.0553 20.3795 29.3678 20.5191 28.9278 20.1193C29.0106 19.5324 29.4352 20.1908 29.4586 19.6718C29.0671 19.5578 28.6156 19.5468 28.1749 19.5071C27.7406 19.4572 27.3235 19.3684 27.0012 19.1301L27.1047 19.2529C26.6515 19.9307 26.757 18.6327 26.2322 18.7959C26.3484 18.7848 26.5459 18.4526 26.4828 18.5196C26.0644 18.1603 25.4085 18.2175 24.5661 18.0574L24.7515 17.922C24.5623 17.6023 24.0743 17.4181 23.8248 17.17C23.6366 17.3008 23.4824 17.1775 23.4407 17.4963C23.2672 16.7223 22.7567 16.6149 22.2362 16.5324C21.714 16.4574 21.2038 16.3814 21.0643 15.7095C21.1599 15.7678 21.3845 15.6967 21.3103 15.6475L20.5354 15.3862C20.4043 15.7187 20.5097 15.6228 20.5105 15.944C20.3159 16.0694 20.0381 16.0846 19.8683 15.9771C20.3003 15.9716 20.1643 15.4964 20.1382 15.2474C20.1012 15.352 19.9938 15.424 19.9466 15.5222C19.9283 14.77 19.5063 16.0817 19.2469 15.4201L19.3741 15.2824C19.1439 15.2465 18.842 15.3459 18.6744 15.1802C18.8161 14.7876 18.9732 15.1426 19.1676 14.8724C18.8838 14.7178 18.1962 15.1824 18.1827 14.6701C18.358 14.6576 18.5242 14.7642 18.7058 14.7415C18.6974 14.1756 18.6048 14.2512 18.4536 14.0503L18.4676 14.0732L18.1441 13.5802L18.1853 13.7663C17.2555 14.4074 17.4035 13.4525 16.5554 13.7061C17.3705 13.4759 16.845 13.447 17.1457 13.0928C17.1082 12.9075 17.0167 12.6701 17.1435 12.5989C16.8434 12.7067 16.8761 12.4248 16.711 12.3302C16.7687 12.2697 16.8226 12.2083 16.8554 12.1536C16.9574 11.9902 16.9952 11.8662 16.98 11.8156C16.98 11.8156 16.98 11.8156 16.9837 11.8165L17.0553 11.8768L17.0526 11.8879L17.0583 11.9128C17.053 11.935 17.0595 11.9405 17.0706 11.9431C17.0947 11.9568 17.1225 11.9713 17.154 11.9868L17.1696 11.9709L17.1806 11.9579L17.1824 11.9505L17.2376 11.9325C17.2762 11.9183 17.3121 11.8996 17.3479 11.8808C17.4334 11.8349 17.5142 11.776 17.5847 11.7108L17.3672 11.8659C17.5032 11.7891 17.7097 11.647 17.8626 11.3863C17.8827 11.352 17.8953 11.3159 17.9107 11.2844L18.463 11.2022L18.3503 10.8579L19.2117 10.3217C19.2624 10.3065 19.3462 10.2836 19.5408 10.1583L19.5157 10.1327L19.6773 10.0307C19.7462 10.1021 19.7118 10.0664 19.722 10.0728L19.7358 10.0644L20.9918 9.23964L21.0527 9.34437L21.0285 9.21717L21.6611 8.802L21.1502 8.64748L22.2645 8.31321L21.4265 8.23252C21.4996 8.14051 21.5524 8.05145 21.585 7.98101L21.6168 7.91428C21.6406 7.89654 21.6636 7.8825 21.692 7.86195C21.7535 7.81805 21.8076 7.77236 21.8672 7.72017C21.7936 7.7494 21.7273 7.78042 21.6639 7.81603L21.9124 7.27297L21.9394 7.3069C21.9494 7.2819 22.081 7.23925 22.2786 6.90711L22.0728 6.91621L22.1381 6.77534L22.5253 7.05275L22.5289 7.03795L22.5399 7.02493C22.5399 7.02493 22.5491 7.01932 22.5509 7.01192L22.5343 7.01575C22.5343 7.01575 22.536 7.00835 22.5196 7.02787L22.516 7.04267L22.1316 6.76986L22.3554 6.92954L22.3598 6.91105C22.3598 6.91105 22.3635 6.91193 22.3644 6.90823L22.3662 6.90083C22.3662 6.90083 22.3494 6.87328 22.3437 6.8641C22.4192 6.94101 22.4548 6.89086 22.548 7.00732C22.5498 6.99992 22.5377 6.98526 22.5469 6.97964C22.5478 6.97594 22.5496 6.96854 22.5505 6.96484L22.5531 6.95374C22.5705 6.93052 22.5915 6.90818 22.6126 6.88585C22.7014 6.79372 22.7742 6.67032 22.7892 6.59173C22.8079 6.51403 22.7855 6.47729 22.7292 6.48329C22.7494 6.46466 22.7621 6.44425 22.7786 6.42473L24.3391 8.12047L23.5592 5.49319C23.5592 5.49319 23.5592 5.49318 23.5601 5.48948L23.5712 5.49216C23.5712 5.49216 23.573 5.48476 23.5747 5.47736C23.6241 5.41879 23.6597 5.36864 23.6935 5.32589C23.7482 5.24512 23.7856 5.18757 23.79 5.16907C23.7909 5.16537 23.7909 5.16537 23.7909 5.16537C23.8208 5.20389 23.8357 5.22315 23.8273 5.20938C23.7713 5.13322 23.7274 5.07174 23.6937 5.01663C23.6937 5.01663 23.7189 5.05796 23.7339 5.07722C23.7339 5.07722 23.7311 5.07263 23.7283 5.06804C23.7002 5.02211 23.6796 4.99366 23.6665 4.967C23.6749 4.98078 23.6805 4.98997 23.689 5.00374C23.6777 4.98537 23.6702 4.9679 23.6618 4.95412C23.6561 4.94493 23.6505 4.93575 23.6486 4.92745C23.643 4.91827 23.6411 4.90998 23.6355 4.9008C23.6327 4.8962 23.6308 4.88791 23.6279 4.88332C23.6223 4.87413 23.6176 4.86125 23.6157 4.85295C23.6166 4.84925 23.6101 4.84377 23.6119 4.83637C23.6119 4.83637 23.6099 4.82807 23.6071 4.82348C23.6071 4.82348 23.6062 4.82719 23.609 4.83178C23.6099 4.82808 23.6071 4.82348 23.6043 4.81889C23.5996 4.80601 23.5977 4.79771 23.5976 4.78202L24.1102 4.92914C24.154 4.86138 24.1968 4.79732 24.2388 4.73697L24.2999 4.64598L24.3034 4.63118C24.3422 4.63271 24.3773 4.63334 24.4087 4.63307C24.4051 4.64787 24.409 4.66446 24.4109 4.67275C24.4131 4.71243 24.3995 4.75224 24.3823 4.79115C24.3405 4.8672 24.271 4.94441 24.2172 5.02148L23.6004 4.78661L24.3185 5.10464C24.3529 5.02681 24.3827 4.95178 24.4089 4.87586C24.4224 4.83606 24.4387 4.80084 24.4513 4.76473L24.4721 4.71101L24.524 4.62565C24.8014 4.56332 24.9425 4.4329 25.0212 4.35008C25.0358 4.33796 25.0514 4.32213 25.0797 4.28589C25.0907 4.27288 25.1025 4.25616 25.1153 4.23574L26.0969 4.04568L25.7806 3.42518C25.8269 3.33063 25.8667 3.23059 25.8962 3.12418C25.9232 3.14242 25.9173 3.2154 25.9058 3.27919C25.9576 3.17813 26.0944 3.0819 25.9553 3.00921L25.9276 3.12392C25.8668 3.13274 25.824 3.09894 25.7959 3.05301C25.8225 3.02417 25.8601 2.99801 25.9088 2.97452L25.7336 2.77566C25.7258 2.61325 25.7318 2.44241 25.6899 2.40491C25.7787 2.53987 25.8535 2.53833 25.9261 2.4971L26.8062 1.98108L25.4041 1.9014C25.2416 1.89353 25 2.03495 25.0259 1.60269C24.9691 1.65947 24.9156 1.76793 24.9763 1.85697C24.9597 1.8608 24.9449 1.85723 24.9292 1.85736L24.9255 1.85647C24.9255 1.85647 24.9181 1.85469 24.9144 1.8538C24.8967 1.82994 24.8735 1.8126 24.8513 1.80724C24.839 1.77688 24.8406 1.7381 24.8594 1.67609C24.787 1.733 24.7412 1.77678 24.7074 1.81952C24.6678 1.83739 24.6385 1.86164 24.6313 1.89124C24.6496 1.86432 24.6688 1.84939 24.69 1.84275C24.6599 1.88639 24.6427 1.92531 24.6264 1.96053C24.6255 1.96422 24.6237 1.97162 24.6191 1.97443L24.3244 1.62147L24.0507 2.22105C24.0507 2.22105 24.0379 2.24147 24.0315 2.25168L23.9338 2.26726C23.8976 2.23895 23.8604 2.21433 23.8187 2.19253C23.7157 2.13246 23.6333 2.10084 23.6015 2.05402C23.2582 2.0652 23.1263 2.19001 23.0767 2.21719C23.062 2.22932 23.0574 2.23212 23.0556 2.23952L23.1177 2.37194L22.7701 2.43301L22.571 2.46329L21.9609 2.03819L22.112 2.54836C22.112 2.54836 22.0991 2.55309 22.0908 2.555L22.0734 2.46468C22.0734 2.46468 22.0512 2.45933 22.0401 2.45665L22.0632 2.57185C22.0632 2.57185 22.0495 2.58028 22.0449 2.58308L22.0179 2.4513C22.0179 2.4513 21.9883 2.44416 21.9735 2.44059C21.9735 2.44059 21.9744 2.43689 21.9716 2.43229C21.9716 2.43229 21.9707 2.436 21.9698 2.4397C21.8921 2.42096 21.7968 2.39406 21.7025 2.37916C21.5666 2.35813 21.4052 2.37795 21.3088 2.43691C21.2977 2.43424 21.2921 2.42505 21.2819 2.41867L21.1659 2.34763C21.1285 2.40518 21.0948 2.46363 21.0695 2.52015C21.1063 2.51338 21.1515 2.50469 21.2032 2.50149C21.1894 2.50992 21.1747 2.52204 21.1655 2.52766L21.0169 2.6406C20.9219 2.64509 20.8395 2.61347 20.8375 2.60518C20.8358 2.61258 20.8358 2.61258 20.8349 2.61627C20.8366 2.60887 20.8375 2.60518 20.843 2.59867C20.843 2.59867 20.843 2.59867 20.8439 2.59497C20.8412 2.60607 20.8349 2.61627 20.8294 2.62278C20.8212 2.64039 20.8185 2.65149 20.8185 2.65149C20.7886 2.71083 20.7612 2.74337 20.752 2.74898L20.4377 2.26602C20.2978 2.42413 19.7626 2.45168 19.2662 2.48076L18.9884 2.496C18.9634 2.48606 18.9393 2.47241 18.9032 2.45979C18.8816 2.41935 18.8483 2.41132 18.8293 2.34409C18.8154 2.33682 18.7978 2.32866 18.7996 2.32126C18.8014 2.31386 18.8162 2.31743 18.8319 2.31729L18.9133 2.33692C18.9133 2.33692 18.9409 2.33577 18.9381 2.33118C18.9353 2.32658 18.9085 2.32404 18.8937 2.32047C18.8308 2.3053 18.7505 2.29766 18.7013 2.27407C18.6679 2.25035 18.6059 2.23148 18.5385 2.23481C18.558 2.25127 18.549 2.27257 18.5195 2.28113C18.4907 2.2546 18.4458 2.40822 18.4113 2.3725L18.2979 2.38823C18.2979 2.38823 18.2611 2.395 18.2408 2.39793L18.2926 2.41043C18.3629 2.42738 18.4424 2.43871 18.5109 2.46307C18.4688 2.50773 18.4277 2.56439 18.3879 2.55087C18.4106 2.50545 18.4278 2.46653 18.4133 2.49435C18.404 2.48427 18.3845 2.46782 18.3427 2.44601C18.3056 2.4214 18.2426 2.39053 18.1731 2.36988L18.1176 2.3565C18.1176 2.3565 18.0985 2.38712 18.0896 2.42412L18.0628 2.53513C18.0251 2.65915 17.9682 2.92734 17.9771 2.77679C17.9651 2.66426 17.9456 2.53426 17.9223 2.40336C17.9141 2.30742 17.8943 2.35744 17.8766 2.34928L17.8278 2.35708C17.8542 2.42609 17.8806 2.49511 17.9034 2.56323L17.9147 2.59729L17.9036 2.59462C17.8468 2.53785 17.7788 2.46272 17.7107 2.3719C17.6968 2.36463 17.68 2.35277 17.6596 2.34001C17.5725 2.40906 17.473 2.43205 17.57 2.5494C17.4624 2.49214 17.3486 2.46078 17.2148 2.46375C17.1834 2.46401 17.1511 2.46797 17.1142 2.47474L17.11 2.41108C16.7815 2.42582 16.5684 2.56239 16.3735 2.65634C16.276 2.70331 16.1841 2.74377 16.1011 2.76293C16.0929 2.76484 16.0855 2.76306 16.0735 2.76408C16.0594 2.74112 16.0426 2.71357 16.0239 2.69341C15.982 2.64022 15.9188 2.59367 15.8808 2.57275C15.8325 2.54546 15.7853 2.53016 15.764 2.52111C15.8236 2.46891 15.8592 2.41876 15.8076 2.43766C15.7672 2.45923 15.7305 2.48169 15.6854 2.50607C15.6632 2.50072 15.6429 2.50366 15.6235 2.50289L15.4499 2.49234L15.3665 2.56228C15.3362 2.59023 15.317 2.60516 15.306 2.61818C15.3051 2.62187 15.3042 2.62558 15.3042 2.62558L15.3129 2.67074L15.3102 2.68184C15.2768 2.65812 15.236 2.63261 15.2054 2.61348C15.2279 2.66591 15.1777 2.72818 15.192 2.78253C14.9979 2.64568 14.9757 2.75387 14.9655 2.86104C14.9462 2.97383 14.9379 3.0893 14.696 3.08578L14.6841 2.98895C14.6511 3.01231 14.6246 3.04114 14.6026 3.06718C14.6026 3.06718 14.5961 3.06169 14.597 3.05799C14.543 3.00582 14.4884 2.98874 14.444 2.97803C14.4255 2.97357 14.4126 2.97829 14.3978 2.97473L14.4892 2.64439L13.8935 2.61429C13.8547 2.61277 13.8123 2.61035 13.7541 2.60807L13.7763 2.61342C13.6062 2.58807 13.4262 2.58773 13.2592 2.59836L13.3961 2.63137C13.2174 3.1286 12.9247 3.01104 12.6595 3.20158L12.6114 3.18999C12.6797 3.06941 12.6243 3.07171 12.5742 3.03613L12.8172 3.06733C12.7845 3.02421 12.7574 2.97459 12.7984 2.91793C12.6107 2.77087 12.3923 2.70254 12.4628 2.63732C12.3102 2.71799 12.2167 2.68369 12.1085 2.66152C12.0049 2.63654 11.8923 2.63286 11.767 2.77885C11.7489 2.70791 11.5741 2.78323 11.6039 2.59465C11.3921 2.66105 11.6594 2.72159 11.6491 2.81307C11.6244 2.83451 11.5977 2.84765 11.5719 2.8571C11.5645 2.85532 11.5626 2.84702 11.5552 2.84524C11.5107 2.81884 11.4653 2.79614 11.4227 2.77803L11.3977 2.88164C11.3635 2.87731 11.3302 2.86928 11.2978 2.85754L11.2245 3.37236C11.2245 3.37236 11.2245 3.37236 11.2208 3.37147C11.1977 3.36982 11.1653 3.35809 11.1412 3.34444L11.2793 2.96664C11.098 2.92291 11.0004 2.95419 10.9312 2.96493C10.8612 2.97936 10.8197 2.98894 10.8123 2.98716C10.7838 2.99201 10.7348 2.98411 10.7418 2.93882C10.776 2.94314 10.7434 2.91572 10.7295 2.90845C10.7119 2.90029 10.6925 2.89953 10.6722 2.90247C10.6308 2.91205 10.5905 2.94931 10.5355 2.9987C10.4554 3.02245 10.5338 3.2332 10.4581 3.23845C10.424 3.24981 10.4039 3.26844 10.3541 3.27994C10.2998 3.29424 10.2491 3.30943 10.205 3.33011C10.0542 3.40338 9.94233 3.49386 9.79448 3.58742C9.75302 3.59699 9.71245 3.60287 9.67099 3.61245C9.57604 3.51908 9.76661 3.34578 9.77031 3.34667C9.62703 3.32387 9.52458 3.32657 9.42507 3.34955C9.33564 3.36323 9.25756 3.41096 9.16099 3.45423C9.19644 3.38839 9.14987 3.33801 9.10392 3.25254C9.00709 3.26443 8.9931 3.46856 8.88732 3.4039L8.81931 3.44232L8.93589 3.25117C8.9614 3.21034 8.9887 3.16211 9.02147 3.10737L8.97094 3.13825L8.72288 3.50128L8.74917 3.55461L8.79471 3.47945L8.86283 3.45673C8.94028 3.44408 8.99921 3.42697 9.05931 3.43754C9.02768 3.51997 8.98496 3.59972 8.93854 3.67858C8.88954 3.67068 8.84335 3.66737 8.79615 3.65207C8.77867 3.6596 8.76119 3.66713 8.74001 3.67377L8.70302 3.66485L8.72254 3.6813C8.70507 3.68884 8.68848 3.69267 8.67381 3.70479L8.63812 3.8528L8.56642 3.89032C8.56553 3.89402 8.56745 3.90232 8.57026 3.90691L8.62205 3.9194L8.62768 3.92859C8.6259 3.93599 8.625 3.93969 8.62322 3.94709L8.61033 3.95181C8.60409 3.97771 8.59873 3.99991 8.60077 4.0239L8.60818 4.02568C8.60818 4.02568 8.60461 4.04048 8.60282 4.04788C8.60461 4.04048 8.59899 4.0313 8.60077 4.0239L8.56581 4.03896C8.55778 4.07226 8.55065 4.10186 8.53611 4.12968L8.49247 4.09958C8.41915 4.27375 8.36483 4.4016 8.30784 4.54055C8.28259 4.61277 8.25008 4.69889 8.22407 4.79051C8.19127 4.7317 8.14927 4.6785 8.0833 4.62736C8.00009 4.50158 7.88371 4.38346 7.70957 4.42369C7.7938 4.56146 7.81001 4.6241 7.83274 4.69223C7.845 4.72259 7.85636 4.75665 7.87972 4.78969L7.38351 5.17511C7.33375 5.1866 7.2868 5.20269 7.22902 5.24749C7.26132 5.35707 7.27551 5.50928 7.29073 5.67347C7.22171 5.6999 7.14811 5.72913 7.07641 5.76666C7.1195 5.62044 7.16375 5.5019 7.20353 5.40187C6.98284 5.50526 7.05115 5.72533 7.10274 5.93353C7.02351 5.95358 6.95756 6.01599 6.90847 6.10594C6.90106 6.10416 6.89737 6.10327 6.88997 6.10148C6.88627 6.10059 6.87886 6.0988 6.87146 6.09702C6.86776 6.09613 6.86228 6.10264 6.85768 6.10544L5.85332 5.44823L6.82091 7.67053L6.83241 7.72028ZM100.312 16.1863C100.312 16.1863 100.302 16.1486 100.298 16.132C100.331 16.2065 100.364 16.281 100.373 16.3419C100.287 16.47 100.2 16.4255 100.136 16.3669C100.189 16.3249 100.246 16.2681 100.316 16.1872L100.312 16.1863ZM98.0622 14.2656C98.0274 14.2963 97.9825 14.3364 97.9019 14.4109L97.8962 14.4017C97.965 14.3439 98.0237 14.2954 98.0585 14.2647L98.0622 14.2656ZM97.5073 14.6995C97.6144 14.8075 97.6691 14.9538 97.5892 14.9933C97.5763 14.8845 97.3587 14.926 97.183 14.8914C97.2796 14.8482 97.3907 14.7771 97.5036 14.6986L97.5073 14.6995ZM23.8227 5.21218C23.8227 5.21218 23.805 5.18833 23.7872 5.16448C23.7985 5.18284 23.8106 5.19751 23.8227 5.21218ZM13.9038 2.96131L13.9774 2.93208L13.9897 2.96244C14.0385 2.95465 14.0911 2.94775 14.1474 2.94174L14.2164 3.02886C14.1455 3.047 14.0837 3.05951 14.0256 3.05723L14.0303 3.07012L14.0071 3.05277C14.0071 3.05277 13.9914 3.0529 13.9803 3.05022L13.9532 3.01629L13.9031 2.98071L13.8798 2.96336C13.8798 2.96336 13.8936 2.95494 13.9019 2.95302L13.9038 2.96131ZM15.3481 2.89847C15.3481 2.89847 15.3507 2.88737 15.3525 2.87997L15.3481 2.89847ZM24.7623 4.18977L24.8273 4.24461L24.7976 4.22178L24.7939 4.22089L24.7614 4.19347L24.7623 4.18977ZM6.35637 10.4088C6.35637 10.4088 6.35547 10.4125 6.35828 10.4171C6.326 10.4211 6.27804 10.4252 6.22637 10.4284L6.22994 10.4136C6.27791 10.4095 6.301 10.4111 6.35637 10.4088ZM6.22623 10.4127L6.26962 10.4114C6.36007 10.4097 6.28901 10.4122 6.22623 10.4127ZM19.2477 3.02835C19.2477 3.02835 19.2523 3.02554 19.2569 3.02274C19.2698 3.01801 19.2835 3.00959 19.3001 3.00576C19.2798 3.0087 19.2624 3.01623 19.244 3.02746L19.2477 3.02835ZM19.2194 9.68926L19.1454 9.67142C19.1516 9.64552 19.1541 9.61872 19.1539 9.58734C19.1253 9.59219 19.0856 9.59437 19.0376 9.59847L19.0347 9.57818L19.0329 9.58558L19.0385 9.59476L19.0376 9.59847C19.0893 9.59527 19.1253 9.59219 19.1539 9.58734L19.1446 9.57726L19.1668 9.58262L19.1659 9.58632L19.1548 9.58364L19.2165 9.68467L19.2113 9.60901L19.2419 9.62815C19.2493 9.62993 19.2651 9.64549 19.3005 9.67751C19.3163 9.69307 19.3358 9.70952 19.3545 9.72968L19.2156 9.68837L19.2194 9.68926ZM7.62327 17.6248C7.62456 17.6682 7.62124 17.7144 7.61704 17.7643C7.61704 17.7643 7.61526 17.7717 7.61068 17.7745L7.62238 17.6285L7.62327 17.6248ZM6.38521 10.4354C6.38521 10.4354 6.38891 10.4363 6.39261 10.4372L6.38521 10.4354ZM6.37067 10.4632C6.33099 10.4654 6.27563 10.4677 6.22395 10.4709C6.25623 10.4669 6.3116 10.4646 6.37067 10.4632ZM19.3351 2.99069C19.3351 2.99069 19.3379 2.99529 19.3407 2.99988C19.3407 2.99988 19.3407 2.99988 19.3342 2.99439C19.3342 2.99439 19.3351 2.99069 19.3323 2.9861L19.3351 2.99069ZM19.1687 9.59091L19.1539 9.58734C19.1539 9.58734 19.1545 9.55225 19.1553 9.53286C19.1738 9.53732 19.1905 9.54918 19.2053 9.55275L19.2104 9.61271L19.1659 9.58632C19.2175 9.58312 19.2101 9.58133 19.1659 9.58632L19.1687 9.59091ZM17.8343 10.8705L17.8103 10.8725L17.7346 10.7642L17.7249 10.7071L17.7973 10.748C17.8214 10.7617 17.8483 10.7799 17.8798 10.7953L17.838 10.8714L17.8343 10.8705ZM24.2804 3.86607C24.2804 3.86607 24.2804 3.86607 24.2767 3.86517L24.2804 3.86607ZM23.6655 2.86034C23.6655 2.86034 23.6552 2.83827 23.6476 2.82079L23.6655 2.86034ZM23.5365 3.00543L23.5354 2.97774L23.5768 2.96816C23.5768 2.96816 23.5512 2.9933 23.5365 3.00543ZM23.5365 3.00543L23.5363 2.97404L23.5374 3.00173L23.5365 3.00543ZM11.965 15.4182L11.9632 15.4256L11.9595 15.4247L11.9613 15.4173L11.965 15.4182ZM18.9436 9.61495L18.877 9.59888L18.8621 9.57962C18.8639 9.57222 18.8583 9.56304 18.86 9.55564C18.883 9.5416 18.9069 9.52386 18.9243 9.51633L18.9025 9.4445L19.0259 9.51732C19.0318 9.5579 19.0329 9.58558 19.0313 9.60867C19.0036 9.60983 18.975 9.61468 18.9436 9.61495ZM23.5386 2.91586L23.5421 2.90106L23.5717 2.9082C23.5606 2.90553 23.5515 2.91114 23.5395 2.91216L23.5386 2.91586ZM23.5386 2.91586L23.543 2.89736L23.5395 2.91216L23.5386 2.91586ZM24.4121 4.60258L24.3992 4.6073L24.4102 4.59429C24.4102 4.59429 24.4084 4.60169 24.4158 4.60347L24.4121 4.60258ZM24.1013 4.52763C24.1013 4.52763 24.0246 4.52089 23.9848 4.50737C23.9404 4.49666 23.8802 4.4704 23.8172 4.43954L24.0501 4.48005C24.1021 4.50824 24.1179 4.5238 24.1013 4.52763ZM19.3246 2.95293C19.3246 2.95293 19.3293 2.96582 19.3275 2.97322C19.3275 2.97322 19.3275 2.97322 19.3284 2.96952C19.3302 2.96212 19.3274 2.95752 19.3199 2.94005C19.3199 2.94005 19.3217 2.93265 19.3189 2.92805C19.3171 2.93545 19.319 2.94375 19.3218 2.94834L19.3246 2.95293ZM19.3195 3.00652C19.3195 3.00652 19.3195 3.00652 19.3158 3.00562L19.3195 3.00652ZM7.917 6.04766C7.90081 6.09857 7.88743 6.15407 7.87864 6.20677C7.81765 6.19989 7.75858 6.20131 7.69862 6.20643L7.92071 6.04855L7.917 6.04766ZM6.45853 10.2612C6.45853 10.2612 6.44374 10.2576 6.42893 10.2541L6.40673 10.2487C6.38734 10.248 6.40583 10.2524 6.43544 10.2595C6.40494 10.2561 6.38555 10.2553 6.38095 10.2582L6.37878 10.2185C6.40838 10.2256 6.43798 10.2328 6.46018 10.2381C6.45839 10.2455 6.45839 10.2455 6.45661 10.2529L6.45853 10.2612ZM6.38288 10.2665C6.38288 10.2665 6.39397 10.2691 6.40507 10.2718C6.41248 10.2736 6.41988 10.2754 6.43098 10.2781C6.41248 10.2736 6.40137 10.2709 6.38288 10.2665ZM6.4514 10.2908C6.4514 10.2908 6.44783 10.3056 6.44693 10.3093C6.42843 10.3048 6.40444 10.3069 6.38224 10.3015L6.3802 10.2776C6.4061 10.2838 6.42919 10.2854 6.44858 10.2862L6.4514 10.2908ZM6.38505 10.3061C6.40725 10.3115 6.42945 10.3168 6.44426 10.3204C6.44247 10.3278 6.4398 10.3389 6.43801 10.3463C6.42321 10.3427 6.40662 10.3466 6.38723 10.3458L6.38594 10.3024L6.38505 10.3061ZM6.43623 10.3537C6.43623 10.3537 6.43623 10.3537 6.43533 10.3574C6.42793 10.3556 6.41594 10.3566 6.40764 10.3586L6.43355 10.3648L6.43444 10.3611C6.42334 10.3584 6.40306 10.3614 6.38736 10.3615C6.38736 10.3615 6.40305 10.3614 6.40764 10.3586L6.38915 10.3541C6.40484 10.354 6.42054 10.3538 6.43993 10.3546L6.43623 10.3537ZM6.43355 10.3648C6.43355 10.3648 6.43177 10.3722 6.43087 10.3759C6.41518 10.376 6.40319 10.3771 6.3875 10.3772L6.39018 10.3661C6.39018 10.3661 6.41326 10.3677 6.43266 10.3685L6.43355 10.3648ZM6.42909 10.3833C6.41799 10.3806 6.4051 10.3854 6.38941 10.3855L6.42909 10.3833ZM6.4282 10.387C6.40791 10.3899 6.37282 10.3893 6.4273 10.3907C6.4162 10.388 6.40332 10.3928 6.39222 10.3901L6.394 10.3827C6.394 10.3827 6.42169 10.3815 6.42909 10.3833L6.4282 10.387ZM6.37322 10.4364L6.23109 10.4413C6.27906 10.4372 6.32614 10.4368 6.36952 10.4355L6.37322 10.4364ZM6.38075 10.4539C6.33368 10.4543 6.2857 10.4584 6.2857 10.4584C6.26171 10.4604 6.24602 10.4605 6.23402 10.4616L6.23759 10.4468C6.40281 10.4435 6.22293 10.4589 6.38075 10.4539ZM6.26734 10.4696C6.26734 10.4696 6.24334 10.4716 6.23595 10.4699C6.29591 10.4647 6.38267 10.4622 6.26734 10.4696ZM6.36149 10.4688C6.35409 10.467 6.35409 10.467 6.36149 10.4688C6.36149 10.4688 6.3532 10.4707 6.34861 10.4735C6.33661 10.4746 6.32092 10.4747 6.30063 10.4776L6.24066 10.4827L6.24245 10.4753C6.24245 10.4753 6.24986 10.4771 6.36519 10.4697L6.36149 10.4688ZM19.4035 9.96468C19.4035 9.96468 19.4127 9.95906 19.4173 9.95625L19.4251 10.0051L19.3998 9.96378L19.4035 9.96468ZM24.5023 4.56951L24.4865 4.55395L24.5309 4.56466C24.5309 4.56466 24.5143 4.56849 24.5023 4.56951ZM19.327 2.91045C19.3213 2.88557 19.3192 2.86158 19.3181 2.8339C19.3192 2.86158 19.325 2.88646 19.3307 2.91134L19.327 2.91045ZM15.3989 3.01252L15.4117 3.00779L15.41 3.01519L15.3989 3.01252ZM14.0631 3.12892C14.0631 3.12892 14.0641 3.14091 14.0669 3.14551C14.0669 3.14551 14.0669 3.14551 14.0632 3.14462L14.0418 3.11987L14.0527 3.10685L14.0622 3.13262L14.0631 3.12892ZM10.9046 3.53013C10.9046 3.53013 10.9261 3.57057 10.9411 3.58983C10.9226 3.58537 10.9068 3.56981 10.9046 3.53013ZM8.28864 5.44819C8.29195 5.402 8.29615 5.35212 8.30316 5.30682C8.32384 5.35096 8.33623 5.39702 8.32004 5.44793L8.28864 5.44819ZM6.85899 8.4706C6.83233 8.48375 6.83323 8.48004 6.85899 8.4706V8.4706ZM6.3843 9.77347C6.3843 9.77347 6.40917 9.76772 6.42117 9.76669C6.41938 9.7741 6.41582 9.7889 6.42334 9.80637L6.3843 9.77347ZM6.38692 10.0873C6.4294 10.0897 6.47291 10.1041 6.50086 10.1344C6.49907 10.1418 6.49729 10.1492 6.4964 10.1529C6.49015 10.1788 6.4839 10.2047 6.47855 10.2269C6.44895 10.2197 6.42304 10.2135 6.39255 10.2101L6.39062 10.0882L6.38692 10.0873ZM6.31218 10.2024C6.31218 10.2024 6.31526 10.2384 6.31909 10.255C6.2544 10.2472 6.29702 10.2653 6.28872 10.2672C6.29982 10.2699 6.31092 10.2726 6.32202 10.2753C6.32687 10.3038 6.33632 10.3296 6.34207 10.3545C6.31898 10.3528 6.28759 10.3531 6.2525 10.3525L6.34487 10.3591C6.34487 10.3591 6.3487 10.3757 6.35062 10.384C6.26016 10.3856 6.21219 10.3897 6.34972 10.3877C6.33033 10.3869 6.31464 10.387 6.29436 10.39C6.31835 10.3879 6.33314 10.3915 6.34883 10.3914C6.34883 10.3914 6.35165 10.396 6.35446 10.4005C6.29169 10.4011 6.25201 10.4032 6.22802 10.4053L6.2257 10.3499L6.23311 10.3517C6.23681 10.3526 6.24052 10.3535 6.24422 10.3544L6.2257 10.3499L6.22248 10.1847C6.24839 10.191 6.27799 10.1981 6.30389 10.2043L6.31218 10.2024ZM6.23172 10.4062C6.25852 10.4087 6.2899 10.4085 6.23083 10.4099L6.23172 10.4062ZM6.17916 10.4131L6.17648 10.4242C6.17648 10.4242 6.18298 10.4297 6.18209 10.4334L6.18388 10.426L6.17827 10.4168L6.17916 10.4131ZM6.18861 10.4389L6.1812 10.4371C6.1812 10.4371 6.18491 10.438 6.18861 10.4389ZM6.18402 10.4417C6.18402 10.4417 6.18771 10.4426 6.19141 10.4435C6.19333 10.4517 6.19894 10.4609 6.20175 10.4655C6.20175 10.4655 6.19805 10.4646 6.19436 10.4637C6.19436 10.4637 6.19805 10.4646 6.20175 10.4655C6.20175 10.4655 6.20455 10.4701 6.20736 10.4747C6.20736 10.4747 6.21018 10.4793 6.21299 10.4839C6.22039 10.4857 6.22957 10.4801 6.23697 10.4818L6.23876 10.4744C6.28673 10.4704 6.3227 10.4673 6.34579 10.4689C6.34209 10.468 6.33661 10.4746 6.33291 10.4737C6.30433 10.4785 6.27294 10.4788 6.24066 10.4827C6.24066 10.4827 6.22408 10.4866 6.21668 10.4848C6.21668 10.4848 6.21298 10.4839 6.20928 10.483C6.20188 10.4812 6.19639 10.4877 6.1918 10.4905L6.1923 10.4398L6.18402 10.4417ZM6.23928 10.5372C6.23928 10.5372 6.22332 10.506 6.2121 10.4876C6.2158 10.4885 6.22319 10.4903 6.23608 10.4855L6.23558 10.5363L6.23928 10.5372ZM6.52689 11.2604L6.5158 11.2577L6.50291 11.2625L6.78382 11.1853C6.69912 11.2119 6.6116 11.2339 6.53148 11.2576L6.52689 11.2604ZM7.0531 13.1374L7.04378 13.1274C7.03076 13.1164 7.04378 13.1274 7.05399 13.1337L7.06138 13.1355L7.06049 13.1392L7.0531 13.1374ZM7.29383 15.8736C7.27672 15.8146 7.25872 15.7594 7.25017 15.7299C7.25872 15.7594 7.2757 15.8026 7.29753 15.8745L7.29383 15.8736ZM7.37408 16.4176C7.38095 16.3566 7.3766 16.2772 7.36573 16.1924C7.43934 16.1631 7.51513 16.1736 7.51655 16.2327C7.46742 16.2091 7.4353 16.3423 7.37408 16.4176ZM8.3101 20.0535C8.41473 20.0905 8.51757 20.1348 8.61034 20.1885L8.3064 20.0526L8.3101 20.0535ZM9.43345 20.4771C9.40028 20.4847 9.3643 20.4878 9.33292 20.4881L9.31704 20.2454L9.36883 20.2579L9.38531 20.3519C9.38531 20.3519 9.36873 20.3557 9.35954 20.3614L9.39285 20.3694L9.37713 20.256L9.40302 20.2622L9.43345 20.4771ZM11.2753 17.1743L11.0035 17.2458L10.9924 17.2431L10.954 17.1751L10.946 16.997L11.099 17.077L11.2168 17.1406L11.2409 17.1542C11.2409 17.1542 11.2465 17.1634 11.2522 17.1726C11.2531 17.1689 11.2531 17.1689 11.2539 17.1652L11.2744 17.178L11.2753 17.1743ZM11.1539 17.0119C11.1539 17.0119 11.1623 17.0257 11.1679 17.0348C11.1651 17.0302 11.1586 17.0248 11.1567 17.0165C11.1567 17.0165 11.1567 17.0165 11.1576 17.0128L11.1539 17.0119ZM11.8386 16.2021L11.5463 16.1316L11.4734 15.9143L11.2846 16.0802L11.2735 16.0776L11.4667 15.8931L11.4393 15.8121C11.5027 15.7765 11.6064 15.7037 11.7101 15.6308L11.7864 15.5904L11.8111 15.569L11.8185 15.5708L11.939 15.5098L11.8409 15.5918L11.9329 15.6649L11.8349 16.2012L11.8386 16.2021ZM16.8963 11.7406L16.873 11.7232L16.8656 11.7214L16.8665 11.7177L16.9121 11.7561C16.9121 11.7561 16.9019 11.7498 16.8954 11.7443L16.8963 11.7406ZM19.593 9.99079C19.593 9.99079 19.6114 9.97956 19.6205 9.97394C19.6242 9.97483 19.6316 9.97662 19.6353 9.97751C19.6353 9.97751 19.639 9.9784 19.6418 9.98299C19.6179 9.98504 19.581 9.99181 19.5902 9.98619L19.593 9.99079ZM22.0859 7.05642L22.1314 7.07912L22.1425 7.0818L22.149 7.08728C22.1212 7.07275 22.0999 7.06369 22.0711 7.05286L22.0859 7.05642ZM23.5116 5.65791C23.5244 5.63749 23.5408 5.61797 23.5546 5.60954L23.5634 5.6704L23.5617 5.6778L23.5088 5.65331L23.5116 5.65791ZM24.7001 4.48016C24.6891 4.49318 24.6956 4.49866 24.6718 4.5164C24.6415 4.54435 24.6698 4.50811 24.6771 4.4942C24.6789 4.4868 24.6844 4.48029 24.6908 4.47009C24.6944 4.47098 24.6982 4.47187 24.7047 4.47735L24.7001 4.48016ZM24.6862 4.47289C24.8106 4.55771 24.7437 4.51026 24.6862 4.47289V4.47289ZM24.4743 2.10396C24.4743 2.10396 24.4745 2.11965 24.4773 2.12425C24.4734 2.10766 24.4659 2.09019 24.4612 2.0773L24.4424 2.04145L24.4442 2.03405C24.4498 2.04323 24.4554 2.05242 24.4611 2.06161C24.4695 2.07539 24.4714 2.08368 24.478 2.10485L24.4743 2.10396ZM23.5449 2.3536C23.5449 2.3536 23.5375 2.35181 23.5338 2.35092L23.5295 2.27157C23.5295 2.27157 23.5397 2.27795 23.5425 2.28254L23.5421 2.34901L23.5449 2.3536ZM23.2395 2.25645L23.2493 2.21575L23.2548 2.20924L23.2515 2.25543L23.2454 2.29702L23.24 2.31922L23.2284 2.25378L23.2395 2.25645ZM21.8414 2.64756C21.8414 2.64756 21.8434 2.67154 21.8453 2.67984C21.8268 2.67538 21.8111 2.67551 21.8 2.67283C21.8009 2.66913 21.8009 2.66913 21.8018 2.66543C21.7981 2.66454 21.7898 2.66645 21.7852 2.66926C21.7778 2.66748 21.7705 2.66569 21.7631 2.66391C21.7454 2.65575 21.737 2.64197 21.7267 2.6199C21.7237 2.59961 21.718 2.57474 21.7085 2.54897L21.7056 2.52868C21.8012 2.47342 21.8234 2.59232 21.8368 2.65037L21.8414 2.64756ZM20.8629 2.6622C20.8629 2.6622 20.8594 2.677 20.8585 2.6807C20.8585 2.6807 20.8603 2.6733 20.8629 2.6622ZM17.2022 2.95405C17.2022 2.95405 17.1784 2.97179 17.1655 2.97652L17.1642 2.93314L17.2022 2.95405ZM16.4464 2.87359C16.4662 2.92143 16.4898 2.98586 16.494 3.04952C16.4231 3.06766 16.3531 3.08209 16.2839 3.09282C16.287 3.01525 16.3205 2.94112 16.4464 2.87359ZM15.4444 2.93736C15.4444 2.93736 15.4251 2.95229 15.4113 2.96072C15.4251 2.95229 15.4334 2.95037 15.4426 2.94476C15.4381 2.96326 15.43 2.98087 15.4181 2.99759C15.4163 3.00499 15.4107 2.9958 15.4107 2.9958C15.3959 2.99223 15.3912 2.97935 15.3865 2.96646C15.3807 2.94158 15.3933 2.90547 15.418 2.86834C15.4282 2.87472 15.4347 2.8802 15.4514 2.89207C15.4478 2.90687 15.4443 2.92167 15.4407 2.93647L15.4444 2.93736ZM15.3729 2.66562L15.3747 2.65822C15.3747 2.65822 15.3875 2.6535 15.3921 2.65069C15.3988 2.67187 15.3805 2.69879 15.3761 2.71729C15.3743 2.72469 15.3734 2.72839 15.3716 2.73579C15.3716 2.73579 15.3679 2.7349 15.3642 2.73401L15.3637 2.67124L15.3729 2.66562ZM14.4904 3.11058C14.4904 3.11058 14.5032 3.10586 14.5106 3.10764C14.5291 3.1121 14.5515 3.13315 14.5738 3.15419C14.5729 3.1579 14.5683 3.1607 14.5637 3.16351L14.6102 3.1982C14.6102 3.1982 14.6317 3.23864 14.6421 3.26071C14.6329 3.26633 14.6209 3.26735 14.6117 3.27297L14.5225 3.20447C14.5033 3.21941 14.484 3.23434 14.4619 3.24468C14.4479 3.22172 14.4293 3.20156 14.4143 3.1823C14.4197 3.1601 14.4298 3.15078 14.437 3.13688L14.3971 3.10767C14.3971 3.10767 14.4199 3.07794 14.4253 3.05573L14.4912 3.10688L14.4904 3.11058ZM12.6684 3.26244L12.7441 3.27288C12.6795 3.26511 12.614 3.27674 12.557 3.30214C12.5965 3.28427 12.6352 3.2701 12.6684 3.26244ZM10.7593 3.27193C10.7939 3.32334 10.8341 3.38394 10.8706 3.44364C10.7965 3.4101 10.7051 3.41548 10.612 3.42826C10.631 3.38194 10.6767 3.32247 10.7593 3.27193ZM9.26129 3.5254C9.30136 3.5703 9.3482 3.65207 9.33954 3.72046C9.32754 3.72148 9.31926 3.7234 9.30356 3.72353C9.19933 3.73363 9.10607 3.73072 9.01829 3.7213C9.11103 3.66144 9.18986 3.59431 9.26219 3.5217L9.26129 3.5254ZM8.63054 4.16028C8.63054 4.16028 8.62429 4.18618 8.62161 4.19728L8.59468 4.17904L8.62964 4.16398L8.63054 4.16028Z" />
<path d="M13.9551 3.02459L14.009 3.06106C14.009 3.06106 14.0201 3.06374 14.0275 3.06552L13.9888 2.96614C13.9648 2.96819 13.9371 2.96934 13.9159 2.97598L13.9551 3.02459Z" />
<path d="M11.7974 15.5774L11.7661 15.5934L11.4455 15.8998L11.4522 15.921L11.8206 15.5948L11.7974 15.5774Z" />
<path d="M8.62807 3.97566L8.58571 3.98894C8.58571 3.98894 8.58124 4.00744 8.58316 4.01573L8.62271 3.99786C8.62271 3.99786 8.62539 3.98676 8.62718 3.97936L8.62807 3.97566Z" />
<path d="M6.61761 10.7381C6.61761 10.7381 6.61761 10.7381 6.62591 10.7362L6.60932 10.74L6.61672 10.7418L6.61761 10.7381Z" />
<path d="M6.29668 9.89329C6.29757 9.88959 6.29757 9.88959 6.29668 9.89329V9.89329Z" />
<path d="M8.55763 3.94302L8.5797 3.93268C8.56897 3.86353 8.55543 3.78979 8.54189 3.71605L8.53615 3.69117L8.57274 3.65302L8.35047 3.56809L8.45264 3.42046L8.62683 3.60733C8.65158 3.58589 8.67543 3.56815 8.691 3.55232C8.70108 3.54301 8.71026 3.53739 8.71205 3.52999L8.71383 3.52259L8.72787 3.54556C8.72225 3.53637 8.71752 3.52348 8.71191 3.5143C8.71663 3.52719 8.72225 3.53637 8.72787 3.54556C8.71663 3.52719 8.70999 3.50601 8.69965 3.48394C8.69965 3.48394 8.69966 3.48394 8.69685 3.47935C8.68459 3.44898 8.69212 3.46646 8.68562 3.46098C8.68192 3.46008 8.67082 3.45741 8.65232 3.45295C8.65767 3.43075 8.66303 3.40854 8.65728 3.38367C8.65817 3.37997 8.65626 3.37168 8.65345 3.36708L8.68268 3.44069C8.68268 3.44069 8.6874 3.45358 8.69021 3.45817C8.67515 3.42321 8.65626 3.37168 8.6223 3.28518C8.58362 3.1858 8.60149 3.22535 8.59868 3.22076C8.59868 3.22076 8.59141 3.23466 8.58311 3.23658C8.55926 3.25432 8.50594 3.28061 8.42799 3.34404L8.20604 3.5176L8.10511 3.48152L8.04997 3.95372C8.03203 4.12558 8.03615 4.2871 8.12548 4.37129L8.25737 4.24648C8.23404 4.32699 8.11243 4.24677 8.0795 4.17227L8.20733 4.11304C8.16547 4.07554 8.13994 4.00282 8.1107 3.92921L8.23748 3.74444C8.25957 3.84765 8.27989 3.95826 8.29561 4.07168L8.31309 4.06415L8.32048 4.06593L8.58941 3.98983C8.58941 3.98983 8.58736 3.96585 8.58633 3.95385L8.56044 3.94761L8.55763 3.94302ZM8.06725 4.14191C8.05383 4.08386 8.05995 4.04226 8.06887 4.00526C8.06927 4.05234 8.06877 4.10312 8.07286 4.15109L8.06725 4.14191Z" />
<path d="M6.16055 9.95443L6.16014 9.7938C6.15058 9.86589 6.15467 9.91386 6.16055 9.95443Z" />
<path d="M7.61205 19.9282L7.56359 19.9831L7.90908 20.0116L7.91533 19.9857L7.61205 19.9282Z" />
<path d="M15.2103 2.65775C15.2103 2.65775 15.1842 2.62012 15.1481 2.60749C15.1528 2.62038 15.1797 2.63862 15.2103 2.65775Z" />
<path d="M13.7517 2.65055C13.6583 2.63195 13.5631 2.62074 13.467 2.61324C13.5918 2.63158 13.6796 2.641 13.7517 2.65055Z" />
<path d="M12.8785 2.89418C12.8307 2.91397 12.8096 2.9363 12.7932 2.95582L12.7969 2.95672C12.8216 2.93528 12.851 2.91103 12.8794 2.89049L12.8785 2.89418Z" />
<path d="M25.9274 3.31963C25.9274 3.31963 25.9129 3.34745 25.9093 3.36225C25.8816 3.47695 25.9106 3.40563 25.9274 3.31963Z" />
<path d="M22.59 7.06052L22.5891 7.06422L22.5928 7.06511L22.59 7.06052Z" />
<path d="M7.83629 4.01182L7.8044 4.06286C7.8044 4.06286 7.82852 4.07651 7.83503 4.08199L7.83629 4.01182Z" />
<path d="M7.83414 4.0857L7.83289 4.15587C7.84373 4.12716 7.85366 4.10215 7.83414 4.0857Z" />
<path d="M7.82857 4.30361L7.83289 4.15587C7.81478 4.19849 7.78569 4.25411 7.82857 4.30361Z" />
<path d="M9.96594 3.00623C9.8034 2.99836 9.53864 2.91102 9.42116 2.99232L9.42168 3.05509C9.44743 2.93209 9.82219 3.14775 9.96594 3.00623Z" />
<path d="M0.135724 8.05136C0.135724 8.05136 0.139557 8.06794 0.140581 8.07994C0.151552 8.06692 0.158822 8.05301 0.1652 8.0428L0.132659 8.01538C0.132659 8.01538 0.131006 8.03847 0.13203 8.05047L0.135724 8.05136Z" />
<path d="M6.47698 11.1427C6.47698 11.1427 6.48808 11.1454 6.49178 11.1462L6.50096 11.1406C6.50096 11.1406 6.48438 11.1445 6.47698 11.1427Z" />
<path d="M0.76778 15.8543C0.76778 15.8543 0.777091 15.8643 0.776198 15.868L0.797116 15.83L0.768672 15.8506L0.76778 15.8543Z" />
<path d="M0.776198 15.868L0.755288 15.9061C0.755288 15.9061 0.780924 15.8809 0.776198 15.868Z" />
<path d="M0.755288 15.9061C0.734238 15.9284 0.705794 15.9489 0.712561 15.9858L0.755288 15.9061Z" />
<path d="M2.90148 14.6695C3.22347 14.5357 2.78958 14.6465 3.04534 14.4301L2.83613 14.5833C2.8989 14.5828 2.97737 14.5821 2.90148 14.6695Z" />
<path d="M3.71926 13.9897C3.75636 13.9008 3.76542 13.8795 3.66425 13.9255C3.57561 14.0334 3.70521 13.9667 3.71926 13.9897Z" />
<path d="M16.2925 2.24528L16.1868 2.18062C16.1476 2.24557 16.2307 2.35565 16.2925 2.24528Z" />
<path d="M15.5616 0.502903C15.5177 0.441418 15.3974 0.404571 15.3249 0.461492C15.421 0.468995 15.5109 0.518097 15.5616 0.502903Z" />
<path d="M3.07862 0.961737L2.92579 1.01102L3.00055 1.00947L3.07862 0.961737Z" />
</svg>
