{"buffers":[{"uri":"collage otra pureba v14.bin","byteLength":1054044}],"asset":{"version":"2.0","generator":"gltfpack 0.16"},"bufferViews":[{"buffer":0,"byteOffset":0,"byteLength":418872,"byteStride":12,"target":34962},{"buffer":0,"byteOffset":418872,"byteLength":418872,"byteStride":12,"target":34962},{"buffer":0,"byteOffset":837744,"byteLength":216300,"target":34963}],"accessors":[{"bufferView":0,"byteOffset":0,"componentType":5126,"count":34906,"type":"VEC3","min":[-20.3474503,-28.3999901,-7],"max":[20.7459297,25.8575897,10.1999903]},{"bufferView":1,"byteOffset":0,"componentType":5126,"count":34906,"type":"VEC3"},{"bufferView":2,"byteOffset":0,"componentType":5123,"count":108150,"type":"SCALAR"}],"materials":[{"pbrMetallicRoughness":{"baseColorFactor":[1,1,1,0.196078435],"metallicFactor":0},"alphaMode":"BLEND","doubleSided":true}],"meshes":[{"primitives":[{"attributes":{"POSITION":0,"NORMAL":1},"mode":4,"indices":2,"material":0}]}],"nodes":[{"mesh":0},{"children":[0]}],"scenes":[{"nodes":[1]}]}